<?xml version="1.0" standalone="no"?>
<!DOCTYPE svg PUBLIC "-//W3C//DTD SVG 1.1//EN" "http://www.w3.org/Graphics/SVG/1.1/DTD/svg11.dtd" >
<svg>
<metadata>
Created by FontForge 20090914 at Tue Nov 21 12:06:56 2017
 By www-data
Copyright (C) 1993; Type Market Ltd. Moscow, 119136, Box 20; phone:(095)1427712; Created by A.Kustov
</metadata>
<defs>
<font id="EuropeBold" horiz-adv-x="2949" >
  <font-face 
    font-family="Europe"
    font-weight="700"
    font-stretch="normal"
    units-per-em="4096"
    panose-1="2 11 -30 0 0 0 0 0 0 0"
    ascent="3276"
    descent="-820"
    x-height="2150"
    cap-height="3072"
    bbox="-127 -954.001 5190 3924"
    underline-thickness="75"
    underline-position="-76"
    unicode-range="U+0020-U+2122"
  />
<missing-glyph horiz-adv-x="3072" 
d="M512 0v2560h2048v-2560h-2048zM2494 66v2428h-1916v-2428h1916z" />
    <glyph glyph-name=".notdef" horiz-adv-x="3072" 
d="M512 0v2560h2048v-2560h-2048zM2494 66v2428h-1916v-2428h1916z" />
    <glyph glyph-name="space" unicode=" " horiz-adv-x="1475" 
 />
    <glyph glyph-name="exclam" unicode="!" horiz-adv-x="1430" 
d="M1049 713v-713h-664v713h664zM1098 3072l-29 -1864h-704l-29 1864h762z" />
    <glyph glyph-name="quotedbl" unicode="&#x22;" horiz-adv-x="1810" 
d="M168 3072h565v-532l-172 -529h-221l-172 529v532zM1077 3072h565v-532l-172 -529h-221l-172 529v532z" />
    <glyph glyph-name="numbersign" unicode="#" 
d="M1155 3072h434l-159 -860h413l160 860h430l-160 -860h328v-471h-401l-99 -533h385v-471h-483l-135 -737h-434l135 737h-414l-135 -737h-434l135 737h-373v471h463l98 533h-393v471h479zM1343 1741l-98 -533h418l106 533h-426z" />
    <glyph glyph-name="dollar" unicode="$" 
d="M1266 1892l397.004 -37.001c230.667 -17.333 410.5 -36.333 539.5 -57s243.5 -59.334 343.5 -116.001s176.5 -142.167 229.5 -256.5s79.5 -270.166 79.5 -467.499c0 -188.667 -22.167 -346 -66.5 -472s-114.166 -226.5 -209.5 -301.5
c-95.333 -75 -217.666 -128.667 -367 -161c-149.333 -32.333 -332.333 -48.5 -549 -48.5v-376h-397v376c-206 0 -378.833 13.5 -518.5 40.5s-258.334 76.833 -356.001 149.5s-171.667 177.5 -222 314.5s-75.5 314.5 -75.5 532.5h737c0 -123.333 14.333 -213.166 43 -269.499
s71.667 -91.833 129 -106.5s145 -22 263 -22h397c122 0 212.167 5 270.5 15s103.666 37.333 135.999 82s48.5 117.667 48.5 219c0 77.333 -11.167 135.166 -33.5 173.499s-64.5 66.666 -126.5 84.999s-160.333 33.166 -295 44.499l-397 29
c-252.667 17.333 -452.334 44.333 -599.001 81s-258.334 88 -335.001 154s-128.667 150.333 -156 253s-41 237.334 -41 404.001c0 262 34.5 459.833 103.5 593.5s183.167 225.334 342.5 275c159.333 49.667 387.666 74.5 684.999 74.5v335h397v-335
c192.667 -10.667 349.834 -27.167 471.501 -49.5s229.5 -64 323.5 -125s166.667 -153.333 218 -277s77 -287.5 77 -491.5h-717c0 130.667 -25.833 214 -77.5 250s-150.167 54 -295.5 54h-397c-96 0 -171.167 -6.5 -225.5 -19.5s-96 -41.167 -125 -84.5
s-43.5 -110 -43.5 -200c0 -54 5.66699 -97.5 17 -130.5s31 -58.167 59 -75.5s65.5 -29.666 112.5 -36.999s115.5 -13.666 205.5 -18.999z" />
    <glyph glyph-name="percent" unicode="%" horiz-adv-x="3715" 
d="M3039 3072l-1814 -3072h-492l1815 3072h491zM3621 983v-451c-2.66699 -160.667 -26.5 -280.667 -71.5 -360s-113.833 -132 -206.5 -158s-225.334 -39 -398 -39c-130 0 -234 6.33301 -312 19s-141.833 37.5 -191.5 74.5s-86.667 92.5 -111 166.5
s-37.833 171.667 -40.5 293v451c2.66699 122 16.167 220 40.5 294s61.166 130 110.5 168c49.333 38 112.5 63.333 189.5 76s180.5 19 310.5 19c174 0 307.5 -12.5 400.5 -37.5s162.167 -77 207.5 -156s69.333 -198.833 72 -359.5zM3211 594v339.999
c0 81.333 -7.16699 138.666 -21.5 171.999s-38 54 -71 62s-92.167 12 -177.5 12c-77.333 0 -130.833 -4 -160.5 -12s-50.667 -29 -63 -63s-18.5 -91 -18.5 -171v-340c0 -85.333 6.16699 -146.166 18.5 -182.499s33.333 -58.666 63 -66.999s83.167 -12.5 160.5 -12.5
c80.667 0 137.834 4.33301 171.5 13c33.667 8.66699 58.5 31.167 74.5 67.5s24 96.833 24 181.5zM1425 2544l0.000976562 -451c-2.66699 -160 -26.5 -279.833 -71.5 -359.5s-113.667 -132.5 -206 -158.5s-224.833 -39 -397.5 -39c-129.333 0 -233.5 6.5 -312.5 19.5
s-143.333 38.167 -193 75.5s-86.5 92.5 -110.5 165.5s-37.333 170.5 -40 292.5v451c2.66699 122 16.167 220 40.5 294s61.166 130 110.499 168s112.5 63.333 189.5 76s180.5 19 310.5 19c174 0 307.5 -12.5 400.5 -37.5s162.167 -77 207.5 -156s69.333 -198.833 72 -359.5z
M1016 2154l-0.00292969 339.999c0 81.333 -7.16699 138.666 -21.5 171.999s-38.166 54 -71.499 62s-92.666 12 -177.999 12c-76.667 0 -129.834 -4 -159.501 -12s-50.667 -29 -63 -63s-18.5 -91 -18.5 -171v-340c0 -85.333 6.16699 -146.166 18.5 -182.499
s33.333 -58.666 63 -66.999s82.834 -12.5 159.501 -12.5c80.667 0 137.834 4.33301 171.501 13s58.667 31 75 67s24.5 96.667 24.5 182z" />
    <glyph glyph-name="ampersand" unicode="&#x26;" horiz-adv-x="3170" 
d="M2748 0l-282.002 253.997c-63.333 -86.667 -142.666 -150.167 -237.999 -190.5s-193.333 -65.166 -294 -74.499s-226.667 -14 -378 -14c-227.333 0 -417.5 10.333 -570.5 31s-287 63.334 -402 128.001s-204.167 162.834 -267.5 294.501s-95 305.5 -95 521.5
c0 236 37.833 428 113.5 576s219.5 223.667 431.5 227c-96 84 -159 159.5 -189 226.5s-45 164.833 -45 293.5c0 172 21 312.833 63 422.5s105.167 193.334 189.5 251c84.333 57.667 187.5 97.167 309.5 118.5s276 32 462 32c193.333 0 353.5 -10 480.5 -30
s233.667 -58.333 320 -115s152 -141.167 197 -253.5s67.5 -259.5 67.5 -441.5v-156h-704c0 174.667 -17.667 281.334 -53 320c-40 43.333 -142.667 65 -308 65c-105.333 0 -176.666 -18 -213.999 -54s-56 -108 -56 -216c0 -64 12.667 -117 38 -159s67.333 -90 126 -144
l754 -672v406h651v-603c0 -93.333 -27.333 -193 -82 -299l340 -307zM1978 691.997l-815 705c-82.667 -8.66699 -134.667 -44.667 -156 -108s-32 -149 -32 -257c0 -98 12.5 -175 37.5 -231s61.333 -96.167 109 -120.5s102.667 -39.333 165 -45s152.166 -8.5 269.499 -8.5
c188.667 0 329.334 21.667 422.001 65z" />
    <glyph glyph-name="quotesingle" unicode="'" horiz-adv-x="901" 
d="M168 3072h565v-532l-172 -529h-221l-172 529v532z" />
    <glyph glyph-name="parenleft" unicode="(" horiz-adv-x="1577" 
d="M233 688l0.000976562 1081c4 286 13.333 497.5 28 634.5s55 259.333 121 367s174.5 189 325.5 244s362.833 82.5 635.5 82.5v-672c-98.667 0 -171.667 -19 -219 -57s-77.833 -92.667 -91.5 -164s-20.5 -171 -20.5 -299v-1327c0 -116 5.66699 -208.333 17 -277
s41 -126.5 89 -173.5s123 -70.5 225 -70.5v-671c-264.667 0 -471.334 23.167 -620.001 69.5s-258 119.333 -328 219s-114.5 224.667 -133.5 375s-28.5 363.166 -28.5 638.499z" />
    <glyph glyph-name="parenright" unicode=")" horiz-adv-x="1577" 
d="M1343 1769v-1081c0 -275.333 -9.16699 -488 -27.5 -638s-62.5 -275 -132.5 -375s-179.5 -173.167 -328.5 -219.5s-356.167 -69.5 -621.5 -69.5v671c102 0 177.167 23.5 225.5 70.5s78.166 104.833 89.499 173.5s17 161 17 277v1327
c0 127.333 -6.66699 226.833 -20 298.499c-13.333 71.667 -44 126.5 -92 164.5s-121.333 57 -220 57v672c272 0 484 -27.667 636 -83s261 -136.666 327 -244c66 -107.333 106.333 -231.166 121 -371.5c14.667 -140.333 23.334 -350.166 26.001 -629.5z" />
    <glyph glyph-name="asterisk" unicode="*" 
d="M2314 2310l-512 -160l307 -438l-299 -229l-319 459l-344 -455l-311 225l319 442l-520 189l131 360l516 -184v553h381v-553l532 184z" />
    <glyph glyph-name="plus" unicode="+" horiz-adv-x="2458" 
d="M991 1368v782h471v-782h791v-471h-791v-815h-471v815h-786v471h786z" />
    <glyph glyph-name="comma" unicode="," horiz-adv-x="1475" 
d="M389 688h664v-688c0 -145.333 -20.167 -259.666 -60.5 -342.999s-111.333 -144 -213 -182s-245.5 -57 -431.5 -57v303c116 0 194.167 20.167 234.5 60.5s60.5 113.166 60.5 218.499h-254v688z" />
    <glyph glyph-name="minus" unicode="-" horiz-adv-x="2458" 
d="M205 897v471h2048v-471h-2048z" />
    <glyph glyph-name="period" unicode="." horiz-adv-x="1475" 
d="M1032 713v-713h-663v713h663z" />
    <glyph glyph-name="slash" unicode="/" horiz-adv-x="2609" 
d="M2490 3072l-1806 -3535h-561l1806 3535h561z" />
    <glyph glyph-name="zero" unicode="0" 
d="M1475 3097c205.333 0 376.669 -9.16895 514.002 -27.502s264.666 -62 381.999 -131s210.333 -177.167 279 -324.5s103 -345.666 103 -594.999v-966c0 -248 -34.333 -446.167 -103 -594.5s-161.167 -256.666 -277.5 -324.999s-244.833 -111.833 -385.5 -130.5
s-311.334 -28 -512.001 -28c-271.333 0 -494.833 20.333 -670.5 61s-320.834 139.5 -435.501 296.5s-172 397.167 -172 720.5v966c0 323.333 57.333 563.5 172 720.5s259.834 255.833 435.501 296.5s399.167 61 670.5 61zM1475 2421c-122 0 -211 -3.83301 -267 -11.5
s-101.333 -27.334 -136 -59c-34.667 -31.667 -59.5 -83.167 -74.5 -154.5s-22.5 -174 -22.5 -308v-704c0 -133.333 7.5 -235.666 22.5 -306.999s39.667 -122.833 74 -154.5s80.833 -51.5 139.5 -59.5s146.667 -12 264 -12s205.166 4 263.499 12s105 27.833 140 59.5
s59.667 83.167 74 154.5s21.5 173.666 21.5 306.999v704c0 134 -7.16699 236.667 -21.5 308s-39.166 122.833 -74.499 154.5s-80.833 51.334 -136.5 59c-55.667 7.66699 -144.5 11.5 -266.5 11.5z" />
    <glyph glyph-name="one" unicode="1" 
d="M2286 3072v-3072h-820v2347l-794 -725l-463 524l1118 926h959z" />
    <glyph glyph-name="two" unicode="2" 
d="M2679 639l0.000976562 -638.997h-2425v639c0 186 13.5 333.333 40.5 442s77.5 198 151.5 268s179 129.667 315 179s327.333 102.666 574 159.999c213.333 50 349.666 85.167 408.999 105.5s99.5 51.833 120.5 94.5s31.5 119.334 31.5 230.001
c0 102.667 -12.833 177.667 -38.5 225s-67.834 78.333 -126.501 93s-147 22 -265 22c-133.333 0 -228.333 -7.16699 -285 -21.5s-95.334 -46 -116.001 -95s-31.667 -129.167 -33 -240.5v-151h-778v151c0 206 25.833 374.333 77.5 505s128.334 231.5 230.001 302.5
s225.334 120.167 371.001 147.5s323.5 41 533.5 41c274 0 495.667 -22.167 665 -66.5s302.333 -137 399 -278s145 -348.5 145 -622.5c0 -175.333 -13.833 -316.666 -41.5 -423.999s-73 -194.833 -136 -262.5s-145.5 -123.834 -247.5 -168.501
s-241.667 -91.334 -419 -140.001c-91.333 -24.667 -208.833 -52.167 -352.5 -82.5s-241.5 -56.333 -293.5 -78s-90.5 -57.334 -115.5 -107.001s-37.5 -125.834 -37.5 -228.501h1647z" />
    <glyph glyph-name="three" unicode="3" 
d="M1470 1274l-195.996 -0.00195312v594h196c132.667 0 229 6.33301 289 19s98.667 35.667 116 69s26 87.333 26 162c0 98 -7.5 168.833 -22.5 212.5s-52.333 75.834 -112 96.5c-59.667 20.667 -158.5 31 -296.5 31c-120 0 -207.5 -5.83301 -262.5 -17.5
s-97.333 -42.834 -127 -93.5c-29.667 -50.667 -44.5 -132.667 -44.5 -246v-61h-778v106c0 280 47.167 488.5 141.5 625.5s227.166 225.5 398.499 265.5s407.666 60 708.999 60c162 0 305.833 -7.66699 431.5 -23s245.167 -49.666 358.5 -103
c113.333 -53.333 205.333 -137.166 276 -251.5c70.667 -114.333 106 -264.5 106 -450.5c0 -195.333 -35 -353.666 -105 -474.999s-192 -193.666 -366 -216.999v-33c338.667 -14 508 -233.667 508 -659c0 -193.333 -29.333 -350.5 -88 -471.5
s-140.834 -212.833 -246.501 -275.5s-229.167 -105.5 -370.5 -128.5s-309.333 -34.5 -504 -34.5c-210.667 0 -387.667 9 -531 27s-272.5 58.167 -387.5 120.5s-204.333 157.333 -268 285s-95.5 296.167 -95.5 505.5v164h779v-102c0 -108.667 18 -189.167 54 -241.5
s85.5 -85.333 148.5 -99s150.833 -20.5 263.5 -20.5c128 0 222.667 6.83301 284 20.5s107.166 46.667 137.499 99s45.5 136.833 45.5 253.5c0 77.333 -9.5 135.333 -28.5 174s-61.833 67.167 -128.5 85.5s-170 27.5 -310 27.5z" />
    <glyph glyph-name="four" unicode="4" 
d="M2531 3072v-1872h262v-594h-262v-606h-778v606h-1606v877l1176 1589h1208zM1753 1200v1241h-29l-933 -1241h962z" />
    <glyph glyph-name="five" unicode="5" 
d="M266 893l778.003 -0.000976562c8 -118.667 42.333 -194.834 103 -228.501s157.667 -50.5 291 -50.5c136.667 0 234.834 6.83301 294.501 20.5s103.334 48.5 131.001 104.5s41.5 149.667 41.5 281c0 148.667 -7.66699 253.167 -23 313.5s-54.333 103 -117 128
s-171.667 37.5 -327 37.5c-103.333 0 -177.333 -2.16699 -222 -6.5s-80.834 -17 -108.501 -38s-48.834 -55.167 -63.501 -102.5h-704v1720h2220v-594h-1516v-590c68.667 72.667 129 124.5 181 155.5s111.667 50.5 179 58.5s172.666 12 315.999 12
c188 0 343.667 -19.167 467 -57.5s221.333 -97.666 294 -177.999s124.5 -182.666 155.5 -306.999s46.5 -279.5 46.5 -465.5c0 -244.667 -23.167 -441 -69.5 -589s-117.833 -261 -214.5 -339s-221.334 -131.333 -374.001 -160s-348.334 -43 -587.001 -43
c-200.667 0 -371.334 13 -512.001 39s-259.167 72.167 -355.5 138.5s-169.666 159 -219.999 278s-78.5 273.167 -84.5 462.5z" />
    <glyph glyph-name="six" unicode="6" 
d="M1405 1225c-110 0 -191.499 -6 -244.499 -18s-91 -37.167 -114 -75.5s-34.5 -97.5 -34.5 -177.5c0 -100 9.16699 -173 27.5 -219s54.166 -77.667 107.499 -95s139.333 -26 258 -26c160 0 271.833 6.83301 335.5 20.5s106.334 44 128.001 91s32.5 128.833 32.5 245.5
c0 82.667 -15.667 141.667 -47 177s-78.333 57 -141 65s-165.334 12 -308.001 12zM2703 2134l-778.001 0.000976562c0 99.333 -14 172 -42 218s-70.333 75.167 -127 87.5s-142.334 18.5 -257.001 18.5c-140.667 0 -242.334 -7.66699 -305.001 -23s-108 -52.5 -136 -111.5
s-42 -156.167 -42 -291.5v-488h8c32.667 98.667 74.834 171.334 126.501 218.001s108.334 75.334 170.001 86.001s148.5 16 260.5 16c203.333 0 369.333 -9.33301 498 -28s237.834 -57.334 327.501 -116.001s157.5 -146.834 203.5 -264.501s69 -275.167 69 -472.5
c0 -212.667 -24.333 -385 -73 -517s-121 -233.333 -217 -304s-216 -119.5 -360 -146.5s-320.667 -40.5 -530 -40.5c-262.667 0 -473.5 17 -632.5 51s-284.5 95.167 -376.5 183.5s-157 211.666 -195 369.999s-57 370.833 -57 637.5v770c0 311.333 42.333 546.5 127 705.5
s215.667 266.167 393 321.5s424.333 83 741 83c262 0 475.5 -15.667 640.5 -47s300.167 -107.666 405.5 -229c105.333 -121.333 158 -306.666 158 -556v-131z" />
    <glyph glyph-name="seven" unicode="7" 
d="M2556 3072v-688l-1020 -2384h-860l1040 2384h-1478v688h2318z" />
    <glyph glyph-name="eight" unicode="8" 
d="M1466 1266c-134 0 -232.166 -7.33203 -294.499 -21.999s-105.833 -44.5 -130.5 -89.5s-37 -117.167 -37 -216.5c0 -89.333 14 -157 42 -203s74 -77.667 138 -95s158 -26 282 -26c154.667 0 264.667 9 330 27s106.666 48.667 123.999 92s26 115.666 26 216.999
c0 100 -10.667 171 -32 213s-63.333 69.667 -126 83s-170 20 -322 20zM1475 2458c-119.333 0 -207.166 -6.83496 -263.499 -20.502s-95.5 -42 -117.5 -85s-33 -110.5 -33 -202.5c0 -85.333 13.5 -148.666 40.5 -189.999s68.5 -68.333 124.5 -81s139 -19 249 -19
c122.667 0 213 6.83301 271 20.5s98.333 42.834 121 87.501s34 115 34 211c0 78.667 -8.5 136.5 -25.5 173.5s-54.833 63.833 -113.5 80.5s-154.334 25 -287.001 25zM782.001 1556v28.999c-182 46 -310.667 124.333 -386 235s-113 266 -113 466
c0 178.667 32.167 323.334 96.5 434c64.333 110.667 151.166 192.667 260.499 246s231.333 88.5 366 105.5s291 25.5 469 25.5c199.333 0 365.833 -8.33301 499.5 -25s253.834 -52.5 360.5 -107.5c106.667 -55 190.667 -140.667 252 -257s92 -269.166 92 -458.5
c0 -142.667 -13 -254 -39 -334s-71.5 -144.5 -136.5 -193.5s-162.167 -94.5 -291.5 -136.5v-29c341.333 -45.333 512 -281.333 512 -708c0 -194 -31.5 -350.667 -94.5 -470s-150.167 -207.666 -261.5 -264.999s-237.166 -94.666 -377.5 -111.999
c-140.333 -17.333 -312.166 -26 -515.499 -26c-261.333 0 -479.833 19.167 -655.5 57.5s-318.667 121.166 -429 248.499s-165.5 316.333 -165.5 567c0 192.667 47 357 141 493s232.667 207.667 416 215z" />
    <glyph glyph-name="nine" unicode="9" 
d="M1532 1847c110 0 191.502 6 244.502 18s91 37.167 114 75.5s34.5 97.5 34.5 177.5c0 100 -9.16699 173 -27.5 219s-54.166 77.667 -107.499 95s-139.333 26 -258 26c-160 0 -271.833 -6.83301 -335.5 -20.5s-106.334 -44 -128.001 -91s-32.5 -128.833 -32.5 -245.5
c0 -82.667 15.667 -141.667 47 -177s78.166 -57 140.499 -65s165.166 -12 308.499 -12zM233.002 938l779 0.00390625c0 -99.333 14 -172 42 -218s70.333 -75.167 127 -87.5s142.334 -18.5 257.001 -18.5c140 0 241.5 7.66699 304.5 23s108.5 52.5 136.5 111.5
s42 156.167 42 291.5v488h-8c-34 -98.667 -76.5 -171.334 -127.5 -218.001s-107.333 -75.334 -169 -86.001s-148.5 -16 -260.5 -16c-203.333 0 -369.5 9.66699 -498.5 29s-238.167 58.166 -327.5 116.499s-157 147 -203 266s-69 275.5 -69 469.5
c0 278 42.333 489.667 127 635s210.834 243.833 378.501 295.5s392.5 77.5 674.5 77.5c264 0 475.333 -16.833 634 -50.5s283.667 -94.167 375 -181.5s156.166 -211 194.5 -371c38.333 -160 57.5 -373 57.5 -639v-770c0 -236.667 -24 -427.667 -72 -573
s-121.833 -256.833 -221.5 -334.5s-225.834 -130.834 -378.5 -159.501c-152.667 -28.667 -349 -43 -589 -43c-196.667 0 -360.834 7.16699 -492.501 21.5s-251.834 48.333 -360.501 102s-194.5 137.667 -257.5 252s-94.5 266.5 -94.5 456.5v131z" />
    <glyph glyph-name="colon" unicode=":" horiz-adv-x="1475" 
d="M1032 713v-713h-663v713h663zM1032 2150v-712h-663v712h663z" />
    <glyph glyph-name="semicolon" unicode=";" horiz-adv-x="1475" 
d="M348 -582v307.999c78.667 1.33301 139 10.5 181 27.5s71.5 44.833 88.5 83.5s25.5 93 25.5 163h-254v688h664v-688c0 -146.667 -21.333 -261.667 -64 -345s-115 -143.666 -217 -180.999s-243.333 -56 -424 -56zM1053 2150v-712h-664v712h664z" />
    <glyph glyph-name="less" unicode="&#x3c;" horiz-adv-x="2458" 
d="M2253 2150v-524l-1385 -487v-9l1385 -487v-524l-2048 770v491z" />
    <glyph glyph-name="equal" unicode="=" horiz-adv-x="2458" 
d="M205 1839h2048v-471h-2048v471zM205 897h2048v-471h-2048v471z" />
    <glyph glyph-name="greater" unicode="&#x3e;" horiz-adv-x="2458" 
d="M205 2150l2048 -770v-491l-2048 -770v524l1384 487v9l-1384 487v524z" />
    <glyph glyph-name="question" unicode="?" horiz-adv-x="2478" 
d="M1192 1888l147.002 69.998c56.667 27.333 102.167 53 136.5 77s61.833 57.667 82.5 101s31 100 31 170c0 102.667 -24.5 170 -73.5 202s-133.5 48 -253.5 48c-124.667 0 -217.334 -15.667 -278.001 -47s-91 -99 -91 -203v-127h-705v127c4 222.667 48 391.5 132 506.5
s200.667 191.167 350 228.5s346.666 56 591.999 56c235.333 0 425.5 -18.833 570.5 -56.5s258.167 -114.167 339.5 -229.5s122 -283.666 122 -504.999c0 -173.333 -18.667 -309.5 -56 -408.5s-96.166 -178.5 -176.5 -238.5c-80.333 -60 -200.833 -125.667 -361.5 -197
c-84.667 -35.333 -142.667 -71 -174 -107s-47 -85 -47 -147v-123h-705v123c0 134.667 9 238.667 27 312s56 137.333 114 192s150.333 113.334 277 176.001zM1458 712.998v-713h-663v713h663z" />
    <glyph glyph-name="at" unicode="@" horiz-adv-x="3113" 
d="M1192 1438c0 -65.333 12.334 -125.669 37.001 -181.002s60.667 -99.166 108 -131.499s102.666 -48.5 165.999 -48.5c82 0 154.667 21 218 63s112.5 98 147.5 168s52.5 144.667 52.5 224c0 102.667 -29.667 186.334 -89 251.001s-139 97 -239 97
c-75.333 0 -143.5 -21.5 -204.5 -64.5s-109 -99 -144 -168s-52.5 -138.833 -52.5 -209.5zM2040 2073l40.9951 208.003h389l-201 -1196c-2 -16 -4.5 -32.167 -7.5 -48.5s-4.5 -30.166 -4.5 -41.499c0 -38 20.333 -57 61 -57c59.333 0 120.166 32.5 182.5 97.5
c62.333 65 113.833 154.667 154.5 269s61 242.166 61 383.499c0 215.333 -47.167 401.5 -141.5 558.5s-225.166 276.5 -392.5 358.5c-167.333 82 -355.333 123 -564 123c-169.333 0 -324.666 -30.167 -465.999 -90.5s-262.666 -145.166 -363.999 -254.5
c-101.333 -109.333 -178.833 -237.333 -232.5 -384s-80.5 -303.667 -80.5 -471c0 -177.333 29.833 -339.5 89.5 -486.5s144.334 -272.5 254.001 -376.5s238.834 -183.5 387.501 -238.5s309.334 -82.5 482.001 -82.5c284.667 0 545.334 91.333 782.001 274h405
c-312 -428.667 -718.667 -643 -1220 -643c-290.667 0 -557.5 67.167 -800.5 201.5s-435.167 320.166 -576.5 557.499s-212 502 -212 794c0 287.333 69.167 551.166 207.5 791.499s327.666 430 567.999 569s503.166 208.5 788.499 208.5c170.667 0 341.667 -32 513 -96
s325 -153.5 461 -268.5s244.667 -251 326 -408s122 -324.167 122 -501.5c0 -204 -46.667 -397.833 -140 -581.5s-218.833 -331.334 -376.5 -443.001s-326.834 -167.5 -507.5 -167.5c-70.667 0 -128 17.333 -172 52s-66 84 -66 148l-8 9
c-50 -58 -111.167 -104.667 -183.5 -140s-142.166 -53 -209.499 -53c-118 0 -230.333 32.667 -337 98s-192 153.5 -256 264.5s-96 231.833 -96 362.5c0 162 35 315.667 105 461s168.833 261.833 296.5 349.5s272.5 131.5 434.5 131.5c218.667 0 386.667 -80.333 504 -241z
" />
    <glyph glyph-name="A" unicode="A" horiz-adv-x="3002" 
d="M2056 528h-1102l-151 -528h-852l921 3072h1246l934 -3072h-836zM1892 1126l-381 1332h-8l-373 -1332h762z" />
    <glyph glyph-name="B" unicode="B" horiz-adv-x="3023" 
d="M246 0v3072h1614c222 0 402.167 -20 540.5 -60s244.5 -117.333 318.5 -232s111 -279.334 111 -494.001c0 -143.333 -12.667 -261.833 -38 -355.5s-73.333 -170.667 -144 -231s-171 -101.166 -301 -122.499v-33c144 -8.66699 255 -42.167 333 -100.5
s130.667 -134.833 158 -229.5s41 -214 41 -358c0 -242 -37 -425 -111 -549s-181 -206.167 -321 -246.5s-330.333 -60.5 -571 -60.5h-1630zM1065 2400l0.00195312 -556.998h590c101.333 0 176.166 7.66699 224.499 23s82.333 43.666 102 84.999s29.5 103.666 29.5 186.999
c0 98 -16.833 166.167 -50.5 204.5s-102.834 57.5 -207.501 57.5h-688zM1065 1274l0.000976562 -602h618c92 0 165.167 8.66699 219.5 26s94.166 48.5 119.499 93.5s38 108.833 38 191.5c0 122 -25 201 -75 237s-145 54 -285 54h-635z" />
    <glyph glyph-name="C" unicode="C" horiz-adv-x="2982" 
d="M2003 1163l844 -0.00390625v-90c0 -110.667 -2.16699 -201.167 -6.5 -271.5s-15.333 -141.666 -33 -213.999s-45.5 -140.333 -83.5 -204s-91.333 -124.5 -160 -182.5c-86 -70 -180.167 -121.5 -282.5 -154.5s-204.166 -53.167 -305.499 -60.5s-230.333 -11 -387 -11
c-252 0 -458 9.66699 -618 29s-303.5 66.166 -430.5 140.499s-225 191 -294 350s-103.5 373.833 -103.5 644.5v794c0 325.333 55.5 572.5 166.5 741.5s268.5 281.667 472.5 338s473 84.5 807 84.5c285.333 0 519 -30.333 701 -91s319.667 -164.5 413 -311.5
s140 -348.833 140 -605.5v-119h-844v119c-9.33301 87.333 -34.833 152.166 -76.5 194.5c-41.667 42.333 -95.167 69.666 -160.5 82c-65.333 12.333 -153 18.5 -263 18.5c-154.667 0 -267.834 -17.667 -339.501 -53s-118.334 -92.166 -140.001 -170.5
c-21.667 -78.333 -32.5 -197.833 -32.5 -358.5v-479c0 -135.333 4.5 -239.166 13.5 -311.499s29.833 -133.166 62.5 -182.499s83 -85.166 151 -107.499s163 -33.5 285 -33.5c128.667 0 227.334 7.83301 296.001 23.5s120.5 50.834 155.5 105.501s52.5 140 52.5 256v90z" />
    <glyph glyph-name="D" unicode="D" horiz-adv-x="3174" 
d="M213 0v3072h1556c290.667 0 526.334 -39 707 -117c180.667 -78 314.167 -204.333 400.5 -379s129.5 -406.667 129.5 -696v-643c0 -288 -35 -522.167 -105 -702.5s-187.333 -314.5 -352 -402.5s-387.667 -132 -669 -132h-1667zM1032 2359v-1646h717
c276 0 414 174.667 414 524v643c0 130 -14.167 229.5 -42.5 298.5s-71.833 116.333 -130.5 142s-139 38.5 -241 38.5h-717z" />
    <glyph glyph-name="E" unicode="E" horiz-adv-x="2777" 
d="M1081 2400v-561h1311v-569h-1311v-598h1426v-672h-2245v3072h2216v-672h-1397z" />
    <glyph glyph-name="F" unicode="F" horiz-adv-x="2523" 
d="M1044 2400v-602h1254v-672h-1254v-1126h-819v3072h2179v-672h-1360z" />
    <glyph glyph-name="G" unicode="G" horiz-adv-x="3105" 
d="M2949 2118h-830.997c-5.33301 94.667 -32.833 164.334 -82.5 209c-49.667 44.667 -108.834 72.167 -177.501 82.5s-158.334 15.5 -269.001 15.5c-192.667 0 -332.167 -21.167 -418.5 -63.5s-140.5 -107.833 -162.5 -196.5s-33 -227.334 -33 -416.001v-500
c0 -176.667 20.833 -308 62.5 -394s104.334 -142.167 188.001 -168.5s204.834 -39.5 363.501 -39.5c145.333 0 254.666 14 327.999 42s125.166 78.5 155.499 151.5s45.5 181.833 45.5 326.5h-566v570h1397v-537c0 -268.667 -19.833 -481 -59.5 -637
s-108.5 -276.833 -206.5 -362.5s-232.5 -144.667 -403.5 -177s-401.167 -48.5 -690.5 -48.5c-262.667 0 -481.334 14.833 -656.001 44.5s-322 85.334 -442 167.001s-210 199 -270 352s-90 351.833 -90 596.5v794c0 324.667 56.5 572 169.5 742s273 283.5 480 340.5
s476.5 85.5 808.5 85.5c294 0 538.5 -25.167 733.5 -75.5s348.167 -147.166 459.5 -290.5c111.333 -143.333 167 -347.666 167 -613z" />
    <glyph glyph-name="H" unicode="H" horiz-adv-x="3228" 
d="M2970 3072v-3072h-820v1204h-1069v-1204h-819v3072h819v-1155h1069v1155h820z" />
    <glyph glyph-name="I" unicode="I" horiz-adv-x="1327" 
d="M1073 3072v-3072h-819v3072h819z" />
    <glyph glyph-name="J" unicode="J" horiz-adv-x="2466" 
d="M1405 3072l818.996 0.00195312v-2126c0 -210.667 -17.667 -378.667 -53 -504s-93.666 -221.666 -175 -288.999c-81.333 -67.333 -190.666 -113.833 -327.999 -139.5s-320.666 -38.5 -549.999 -38.5c-219.333 0 -394.666 15.5 -525.999 46.5s-233.5 84.667 -306.5 161
s-123.833 181 -152.5 314s-43 311.5 -43 535.5v254h778v-254c0 -92.667 5.66699 -162.334 17 -209.001s34.833 -80.834 70.5 -102.501s89.834 -32.5 162.501 -32.5c121.333 0 199.5 17.667 234.5 53s52.5 103.666 52.5 204.999v2126z" />
    <glyph glyph-name="K" unicode="K" horiz-adv-x="3080" 
d="M1081 3072v-1155h246l791 1155h991l-1081 -1507l1171 -1565h-1016l-856 1204h-246v-1204h-819v3072h819z" />
    <glyph glyph-name="L" unicode="L" horiz-adv-x="2396" 
d="M1057 3072v-2359h1282v-713h-2101v3072h819z" />
    <glyph glyph-name="M" unicode="M" horiz-adv-x="4297" 
d="M987 2355l82 -2355h-819v3072h1298l586 -1929h29l557 1929h1331v-3072h-819l82 2355h-29l-778 -2355h-709l-786 2355h-25z" />
    <glyph glyph-name="N" unicode="N" horiz-adv-x="3568" 
d="M1020 2359l49 -2359h-819v3072h1384l881 -2359h33l-49 2359h819v-3072h-1397l-868 2359h-33z" />
    <glyph glyph-name="O" unicode="O" horiz-adv-x="3113" 
d="M1556 -25c-227.333 0 -425 15.667 -593 47s-314 87.5 -438 168.5s-220 196 -288 345s-102 337.833 -102 566.5v868c0 228.667 34.167 417.834 102.5 567.5c68.333 149.667 164.333 264.667 288 345s269.5 136.166 437.5 167.5c168 31.333 365.667 47 593 47
c228 0 426.167 -15.667 594.5 -47s314.333 -87.166 438 -167.5c123.667 -80.333 219.5 -195.333 287.5 -345s102 -338.834 102 -567.5v-868c0 -228.667 -33.833 -417.5 -101.5 -566.5s-163.5 -264 -287.5 -345s-270.167 -137.167 -438.5 -168.5s-366.5 -47 -594.5 -47z
M1556 688c156.667 0 274.167 10.834 352.5 32.501s135.5 68.167 171.5 139.5s54 182 54 332v692c0 115.333 -10.167 205.833 -30.5 271.5s-52.5 115 -96.5 148s-100.833 54.667 -170.5 65s-163.167 15.5 -280.5 15.5c-155.333 0 -271.333 -10.667 -348 -32
s-133 -67 -169 -137s-56 -180.333 -60 -331v-692c4 -151.333 23.833 -262.333 59.5 -333s92 -116.834 169 -138.501s193.167 -32.5 348.5 -32.5z" />
    <glyph glyph-name="P" unicode="P" horiz-adv-x="2912" 
d="M1057 0h-819v3072h1544c192.667 0 355.5 -21.333 488.5 -64s240.333 -108.334 322 -197c81.667 -88.667 141.667 -204.5 180 -347.5s57.5 -315.5 57.5 -517.5c0 -225.333 -15.333 -410.833 -46 -556.5s-83.5 -262.5 -158.5 -350.5s-180.5 -152.167 -316.5 -192.5
s-311.667 -60.5 -527 -60.5h-725v-786zM1057 1499l561 0.000976562c111.333 0 191.5 10 240.5 30s82.667 60.167 101 120.5s27.5 159.166 27.5 296.499c0 110.667 -9 194.834 -27 252.5c-18 57.667 -53 98.834 -105 123.5c-52 24.667 -131 37 -237 37h-561v-860z" />
    <glyph glyph-name="Q" unicode="Q" horiz-adv-x="3260" 
d="M1774 1548l438.001 -310.999v500c0 191.333 -13.333 330.833 -40 418.499c-26.667 87.667 -80 147.667 -160 180s-208.667 48.5 -386 48.5c-176 0 -303.333 -16.167 -382 -48.5s-130.834 -92 -156.501 -179s-38.5 -226.833 -38.5 -419.5v-553
c0 -153.333 19.5 -264.833 58.5 -334.5s97.167 -114 174.5 -133s193.333 -28.5 348 -28.5c165.333 0 287 15 365 45l-545 357zM2994 -3.99902l-303 241.998c-127.333 -111.333 -278.333 -183 -453 -215s-377.334 -48 -608.001 -48c-254 0 -467 17.167 -639 51.5
s-316.667 96.333 -434 186s-205.333 215.334 -264 377.001s-88 369.167 -88 622.5v648c0 247.333 30 452 90 614s149 288.167 267 378.5s263.333 153.666 436 190c172.667 36.333 383.334 54.5 632.001 54.5c250 0 461.333 -18.167 634 -54.5s318 -99.666 436 -189.999
s206.833 -216.333 266.5 -378s89.5 -366.5 89.5 -614.5v-770c0 -159.333 -20.667 -296 -62 -410l336 -229z" />
    <glyph glyph-name="R" unicode="R" horiz-adv-x="3039" 
d="M1688 815l-635 -0.000976562v-815h-820v3072h1582c254 -4 455.833 -31.167 605.5 -81.5s262.167 -141.833 337.5 -274.5s113 -324 113 -574c0 -211.333 -9.16699 -371.166 -27.5 -479.499s-69 -202.333 -152 -282s-216.833 -141.167 -401.5 -184.5v-33
c172 -6 307.167 -55.5 405.5 -148.5s147.5 -225.167 147.5 -396.5v-618h-820v430c0 256.667 -111.667 385 -335 385zM1053 1528l635 0.000976562c107.333 0 184.833 14.167 232.5 42.5s77.5 73.166 89.5 134.499s18 162 18 302c0 138 -23 231.167 -69 279.5
s-136.333 72.5 -271 72.5h-635v-831z" />
    <glyph glyph-name="S" unicode="S" horiz-adv-x="2933" 
d="M152 999l786 0.00390625c0 -105.333 15 -182.833 45 -232.5s80 -82 150 -97s177 -22.5 321 -22.5c139.333 0 243.833 6 313.5 18s120.167 37.833 151.5 77.5s47 102.167 47 187.5c0 91.333 -9 154.5 -27 189.5s-52.667 57.667 -104 68s-151 20.166 -299 29.499l-180 12
c-251.333 18.667 -438.333 37.667 -561 57s-233.5 58 -332.5 116s-174.833 147.333 -227.5 268s-79 283.667 -79 489c0.666992 266.667 51.167 468 151.5 604s241 225.667 422 269s422.5 65 724.5 65c293.333 0 528 -21.5 704 -64.5s310.167 -127 402.5 -252
s138.5 -306.5 138.5 -544.5v-127h-786c0 102.667 -14.833 176 -44.5 220s-73.5 71 -131.5 81s-152.333 15 -283 15c-141.333 0 -246.5 -9.5 -315.5 -28.5s-113.5 -46.333 -133.5 -82s-30 -86.167 -30 -151.5c0 -78.667 12.333 -136.167 37 -172.5s57.5 -59.833 98.5 -70.5
s107.833 -20 200.5 -28l340 -24c239.333 -16.667 430 -40.834 572 -72.501s254.333 -78.5 337 -140.5s140.834 -145.833 174.5 -251.5c33.667 -105.667 50.5 -245.834 50.5 -420.501c0 -225.333 -16.333 -401.5 -49 -528.5s-93.834 -225.333 -183.5 -295
c-89.667 -69.667 -219.667 -117.834 -390 -144.501s-406.5 -40 -708.5 -40c-238 0 -434.5 11.5 -589.5 34.5s-285.667 69 -392 138s-186.333 172 -240 309s-80.5 317.833 -80.5 542.5z" />
    <glyph glyph-name="T" unicode="T" horiz-adv-x="2437" 
d="M1610 2359v-2359h-819v2359h-787v713h2433v-713h-827z" />
    <glyph glyph-name="U" unicode="U" horiz-adv-x="3158" 
d="M2085 3072l818.998 -0.000976562v-2048c0 -199.333 -18.667 -363.166 -56 -491.499s-103.833 -233.833 -199.5 -316.5s-229.667 -143.5 -402 -182.5s-394.166 -58.5 -665.499 -58.5c-282 0 -510.833 20 -686.5 60s-309.167 101.5 -400.5 184.5s-153.5 188 -186.5 315
s-49.5 290.167 -49.5 489.5v2048h819v-1995c0 -109.333 17.667 -192 53 -248s88 -92.833 158 -110.5s167.667 -26.5 293 -26.5c127.333 0 225.833 8.83301 295.5 26.5s121.834 54.167 156.501 109.5s52 138.333 52 249v1995z" />
    <glyph glyph-name="V" unicode="V" horiz-adv-x="2912" 
d="M1454 705l676 2367h848l-897 -3072h-1278l-869 3072h832l664 -2367h24z" />
    <glyph glyph-name="W" unicode="W" horiz-adv-x="4522" 
d="M3273 705l463 2367h823l-680 -3072h-1184l-418 1925h-32l-447 -1925h-1171l-664 3072h832l442 -2367h29l577 2367h852l549 -2367h29z" />
    <glyph glyph-name="X" unicode="X" horiz-adv-x="2998" 
d="M3002 3072l-848 -1491l914 -1581h-954l-611 1184l-606 -1184h-963l922 1581l-864 1491h958l553 -1126l557 1126h942z" />
    <glyph glyph-name="Y" unicode="Y" horiz-adv-x="2900" 
d="M2966 3072l-1123 -1995v-1077h-819v1077l-1090 1995h938l549 -1184h29l565 1184h951z" />
    <glyph glyph-name="Z" unicode="Z" horiz-adv-x="2699" 
d="M2605 3072v-688l-1470 -1647v-24h1470v-713h-2511v692l1450 1643v24h-1356v713h2417z" />
    <glyph glyph-name="bracketleft" unicode="[" horiz-adv-x="1577" 
d="M233 3097h1110v-672h-331v-2368h331v-671h-1110v3711z" />
    <glyph glyph-name="backslash" unicode="\" horiz-adv-x="2621" 
d="M303 3072h574l1441 -3072h-573z" />
    <glyph glyph-name="bracketright" unicode="]" horiz-adv-x="1577" 
d="M1343 -614h-1110v671h332v2368h-332v672h1110v-3711z" />
    <glyph glyph-name="asciicircum" unicode="^" horiz-adv-x="2458" 
d="M737 1024h-532l778 2048h492l778 -2048h-533l-487 1384h-8z" />
    <glyph glyph-name="underscore" unicode="_" horiz-adv-x="2048" 
d="M2048 -307v-307h-2048v307h2048z" />
    <glyph glyph-name="grave" unicode="`" horiz-adv-x="1655" 
d="M512 3097l836 -492l-115 -254l-926 291z" />
    <glyph glyph-name="a" unicode="a" horiz-adv-x="2494" 
d="M1589 319l-23.999 0.000976562c-42 -229.333 -248.333 -344 -619 -344c-176.667 0 -320.667 18.333 -432 55s-196.833 104 -256.5 202s-89.5 235 -89.5 411c0 248 63.333 422.667 190 524s322.667 152 588 152c152 0 279.167 -13.667 381.5 -41s170.5 -94.333 204.5 -201
h33v340c0 119.333 -18.167 203.833 -54.5 253.5s-124.833 74.5 -265.5 74.5c-97.333 0 -169.5 -16.333 -216.5 -49s-70.5 -94.334 -70.5 -185.001h-704c0 206 44.333 357.333 133 454s198.334 155.834 329.001 177.5c130.667 21.667 307 32.5 529 32.5
c263.333 0 465.666 -18.833 606.999 -56.5s246.166 -115.667 314.499 -234s102.5 -298.833 102.5 -541.5v-1343h-704zM1565 692.001c0 82.667 -30.667 136.166 -92 160.499s-159 36.5 -293 36.5c-100.667 0 -177.167 -15 -229.5 -45s-78.5 -90 -78.5 -180
c0 -101.333 29.667 -165.666 89 -192.999s132.333 -41 219 -41c104.667 0 183.5 6.33301 236.5 19s91 37.5 114 74.5s34.5 93.167 34.5 168.5z" />
    <glyph glyph-name="b" unicode="b" horiz-adv-x="2511" 
d="M930 1077c0 -158 7.16602 -273.833 21.499 -347.5s48.833 -127.667 103.5 -162s142.667 -51.5 264 -51.5c100.667 0 175.834 15.167 225.501 45.5s83.167 84.333 100.5 162s26 195.5 26 353.5c0 137.333 -7 244 -21 320s-46.5 134.5 -97.5 175.5
s-128.833 61.5 -233.5 61.5c-103.333 0 -182 -13.167 -236 -39.5s-93 -78.833 -117 -157.5s-36 -198.667 -36 -360zM912.999 373l17 -373h-705v3072h705v-1229h33c52.667 129.333 128.5 217 227.5 263s222.5 69 370.5 69c149.333 0 275.333 -17.167 378 -51.5
s185.834 -87.5 249.501 -159.5s110.834 -166.167 141.5 -282.5c30.667 -116.333 46 -257.833 46 -424.5v-491c0 -276 -68.667 -476.833 -206 -602.5s-340.333 -188.5 -609 -188.5c-168.667 0 -303.834 28.5 -405.501 85.5s-171.5 161.167 -209.5 312.5h-33z" />
    <glyph glyph-name="c" unicode="c" horiz-adv-x="2281" 
d="M1491 860l704.001 0.00390625c0 -196.667 -20.667 -351.334 -62 -464.001s-105 -199.667 -191 -261c-79.333 -59.333 -180.333 -100.833 -303 -124.5s-284 -35.5 -484 -35.5c-210 0 -381.333 17.833 -514 53.5s-236.5 95 -311.5 178s-127.5 192.833 -157.5 329.5
s-45 315.667 -45 537c0 199.333 13.5 364.833 40.5 496.5s76.333 242.667 148 333s175.167 158.333 310.5 203.999c135.333 45.667 311.666 68.5 528.999 68.5c236 0 426.833 -19 572.5 -57s260 -117.333 343 -238s124.5 -299.667 124.5 -537h-704
c0 118.667 -19 195.334 -57 230.001c-45.333 40.667 -138.333 61 -279 61c-88.667 0 -155.167 -13 -199.5 -39s-76.166 -78.333 -95.499 -157s-29 -200.334 -29 -365.001c0 -172.667 8.5 -296.834 25.5 -372.501s47.167 -125.334 90.5 -149.001s112.666 -35.5 207.999 -35.5
c105.333 0 181.5 10 228.5 30s76.667 52.5 89 97.5s18.5 117.167 18.5 216.5z" />
    <glyph glyph-name="d" unicode="d" horiz-adv-x="2507" 
d="M1581 1073c0 160.667 -6.50293 277.333 -19.5029 350s-46.167 126 -99.5 160s-140.666 51 -261.999 51c-115.333 0 -198.166 -16.667 -248.499 -50s-81.5 -86 -93.5 -158s-18 -189.667 -18 -353c0 -178 9.5 -304.833 28.5 -380.5s52 -124 99 -145
s124.5 -31.5 232.5 -31.5c103.333 0 181.333 13 234 39s90.334 78.5 113.001 157.5s34 199.167 34 360.5zM1581 1843l0.000976562 1229h705v-3072h-705l16 373h-32c-38 -151.333 -107.833 -255.5 -209.5 -312.5s-236.834 -85.5 -405.501 -85.5
c-268 0 -470.833 62.833 -608.5 188.5s-206.5 326.5 -206.5 602.5v491c0 166.667 15.167 308.167 45.5 424.5s77.333 210.333 141 282s147 124.834 250 159.501s229.167 52 378.5 52c148 0 271.5 -23 370.5 -69s174.833 -133.667 227.5 -263h33z" />
    <glyph glyph-name="e" unicode="e" horiz-adv-x="2351" 
d="M827 1343l693.001 0.000976562c0 148 -26 241.667 -78 281s-145 59 -279 59c-88 0 -154.833 -8.83301 -200.5 -26.5s-78.834 -50.334 -99.501 -98.001s-32.667 -119.5 -36 -215.5zM1532 717.001l692.001 -0.00292969c0 -298 -97 -503 -291 -615
c-86.667 -48 -191.334 -81.167 -314.001 -99.5s-270.334 -27.5 -443.001 -27.5c-280 0 -496 35.333 -648 106s-257.5 184.334 -316.5 341.001s-88.5 373.667 -88.5 651c0 287.333 28.167 508.833 84.5 664.5s159.5 267.5 309.5 335.5s369.667 102 659 102
c275.333 0 487.5 -31.167 636.5 -93.5s254.833 -172.166 317.5 -329.499s94 -383.666 94 -678.999v-119h-1397c0 -96.667 4.83301 -176 14.5 -238s26.834 -111 51.501 -147s59.5 -62 104.5 -78s104.5 -24 178.5 -24c125.333 0 216 15.667 272 47s84 99 84 203z" />
    <glyph glyph-name="f" unicode="f" horiz-adv-x="1610" 
d="M1548 2150l-0.000976562 -516h-479v-1634h-704v1634h-283v516h283v209c0 146.667 16.833 265.167 50.5 355.5s92.334 161.666 176.001 214c83.667 52.333 198.5 89.333 344.5 111s340.667 32.5 584 32.5v-537c-44 14 -87.667 21 -131 21
c-106 0 -180.5 -8.33301 -223.5 -25s-69.833 -46 -80.5 -88s-16 -113.667 -16 -215v-78h479z" />
    <glyph glyph-name="g" unicode="g" horiz-adv-x="2519" 
d="M1581 1073c0 162.667 -10.665 283.668 -31.998 363.001s-57.333 132.166 -108 158.499s-128.334 39.5 -233.001 39.5c-114.667 0 -195.834 -12.667 -243.501 -38s-79 -75.333 -94 -150s-22.5 -199 -22.5 -373c0 -154.667 9.16699 -268.167 27.5 -340.5
s52.333 -122.333 102 -150s126.5 -41.5 230.5 -41.5c112 0 194.5 18 247.5 54s87.167 90 102.5 162s23 177.333 23 316zM1606 1769l-25.001 380.997h705v-2052c0 -278 -27.167 -491.167 -81.5 -639.5s-153 -254.166 -296 -317.499s-354.5 -95 -634.5 -95
c-197.333 0 -359.5 12 -486.5 36s-230.667 64.333 -311 121s-139.833 133.5 -178.5 230.5s-61.667 221.5 -69 373.5h668c0 -109.333 32.667 -181.666 98 -216.999c44 -21.333 116.333 -32 217 -32c108 0 186.833 8.33301 236.5 25s84.167 49 103.5 97s29 123.333 29 226v446
h-25c-79.333 -234.667 -274.333 -352 -585 -352c-183.333 -0 -331.166 26.333 -443.499 79s-195.666 125.834 -249.999 219.501s-90.333 201.667 -108 324s-26.5 272.5 -26.5 450.5c0 262 18.667 469.5 56 622.5s116.166 271.167 236.499 354.5s298.833 125 535.5 125
c168 0 301.5 -28.667 400.5 -86s168.833 -164 209.5 -320h25z" />
    <glyph glyph-name="h" unicode="h" horiz-adv-x="2535" 
d="M938 3072l0.000976562 -1323h29c48.667 162 123.667 273.5 225 334.5s240.666 91.5 417.999 91.5c236.667 0 411.167 -56.333 523.5 -169s168.5 -285.667 168.5 -519v-1487h-705v1323c-2 110.667 -23.333 190.167 -64 238.5s-116 72.5 -226 72.5
c-100 0 -177.167 -18.5 -231.5 -55.5s-90.833 -87.833 -109.5 -152.5s-28 -145.334 -28 -242.001v-1184h-705v3072h705z" />
    <glyph glyph-name="i" unicode="i" horiz-adv-x="1053" 
d="M877 2150v-2150h-701v2150h701zM877 3072v-541h-701v541h701z" />
    <glyph glyph-name="j" unicode="j" horiz-adv-x="991" 
d="M827 2150v-2179c0 -156.667 -25.5 -282 -76.5 -376s-127.5 -161.333 -229.5 -202s-232 -61 -390 -61c-84 0 -153.667 8.33301 -209 25v483c80 0 133.5 18.167 160.5 54.5s40.5 86.5 40.5 150.5v2105h704zM827 3072v-541h-704v541h704z" />
    <glyph glyph-name="k" unicode="k" horiz-adv-x="2425" 
d="M930 3072v-1729h123l426 807h774l-606 -1032l745 -1118h-823l-516 872h-123v-872h-705v3072h705z" />
    <glyph glyph-name="l" unicode="l" horiz-adv-x="1184" 
d="M946 3072v-3072h-704v3072h704z" />
    <glyph glyph-name="m" unicode="m" horiz-adv-x="3805" 
d="M942 1221l-3.99805 -1221h-700v2150h684v-303h28c40 117.333 113.333 201.333 220 251.999c106.667 50.667 230 76 370 76c117.333 0 221.166 -10.5 311.499 -31.5s166.666 -62.833 228.999 -125.5s99.166 -151 110.5 -265h33c17.333 142.667 83.5 248.667 198.5 318
s248.167 104 399.5 104c254 0 441.833 -55.5 563.5 -166.5s182.5 -290.5 182.5 -538.5v-1470h-701v1245c-5.33301 103.333 -12.666 178.333 -22 225c-9.33301 46.667 -33.666 85.667 -73 117c-39.333 31.333 -101.666 47 -187 47c-126.667 0 -213 -35.833 -259 -107.5
s-69 -173.5 -69 -305.5v-1221h-705v1303c-4.66699 118.667 -22.167 203.5 -52.5 254.5s-101.5 76.5 -213.5 76.5c-136 0 -227.333 -33.167 -274 -99.5s-70 -170.833 -70 -313.5z" />
    <glyph glyph-name="n" unicode="n" horiz-adv-x="2535" 
d="M938 1184l0.000976562 -1184h-705v2150h705v-401h29c48.667 162 123.667 273.5 225 334.5s240.666 91.5 417.999 91.5c236.667 0 411.167 -56.333 523.5 -169s168.5 -285.667 168.5 -519v-1487h-705v1323c-2 110.667 -23.333 190.167 -64 238.5s-116 72.5 -226 72.5
c-100 0 -177.167 -18.5 -231.5 -55.5s-90.833 -87.833 -109.5 -152.5s-28 -145.334 -28 -242.001z" />
    <glyph glyph-name="o" unicode="o" horiz-adv-x="2429" 
d="M1212 2175c234.667 0 420.501 -15.3369 557.501 -46.0039s243.5 -85.167 319.5 -163.5s128.5 -187 157.5 -326s43.5 -327.833 43.5 -566.5c0 -233.333 -15 -418.666 -45 -555.999s-83.167 -245.666 -159.5 -324.999s-182.833 -135.333 -319.5 -168
s-321.334 -49 -554.001 -49c-225.333 0 -406.5 17.333 -543.5 52s-244.167 92.667 -321.5 174s-131.333 190.833 -162 328.5s-46 318.834 -46 543.501c0 232.667 14.5 417.834 43.5 555.501s81.167 246.5 156.5 326.5s182.333 136.667 321 170s322.667 50 552 50zM1225 1634
c-116.667 0 -200.998 -14.333 -252.998 -43s-86.333 -81.167 -103 -157.5s-25 -196.5 -25 -360.5s8.33301 -283.833 25 -359.5s51.167 -127.5 103.5 -155.5s136.5 -42 252.5 -42c84 0 149.667 7.5 197 22.5s82.666 41.667 105.999 80s38.666 91.666 45.999 159.999
s11 166.5 11 294.5c0 165.333 -7.5 285.833 -22.5 361.5s-47 127.834 -96 156.501s-129.5 43 -241.5 43z" />
    <glyph glyph-name="p" unicode="p" horiz-adv-x="2531" 
d="M930 1073c0 -136.667 7.00098 -243 21.001 -319s46.5 -134.667 97.5 -176s128.833 -62 233.5 -62c103.333 0 182 13.167 236 39.5s93 79.166 117 158.499s36 199 36 359s-9.5 278.333 -28.5 355s-55.833 130.167 -110.5 160.5s-138 45.5 -250 45.5
c-100.667 0 -175.834 -15.167 -225.501 -45.5s-83.167 -84.166 -100.5 -161.499s-26 -195.333 -26 -354zM930.001 324l-0.000976562 -1254h-705v3080h705l-17 -340h33c38.667 136.667 108.667 231.667 210 285s236.333 80 405 80c269.333 0 472.5 -62.5 609.5 -187.5
s205.5 -326.167 205.5 -603.5v-491c0 -220 -27 -397 -81 -531s-140.667 -232 -260 -294s-277.333 -93 -474 -93c-147.333 0 -270.666 24 -369.999 72s-175.333 140.333 -228 277h-33z" />
    <glyph glyph-name="q" unicode="q" horiz-adv-x="2535" 
d="M1597 1073c0 158 -7.16699 273.833 -21.5 347.5s-48.833 127.667 -103.5 162s-142.667 51.5 -264 51.5c-100.667 0 -175.834 -15.167 -225.501 -45.5s-83.167 -84.166 -100.5 -161.499s-26 -195.333 -26 -354c0 -136.667 7.16699 -243.167 21.5 -319.5
s46.833 -135 97.5 -176s128.334 -61.5 233.001 -61.5c103.333 0 182 13.167 236 39.5s93 79.166 117 158.499s36 199 36 359zM1614 1810l-17.001 340h705v-3080h-705v1254h-32c-52.667 -136.667 -128.667 -229 -228 -277s-222.666 -72 -369.999 -72
c-198 0 -356.333 31 -475 93s-205 160 -259 294s-81 311 -81 531v491c0 276.667 68.5 477.667 205.5 603s340.167 188 609.5 188c168.667 0 303.5 -26.667 404.5 -80s170.833 -148.333 209.5 -285h33z" />
    <glyph glyph-name="r" unicode="r" horiz-adv-x="2052" 
d="M926 1290v-1290h-705v2150h684v-315h29c86.667 226.667 267 340 541 340c152.667 0 268 -36.5 346 -109.5s128.5 -166 151.5 -279s34.5 -248.5 34.5 -406.5v-168h-635v103c0 103.333 -10.333 182.333 -31 237s-71.667 82 -153 82c-174.667 0 -262 -114.667 -262 -344z
" />
    <glyph glyph-name="s" unicode="s" horiz-adv-x="2367" 
d="M131 672l704.998 0.00195312c0 -97.333 26.167 -162 78.5 -194s142.166 -48 269.499 -48c104 0 180.667 4.33301 230 13s84.666 26 105.999 52s32 67 32 123c0 56.667 -10.833 99.5 -32.5 128.5s-58.167 49 -109.5 60s-126.666 16.5 -225.999 16.5
c-262 0 -469.667 24 -623 72s-263.333 120.167 -330 216.5s-100 220.166 -100 371.499c0 153.333 24.167 276.666 72.5 369.999s117.166 162.833 206.499 208.5s195.5 76 318.5 91s274.833 22.5 455.5 22.5c190.667 0 353.5 -11.833 488.5 -35.5s245.667 -74.5 332 -152.5
s129.5 -193 129.5 -345v-102h-664c-7.33301 74.667 -31.333 123.334 -72 146.001s-112 34 -214 34c-161.333 0 -263.166 -11.5 -305.499 -34.5s-63.5 -68.833 -63.5 -137.5c0 -42.667 7.33301 -76.834 22 -102.501s48.834 -46.334 102.501 -62.001
s135.167 -23.5 244.5 -23.5c256 0 458.833 -18 608.5 -54s261 -101.667 334 -197s109.5 -231.666 109.5 -408.999c0 -204 -35.833 -358.333 -107.5 -463s-179 -174.5 -322 -209.5s-342.5 -52.5 -598.5 -52.5c-198 0 -361.667 7.66699 -491 23s-237.666 46.333 -324.999 93
s-152.666 116.667 -195.999 210s-65 217 -65 371z" />
    <glyph glyph-name="t" unicode="t" horiz-adv-x="1987" 
d="M1839 2150v-515.999h-815v-962c2 -66.667 13.667 -113.334 35 -140.001s63 -40 125 -40c81.333 0 131 20.833 149 62.5s29.667 113.5 35 215.5l4 115h561v-193c0 -148.667 -14.333 -269 -43 -361s-74 -164 -136 -216s-141.167 -88.333 -237.5 -109
s-220.833 -31 -373.5 -31c-177.333 0 -323.833 13.5 -439.5 40.5s-208.667 84.333 -279 172s-105.5 216.167 -105.5 385.5v1061h-262v516h262v455h705v-455h815z" />
    <glyph glyph-name="u" unicode="u" horiz-adv-x="2519" 
d="M1569 827v1323h704v-2150h-684l25 414h-33c-86.667 -292.667 -301 -439 -643 -439c-486 0 -729 235 -729 705v1470h704v-1282c0 -118.667 19.833 -207.667 59.5 -267s111.5 -89 215.5 -89c102 0 191 27.5 267 82.5s114 132.5 114 232.5z" />
    <glyph glyph-name="v" unicode="v" horiz-adv-x="2171" 
d="M2200 2150l-529 -2150h-1106l-594 2150h738l389 -1679h20l352 1679h730z" />
    <glyph glyph-name="w" unicode="w" horiz-adv-x="3432" 
d="M3428 2150l-376 -2150h-1012l-303 1532h-25l-295 -1532h-1024l-389 2150h676l238 -1679h32l357 1679h823l356 -1679h29l250 1679h663z" />
    <glyph glyph-name="x" unicode="x" horiz-adv-x="2232" 
d="M2200 2150l-566 -1011l623 -1139h-827l-308 709l-299 -709h-848l639 1139l-553 1011h816l245 -594l258 594h820z" />
    <glyph glyph-name="y" unicode="y" horiz-adv-x="2183" 
d="M2212 2150l-540.999 -2338c-41.333 -195.333 -95.833 -347.5 -163.5 -456.5s-161.834 -187.833 -282.501 -236.5s-280.667 -73 -480 -73c-17.333 0 -41.666 0.666992 -72.999 2s-62.666 3.16602 -93.999 5.49902s-56 3.83301 -74 4.5v487
c54.667 -5.33301 95.667 -8 123 -8c135.333 0 228.666 40.833 279.999 122.5s80.666 195.167 87.999 340.5h-385l-639 2150h738l426 -1749h8l348 1749h721z" />
    <glyph glyph-name="z" unicode="z" horiz-adv-x="2032" 
d="M164 2150h1782v-557l-1041 -1101h1041v-492h-1860v582l1016 1077h-938v491z" />
    <glyph glyph-name="braceleft" unicode="{" horiz-adv-x="1577" 
d="M98 991l0.000976562 540.998c224 0 336 60 336 180v840c0 114.667 26.5 213.334 79.5 296c53 82.667 116.5 144.834 190.5 186.501s138.333 62.5 193 62.5h582v-541h-152c-83.333 0 -135.5 -17.667 -156.5 -53s-31.5 -87.333 -31.5 -156v-700
c-3.33301 -134 -46 -229.5 -128 -286.5s-170.667 -89.833 -266 -98.5v-9c106.667 -10 198.167 -40.667 274.5 -92s116.166 -159.666 119.499 -324.999v-701c0 -68.667 10.5 -120.667 31.5 -156s73.167 -53 156.5 -53h152v-540h-582c-54 0 -118 20.5 -192 61.5
s-137.667 102.833 -191 185.5s-80 181.667 -80 297v840c0 147.333 -112 221 -336 221z" />
    <glyph glyph-name="bar" unicode="|" horiz-adv-x="2458" 
d="M1466 3072v-3072h-471v3072h471z" />
    <glyph glyph-name="braceright" unicode="}" horiz-adv-x="1577" 
d="M1479 1532l0.00195312 -541.001c-224 0 -336 -73.667 -336 -221v-840c0 -115.333 -26.667 -214.333 -80 -297s-116.833 -144.5 -190.5 -185.5s-137.834 -61.5 -192.501 -61.5h-582v540h152c57.333 0 99.833 9.66699 127.5 29s44.667 42.833 51 70.5s9.5 64.167 9.5 109.5
v701c3.33301 164.667 43.166 272.834 119.499 324.501s167.5 82.5 273.5 92.5v9c-94.667 9.33301 -183 42.333 -265 99s-124.667 152 -128 286v700c0 68.667 -10.667 120.667 -32 156s-73.333 53 -156 53h-152v541h582c54 0 118.167 -20.833 192.5 -62.5
s138 -103.834 191 -186.5c53 -82.667 79.5 -181.334 79.5 -296v-840c0 -120 112 -180 336 -180z" />
    <glyph glyph-name="asciitilde" unicode="~" horiz-adv-x="2458" 
d="M1855 1470l397.999 -0.00195312c0 -221.333 -40.167 -416.5 -120.5 -585.5s-214.833 -253.5 -403.5 -253.5c-81.333 0 -182.666 39.667 -303.999 119l-503 327c-84.667 52 -153 78 -205 78c-24.667 0 -44.5 -11.667 -59.5 -35s-25.667 -52.166 -32 -86.499
s-11 -71.166 -14 -110.499l-9.5 -124h-397c0 226 40.333 423.833 121 593.5s220.334 254.5 419.001 254.5c91.333 0 183 -31.667 275 -95l455 -319c93.333 -71.333 173.666 -107 240.999 -107c47.333 0 82.333 36.667 105 110s34 151.333 34 234z" />
    <glyph glyph-name="afii10051" horiz-adv-x="4264" 
d="M2552 0h-819.003v299h-418c-209.333 0 -384.666 20.833 -525.999 62.5s-256 109.334 -344 203.001s-152.833 220.167 -194.5 379.5s-62.5 358 -62.5 596c0 313.333 37.333 560 112 740s193.334 309.167 356.001 387.5s382.334 117.5 659.001 117.5h418v287h819v-287h414
c276.667 0 496.334 -39.167 659 -117.5c162.667 -78.333 281.167 -207.5 355.5 -387.5s111.5 -426.667 111.5 -740c0 -240.667 -20.667 -440 -62 -598s-106.166 -283.833 -194.5 -377.5c-88.333 -93.667 -203 -161.334 -344 -203.001s-316.167 -62.5 -525.5 -62.5h-414v-299
zM2552 1012l277.999 0.00195312c104.667 0 186.834 15.167 246.5 45.5c59.667 30.333 103.167 84.166 130.5 161.499s41 185.666 41 324.999c0 134.667 -13.167 240.667 -39.5 318s-69.666 132.5 -130 165.5c-60.333 33 -143.166 49.5 -248.499 49.5l-278 -4v-1061z
M1450 1008l282.999 3.99805v1061h-283c-105.333 0 -188 -16.5 -248 -49.5s-103.333 -88.167 -130 -165.5s-40 -183.333 -40 -318c0 -139.333 13.667 -247.666 41 -324.999s70.833 -131.166 130.5 -161.499s141.834 -45.5 246.501 -45.5z" />
    <glyph glyph-name="afii10051" unicode="&#x402;" horiz-adv-x="4264" 
d="M2552 0h-819.003v299h-418c-209.333 0 -384.666 20.833 -525.999 62.5s-256 109.334 -344 203.001s-152.833 220.167 -194.5 379.5s-62.5 358 -62.5 596c0 313.333 37.333 560 112 740s193.334 309.167 356.001 387.5s382.334 117.5 659.001 117.5h418v287h819v-287h414
c276.667 0 496.334 -39.167 659 -117.5c162.667 -78.333 281.167 -207.5 355.5 -387.5s111.5 -426.667 111.5 -740c0 -240.667 -20.667 -440 -62 -598s-106.166 -283.833 -194.5 -377.5c-88.333 -93.667 -203 -161.334 -344 -203.001s-316.167 -62.5 -525.5 -62.5h-414v-299
zM2552 1012l277.999 0.00195312c104.667 0 186.834 15.167 246.5 45.5c59.667 30.333 103.167 84.166 130.5 161.499s41 185.666 41 324.999c0 134.667 -13.167 240.667 -39.5 318s-69.666 132.5 -130 165.5c-60.333 33 -143.166 49.5 -248.499 49.5l-278 -4v-1061z
M1450 1008l282.999 3.99805v1061h-283c-105.333 0 -188 -16.5 -248 -49.5s-103.333 -88.167 -130 -165.5s-40 -183.333 -40 -318c0 -139.333 13.667 -247.666 41 -324.999s70.833 -131.166 130.5 -161.499s141.834 -45.5 246.501 -45.5z" />
    <glyph glyph-name="nonbreakingspace" unicode="&#xa0;" horiz-adv-x="1655" 
 />
    <glyph glyph-name="afii10062" unicode="&#xa1;" horiz-adv-x="1430" 
d="M1049 2150v-712h-664v712h664zM336 -930l29 1864h704l29 -1864h-762z" />
    <glyph glyph-name="afii10062" unicode="&#x40e;" horiz-adv-x="1430" 
d="M1049 2150v-712h-664v712h664zM336 -930l29 1864h704l29 -1864h-762z" />
    <glyph glyph-name="afii10110" unicode="&#xa2;" horiz-adv-x="2183" 
d="M2212 2150l-540.999 -2338c-41.333 -195.333 -95.833 -347.5 -163.5 -456.5s-161.834 -187.833 -282.501 -236.5s-280.667 -73 -480 -73c-17.333 0 -41.666 0.666992 -72.999 2s-62.666 3.16602 -93.999 5.49902s-56 3.83301 -74 4.5v487
c54.667 -5.33301 95.667 -8 123 -8c135.333 0 228.666 40.833 279.999 122.5s80.666 195.167 87.999 340.5h-385l-639 2150h738l426 -1749h8l348 1749h721zM885.001 2916v-422h-447v422h447zM1745 2916v-422h-447v422h447z" />
    <glyph glyph-name="afii10110" unicode="&#x45e;" horiz-adv-x="2183" 
d="M2212 2150l-540.999 -2338c-41.333 -195.333 -95.833 -347.5 -163.5 -456.5s-161.834 -187.833 -282.501 -236.5s-280.667 -73 -480 -73c-17.333 0 -41.666 0.666992 -72.999 2s-62.666 3.16602 -93.999 5.49902s-56 3.83301 -74 4.5v487
c54.667 -5.33301 95.667 -8 123 -8c135.333 0 228.666 40.833 279.999 122.5s80.666 195.167 87.999 340.5h-385l-639 2150h738l426 -1749h8l348 1749h721zM885.001 2916v-422h-447v422h447zM1745 2916v-422h-447v422h447z" />
    <glyph glyph-name="currency" unicode="&#xa4;" 
d="M2204 1032l331 -332l-294 -278l-332 332l-94.5 -51.5c-28.333 -15 -57.666 -28.5 -87.999 -40.5s-68.333 -22.333 -114 -31s-95.834 -13 -150.501 -13c-175.333 10.667 -317.333 58.667 -426 144l-344 -344l-291 287l336 339c-103.333 128 -155 279.667 -155 455
c0 89.333 13.5 172.833 40.5 250.5s62.5 137.5 106.5 179.5l-340 332l299 295l336 -336c114 87.333 268.333 131 463 131c193.333 -8.66699 339.333 -49.667 438 -123l340 336l295 -291l-344 -340l59.5 -108.5c21 -38.333 39.333 -81.666 55 -129.999
s25.167 -102.5 28.5 -162.5c0 -107.333 -13 -193.333 -39 -258s-64.667 -145.334 -116 -242.001zM1081 1466c6.66699 -105.333 47.999 -194.333 123.999 -267s164.333 -109 265 -109c87.333 0 160.5 20.5 219.5 61.5s102.167 90.833 129.5 149.5s41 113.667 41 165
c0 73.333 -16.667 141.833 -50 205.5s-79.666 114.334 -138.999 152.001s-126.333 56.5 -201 56.5c-74 0 -140.5 -18.833 -199.5 -56.5s-105.333 -88.334 -139 -152.001s-50.5 -132.167 -50.5 -205.5z" />
    <glyph glyph-name="afii10050" unicode="&#xa5;" 
d="M2486 2286h385v-541h-680l-172 -320h852v-540h-1003v-885h-819v885h-971v540h823l-168 320h-655v541h373l-414 786h889l520 -1184h29l536 1184h901z" />
    <glyph glyph-name="afii10050" unicode="&#x490;" 
d="M2486 2286h385v-541h-680l-172 -320h852v-540h-1003v-885h-819v885h-971v540h823l-168 320h-655v541h373l-414 786h889l520 -1184h29l536 1184h901z" />
    <glyph glyph-name="brokenbar" unicode="&#xa6;" horiz-adv-x="2458" 
d="M1466 1229v-1229h-471v1229h471zM1466 3072v-1229h-471v1229h471z" />
    <glyph glyph-name="section" unicode="&#xa7;" 
d="M1106 881l642.999 -119c94 -16.667 154 -25 180 -25c139.333 0 209 104 209 312c0 67.333 -8.16699 118.833 -24.5 154.5s-51.833 65.167 -106.5 88.5s-142 46 -262 68l-496 94c-106.667 24.667 -183 37 -229 37c-144.667 0 -217 -99.667 -217 -299
c0 -89.333 11 -153.833 33 -193.5s48.833 -64.667 80.5 -75s94.834 -24.5 189.501 -42.5zM2703 2290l0.00195312 -171.996h-757c-4 152.667 -31.333 246.667 -82 282c-52 38.667 -190 58 -414 58c-128.667 0 -224.5 -7.16699 -287.5 -21.5s-104.5 -35.333 -124.5 -63
s-30 -66.5 -30 -116.5c0 -50.667 6.16699 -89.834 18.5 -117.5c12.333 -27.667 31.166 -48.5 56.499 -62.5s60.5 -25.167 105.5 -33.5l150.5 -28.5l770 -139c148 -26 264.5 -52.333 349.5 -79s155.667 -64.834 212 -114.501s97.666 -118.167 124 -205.5
c26.333 -87.333 39.5 -203 39.5 -347c0 -171.333 -13.5 -304.833 -40.5 -400.5s-95.167 -172.167 -204.5 -229.5c105.333 -35.333 174 -98.833 206 -190.5s48 -216.834 48 -375.501c0 -166.667 -16.167 -303.167 -48.5 -409.5s-95.333 -194.833 -189 -265.5
s-233.5 -123.834 -419.5 -159.501s-431.333 -53.5 -736 -53.5c-250.667 0 -452 11.333 -604 34s-276.167 68.167 -372.5 136.5s-167.166 170.833 -212.499 307.5s-68 321.334 -68 554.001h757c4 -118 20 -204.167 48 -258.5s75.167 -90.333 141.5 -108
s169.833 -26.5 310.5 -26.5c163.333 0 286 7.5 368 22.5s136.667 39.333 164 73s41 83.5 41 149.5c0 69.333 -12.5 121.333 -37.5 156s-59.833 59.167 -104.5 73.5s-117.334 30.833 -218.001 49.5l-975 168c-170 31.333 -294.833 69.166 -374.5 113.499
s-134.167 109.833 -163.5 196.5s-44 215.334 -44 386.001c0 164.667 17.167 298.667 51.5 402s114.166 172.666 239.499 207.999c-65.333 45.333 -113 99.666 -143 162.999s-48.5 128.5 -55.5 195.5s-10.5 151.167 -10.5 252.5c0 133.333 14.333 246.333 43 339
s86 174.167 172 244.5s213.5 124.5 382.5 162.5s390.5 57 664.5 57c284 0 512 -15.667 684 -47s309.833 -105.5 413.5 -222.5s155.5 -296.167 155.5 -537.5z" />
    <glyph glyph-name="afii10023" unicode="&#xa8;" horiz-adv-x="2777" 
d="M1081 2400v-561h1311v-569h-1311v-598h1426v-672h-2245v3072h2216v-672h-1397zM1184 3838v-422h-447v422h447zM2044 3838v-422h-447v422h447z" />
    <glyph glyph-name="afii10023" unicode="&#x401;" horiz-adv-x="2777" 
d="M1081 2400v-561h1311v-569h-1311v-598h1426v-672h-2245v3072h2216v-672h-1397zM1184 3838v-422h-447v422h447zM2044 3838v-422h-447v422h447z" />
    <glyph glyph-name="copyright" unicode="&#xa9;" horiz-adv-x="3277" 
d="M1638 -25c-210.667 0 -411.334 40 -602.001 120s-358 192.167 -502 336.5s-256 311.833 -336 502.5s-120 391.334 -120 602.001c0 281.333 69.833 542.166 209.5 782.499s329.334 430.166 569.001 569.5c239.667 139.333 500.167 209 781.5 209
c280.667 0 540.834 -69.667 780.501 -209s429.667 -329 570 -569s210.5 -501 210.5 -783s-70.167 -543 -210.5 -783s-330.333 -429.667 -570 -569s-499.834 -209 -780.501 -209zM1638 332c216 0 416.333 53.5 601 160.5s331.5 253.167 440.5 438.5s163.5 387 163.5 605
s-54.5 419.667 -163.5 605s-255.833 331.5 -440.5 438.5s-385 160.5 -601 160.5c-218.667 0 -420.5 -53.667 -605.5 -161s-331 -253.5 -438 -438.5s-160.5 -386.5 -160.5 -604.5s53.5 -419.5 160.5 -604.5s253 -331.167 438 -438.5s386.833 -161 605.5 -161zM2101 1241
l365 0.000976562c-14.667 -127.333 -57.5 -239.333 -128.5 -336s-162 -170.667 -273 -222s-231.167 -77 -360.5 -77c-178 0 -335.5 41.167 -472.5 123.5s-242.667 195.5 -317 339.5s-111.5 303.667 -111.5 479c0 278 80.333 505.167 241 681.5s378 264.5 652 264.5
c202 0 372.667 -55 512 -165s225.333 -261 258 -453h-365c-18 99.333 -64.833 178.166 -140.5 236.499s-165.167 87.5 -268.5 87.5c-167.333 0 -298 -63.333 -392 -190s-141 -278 -141 -454c0 -104.667 22 -207.5 66 -308.5s107.333 -184 190 -249s179 -97.5 289 -97.5
c101.333 0 191.333 32.333 270 97s121 145.667 127 243z" />
    <glyph glyph-name="afii10053" unicode="&#xaa;" horiz-adv-x="2982" 
d="M2003 1122h844v-49c0 -110.667 -2.16699 -201.167 -6.5 -271.5s-15.333 -141.666 -33 -213.999s-45.5 -140.333 -83.5 -204s-91.333 -124.5 -160 -182.5c-86 -70 -180.167 -121.5 -282.5 -154.5s-204.166 -53.167 -305.5 -60.5c-101.333 -7.33301 -230.333 -11 -387 -11
c-252 0 -458 9.66699 -618 29s-303.5 66.166 -430.5 140.499s-225 191 -294 350s-103.5 373.833 -103.5 644.5v794c0 311.333 53.167 551.833 159.5 721.5s260.5 285.834 462.5 348.5c202 62.667 464.333 94 787 94c213.333 0 398.833 -16.333 556.5 -49
s291.167 -87.167 400.5 -163.5s192.333 -179.833 249 -310.5s85 -292.334 85 -485.001v-41h-844v78c0 114 -40.167 192.333 -120.5 235s-206.833 64 -379.5 64c-144 0 -251.833 -16.333 -323.5 -49s-121 -90 -148 -172s-40.5 -203.667 -40.5 -365h746v-565h-746
c0 -171.333 9.33301 -298 28 -380s64.167 -143.667 136.5 -185s188.166 -62 347.499 -62c128.667 0 227.334 7.83301 296.001 23.5s120.5 50.834 155.5 105.501s52.5 140 52.5 256v90z" />
    <glyph glyph-name="afii10053" unicode="&#x404;" horiz-adv-x="2982" 
d="M2003 1122h844v-49c0 -110.667 -2.16699 -201.167 -6.5 -271.5s-15.333 -141.666 -33 -213.999s-45.5 -140.333 -83.5 -204s-91.333 -124.5 -160 -182.5c-86 -70 -180.167 -121.5 -282.5 -154.5s-204.166 -53.167 -305.5 -60.5c-101.333 -7.33301 -230.333 -11 -387 -11
c-252 0 -458 9.66699 -618 29s-303.5 66.166 -430.5 140.499s-225 191 -294 350s-103.5 373.833 -103.5 644.5v794c0 311.333 53.167 551.833 159.5 721.5s260.5 285.834 462.5 348.5c202 62.667 464.333 94 787 94c213.333 0 398.833 -16.333 556.5 -49
s291.167 -87.167 400.5 -163.5s192.333 -179.833 249 -310.5s85 -292.334 85 -485.001v-41h-844v78c0 114 -40.167 192.333 -120.5 235s-206.833 64 -379.5 64c-144 0 -251.833 -16.333 -323.5 -49s-121 -90 -148 -172s-40.5 -203.667 -40.5 -365h746v-565h-746
c0 -171.333 9.33301 -298 28 -380s64.167 -143.667 136.5 -185s188.166 -62 347.499 -62c128.667 0 227.334 7.83301 296.001 23.5s120.5 50.834 155.5 105.501s52.5 140 52.5 256v90z" />
    <glyph glyph-name="guillemotleft" unicode="&#xab;" horiz-adv-x="2277" 
d="M713 2109l463 -249l-394 -746l394 -692l-439 -270l-549 962zM1626 2109l463 -249l-393 -746l393 -692l-438 -270l-549 962z" />
    <glyph glyph-name="logicalnot" unicode="&#xac;" horiz-adv-x="2458" 
d="M1782 643v725h-1577v471h2048v-1196h-471z" />
    <glyph glyph-name="hyphen" unicode="&#xad;" horiz-adv-x="1114" 
d="M0 1466h1114v-671h-1114v671z" />
    <glyph glyph-name="registered" unicode="&#xae;" horiz-adv-x="3277" 
d="M1638 -25c-210.667 0 -411.334 40 -602.001 120s-358 192.167 -502 336.5s-256 311.833 -336 502.5s-120 391.334 -120 602.001c0 281.333 69.833 542.166 209.5 782.499s329.334 430.166 569.001 569.5c239.667 139.333 500.167 209 781.5 209
c280.667 0 540.834 -69.667 780.501 -209s429.667 -329 570 -569s210.5 -501 210.5 -783s-70.167 -543 -210.5 -783s-330.333 -429.667 -570 -569s-499.834 -209 -780.501 -209zM1638 332c216 0 416.333 53.5 601 160.5s331.5 253.167 440.5 438.5s163.5 387 163.5 605
s-54.5 419.667 -163.5 605s-255.833 331.5 -440.5 438.5s-385 160.5 -601 160.5c-218.667 0 -420.5 -53.667 -605.5 -161s-331 -253.5 -438 -438.5s-160.5 -386.5 -160.5 -604.5s53.5 -419.5 160.5 -604.5s253 -331.167 438 -438.5s386.833 -161 605.5 -161zM2007 1393
l410 -713h-402l-377 692h-315v-692h-356v1687h843c221.333 0 386 -34.167 494 -102.5s162 -206.166 162 -413.5c0 -151.333 -38.167 -263 -114.5 -335s-191.166 -113 -344.5 -123zM1323 1642l496 -0.000976562c102.667 0 176.667 17.167 222 51.5s68 101.833 68 202.5
c0 88.667 -33.333 144.334 -100 167.001s-158.667 34 -276 34h-410v-455z" />
    <glyph glyph-name="afii10056" unicode="&#xaf;" horiz-adv-x="1327" 
d="M1073 3072v-3072h-819v3072h819zM459 3838v-422h-447v422h447zM1319 3838v-422h-447v422h447z" />
    <glyph glyph-name="afii10056" unicode="&#x407;" horiz-adv-x="1327" 
d="M1073 3072v-3072h-819v3072h819zM459 3838v-422h-447v422h447zM1319 3838v-422h-447v422h447z" />
    <glyph glyph-name="degree" unicode="&#xb0;" horiz-adv-x="1638" 
d="M1438 2482c0 -110.667 -27.8359 -213.332 -83.5029 -307.999s-130.667 -169.334 -225 -224.001s-196.5 -82 -306.5 -82c-112 0 -215 27.333 -309 82s-168.333 129 -223 223s-82 197 -82 309c0 110 27.333 212.167 82 306.5s129.334 169.333 224.001 225
s197.334 83.5 308.001 83.5c109.333 0 211.333 -27.833 306 -83.5s169.834 -130.834 225.501 -225.5c55.667 -94.667 83.5 -196.667 83.5 -306zM1155 2482c0 90 -32.832 167.833 -98.499 233.5s-144.834 98.5 -237.501 98.5c-90 0 -167 -32.833 -231 -98.5
s-96 -143.5 -96 -233.5c0 -91.333 32.167 -169.5 96.5 -234.5s142.5 -97.5 234.5 -97.5c91.333 0 169.5 32.5 234.5 97.5s97.5 143.167 97.5 234.5z" />
    <glyph glyph-name="plusminus" unicode="&#xb1;" horiz-adv-x="2458" 
d="M991 2150h471v-483h791v-471h-791v-504h-471v504h-786v471h786v483zM205 0v471h2048v-471h-2048z" />
    <glyph glyph-name="afii10055" unicode="&#xb2;" horiz-adv-x="1327" 
d="M1073 3072v-3072h-819v3072h819z" />
    <glyph glyph-name="afii10055" unicode="&#x406;" horiz-adv-x="1327" 
d="M1073 3072v-3072h-819v3072h819z" />
    <glyph glyph-name="afii10103" unicode="&#xb3;" horiz-adv-x="1053" 
d="M881 2150v-2150h-705v2150h705zM881 3072v-541h-705v541h705z" />
    <glyph glyph-name="afii10103" unicode="&#x456;" horiz-adv-x="1053" 
d="M881 2150v-2150h-705v2150h705zM881 3072v-541h-705v541h705z" />
    <glyph glyph-name="afii10098" unicode="&#xb4;" horiz-adv-x="1655" 
d="M1143 3097l205 -455l-926 -291l-115 254z" />
    <glyph glyph-name="afii10098" unicode="&#x491;" horiz-adv-x="1655" 
d="M1143 3097l205 -455l-926 -291l-115 254z" />
    <glyph glyph-name="mu" unicode="&#xb5;" horiz-adv-x="2519" 
d="M2286 0h-683.998l24 414h-33c-46.667 -158 -126.334 -270.667 -239.001 -338s-255.334 -101 -428.001 -101v-905h-705v3080h705v-1282c0 -118 16 -206.167 48 -264.5s102 -87.5 210 -87.5c104 0 196.167 27 276.5 81s120.5 130.667 120.5 230v1323h705v-2150z" />
    <glyph glyph-name="paragraph" unicode="&#xb6;" 
d="M2920 -930h-491.001v3408h-315v-3408h-492v1729h-532c-304 0 -533 32.5 -687 97.5s-259.667 177.333 -317 337s-86 394.167 -86 703.5c0 205.333 19.333 379.5 58 522.5s99.5 259.667 182.5 350s190.333 156.666 322 199c131.667 42.333 293.834 63.5 486.501 63.5h1871
v-4002zM1622 1393l-0.000976562 1085h-410c-143.333 0 -246.833 -15.667 -310.5 -47s-103.5 -82.166 -119.5 -152.5c-16 -70.333 -24 -184.166 -24 -341.499c0 -128.667 4 -224.834 12 -288.501s26 -114.334 54 -152.001s72.333 -64.334 133 -80.001
s147.334 -23.5 260.001 -23.5h405z" />
    <glyph glyph-name="periodcentered" unicode="&#xb7;" horiz-adv-x="1475" 
d="M1069 1487v-713h-663v713h663z" />
    <glyph glyph-name="afii10071" unicode="&#xb8;" horiz-adv-x="2351" 
d="M827 1343l693.001 0.000976562c0 148 -26 241.667 -78 281s-145 59 -279 59c-88 0 -154.833 -8.83301 -200.5 -26.5s-78.834 -50.334 -99.501 -98.001s-32.667 -119.5 -36 -215.5zM1532 717.001l692.001 -0.00292969c0 -298 -97 -503 -291 -615
c-86.667 -48 -191.334 -81.167 -314.001 -99.5s-270.334 -27.5 -443.001 -27.5c-280 0 -496 35.333 -648 106s-257.5 184.334 -316.5 341.001s-88.5 373.667 -88.5 651c0 287.333 28.167 508.833 84.5 664.5s159.5 267.5 309.5 335.5s369.667 102 659 102
c275.333 0 487.5 -31.167 636.5 -93.5s254.833 -172.166 317.5 -329.499s94 -383.666 94 -678.999v-119h-1397c0 -96.667 4.83301 -176 14.5 -238s26.834 -111 51.501 -147s59.5 -62 104.5 -78s104.5 -24 178.5 -24c125.333 0 216 15.667 272 47s84 99 84 203zM971.002 2916
v-422h-447v422h447zM1831 2916v-422h-447v422h447z" />
    <glyph glyph-name="afii10071" unicode="&#x451;" horiz-adv-x="2351" 
d="M827 1343l693.001 0.000976562c0 148 -26 241.667 -78 281s-145 59 -279 59c-88 0 -154.833 -8.83301 -200.5 -26.5s-78.834 -50.334 -99.501 -98.001s-32.667 -119.5 -36 -215.5zM1532 717.001l692.001 -0.00292969c0 -298 -97 -503 -291 -615
c-86.667 -48 -191.334 -81.167 -314.001 -99.5s-270.334 -27.5 -443.001 -27.5c-280 0 -496 35.333 -648 106s-257.5 184.334 -316.5 341.001s-88.5 373.667 -88.5 651c0 287.333 28.167 508.833 84.5 664.5s159.5 267.5 309.5 335.5s369.667 102 659 102
c275.333 0 487.5 -31.167 636.5 -93.5s254.833 -172.166 317.5 -329.499s94 -383.666 94 -678.999v-119h-1397c0 -96.667 4.83301 -176 14.5 -238s26.834 -111 51.501 -147s59.5 -62 104.5 -78s104.5 -24 178.5 -24c125.333 0 216 15.667 272 47s84 99 84 203zM971.002 2916
v-422h-447v422h447zM1831 2916v-422h-447v422h447z" />
    <glyph glyph-name="afii61352" unicode="&#xb9;" horiz-adv-x="4911" 
d="M3285 520h1286v-315h-1286v315zM3928 2073c188 0 327.5 -20.1631 418.5 -60.4961s151.166 -106.333 180.5 -198s44 -229.5 44 -413.5s-14.666 -321.833 -44 -413.5s-89.5 -157.667 -180.5 -198s-230.5 -60.5 -418.5 -60.5c-143.333 0 -257.166 11.167 -341.5 33.5
c-84.333 22.333 -148.166 58.666 -191.5 108.999c-43.333 50.333 -72.5 116.666 -87.5 198.999s-22.5 192.5 -22.5 330.5s7.5 248.167 22.5 330.5s44.167 148.666 87.5 198.999s107.166 86.666 191.5 108.999c84.333 22.333 198.166 33.5 341.5 33.5zM3928 1757
c-61.333 0 -106.666 -8.5 -136 -25.5c-29.333 -17 -50.166 -50.5 -62.5 -100.5c-12.333 -50 -18.5 -126.667 -18.5 -230c0 -104 6.16699 -180.833 18.5 -230.5s33.666 -83.167 64 -100.5c30.333 -17.333 75.166 -26 134.5 -26c59.333 0 104.166 8.66699 134.5 26
c30.333 17.333 51.666 50.833 64 100.5s18.5 126.5 18.5 230.5c0 103.333 -6.16602 180 -18.5 230s-33.167 83.5 -62.5 100.5s-74.666 25.5 -136 25.5zM258 3072h1270l729 -2355h24l-81 2355h819v-3072h-1270l-729 2355h-25l82 -2355h-819v3072z" />
    <glyph glyph-name="afii61352" unicode="&#x2116;" horiz-adv-x="4911" 
d="M3285 520h1286v-315h-1286v315zM3928 2073c188 0 327.5 -20.1631 418.5 -60.4961s151.166 -106.333 180.5 -198s44 -229.5 44 -413.5s-14.666 -321.833 -44 -413.5s-89.5 -157.667 -180.5 -198s-230.5 -60.5 -418.5 -60.5c-143.333 0 -257.166 11.167 -341.5 33.5
c-84.333 22.333 -148.166 58.666 -191.5 108.999c-43.333 50.333 -72.5 116.666 -87.5 198.999s-22.5 192.5 -22.5 330.5s7.5 248.167 22.5 330.5s44.167 148.666 87.5 198.999s107.166 86.666 191.5 108.999c84.333 22.333 198.166 33.5 341.5 33.5zM3928 1757
c-61.333 0 -106.666 -8.5 -136 -25.5c-29.333 -17 -50.166 -50.5 -62.5 -100.5c-12.333 -50 -18.5 -126.667 -18.5 -230c0 -104 6.16699 -180.833 18.5 -230.5s33.666 -83.167 64 -100.5c30.333 -17.333 75.166 -26 134.5 -26c59.333 0 104.166 8.66699 134.5 26
c30.333 17.333 51.666 50.833 64 100.5s18.5 126.5 18.5 230.5c0 103.333 -6.16602 180 -18.5 230s-33.167 83.5 -62.5 100.5s-74.666 25.5 -136 25.5zM258 3072h1270l729 -2355h24l-81 2355h819v-3072h-1270l-729 2355h-25l82 -2355h-819v3072z" />
    <glyph glyph-name="afii10101" unicode="&#xba;" horiz-adv-x="2281" 
d="M1495 807l700.002 0.00292969c0 -233.333 -38 -410 -114 -530s-186.833 -200.333 -332.5 -241s-343.5 -61 -593.5 -61c-210 0 -381.333 17.833 -514 53.5s-236.5 95 -311.5 178s-127.5 192.833 -157.5 329.5s-45 315.667 -45 537c0 199.333 13.5 364.833 40.5 496.5
s76.333 242.667 148 333s175.167 158.333 310.5 203.999c135.333 45.667 311.666 68.5 528.999 68.5c232 0 421.667 -19.5 569 -58.5s262.666 -116.333 345.999 -232s125 -283.834 125 -504.501h-700c0 84 -10.667 147.5 -32 190.5s-56 72.5 -104 88.5s-116 24 -204 24
c-120.667 0 -205.5 -23.833 -254.5 -71.5s-73.5 -143.834 -73.5 -288.501h459v-430h-459c0 -120 10.833 -210.167 32.5 -270.5s55.5 -101.333 101.5 -123s110.667 -32.5 194 -32.5c102.667 0 177.667 10.5 225 31.5s78.333 54.667 93 101s22 115.5 22 207.5z" />
    <glyph glyph-name="afii10101" unicode="&#x454;" horiz-adv-x="2281" 
d="M1495 807l700.002 0.00292969c0 -233.333 -38 -410 -114 -530s-186.833 -200.333 -332.5 -241s-343.5 -61 -593.5 -61c-210 0 -381.333 17.833 -514 53.5s-236.5 95 -311.5 178s-127.5 192.833 -157.5 329.5s-45 315.667 -45 537c0 199.333 13.5 364.833 40.5 496.5
s76.333 242.667 148 333s175.167 158.333 310.5 203.999c135.333 45.667 311.666 68.5 528.999 68.5c232 0 421.667 -19.5 569 -58.5s262.666 -116.333 345.999 -232s125 -283.834 125 -504.501h-700c0 84 -10.667 147.5 -32 190.5s-56 72.5 -104 88.5s-116 24 -204 24
c-120.667 0 -205.5 -23.833 -254.5 -71.5s-73.5 -143.834 -73.5 -288.501h459v-430h-459c0 -120 10.833 -210.167 32.5 -270.5s55.5 -101.333 101.5 -123s110.667 -32.5 194 -32.5c102.667 0 177.667 10.5 225 31.5s78.333 54.667 93 101s22 115.5 22 207.5z" />
    <glyph glyph-name="guillemotright" unicode="&#xbb;" horiz-adv-x="2277" 
d="M1536 152l-463 249l393 746l-393 692l438 270l549 -962zM623 152l-463 249l393 746l-393 692l438 270l549 -962z" />
    <glyph glyph-name="afii10105" unicode="&#xbc;" horiz-adv-x="2458" 
d="M205 897v471h2048v-471h-2048zM1462 115h-471v471h471v-471zM1462 1679h-471v471h471v-471z" />
    <glyph glyph-name="afii10105" unicode="&#x458;" horiz-adv-x="2458" 
d="M205 897v471h2048v-471h-2048zM1462 115h-471v471h471v-471zM1462 1679h-471v471h471v-471z" />
    <glyph glyph-name="afii10054" unicode="&#xbd;" horiz-adv-x="2458" 
d="M205 1794l360 356l664 -659l663 659l361 -356l-664 -664l664 -663l-361 -361l-663 664l-664 -664l-360 361l663 663z" />
    <glyph glyph-name="afii10054" unicode="&#x405;" horiz-adv-x="2458" 
d="M205 1794l360 356l664 -659l663 659l361 -356l-664 -664l664 -663l-361 -361l-663 664l-664 -664l-360 361l663 663z" />
    <glyph glyph-name="afii10102" unicode="&#xbe;" horiz-adv-x="4424" 
d="M4153 1843v-1122h168v-356h-168v-365h-508v365h-1044v524l766 954h786zM3645 721v745h-20l-606 -745h626zM3473 3072l-1814 -3072h-492l1815 3072h491zM786 2003v356h127c86 0 148.5 3.83301 187.5 11.5s64 21.5 75 41.5s16.5 53 16.5 99
c0 56 -4.83301 97.167 -14.5 123.5s-34.167 45.833 -73.5 58.5s-103 19 -191 19c-108.667 0 -182.167 -11.5 -220.5 -34.5s-57.5 -82.5 -57.5 -178.5v-37h-508v65c0 167.333 29.833 292.166 89.5 374.499s142.167 135.5 247.5 159.5s247 36 425 36
c250 0 447.667 -30.167 593 -90.5s218 -195.5 218 -405.5c0 -252 -102.333 -390 -307 -414v-20c220.667 -11.333 331 -144 331 -398c0 -151.333 -33.5 -267 -100.5 -347s-159.667 -133.5 -278 -160.5s-270.5 -40.5 -456.5 -40.5c-164.667 0 -302 11.833 -412 35.5
s-199.333 76.834 -268 159.501s-103 206 -103 370v98h508v-61c0 -94 22.833 -153.667 68.5 -179s122.5 -38 230.5 -38c120 0 200.667 12.5 242 37.5s62 87.5 62 187.5c0 68.667 -17.5 114.5 -52.5 137.5s-118.833 34.5 -251.5 34.5h-127z" />
    <glyph glyph-name="afii10102" unicode="&#x455;" horiz-adv-x="4424" 
d="M4153 1843v-1122h168v-356h-168v-365h-508v365h-1044v524l766 954h786zM3645 721v745h-20l-606 -745h626zM3473 3072l-1814 -3072h-492l1815 3072h491zM786 2003v356h127c86 0 148.5 3.83301 187.5 11.5s64 21.5 75 41.5s16.5 53 16.5 99
c0 56 -4.83301 97.167 -14.5 123.5s-34.167 45.833 -73.5 58.5s-103 19 -191 19c-108.667 0 -182.167 -11.5 -220.5 -34.5s-57.5 -82.5 -57.5 -178.5v-37h-508v65c0 167.333 29.833 292.166 89.5 374.499s142.167 135.5 247.5 159.5s247 36 425 36
c250 0 447.667 -30.167 593 -90.5s218 -195.5 218 -405.5c0 -252 -102.333 -390 -307 -414v-20c220.667 -11.333 331 -144 331 -398c0 -151.333 -33.5 -267 -100.5 -347s-159.667 -133.5 -278 -160.5s-270.5 -40.5 -456.5 -40.5c-164.667 0 -302 11.833 -412 35.5
s-199.333 76.834 -268 159.501s-103 206 -103 370v98h508v-61c0 -94 22.833 -153.667 68.5 -179s122.5 -38 230.5 -38c120 0 200.667 12.5 242 37.5s62 87.5 62 187.5c0 68.667 -17.5 114.5 -52.5 137.5s-118.833 34.5 -251.5 34.5h-127z" />
    <glyph glyph-name="afii10104" unicode="&#xbf;" horiz-adv-x="1053" 
d="M881 2150v-2150h-705v2150h705zM319 2916v-422h-446v422h446zM1180 2916v-422h-447v422h447z" />
    <glyph glyph-name="afii10104" unicode="&#x457;" horiz-adv-x="1053" 
d="M881 2150v-2150h-705v2150h705zM319 2916v-422h-446v422h446zM1180 2916v-422h-447v422h447z" />
    <glyph glyph-name="afii10017" unicode="&#xc0;" horiz-adv-x="3002" 
d="M2056 528h-1102l-151 -528h-852l921 3072h1246l934 -3072h-836zM1892 1126l-381 1332h-8l-373 -1332h762z" />
    <glyph glyph-name="afii10017" unicode="&#x410;" horiz-adv-x="3002" 
d="M2056 528h-1102l-151 -528h-852l921 3072h1246l934 -3072h-836zM1892 1126l-381 1332h-8l-373 -1332h762z" />
    <glyph glyph-name="afii10018" unicode="&#xc1;" horiz-adv-x="2912" 
d="M2478 3072h-2240v-3072h1581c210.667 0 385.667 31.167 525.001 93.5c139.333 62.333 244.333 162.833 315 301.5s106 321 106 547s-34.833 408.167 -104.5 546.5s-174 238.833 -313 301.5s-315.167 94 -528.5 94h-758v545h1417v643zM1061 1245h565
c120.667 0 204.167 -20.833 250.5 -62.5s69.5 -124.5 69.5 -248.5c0 -116.667 -23.167 -195 -69.5 -235s-129.833 -60 -250.5 -60h-565v606z" />
    <glyph glyph-name="afii10018" unicode="&#x411;" horiz-adv-x="2912" 
d="M2478 3072h-2240v-3072h1581c210.667 0 385.667 31.167 525.001 93.5c139.333 62.333 244.333 162.833 315 301.5s106 321 106 547s-34.833 408.167 -104.5 546.5s-174 238.833 -313 301.5s-315.167 94 -528.5 94h-758v545h1417v643zM1061 1245h565
c120.667 0 204.167 -20.833 250.5 -62.5s69.5 -124.5 69.5 -248.5c0 -116.667 -23.167 -195 -69.5 -235s-129.833 -60 -250.5 -60h-565v606z" />
    <glyph glyph-name="afii10019" unicode="&#xc2;" horiz-adv-x="3023" 
d="M246 0v3072h1614c222 0 402.167 -20 540.5 -60s244.5 -117.333 318.5 -232s111 -279.334 111 -494.001c0 -143.333 -12.667 -261.833 -38 -355.5s-73.333 -170.667 -144 -231s-171 -101.166 -301 -122.499v-33c144 -8.66699 255 -42.167 333 -100.5
s130.667 -134.833 158 -229.5s41 -214 41 -358c0 -242 -37 -425 -111 -549s-181 -206.167 -321 -246.5s-330.333 -60.5 -571 -60.5h-1630zM1065 2400l0.00195312 -556.998h590c101.333 0 176.166 7.66699 224.499 23s82.333 43.666 102 84.999s29.5 103.666 29.5 186.999
c0 98 -16.833 166.167 -50.5 204.5s-102.834 57.5 -207.501 57.5h-688zM1065 1274l0.000976562 -602h618c92 0 165.167 8.66699 219.5 26s94.166 48.5 119.499 93.5s38 108.833 38 191.5c0 122 -25 201 -75 237s-145 54 -285 54h-635z" />
    <glyph glyph-name="afii10019" unicode="&#x412;" horiz-adv-x="3023" 
d="M246 0v3072h1614c222 0 402.167 -20 540.5 -60s244.5 -117.333 318.5 -232s111 -279.334 111 -494.001c0 -143.333 -12.667 -261.833 -38 -355.5s-73.333 -170.667 -144 -231s-171 -101.166 -301 -122.499v-33c144 -8.66699 255 -42.167 333 -100.5
s130.667 -134.833 158 -229.5s41 -214 41 -358c0 -242 -37 -425 -111 -549s-181 -206.167 -321 -246.5s-330.333 -60.5 -571 -60.5h-1630zM1065 2400l0.00195312 -556.998h590c101.333 0 176.166 7.66699 224.499 23s82.333 43.666 102 84.999s29.5 103.666 29.5 186.999
c0 98 -16.833 166.167 -50.5 204.5s-102.834 57.5 -207.501 57.5h-688zM1065 1274l0.000976562 -602h618c92 0 165.167 8.66699 219.5 26s94.166 48.5 119.499 93.5s38 108.833 38 191.5c0 122 -25 201 -75 237s-145 54 -285 54h-635z" />
    <glyph glyph-name="afii10020" unicode="&#xc3;" horiz-adv-x="2396" 
d="M1057 0v2359h1282v713h-2101v-3072h819z" />
    <glyph glyph-name="afii10020" unicode="&#x413;" horiz-adv-x="2396" 
d="M1057 0v2359h1282v713h-2101v-3072h819z" />
    <glyph glyph-name="afii10021" unicode="&#xc4;" horiz-adv-x="3334" 
d="M332 705c72 98 130.167 204.167 174.5 318.5s76.833 249.5 97.5 405.5s31 344.667 31 566v1077h2367v-2367h254v-1414h-778v709h-1614v-709h-774v1414h242zM1409 2367l4 -420.999c0 -198.667 -9 -371.667 -27 -519s-45.5 -278.333 -82.5 -393
s-85.167 -224.334 -144.5 -329.001h1020v1662h-770z" />
    <glyph glyph-name="afii10021" unicode="&#x414;" horiz-adv-x="3334" 
d="M332 705c72 98 130.167 204.167 174.5 318.5s76.833 249.5 97.5 405.5s31 344.667 31 566v1077h2367v-2367h254v-1414h-778v709h-1614v-709h-774v1414h242zM1409 2367l4 -420.999c0 -198.667 -9 -371.667 -27 -519s-45.5 -278.333 -82.5 -393
s-85.167 -224.334 -144.5 -329.001h1020v1662h-770z" />
    <glyph glyph-name="afii10022" unicode="&#xc5;" horiz-adv-x="2777" 
d="M1081 2400v-561h1311v-569h-1311v-598h1426v-672h-2245v3072h2216v-672h-1397z" />
    <glyph glyph-name="afii10022" unicode="&#x415;" horiz-adv-x="2777" 
d="M1081 2400v-561h1311v-569h-1311v-598h1426v-672h-2245v3072h2216v-672h-1397z" />
    <glyph glyph-name="afii10024" unicode="&#xc6;" horiz-adv-x="4796" 
d="M2798 1917v1155h-775v-1155h-245l-680 1155h-934l926 -1487l-1065 -1585h1015l738 1204h245v-1204h775v1204h245l738 -1204h1015l-1065 1585l926 1487h-934l-680 -1155h-245z" />
    <glyph glyph-name="afii10024" unicode="&#x416;" horiz-adv-x="4796" 
d="M2798 1917v1155h-775v-1155h-245l-680 1155h-934l926 -1487l-1065 -1585h1015l738 1204h245v-1204h775v1204h245l738 -1204h1015l-1065 1585l926 1487h-934l-680 -1155h-245z" />
    <glyph glyph-name="afii10025" unicode="&#xc7;" horiz-adv-x="2929" 
d="M1606 1274l-435.002 -0.00390625v569h390c90.667 0 160.834 7.66699 210.501 23s86.334 44 110.001 86s35.5 104 35.5 186c0 102.667 -31.5 176.834 -94.5 222.5c-63 45.667 -192.5 68.5 -388.5 68.5c-115.333 0 -205.5 -8.5 -270.5 -25.5s-112.667 -48.167 -143 -93.5
s-45.5 -110.666 -45.5 -195.999h-787v127c0 220.667 48 394 144 520s235.333 214.167 418 264.5s414.667 75.5 696 75.5c282 0 517 -24.167 705 -72.5s332.5 -132.333 433.5 -252s151.5 -283.167 151.5 -490.5c0 -216 -33 -380.5 -99 -493.5s-194 -184.833 -384 -215.5v-33
c191.333 -17.333 327.833 -80.166 409.5 -188.499s122.5 -261.166 122.5 -458.499c0 -189.333 -17.833 -341.166 -53.5 -455.499s-100 -205.666 -193 -273.999s-225.5 -117.5 -397.5 -147.5s-401 -45 -687 -45c-235.333 0 -431 13.5 -587 40.5s-287.167 76.167 -393.5 147.5
s-186.5 175 -240.5 311s-81 311 -81 525h786c0 -105.333 15 -182.833 45 -232.5s80 -82 150 -97s177 -22.5 321 -22.5c134 0 236.667 8.16699 308 24.5s122.5 46.666 153.5 90.999s46.5 109.5 46.5 195.5c0 113.333 -26.5 194.333 -79.5 243s-145.167 73 -276.5 73z" />
    <glyph glyph-name="afii10025" unicode="&#x417;" horiz-adv-x="2929" 
d="M1606 1274l-435.002 -0.00390625v569h390c90.667 0 160.834 7.66699 210.501 23s86.334 44 110.001 86s35.5 104 35.5 186c0 102.667 -31.5 176.834 -94.5 222.5c-63 45.667 -192.5 68.5 -388.5 68.5c-115.333 0 -205.5 -8.5 -270.5 -25.5s-112.667 -48.167 -143 -93.5
s-45.5 -110.666 -45.5 -195.999h-787v127c0 220.667 48 394 144 520s235.333 214.167 418 264.5s414.667 75.5 696 75.5c282 0 517 -24.167 705 -72.5s332.5 -132.333 433.5 -252s151.5 -283.167 151.5 -490.5c0 -216 -33 -380.5 -99 -493.5s-194 -184.833 -384 -215.5v-33
c191.333 -17.333 327.833 -80.166 409.5 -188.499s122.5 -261.166 122.5 -458.499c0 -189.333 -17.833 -341.166 -53.5 -455.499s-100 -205.666 -193 -273.999s-225.5 -117.5 -397.5 -147.5s-401 -45 -687 -45c-235.333 0 -431 13.5 -587 40.5s-287.167 76.167 -393.5 147.5
s-186.5 175 -240.5 311s-81 311 -81 525h786c0 -105.333 15 -182.833 45 -232.5s80 -82 150 -97s177 -22.5 321 -22.5c134 0 236.667 8.16699 308 24.5s122.5 46.666 153.5 90.999s46.5 109.5 46.5 195.5c0 113.333 -26.5 194.333 -79.5 243s-145.167 73 -276.5 73z" />
    <glyph glyph-name="afii10026" unicode="&#xc8;" horiz-adv-x="3371" 
d="M258 3072h778v-2023h29l958 2023h1078v-3072h-779v2023h-28l-922 -2023h-1114v3072z" />
    <glyph glyph-name="afii10026" unicode="&#x418;" horiz-adv-x="3371" 
d="M258 3072h778v-2023h29l958 2023h1078v-3072h-779v2023h-28l-922 -2023h-1114v3072z" />
    <glyph glyph-name="afii10027" unicode="&#xc9;" horiz-adv-x="3371" 
d="M258 3072h778v-2023h29l958 2023h1078v-3072h-779v2023h-28l-922 -2023h-1114v3072zM1237 3924c0 -106 27.334 -178.167 82.001 -216.5s151.667 -57.5 291 -57.5c138.667 0 235.334 19 290.001 57s82 110.333 82 217h345c0 -176.667 -27.833 -310.5 -83.5 -401.5
s-133.834 -151.333 -234.501 -181s-233.667 -44.5 -399 -44.5c-166.667 0 -300.334 14.833 -401.001 44.5s-178.5 90.167 -233.5 181.5s-82.5 225 -82.5 401h344z" />
    <glyph glyph-name="afii10027" unicode="&#x419;" horiz-adv-x="3371" 
d="M258 3072h778v-2023h29l958 2023h1078v-3072h-779v2023h-28l-922 -2023h-1114v3072zM1237 3924c0 -106 27.334 -178.167 82.001 -216.5s151.667 -57.5 291 -57.5c138.667 0 235.334 19 290.001 57s82 110.333 82 217h345c0 -176.667 -27.833 -310.5 -83.5 -401.5
s-133.834 -151.333 -234.501 -181s-233.667 -44.5 -399 -44.5c-166.667 0 -300.334 14.833 -401.001 44.5s-178.5 90.167 -233.5 181.5s-82.5 225 -82.5 401h344z" />
    <glyph glyph-name="afii10028" unicode="&#xca;" horiz-adv-x="3080" 
d="M1081 3072v-1155h246l791 1155h991l-1081 -1507l1171 -1565h-1016l-856 1204h-246v-1204h-819v3072h819z" />
    <glyph glyph-name="afii10028" unicode="&#x41a;" horiz-adv-x="3080" 
d="M1081 3072v-1155h246l791 1155h991l-1081 -1507l1171 -1565h-1016l-856 1204h-246v-1204h-819v3072h819z" />
    <glyph glyph-name="afii10029" unicode="&#xcb;" horiz-adv-x="3355" 
d="M594 3072l2490 -0.000976562v-3072h-823v2359h-889v-1290c0 -227.333 -33.333 -422.666 -100 -585.999s-168.334 -288.833 -305.001 -376.5s-306 -131.5 -508 -131.5c-148 0 -287.333 12.333 -418 37v664c57.333 -19.333 140.666 -29 249.999 -29
c112 0 190.5 30.333 235.5 91s67.5 167 67.5 319v2015z" />
    <glyph glyph-name="afii10029" unicode="&#x41b;" horiz-adv-x="3355" 
d="M594 3072l2490 -0.000976562v-3072h-823v2359h-889v-1290c0 -227.333 -33.333 -422.666 -100 -585.999s-168.334 -288.833 -305.001 -376.5s-306 -131.5 -508 -131.5c-148 0 -287.333 12.333 -418 37v664c57.333 -19.333 140.666 -29 249.999 -29
c112 0 190.5 30.333 235.5 91s67.5 167 67.5 319v2015z" />
    <glyph glyph-name="afii10030" unicode="&#xcc;" horiz-adv-x="4297" 
d="M987 2355l82 -2355h-819v3072h1298l586 -1929h29l557 1929h1331v-3072h-819l82 2355h-29l-778 -2355h-709l-786 2355h-25z" />
    <glyph glyph-name="afii10030" unicode="&#x41c;" horiz-adv-x="4297" 
d="M987 2355l82 -2355h-819v3072h1298l586 -1929h29l557 1929h1331v-3072h-819l82 2355h-29l-778 -2355h-709l-786 2355h-25z" />
    <glyph glyph-name="afii10031" unicode="&#xcd;" horiz-adv-x="3228" 
d="M2970 3072v-3072h-820v1204h-1069v-1204h-819v3072h819v-1155h1069v1155h820z" />
    <glyph glyph-name="afii10031" unicode="&#x41d;" horiz-adv-x="3228" 
d="M2970 3072v-3072h-820v1204h-1069v-1204h-819v3072h819v-1155h1069v1155h820z" />
    <glyph glyph-name="afii10032" unicode="&#xce;" horiz-adv-x="3113" 
d="M1556 -25c-227.333 0 -425 15.667 -593 47s-314 87.5 -438 168.5s-220 196 -288 345s-102 337.833 -102 566.5v868c0 228.667 34.167 417.834 102.5 567.5c68.333 149.667 164.333 264.667 288 345s269.5 136.166 437.5 167.5c168 31.333 365.667 47 593 47
c228 0 426.167 -15.667 594.5 -47s314.333 -87.166 438 -167.5c123.667 -80.333 219.5 -195.333 287.5 -345s102 -338.834 102 -567.5v-868c0 -228.667 -33.833 -417.5 -101.5 -566.5s-163.5 -264 -287.5 -345s-270.167 -137.167 -438.5 -168.5s-366.5 -47 -594.5 -47z
M1556 688c156.667 0 274.167 10.834 352.5 32.501s135.5 68.167 171.5 139.5s54 182 54 332v692c0 115.333 -10.167 205.833 -30.5 271.5s-52.5 115 -96.5 148s-100.833 54.667 -170.5 65s-163.167 15.5 -280.5 15.5c-155.333 0 -271.333 -10.667 -348 -32
s-133 -67 -169 -137s-56 -180.333 -60 -331v-692c4 -151.333 23.833 -262.333 59.5 -333s92 -116.834 169 -138.501s193.167 -32.5 348.5 -32.5z" />
    <glyph glyph-name="afii10032" unicode="&#x41e;" horiz-adv-x="3113" 
d="M1556 -25c-227.333 0 -425 15.667 -593 47s-314 87.5 -438 168.5s-220 196 -288 345s-102 337.833 -102 566.5v868c0 228.667 34.167 417.834 102.5 567.5c68.333 149.667 164.333 264.667 288 345s269.5 136.166 437.5 167.5c168 31.333 365.667 47 593 47
c228 0 426.167 -15.667 594.5 -47s314.333 -87.166 438 -167.5c123.667 -80.333 219.5 -195.333 287.5 -345s102 -338.834 102 -567.5v-868c0 -228.667 -33.833 -417.5 -101.5 -566.5s-163.5 -264 -287.5 -345s-270.167 -137.167 -438.5 -168.5s-366.5 -47 -594.5 -47z
M1556 688c156.667 0 274.167 10.834 352.5 32.501s135.5 68.167 171.5 139.5s54 182 54 332v692c0 115.333 -10.167 205.833 -30.5 271.5s-52.5 115 -96.5 148s-100.833 54.667 -170.5 65s-163.167 15.5 -280.5 15.5c-155.333 0 -271.333 -10.667 -348 -32
s-133 -67 -169 -137s-56 -180.333 -60 -331v-692c4 -151.333 23.833 -262.333 59.5 -333s92 -116.834 169 -138.501s193.167 -32.5 348.5 -32.5z" />
    <glyph glyph-name="afii10033" unicode="&#xcf;" horiz-adv-x="3228" 
d="M2970 3072v-3072h-820v2359h-1069v-2359h-819v3072h2708z" />
    <glyph glyph-name="afii10033" unicode="&#x41f;" horiz-adv-x="3228" 
d="M2970 3072v-3072h-820v2359h-1069v-2359h-819v3072h2708z" />
    <glyph glyph-name="afii10034" unicode="&#xd0;" horiz-adv-x="2912" 
d="M1057 0h-819v3072h1544c192.667 0 355.5 -21.333 488.5 -64s240.333 -108.334 322 -197c81.667 -88.667 141.667 -204.5 180 -347.5s57.5 -315.5 57.5 -517.5c0 -225.333 -15.333 -410.833 -46 -556.5s-83.5 -262.5 -158.5 -350.5s-180.5 -152.167 -316.5 -192.5
s-311.667 -60.5 -527 -60.5h-725v-786zM1057 1499l561 0.000976562c111.333 0 191.5 10 240.5 30s82.667 60.167 101 120.5s27.5 159.166 27.5 296.499c0 110.667 -9 194.834 -27 252.5c-18 57.667 -53 98.834 -105 123.5c-52 24.667 -131 37 -237 37h-561v-860z" />
    <glyph glyph-name="afii10034" unicode="&#x420;" horiz-adv-x="2912" 
d="M1057 0h-819v3072h1544c192.667 0 355.5 -21.333 488.5 -64s240.333 -108.334 322 -197c81.667 -88.667 141.667 -204.5 180 -347.5s57.5 -315.5 57.5 -517.5c0 -225.333 -15.333 -410.833 -46 -556.5s-83.5 -262.5 -158.5 -350.5s-180.5 -152.167 -316.5 -192.5
s-311.667 -60.5 -527 -60.5h-725v-786zM1057 1499l561 0.000976562c111.333 0 191.5 10 240.5 30s82.667 60.167 101 120.5s27.5 159.166 27.5 296.499c0 110.667 -9 194.834 -27 252.5c-18 57.667 -53 98.834 -105 123.5c-52 24.667 -131 37 -237 37h-561v-860z" />
    <glyph glyph-name="afii10035" unicode="&#xd1;" horiz-adv-x="2982" 
d="M2003 1163l844 -0.00390625v-90c0 -110.667 -2.16699 -201.167 -6.5 -271.5s-15.333 -141.666 -33 -213.999s-45.5 -140.333 -83.5 -204s-91.333 -124.5 -160 -182.5c-86 -70 -180.167 -121.5 -282.5 -154.5s-204.166 -53.167 -305.499 -60.5s-230.333 -11 -387 -11
c-252 0 -458 9.66699 -618 29s-303.5 66.166 -430.5 140.499s-225 191 -294 350s-103.5 373.833 -103.5 644.5v794c0 325.333 55.5 572.5 166.5 741.5s268.5 281.667 472.5 338s473 84.5 807 84.5c285.333 0 519 -30.333 701 -91s319.667 -164.5 413 -311.5
s140 -348.833 140 -605.5v-119h-844v119c-9.33301 87.333 -34.833 152.166 -76.5 194.5c-41.667 42.333 -95.167 69.666 -160.5 82c-65.333 12.333 -153 18.5 -263 18.5c-154.667 0 -267.834 -17.667 -339.501 -53s-118.334 -92.166 -140.001 -170.5
c-21.667 -78.333 -32.5 -197.833 -32.5 -358.5v-479c0 -135.333 4.5 -239.166 13.5 -311.499s29.833 -133.166 62.5 -182.499s83 -85.166 151 -107.499s163 -33.5 285 -33.5c128.667 0 227.334 7.83301 296.001 23.5s120.5 50.834 155.5 105.501s52.5 140 52.5 256v90z" />
    <glyph glyph-name="afii10035" unicode="&#x421;" horiz-adv-x="2982" 
d="M2003 1163l844 -0.00390625v-90c0 -110.667 -2.16699 -201.167 -6.5 -271.5s-15.333 -141.666 -33 -213.999s-45.5 -140.333 -83.5 -204s-91.333 -124.5 -160 -182.5c-86 -70 -180.167 -121.5 -282.5 -154.5s-204.166 -53.167 -305.499 -60.5s-230.333 -11 -387 -11
c-252 0 -458 9.66699 -618 29s-303.5 66.166 -430.5 140.499s-225 191 -294 350s-103.5 373.833 -103.5 644.5v794c0 325.333 55.5 572.5 166.5 741.5s268.5 281.667 472.5 338s473 84.5 807 84.5c285.333 0 519 -30.333 701 -91s319.667 -164.5 413 -311.5
s140 -348.833 140 -605.5v-119h-844v119c-9.33301 87.333 -34.833 152.166 -76.5 194.5c-41.667 42.333 -95.167 69.666 -160.5 82c-65.333 12.333 -153 18.5 -263 18.5c-154.667 0 -267.834 -17.667 -339.501 -53s-118.334 -92.166 -140.001 -170.5
c-21.667 -78.333 -32.5 -197.833 -32.5 -358.5v-479c0 -135.333 4.5 -239.166 13.5 -311.499s29.833 -133.166 62.5 -182.499s83 -85.166 151 -107.499s163 -33.5 285 -33.5c128.667 0 227.334 7.83301 296.001 23.5s120.5 50.834 155.5 105.501s52.5 140 52.5 256v90z" />
    <glyph glyph-name="afii10036" unicode="&#xd2;" horiz-adv-x="2437" 
d="M1610 2359v-2359h-819v2359h-787v713h2433v-713h-827z" />
    <glyph glyph-name="afii10036" unicode="&#x422;" horiz-adv-x="2437" 
d="M1610 2359v-2359h-819v2359h-787v713h2433v-713h-827z" />
    <glyph glyph-name="afii10037" unicode="&#xd3;" horiz-adv-x="3031" 
d="M8 3072l930.001 -0.000976562l541 -1319h37l528 1319h946l-1163 -2372c-90 -178 -179.833 -319.667 -269.5 -425s-191 -181.666 -304 -228.999s-250.833 -71 -413.5 -71c-116.667 0 -253.334 12.333 -410.001 37v664c57.333 -19.333 147.333 -29 270 -29
c90 0 157.167 4.66699 201.5 14s77.833 26.5 100.5 51.5s43.667 66.167 63 123.5z" />
    <glyph glyph-name="afii10037" unicode="&#x423;" horiz-adv-x="3031" 
d="M8 3072l930.001 -0.000976562l541 -1319h37l528 1319h946l-1163 -2372c-90 -178 -179.833 -319.667 -269.5 -425s-191 -181.666 -304 -228.999s-250.833 -71 -413.5 -71c-116.667 0 -253.334 12.333 -410.001 37v664c57.333 -19.333 147.333 -29 270 -29
c90 0 157.167 4.66699 201.5 14s77.833 26.5 100.5 51.5s43.667 66.167 63 123.5z" />
    <glyph glyph-name="afii10038" unicode="&#xd4;" horiz-adv-x="4178" 
d="M2499 0l-820 0.00195312v299h-417c-209.333 0 -384.833 20.833 -526.5 62.5s-256.667 109.667 -345 204s-153 221.166 -194 380.499s-61.5 357.333 -61.5 594c0 313.333 37.167 560 111.5 740s193 309.167 356 387.5s382.833 117.5 659.5 117.5h417v287h820v-287h413
c276.667 0 496.334 -39.167 659 -117.5c162.667 -78.333 281.334 -207.5 356 -387.5c74.667 -180 112 -426.667 112 -740c0 -240.667 -20.667 -439.834 -62 -597.501s-106.333 -283.5 -195 -377.5s-203.5 -161.833 -344.5 -203.5s-316.167 -62.5 -525.5 -62.5h-413v-299z
M2499 1012l278 0.00195312c104.667 0 186.834 15.167 246.5 45.5c59.667 30.333 103.167 84.166 130.5 161.499s41 185.666 41 324.999c0 200 -30.667 338.833 -92 416.5s-170 116.5 -326 116.5l-278 -4v-1061zM1397 1008l281.997 3.99805v1061h-282
c-105.333 0 -188.166 -16.5 -248.499 -49.5s-103.666 -88.167 -129.999 -165.5s-39.5 -183.333 -39.5 -318c0 -139.333 13.667 -247.666 41 -324.999s70.833 -131.166 130.5 -161.499s141.834 -45.5 246.501 -45.5z" />
    <glyph glyph-name="afii10038" unicode="&#x424;" horiz-adv-x="4178" 
d="M2499 0l-820 0.00195312v299h-417c-209.333 0 -384.833 20.833 -526.5 62.5s-256.667 109.667 -345 204s-153 221.166 -194 380.499s-61.5 357.333 -61.5 594c0 313.333 37.167 560 111.5 740s193 309.167 356 387.5s382.833 117.5 659.5 117.5h417v287h820v-287h413
c276.667 0 496.334 -39.167 659 -117.5c162.667 -78.333 281.334 -207.5 356 -387.5c74.667 -180 112 -426.667 112 -740c0 -240.667 -20.667 -439.834 -62 -597.501s-106.333 -283.5 -195 -377.5s-203.5 -161.833 -344.5 -203.5s-316.167 -62.5 -525.5 -62.5h-413v-299z
M2499 1012l278 0.00195312c104.667 0 186.834 15.167 246.5 45.5c59.667 30.333 103.167 84.166 130.5 161.499s41 185.666 41 324.999c0 200 -30.667 338.833 -92 416.5s-170 116.5 -326 116.5l-278 -4v-1061zM1397 1008l281.997 3.99805v1061h-282
c-105.333 0 -188.166 -16.5 -248.499 -49.5s-103.666 -88.167 -129.999 -165.5s-39.5 -183.333 -39.5 -318c0 -139.333 13.667 -247.666 41 -324.999s70.833 -131.166 130.5 -161.499s141.834 -45.5 246.501 -45.5z" />
    <glyph glyph-name="afii10039" unicode="&#xd5;" horiz-adv-x="2998" 
d="M3002 3072l-848 -1491l914 -1581h-954l-611 1184l-606 -1184h-963l922 1581l-864 1491h958l553 -1126l557 1126h942z" />
    <glyph glyph-name="afii10039" unicode="&#x425;" horiz-adv-x="2998" 
d="M3002 3072l-848 -1491l914 -1581h-954l-611 1184l-606 -1184h-963l922 1581l-864 1491h958l553 -1126l557 1126h942z" />
    <glyph glyph-name="afii10040" unicode="&#xd6;" horiz-adv-x="3289" 
d="M1081 713h1069v2359h820v-2359h254v-1413h-779v700h-2183v3072h819v-2359z" />
    <glyph glyph-name="afii10040" unicode="&#x426;" horiz-adv-x="3289" 
d="M1081 713h1069v2359h820v-2359h254v-1413h-779v700h-2183v3072h819v-2359z" />
    <glyph glyph-name="afii10041" unicode="&#xd7;" horiz-adv-x="3117" 
d="M2028 3072l819.001 -0.00292969v-3072h-819v1229c-178.667 -54.667 -401.334 -82 -668.001 -82c-276.667 0 -495 35.667 -655 107s-274.5 183.333 -343.5 336s-103.5 354.334 -103.5 605.001v877h819v-758c0 -125.333 13.167 -219.666 39.5 -282.999
s73 -107.666 140 -132.999s165.5 -38 295.5 -38c185.333 0 344 19 476 57v1155z" />
    <glyph glyph-name="afii10041" unicode="&#x427;" horiz-adv-x="3117" 
d="M2028 3072l819.001 -0.00292969v-3072h-819v1229c-178.667 -54.667 -401.334 -82 -668.001 -82c-276.667 0 -495 35.667 -655 107s-274.5 183.333 -343.5 336s-103.5 354.334 -103.5 605.001v877h819v-758c0 -125.333 13.167 -219.666 39.5 -282.999
s73 -107.666 140 -132.999s165.5 -38 295.5 -38c185.333 0 344 19 476 57v1155z" />
    <glyph glyph-name="afii10042" unicode="&#xd8;" horiz-adv-x="4571" 
d="M1081 713h795v2359h819v-2359h795v2359h819v-3072h-4047v3072h819v-2359z" />
    <glyph glyph-name="afii10042" unicode="&#x428;" horiz-adv-x="4571" 
d="M1081 713h795v2359h819v-2359h795v2359h819v-3072h-4047v3072h819v-2359z" />
    <glyph glyph-name="afii10043" unicode="&#xd9;" horiz-adv-x="4645" 
d="M1081 713h795v2359h819v-2359h795v2359h819v-2359h254v-1413h-778v700h-3523v3072h819v-2359z" />
    <glyph glyph-name="afii10043" unicode="&#x429;" horiz-adv-x="4645" 
d="M1081 713h795v2359h819v-2359h795v2359h819v-2359h254v-1413h-778v700h-3523v3072h819v-2359z" />
    <glyph glyph-name="afii10044" unicode="&#xda;" horiz-adv-x="3318" 
d="M1462 3072h-1515v-688h696v-2384l1581 4c208 0 382.333 33.833 523 101.5s246.334 173.5 317 317.5c70.667 144 106 329.333 106 556s-35.5 412 -106.5 556s-177.333 249.833 -319 317.5s-317.834 101.5 -528.5 101.5h-754v1118zM1462 1278h570
c120 0 203.167 -20.833 249.5 -62.5s69.5 -124.5 69.5 -248.5c0 -116.667 -23.167 -195 -69.5 -235s-129.5 -60 -249.5 -60h-570v606z" />
    <glyph glyph-name="afii10044" unicode="&#x42a;" horiz-adv-x="3318" 
d="M1462 3072h-1515v-688h696v-2384l1581 4c208 0 382.333 33.833 523 101.5s246.334 173.5 317 317.5c70.667 144 106 329.333 106 556s-35.5 412 -106.5 556s-177.333 249.833 -319 317.5s-317.834 101.5 -528.5 101.5h-754v1118zM1462 1278h570
c120 0 203.167 -20.833 249.5 -62.5s69.5 -124.5 69.5 -248.5c0 -116.667 -23.167 -195 -69.5 -235s-129.5 -60 -249.5 -60h-570v606z" />
    <glyph glyph-name="afii10045" unicode="&#xdb;" horiz-adv-x="4289" 
d="M1057 3072l-818.999 0.000976562v-3072h1581c207.333 0 381.333 33.833 521.999 101.5c140.667 67.667 246.5 173.5 317.5 317.5s106.5 329.333 106.5 556s-35.667 412.167 -107 556.5s-178 250.166 -320 317.499s-318 101 -528 101h-753v1122zM1057 1278h569
c120.667 0 204.167 -20.833 250.5 -62.5s69.5 -124.5 69.5 -248.5c0 -116.667 -23.167 -195 -69.5 -235s-129.833 -60 -250.5 -60h-569v606zM4047 3072v-3072h-819v3072h819z" />
    <glyph glyph-name="afii10045" unicode="&#x42b;" horiz-adv-x="4289" 
d="M1057 3072l-818.999 0.000976562v-3072h1581c207.333 0 381.333 33.833 521.999 101.5c140.667 67.667 246.5 173.5 317.5 317.5s106.5 329.333 106.5 556s-35.667 412.167 -107 556.5s-178 250.166 -320 317.499s-318 101 -528 101h-753v1122zM1057 1278h569
c120.667 0 204.167 -20.833 250.5 -62.5s69.5 -124.5 69.5 -248.5c0 -116.667 -23.167 -195 -69.5 -235s-129.833 -60 -250.5 -60h-569v606zM4047 3072v-3072h-819v3072h819z" />
    <glyph glyph-name="afii10046" unicode="&#xdc;" horiz-adv-x="2912" 
d="M1057 3072l-818.999 0.000976562v-3072h1581c207.333 0 381.333 33.833 521.999 101.5c140.667 67.667 246.5 173.5 317.5 317.5s106.5 329.333 106.5 556s-35.667 412.167 -107 556.5s-178 250.166 -320 317.499s-318 101 -528 101h-753v1122zM1057 1278h569
c120.667 0 204.167 -20.833 250.5 -62.5s69.5 -124.5 69.5 -248.5c0 -116.667 -23.167 -195 -69.5 -235s-129.833 -60 -250.5 -60h-569v606z" />
    <glyph glyph-name="afii10046" unicode="&#x42c;" horiz-adv-x="2912" 
d="M1057 3072l-818.999 0.000976562v-3072h1581c207.333 0 381.333 33.833 521.999 101.5c140.667 67.667 246.5 173.5 317.5 317.5s106.5 329.333 106.5 556s-35.667 412.167 -107 556.5s-178 250.166 -320 317.499s-318 101 -528 101h-753v1122zM1057 1278h569
c120.667 0 204.167 -20.833 250.5 -62.5s69.5 -124.5 69.5 -248.5c0 -116.667 -23.167 -195 -69.5 -235s-129.833 -60 -250.5 -60h-569v606z" />
    <glyph glyph-name="afii10047" unicode="&#xdd;" horiz-adv-x="2982" 
d="M987 1122l-843.998 -0.00488281v-49c0 -216 16 -389.167 48 -519.5s110.333 -247.833 235 -352.5c87.333 -71.333 185.666 -123.5 294.999 -156.5s218 -53.167 326 -60.5s242.333 -11.666 403 -12.999c256 1.33301 460.833 11.833 614.5 31.5
s290.167 66.334 409.5 140.001s211.333 190.334 276 350.001s97 375.167 97 646.5v794c0 242.667 -29.667 440.5 -89 593.5s-146.5 270.667 -261.5 353s-255.5 139.166 -421.5 170.5c-166 31.333 -371.667 47 -617 47c-430.667 0 -756.834 -77.167 -978.501 -231.5
s-332.5 -413.166 -332.5 -776.499v-41h844v70c0 114 41.667 193.667 125 239s208.333 68 375 68c152 0 264 -18 336 -54s119.333 -94.167 142 -174.5s34 -199.5 34 -357.5h-778v-565h778c0 -171.333 -9.33301 -298 -28 -380s-64.167 -143.667 -136.5 -185
s-188.166 -62 -347.499 -62c-128.667 0 -227.334 7.83301 -296.001 23.5s-120.5 50.834 -155.5 105.501s-52.5 140 -52.5 256v90z" />
    <glyph glyph-name="afii10047" unicode="&#x42d;" horiz-adv-x="2982" 
d="M987 1122l-843.998 -0.00488281v-49c0 -216 16 -389.167 48 -519.5s110.333 -247.833 235 -352.5c87.333 -71.333 185.666 -123.5 294.999 -156.5s218 -53.167 326 -60.5s242.333 -11.666 403 -12.999c256 1.33301 460.833 11.833 614.5 31.5
s290.167 66.334 409.5 140.001s211.333 190.334 276 350.001s97 375.167 97 646.5v794c0 242.667 -29.667 440.5 -89 593.5s-146.5 270.667 -261.5 353s-255.5 139.166 -421.5 170.5c-166 31.333 -371.667 47 -617 47c-430.667 0 -756.834 -77.167 -978.501 -231.5
s-332.5 -413.166 -332.5 -776.499v-41h844v70c0 114 41.667 193.667 125 239s208.333 68 375 68c152 0 264 -18 336 -54s119.333 -94.167 142 -174.5s34 -199.5 34 -357.5h-778v-565h778c0 -171.333 -9.33301 -298 -28 -380s-64.167 -143.667 -136.5 -185
s-188.166 -62 -347.499 -62c-128.667 0 -227.334 7.83301 -296.001 23.5s-120.5 50.834 -155.5 105.501s-52.5 140 -52.5 256v90z" />
    <glyph glyph-name="afii10048" unicode="&#xde;" horiz-adv-x="4526" 
d="M1065 1917h483v53c0 228.667 34.167 417.834 102.5 567.5c68.333 149.667 164.333 264.667 288 345s269.5 136.166 437.5 167.5c168 31.333 366 47 594 47s426.167 -15.667 594.5 -47s314.166 -87.166 437.5 -167.5c123.334 -80.333 219 -195.333 287 -345
s102 -338.834 102 -567.5v-868c0 -228.667 -33.834 -417.5 -101.5 -566.5s-163.333 -264 -287 -345s-269.667 -137.167 -438 -168.5s-366.5 -47 -594.5 -47s-426 15.667 -594 47s-314 87.5 -438 168.5s-220 196 -288 345s-102 337.833 -102 566.5v102h-483v-1204h-819v3072
h819v-1155zM2970 688c156.667 0 274 10.834 352 32.501s135 68.167 171 139.5s54 182 54 332v692c0 148.667 -18 258.5 -54 329.5s-93 117.167 -171 138.5s-195.333 32 -352 32c-155.333 0 -271.5 -10.667 -348.5 -32s-133.5 -67 -169.5 -137s-56 -180.333 -60 -331v-692
c4 -151.333 23.833 -262.333 59.5 -333s92.167 -116.834 169.5 -138.501s193.666 -32.5 349 -32.5z" />
    <glyph glyph-name="afii10048" unicode="&#x42e;" horiz-adv-x="4526" 
d="M1065 1917h483v53c0 228.667 34.167 417.834 102.5 567.5c68.333 149.667 164.333 264.667 288 345s269.5 136.166 437.5 167.5c168 31.333 366 47 594 47s426.167 -15.667 594.5 -47s314.166 -87.166 437.5 -167.5c123.334 -80.333 219 -195.333 287 -345
s102 -338.834 102 -567.5v-868c0 -228.667 -33.834 -417.5 -101.5 -566.5s-163.333 -264 -287 -345s-269.667 -137.167 -438 -168.5s-366.5 -47 -594.5 -47s-426 15.667 -594 47s-314 87.5 -438 168.5s-220 196 -288 345s-102 337.833 -102 566.5v102h-483v-1204h-819v3072
h819v-1155zM2970 688c156.667 0 274 10.834 352 32.501s135 68.167 171 139.5s54 182 54 332v692c0 148.667 -18 258.5 -54 329.5s-93 117.167 -171 138.5s-195.333 32 -352 32c-155.333 0 -271.5 -10.667 -348.5 -32s-133.5 -67 -169.5 -137s-56 -180.333 -60 -331v-692
c4 -151.333 23.833 -262.333 59.5 -333s92.167 -116.834 169.5 -138.501s193.666 -32.5 349 -32.5z" />
    <glyph glyph-name="afii10049" unicode="&#xdf;" horiz-adv-x="2937" 
d="M1872 0l819 -0.00195312v3072h-1573c-241.333 0 -434.5 -34.667 -579.5 -104s-249.833 -175.166 -314.5 -317.499s-97 -325.5 -97 -549.5c0 -166 18.333 -307.167 55 -423.5s94.667 -214.166 174 -293.499s186 -147.333 320 -204l-668 -1180h938l541 1081h385v-1081z
M1872 1753h-553c-248.667 0 -373 106.667 -373 320c0 128 23.333 215.167 70 261.5s130 69.5 250 69.5h606v-651z" />
    <glyph glyph-name="afii10049" unicode="&#x42f;" horiz-adv-x="2937" 
d="M1872 0l819 -0.00195312v3072h-1573c-241.333 0 -434.5 -34.667 -579.5 -104s-249.833 -175.166 -314.5 -317.499s-97 -325.5 -97 -549.5c0 -166 18.333 -307.167 55 -423.5s94.667 -214.166 174 -293.499s186 -147.333 320 -204l-668 -1180h938l541 1081h385v-1081z
M1872 1753h-553c-248.667 0 -373 106.667 -373 320c0 128 23.333 215.167 70 261.5s130 69.5 250 69.5h606v-651z" />
    <glyph glyph-name="afii10065" unicode="&#xe0;" horiz-adv-x="2494" 
d="M1589 319l-23.999 0.000976562c-42 -229.333 -248.333 -344 -619 -344c-176.667 0 -320.667 18.333 -432 55s-196.833 104 -256.5 202s-89.5 235 -89.5 411c0 248 63.333 422.667 190 524s322.667 152 588 152c152 0 279.167 -13.667 381.5 -41s170.5 -94.333 204.5 -201
h33v340c0 119.333 -18.167 203.833 -54.5 253.5s-124.833 74.5 -265.5 74.5c-97.333 0 -169.5 -16.333 -216.5 -49s-70.5 -94.334 -70.5 -185.001h-704c0 206 44.333 357.333 133 454s198.334 155.834 329.001 177.5c130.667 21.667 307 32.5 529 32.5
c263.333 0 465.666 -18.833 606.999 -56.5s246.166 -115.667 314.499 -234s102.5 -298.833 102.5 -541.5v-1343h-704zM1565 692.001c0 82.667 -30.667 136.166 -92 160.499s-159 36.5 -293 36.5c-100.667 0 -177.167 -15 -229.5 -45s-78.5 -90 -78.5 -180
c0 -101.333 29.667 -165.666 89 -192.999s132.333 -41 219 -41c104.667 0 183.5 6.33301 236.5 19s91 37.5 114 74.5s34.5 93.167 34.5 168.5z" />
    <glyph glyph-name="afii10065" unicode="&#x430;" horiz-adv-x="2494" 
d="M1589 319l-23.999 0.000976562c-42 -229.333 -248.333 -344 -619 -344c-176.667 0 -320.667 18.333 -432 55s-196.833 104 -256.5 202s-89.5 235 -89.5 411c0 248 63.333 422.667 190 524s322.667 152 588 152c152 0 279.167 -13.667 381.5 -41s170.5 -94.333 204.5 -201
h33v340c0 119.333 -18.167 203.833 -54.5 253.5s-124.833 74.5 -265.5 74.5c-97.333 0 -169.5 -16.333 -216.5 -49s-70.5 -94.334 -70.5 -185.001h-704c0 206 44.333 357.333 133 454s198.334 155.834 329.001 177.5c130.667 21.667 307 32.5 529 32.5
c263.333 0 465.666 -18.833 606.999 -56.5s246.166 -115.667 314.499 -234s102.5 -298.833 102.5 -541.5v-1343h-704zM1565 692.001c0 82.667 -30.667 136.166 -92 160.499s-159 36.5 -293 36.5c-100.667 0 -177.167 -15 -229.5 -45s-78.5 -90 -78.5 -180
c0 -101.333 29.667 -165.666 89 -192.999s132.333 -41 219 -41c104.667 0 183.5 6.33301 236.5 19s91 37.5 114 74.5s34.5 93.167 34.5 168.5z" />
    <glyph glyph-name="afii10066" unicode="&#xe1;" horiz-adv-x="2404" 
d="M770 1712c27.333 113.333 91.167 205.834 191.5 277.501s216.833 107.5 349.5 107.5c242.667 0 432.167 -28.5 568.5 -85.5s234.666 -159.167 294.999 -306.5s90.5 -358 90.5 -632c0 -222 -15.833 -402.667 -47.5 -542s-85.5 -249.5 -161.5 -330.5
s-181.5 -138.833 -316.5 -173.5s-310.833 -52 -527.5 -52c-294 0 -517.667 36.667 -671 110s-258.666 193.833 -315.999 361.5s-86 406.5 -86 716.5v393c0 305.333 34.667 554.833 104 748.499c69.333 193.667 181.166 337.167 335.499 430.5s357.5 140 609.5 140
c138.667 0 236.334 2.5 293.001 7.5s97.667 18.333 123 40s38 59.167 38 112.5h508c0 -158.667 -32 -286 -96 -382s-159.5 -164.833 -286.5 -206.5s-288.833 -62.5 -485.5 -62.5c-130 0 -233.333 -16.667 -310 -50s-133.667 -95 -171 -185s-56 -218 -56 -384v-53h25z
M1225 1556c-105.333 0 -184.83 -13.666 -238.497 -40.999s-90.834 -75.333 -111.501 -144s-31 -168 -31 -298c0 -166.667 7.66699 -287.167 23 -361.5s48.166 -125.5 98.499 -153.5s132.5 -42 246.5 -42c86 0 151.667 7.66699 197 23s79.166 42.833 101.499 82.5
s36.333 92.167 42 157.5s8.5 163.333 8.5 294c0 138.667 -7.33301 240.667 -22 306s-45.167 111.166 -91.5 137.499s-120.5 39.5 -222.5 39.5z" />
    <glyph glyph-name="afii10066" unicode="&#x431;" horiz-adv-x="2404" 
d="M770 1712c27.333 113.333 91.167 205.834 191.5 277.501s216.833 107.5 349.5 107.5c242.667 0 432.167 -28.5 568.5 -85.5s234.666 -159.167 294.999 -306.5s90.5 -358 90.5 -632c0 -222 -15.833 -402.667 -47.5 -542s-85.5 -249.5 -161.5 -330.5
s-181.5 -138.833 -316.5 -173.5s-310.833 -52 -527.5 -52c-294 0 -517.667 36.667 -671 110s-258.666 193.833 -315.999 361.5s-86 406.5 -86 716.5v393c0 305.333 34.667 554.833 104 748.499c69.333 193.667 181.166 337.167 335.499 430.5s357.5 140 609.5 140
c138.667 0 236.334 2.5 293.001 7.5s97.667 18.333 123 40s38 59.167 38 112.5h508c0 -158.667 -32 -286 -96 -382s-159.5 -164.833 -286.5 -206.5s-288.833 -62.5 -485.5 -62.5c-130 0 -233.333 -16.667 -310 -50s-133.667 -95 -171 -185s-56 -218 -56 -384v-53h25z
M1225 1556c-105.333 0 -184.83 -13.666 -238.497 -40.999s-90.834 -75.333 -111.501 -144s-31 -168 -31 -298c0 -166.667 7.66699 -287.167 23 -361.5s48.166 -125.5 98.499 -153.5s132.5 -42 246.5 -42c86 0 151.667 7.66699 197 23s79.166 42.833 101.499 82.5
s36.333 92.167 42 157.5s8.5 163.333 8.5 294c0 138.667 -7.33301 240.667 -22 306s-45.167 111.166 -91.5 137.499s-120.5 39.5 -222.5 39.5z" />
    <glyph glyph-name="afii10067" unicode="&#xe2;" horiz-adv-x="2376" 
d="M889 893v-438h377c97.333 0 165.333 15.167 204 45.5s58 87.5 58 171.5c0 87.333 -19.167 146 -57.5 176s-106.5 45 -204.5 45h-377zM225 2150h1164c248 0 433.5 -41 556.5 -123s184.5 -228 184.5 -438c0 -128 -28.5 -226.167 -85.5 -294.5s-144.5 -117.5 -262.5 -147.5
v-17c135.333 -20.667 240.833 -74 316.5 -160s113.5 -201.667 113.5 -347c0 -162.667 -26.333 -289 -79 -379s-134.5 -153.167 -245.5 -189.5s-262.167 -54.5 -453.5 -54.5h-1209v2150zM889 1696l0.000976562 -373.001h352c87.333 0 146.666 11.833 177.999 35.5
s47 73.167 47 148.5c0 68.667 -16.167 117.334 -48.5 146.001s-88.5 43 -168.5 43h-360z" />
    <glyph glyph-name="afii10067" unicode="&#x432;" horiz-adv-x="2376" 
d="M889 893v-438h377c97.333 0 165.333 15.167 204 45.5s58 87.5 58 171.5c0 87.333 -19.167 146 -57.5 176s-106.5 45 -204.5 45h-377zM225 2150h1164c248 0 433.5 -41 556.5 -123s184.5 -228 184.5 -438c0 -128 -28.5 -226.167 -85.5 -294.5s-144.5 -117.5 -262.5 -147.5
v-17c135.333 -20.667 240.833 -74 316.5 -160s113.5 -201.667 113.5 -347c0 -162.667 -26.333 -289 -79 -379s-134.5 -153.167 -245.5 -189.5s-262.167 -54.5 -453.5 -54.5h-1209v2150zM889 1696l0.000976562 -373.001h352c87.333 0 146.666 11.833 177.999 35.5
s47 73.167 47 148.5c0 68.667 -16.167 117.334 -48.5 146.001s-88.5 43 -168.5 43h-360z" />
    <glyph glyph-name="afii10068" unicode="&#xe3;" horiz-adv-x="1794" 
d="M1798 2150v-516h-860v-1634h-705v2150h1565z" />
    <glyph glyph-name="afii10068" unicode="&#x433;" horiz-adv-x="1794" 
d="M1798 2150v-516h-860v-1634h-705v2150h1565z" />
    <glyph glyph-name="afii10069" unicode="&#xe4;" horiz-adv-x="2654" 
d="M262 492c91.333 123.333 157.167 257.667 197.5 403s60.5 330.333 60.5 555v700h1868v-1658h201v-1049h-631v557h-1274v-557h-631v1049h209zM1683 492.001v1167h-499v-229c0 -169.333 -7 -306.833 -21 -412.5s-36.5 -198.334 -67.5 -278.001
s-73.833 -162.167 -128.5 -247.5h716z" />
    <glyph glyph-name="afii10069" unicode="&#x434;" horiz-adv-x="2654" 
d="M262 492c91.333 123.333 157.167 257.667 197.5 403s60.5 330.333 60.5 555v700h1868v-1658h201v-1049h-631v557h-1274v-557h-631v1049h209zM1683 492.001v1167h-499v-229c0 -169.333 -7 -306.833 -21 -412.5s-36.5 -198.334 -67.5 -278.001
s-73.833 -162.167 -128.5 -247.5h716z" />
    <glyph glyph-name="afii10070" unicode="&#xe5;" horiz-adv-x="2351" 
d="M827 1343l693.001 0.000976562c0 148 -26 241.667 -78 281s-145 59 -279 59c-88 0 -154.833 -8.83301 -200.5 -26.5s-78.834 -50.334 -99.501 -98.001s-32.667 -119.5 -36 -215.5zM1532 717.001l692.001 -0.00292969c0 -298 -97 -503 -291 -615
c-86.667 -48 -191.334 -81.167 -314.001 -99.5s-270.334 -27.5 -443.001 -27.5c-280 0 -496 35.333 -648 106s-257.5 184.334 -316.5 341.001s-88.5 373.667 -88.5 651c0 287.333 28.167 508.833 84.5 664.5s159.5 267.5 309.5 335.5s369.667 102 659 102
c275.333 0 487.5 -31.167 636.5 -93.5s254.833 -172.166 317.5 -329.499s94 -383.666 94 -678.999v-119h-1397c0 -96.667 4.83301 -176 14.5 -238s26.834 -111 51.501 -147s59.5 -62 104.5 -78s104.5 -24 178.5 -24c125.333 0 216 15.667 272 47s84 99 84 203z" />
    <glyph glyph-name="afii10070" unicode="&#x435;" horiz-adv-x="2351" 
d="M827 1343l693.001 0.000976562c0 148 -26 241.667 -78 281s-145 59 -279 59c-88 0 -154.833 -8.83301 -200.5 -26.5s-78.834 -50.334 -99.501 -98.001s-32.667 -119.5 -36 -215.5zM1532 717.001l692.001 -0.00292969c0 -298 -97 -503 -291 -615
c-86.667 -48 -191.334 -81.167 -314.001 -99.5s-270.334 -27.5 -443.001 -27.5c-280 0 -496 35.333 -648 106s-257.5 184.334 -316.5 341.001s-88.5 373.667 -88.5 651c0 287.333 28.167 508.833 84.5 664.5s159.5 267.5 309.5 335.5s369.667 102 659 102
c275.333 0 487.5 -31.167 636.5 -93.5s254.833 -172.166 317.5 -329.499s94 -383.666 94 -678.999v-119h-1397c0 -96.667 4.83301 -176 14.5 -238s26.834 -111 51.501 -147s59.5 -62 104.5 -78s104.5 -24 178.5 -24c125.333 0 216 15.667 272 47s84 99 84 203z" />
    <glyph glyph-name="afii10072" unicode="&#xe6;" horiz-adv-x="3424" 
d="M2032 1343v807h-656v-807h-123l-401 807h-709l578 -1032l-709 -1118h758l483 872h123v-872h656v872h122l484 -872h758l-709 1118l578 1032h-709l-402 -807h-122z" />
    <glyph glyph-name="afii10072" unicode="&#x436;" horiz-adv-x="3424" 
d="M2032 1343v807h-656v-807h-123l-401 807h-709l578 -1032l-709 -1118h758l483 872h123v-872h656v872h122l484 -872h758l-709 1118l578 1032h-709l-402 -807h-122z" />
    <glyph glyph-name="afii10073" unicode="&#xe7;" horiz-adv-x="2335" 
d="M1151 893l-229.004 0.00195312v430h241c114.667 0 192.5 13.667 233.5 41s61.5 80.666 61.5 159.999c0 77.333 -22.667 129.333 -68 156s-129 40 -251 40c-120 0 -202.667 -16.333 -248 -49s-68 -92.667 -68 -180h-663v106c0 150 42.167 267.5 126.5 352.5
s198.333 143.833 342 176.5s313.834 49 510.501 49c238.667 0 428.334 -17 569.001 -51s244.834 -94.5 312.501 -181.5s101.5 -208.833 101.5 -365.5c0 -236 -116 -379.333 -348 -430v-17c286.667 -36 430 -205 430 -507c0 -177.333 -36.167 -312.833 -108.5 -406.5
s-181 -157.334 -326 -191.001s-342.833 -50.5 -593.5 -50.5c-264.667 0 -469.5 17 -614.5 51s-253 101.5 -324 202.5s-106.5 250.167 -106.5 447.5h705c0 -70 9.33301 -122.167 28 -156.5s51.5 -57.833 98.5 -70.5s116.5 -19 208.5 -19c96 0 168.833 6.66699 218.5 20
s83.834 36 102.501 68s28 77.667 28 137c0 65.333 -9.5 114.5 -28.5 147.5s-54 56.333 -105 70s-129.5 20.5 -235.5 20.5z" />
    <glyph glyph-name="afii10073" unicode="&#x437;" horiz-adv-x="2335" 
d="M1151 893l-229.004 0.00195312v430h241c114.667 0 192.5 13.667 233.5 41s61.5 80.666 61.5 159.999c0 77.333 -22.667 129.333 -68 156s-129 40 -251 40c-120 0 -202.667 -16.333 -248 -49s-68 -92.667 -68 -180h-663v106c0 150 42.167 267.5 126.5 352.5
s198.333 143.833 342 176.5s313.834 49 510.501 49c238.667 0 428.334 -17 569.001 -51s244.834 -94.5 312.501 -181.5s101.5 -208.833 101.5 -365.5c0 -236 -116 -379.333 -348 -430v-17c286.667 -36 430 -205 430 -507c0 -177.333 -36.167 -312.833 -108.5 -406.5
s-181 -157.334 -326 -191.001s-342.833 -50.5 -593.5 -50.5c-264.667 0 -469.5 17 -614.5 51s-253 101.5 -324 202.5s-106.5 250.167 -106.5 447.5h705c0 -70 9.33301 -122.167 28 -156.5s51.5 -57.833 98.5 -70.5s116.5 -19 208.5 -19c96 0 168.833 6.66699 218.5 20
s83.834 36 102.501 68s28 77.667 28 137c0 65.333 -9.5 114.5 -28.5 147.5s-54 56.333 -105 70s-129.5 20.5 -235.5 20.5z" />
    <glyph glyph-name="afii10074" unicode="&#xe8;" horiz-adv-x="2499" 
d="M2269 2150h-799l-573 -1319h-33v1319h-631v-2150h807l578 1327h20v-1327h631v2150z" />
    <glyph glyph-name="afii10074" unicode="&#x438;" horiz-adv-x="2499" 
d="M2269 2150h-799l-573 -1319h-33v1319h-631v-2150h807l578 1327h20v-1327h631v2150z" />
    <glyph glyph-name="afii10075" unicode="&#xe9;" horiz-adv-x="2499" 
d="M1638 0h631v2150h-819l-553 -1319h-33v1319h-631v-2150h807l578 1327h20v-1327zM1483 2916h303c0 -142 -21.333 -252.5 -64 -331.5s-107.667 -134.167 -195 -165.5s-203 -47 -347 -47c-131.333 0 -238.833 15.667 -322.5 47s-147.667 87.166 -192 167.5
c-44.333 80.333 -66.833 190.166 -67.5 329.5h303c0 -100 21.5 -165.167 64.5 -195.5s117.167 -45.5 222.5 -45.5c106.667 0 182.5 15.167 227.5 45.5s67.5 95.5 67.5 195.5z" />
    <glyph glyph-name="afii10075" unicode="&#x439;" horiz-adv-x="2499" 
d="M1638 0h631v2150h-819l-553 -1319h-33v1319h-631v-2150h807l578 1327h20v-1327zM1483 2916h303c0 -142 -21.333 -252.5 -64 -331.5s-107.667 -134.167 -195 -165.5s-203 -47 -347 -47c-131.333 0 -238.833 15.667 -322.5 47s-147.667 87.166 -192 167.5
c-44.333 80.333 -66.833 190.166 -67.5 329.5h303c0 -100 21.5 -165.167 64.5 -195.5s117.167 -45.5 222.5 -45.5c106.667 0 182.5 15.167 227.5 45.5s67.5 95.5 67.5 195.5z" />
    <glyph glyph-name="afii10076" unicode="&#xea;" horiz-adv-x="2433" 
d="M938 2150v-807h123l426 807h774l-606 -1032l745 -1118h-823l-516 872h-123v-872h-705v2150h705z" />
    <glyph glyph-name="afii10076" unicode="&#x43a;" horiz-adv-x="2433" 
d="M938 2150v-807h123l426 807h774l-606 -1032l745 -1118h-823l-516 872h-123v-872h-705v2150h705z" />
    <glyph glyph-name="afii10077" unicode="&#xeb;" horiz-adv-x="2593" 
d="M483 2150l1876 0.000976562v-2150h-704v1634h-508v-692c0 -356 -70.333 -606.167 -211 -750.5s-338 -216.5 -592 -216.5c-114.667 0 -215.667 5.66699 -303 17v508c46.667 -5.33301 94.334 -8 143.001 -8c117.333 0 196.5 39.167 237.5 117.5s61.5 193.166 61.5 344.499
v1196z" />
    <glyph glyph-name="afii10077" unicode="&#x43b;" horiz-adv-x="2593" 
d="M483 2150l1876 0.000976562v-2150h-704v1634h-508v-692c0 -356 -70.333 -606.167 -211 -750.5s-338 -216.5 -592 -216.5c-114.667 0 -215.667 5.66699 -303 17v508c46.667 -5.33301 94.334 -8 143.001 -8c117.333 0 196.5 39.167 237.5 117.5s61.5 193.166 61.5 344.499
v1196z" />
    <glyph glyph-name="afii10078" unicode="&#xec;" horiz-adv-x="3203" 
d="M1323 0h557l442 1597h21v-1597h631v2150h-1028l-328 -1319h-33l-328 1319h-1028v-2150h631v1597h21z" />
    <glyph glyph-name="afii10078" unicode="&#x43c;" horiz-adv-x="3203" 
d="M1323 0h557l442 1597h21v-1597h631v2150h-1028l-328 -1319h-33l-328 1319h-1028v-2150h631v1597h21z" />
    <glyph glyph-name="afii10079" unicode="&#xed;" horiz-adv-x="2535" 
d="M938 852v-852h-705v2150h705v-782h659v782h705v-2150h-705v852h-659z" />
    <glyph glyph-name="afii10079" unicode="&#x43d;" horiz-adv-x="2535" 
d="M938 852v-852h-705v2150h705v-782h659v782h705v-2150h-705v852h-659z" />
    <glyph glyph-name="afii10080" unicode="&#xee;" horiz-adv-x="2429" 
d="M1212 2175c234.667 0 420.501 -15.3369 557.501 -46.0039s243.5 -85.167 319.5 -163.5s128.5 -187 157.5 -326s43.5 -327.833 43.5 -566.5c0 -233.333 -15 -418.666 -45 -555.999s-83.167 -245.666 -159.5 -324.999s-182.833 -135.333 -319.5 -168
s-321.334 -49 -554.001 -49c-225.333 0 -406.5 17.333 -543.5 52s-244.167 92.667 -321.5 174s-131.333 190.833 -162 328.5s-46 318.834 -46 543.501c0 232.667 14.5 417.834 43.5 555.501s81.167 246.5 156.5 326.5s182.333 136.667 321 170s322.667 50 552 50zM1225 1634
c-116.667 0 -200.998 -14.333 -252.998 -43s-86.333 -81.167 -103 -157.5s-25 -196.5 -25 -360.5s8.33301 -283.833 25 -359.5s51.167 -127.5 103.5 -155.5s136.5 -42 252.5 -42c84 0 149.667 7.5 197 22.5s82.666 41.667 105.999 80s38.666 91.666 45.999 159.999
s11 166.5 11 294.5c0 165.333 -7.5 285.833 -22.5 361.5s-47 127.834 -96 156.501s-129.5 43 -241.5 43z" />
    <glyph glyph-name="afii10080" unicode="&#x43e;" horiz-adv-x="2429" 
d="M1212 2175c234.667 0 420.501 -15.3369 557.501 -46.0039s243.5 -85.167 319.5 -163.5s128.5 -187 157.5 -326s43.5 -327.833 43.5 -566.5c0 -233.333 -15 -418.666 -45 -555.999s-83.167 -245.666 -159.5 -324.999s-182.833 -135.333 -319.5 -168
s-321.334 -49 -554.001 -49c-225.333 0 -406.5 17.333 -543.5 52s-244.167 92.667 -321.5 174s-131.333 190.833 -162 328.5s-46 318.834 -46 543.501c0 232.667 14.5 417.834 43.5 555.501s81.167 246.5 156.5 326.5s182.333 136.667 321 170s322.667 50 552 50zM1225 1634
c-116.667 0 -200.998 -14.333 -252.998 -43s-86.333 -81.167 -103 -157.5s-25 -196.5 -25 -360.5s8.33301 -283.833 25 -359.5s51.167 -127.5 103.5 -155.5s136.5 -42 252.5 -42c84 0 149.667 7.5 197 22.5s82.666 41.667 105.999 80s38.666 91.666 45.999 159.999
s11 166.5 11 294.5c0 165.333 -7.5 285.833 -22.5 361.5s-47 127.834 -96 156.501s-129.5 43 -241.5 43z" />
    <glyph glyph-name="afii10081" unicode="&#xef;" horiz-adv-x="2535" 
d="M938 1634v-1634h-705v2150h2069v-2150h-705v1634h-659z" />
    <glyph glyph-name="afii10081" unicode="&#x43f;" horiz-adv-x="2535" 
d="M938 1634v-1634h-705v2150h2069v-2150h-705v1634h-659z" />
    <glyph glyph-name="afii10082" unicode="&#xf0;" horiz-adv-x="2531" 
d="M930 1073c0 -136.667 7.00098 -243 21.001 -319s46.5 -134.667 97.5 -176s128.833 -62 233.5 -62c103.333 0 182 13.167 236 39.5s93 79.166 117 158.499s36 199 36 359s-9.5 278.333 -28.5 355s-55.833 130.167 -110.5 160.5s-138 45.5 -250 45.5
c-100.667 0 -175.834 -15.167 -225.501 -45.5s-83.167 -84.166 -100.5 -161.499s-26 -195.333 -26 -354zM930.001 324l-0.000976562 -1254h-705v3080h705l-17 -340h33c38.667 136.667 108.667 231.667 210 285s236.333 80 405 80c269.333 0 472.5 -62.5 609.5 -187.5
s205.5 -326.167 205.5 -603.5v-491c0 -220 -27 -397 -81 -531s-140.667 -232 -260 -294s-277.333 -93 -474 -93c-147.333 0 -270.666 24 -369.999 72s-175.333 140.333 -228 277h-33z" />
    <glyph glyph-name="afii10082" unicode="&#x440;" horiz-adv-x="2531" 
d="M930 1073c0 -136.667 7.00098 -243 21.001 -319s46.5 -134.667 97.5 -176s128.833 -62 233.5 -62c103.333 0 182 13.167 236 39.5s93 79.166 117 158.499s36 199 36 359s-9.5 278.333 -28.5 355s-55.833 130.167 -110.5 160.5s-138 45.5 -250 45.5
c-100.667 0 -175.834 -15.167 -225.501 -45.5s-83.167 -84.166 -100.5 -161.499s-26 -195.333 -26 -354zM930.001 324l-0.000976562 -1254h-705v3080h705l-17 -340h33c38.667 136.667 108.667 231.667 210 285s236.333 80 405 80c269.333 0 472.5 -62.5 609.5 -187.5
s205.5 -326.167 205.5 -603.5v-491c0 -220 -27 -397 -81 -531s-140.667 -232 -260 -294s-277.333 -93 -474 -93c-147.333 0 -270.666 24 -369.999 72s-175.333 140.333 -228 277h-33z" />
    <glyph glyph-name="afii10083" unicode="&#xf1;" horiz-adv-x="2281" 
d="M1491 860l704.001 0.00390625c0 -196.667 -20.667 -351.334 -62 -464.001s-105 -199.667 -191 -261c-79.333 -59.333 -180.333 -100.833 -303 -124.5s-284 -35.5 -484 -35.5c-210 0 -381.333 17.833 -514 53.5s-236.5 95 -311.5 178s-127.5 192.833 -157.5 329.5
s-45 315.667 -45 537c0 199.333 13.5 364.833 40.5 496.5s76.333 242.667 148 333s175.167 158.333 310.5 203.999c135.333 45.667 311.666 68.5 528.999 68.5c236 0 426.833 -19 572.5 -57s260 -117.333 343 -238s124.5 -299.667 124.5 -537h-704
c0 118.667 -19 195.334 -57 230.001c-45.333 40.667 -138.333 61 -279 61c-88.667 0 -155.167 -13 -199.5 -39s-76.166 -78.333 -95.499 -157s-29 -200.334 -29 -365.001c0 -172.667 8.5 -296.834 25.5 -372.501s47.167 -125.334 90.5 -149.001s112.666 -35.5 207.999 -35.5
c105.333 0 181.5 10 228.5 30s76.667 52.5 89 97.5s18.5 117.167 18.5 216.5z" />
    <glyph glyph-name="afii10083" unicode="&#x441;" horiz-adv-x="2281" 
d="M1491 860l704.001 0.00390625c0 -196.667 -20.667 -351.334 -62 -464.001s-105 -199.667 -191 -261c-79.333 -59.333 -180.333 -100.833 -303 -124.5s-284 -35.5 -484 -35.5c-210 0 -381.333 17.833 -514 53.5s-236.5 95 -311.5 178s-127.5 192.833 -157.5 329.5
s-45 315.667 -45 537c0 199.333 13.5 364.833 40.5 496.5s76.333 242.667 148 333s175.167 158.333 310.5 203.999c135.333 45.667 311.666 68.5 528.999 68.5c236 0 426.833 -19 572.5 -57s260 -117.333 343 -238s124.5 -299.667 124.5 -537h-704
c0 118.667 -19 195.334 -57 230.001c-45.333 40.667 -138.333 61 -279 61c-88.667 0 -155.167 -13 -199.5 -39s-76.166 -78.333 -95.499 -157s-29 -200.334 -29 -365.001c0 -172.667 8.5 -296.834 25.5 -372.501s47.167 -125.334 90.5 -149.001s112.666 -35.5 207.999 -35.5
c105.333 0 181.5 10 228.5 30s76.667 52.5 89 97.5s18.5 117.167 18.5 216.5z" />
    <glyph glyph-name="afii10084" unicode="&#xf2;" horiz-adv-x="1835" 
d="M1835 2150v-516h-565v-1634h-705v1634h-565v516h1835z" />
    <glyph glyph-name="afii10084" unicode="&#x442;" horiz-adv-x="1835" 
d="M1835 2150v-516h-565v-1634h-705v1634h-565v516h1835z" />
    <glyph glyph-name="afii10085" unicode="&#xf3;" horiz-adv-x="2216" 
d="M2232 2150l-540 -2338c-41.333 -195.333 -95.833 -347.5 -163.5 -456.5s-161.834 -187.833 -282.501 -236.5s-280.667 -73 -480 -73c-18 0 -42.667 0.666992 -74 2s-62.666 3.16602 -93.999 5.49902s-56 3.83301 -74 4.5v487c54.667 -5.33301 95.667 -8 123 -8
c135.333 0 228.833 40.833 280.5 122.5s81.167 195.167 88.5 340.5h-385l-639 2150h737l426 -1749h8l348 1749h721z" />
    <glyph glyph-name="afii10085" unicode="&#x443;" horiz-adv-x="2216" 
d="M2232 2150l-540 -2338c-41.333 -195.333 -95.833 -347.5 -163.5 -456.5s-161.834 -187.833 -282.501 -236.5s-280.667 -73 -480 -73c-18 0 -42.667 0.666992 -74 2s-62.666 3.16602 -93.999 5.49902s-56 3.83301 -74 4.5v487c54.667 -5.33301 95.667 -8 123 -8
c135.333 0 228.833 40.833 280.5 122.5s81.167 195.167 88.5 340.5h-385l-639 2150h737l426 -1749h8l348 1749h721z" />
    <glyph glyph-name="afii10086" unicode="&#xf4;" horiz-adv-x="3629" 
d="M2146 1073c0 -139.333 6.16699 -246.501 18.5 -321.501s40.166 -133 83.5 -174c43.333 -41 109 -61.5 197 -61.5c87.333 0 153.5 13 198.5 39s77.167 78.833 96.5 158.5s29 199.5 29 359.5s-7.83301 278.333 -23.5 355s-46.167 130.167 -91.5 160.5s-115 45.5 -209 45.5
c-86 0 -149.833 -15.167 -191.5 -45.5s-70 -84.166 -85 -161.499s-22.5 -195.333 -22.5 -354zM2150 -930.001l-666.999 -0.000976562v1254h-33c-40.667 -108 -108 -193.167 -202 -255.5s-201.333 -93.5 -322 -93.5c-186.667 0 -336.167 31.333 -448.5 94
s-194 161.167 -245 295.5s-76.5 311.833 -76.5 532.5v492c0 183.333 28.333 332.833 85 448.5s142.167 200.834 256.5 255.501s257.166 82 428.499 82c275.333 0 455.333 -121.667 540 -365h17v1262h667v-1262h17c85.333 243.333 265.333 365 540 365
c259.333 0 450.666 -62.5 574 -187.5c123.333 -125 186 -324.5 188 -598.5l-4 -492c0 -224.667 -25.5 -404.167 -76.5 -538.5s-131.833 -231.833 -242.5 -292.5s-257 -91 -439 -91c-120.667 0 -228 31.167 -322 93.5s-161.333 147.5 -202 255.5h-33v-1254zM1483 1073
c0 158.667 -7.49902 276.668 -22.499 354.001s-43.167 131.166 -84.5 161.499s-105.333 45.5 -192 45.5c-94 0 -163.667 -15.167 -209 -45.5s-75.833 -83.833 -91.5 -160.5s-23.5 -195 -23.5 -355s9.66699 -279.833 29 -359.5s51.5 -132.5 96.5 -158.5
s111.167 -39 198.5 -39c88 0 153.667 20.5 197 61.5s71.166 99 83.499 174s18.5 182.167 18.5 321.5z" />
    <glyph glyph-name="afii10086" unicode="&#x444;" horiz-adv-x="3629" 
d="M2146 1073c0 -139.333 6.16699 -246.501 18.5 -321.501s40.166 -133 83.5 -174c43.333 -41 109 -61.5 197 -61.5c87.333 0 153.5 13 198.5 39s77.167 78.833 96.5 158.5s29 199.5 29 359.5s-7.83301 278.333 -23.5 355s-46.167 130.167 -91.5 160.5s-115 45.5 -209 45.5
c-86 0 -149.833 -15.167 -191.5 -45.5s-70 -84.166 -85 -161.499s-22.5 -195.333 -22.5 -354zM2150 -930.001l-666.999 -0.000976562v1254h-33c-40.667 -108 -108 -193.167 -202 -255.5s-201.333 -93.5 -322 -93.5c-186.667 0 -336.167 31.333 -448.5 94
s-194 161.167 -245 295.5s-76.5 311.833 -76.5 532.5v492c0 183.333 28.333 332.833 85 448.5s142.167 200.834 256.5 255.501s257.166 82 428.499 82c275.333 0 455.333 -121.667 540 -365h17v1262h667v-1262h17c85.333 243.333 265.333 365 540 365
c259.333 0 450.666 -62.5 574 -187.5c123.333 -125 186 -324.5 188 -598.5l-4 -492c0 -224.667 -25.5 -404.167 -76.5 -538.5s-131.833 -231.833 -242.5 -292.5s-257 -91 -439 -91c-120.667 0 -228 31.167 -322 93.5s-161.333 147.5 -202 255.5h-33v-1254zM1483 1073
c0 158.667 -7.49902 276.668 -22.499 354.001s-43.167 131.166 -84.5 161.499s-105.333 45.5 -192 45.5c-94 0 -163.667 -15.167 -209 -45.5s-75.833 -83.833 -91.5 -160.5s-23.5 -195 -23.5 -355s9.66699 -279.833 29 -359.5s51.5 -132.5 96.5 -158.5
s111.167 -39 198.5 -39c88 0 153.667 20.5 197 61.5s71.166 99 83.499 174s18.5 182.167 18.5 321.5z" />
    <glyph glyph-name="afii10087" unicode="&#xf5;" horiz-adv-x="2232" 
d="M2200 2150l-566 -1011l623 -1139h-827l-308 709l-299 -709h-848l639 1139l-553 1011h816l245 -594l258 594h820z" />
    <glyph glyph-name="afii10087" unicode="&#x445;" horiz-adv-x="2232" 
d="M2200 2150l-566 -1011l623 -1139h-827l-308 709l-299 -709h-848l639 1139l-553 1011h816l245 -594l258 594h820z" />
    <glyph glyph-name="afii10088" unicode="&#xf6;" horiz-adv-x="2564" 
d="M938 516h659v1634h705v-1634h197v-1073h-631v557h-1635v2150h705v-1634z" />
    <glyph glyph-name="afii10088" unicode="&#x446;" horiz-adv-x="2564" 
d="M938 516h659v1634h705v-1634h197v-1073h-631v557h-1635v2150h705v-1634z" />
    <glyph glyph-name="afii10089" unicode="&#xf7;" horiz-adv-x="2474" 
d="M2245 2150l0.000976562 -2150h-705v1106h-24c-24 -80 -56 -143 -96 -189s-97.667 -80 -173 -102s-178.333 -33 -309 -33c-169.333 0 -307.5 23.833 -414.5 71.5s-186.167 123.5 -237.5 227.5s-77 239.333 -77 406v663h704v-536c0 -110.667 22.167 -187.5 66.5 -230.5
s126.166 -64.5 245.499 -64.5c118 0 200 21.333 246 64s69 119.667 69 231v536h705z" />
    <glyph glyph-name="afii10089" unicode="&#x447;" horiz-adv-x="2474" 
d="M2245 2150l0.000976562 -2150h-705v1106h-24c-24 -80 -56 -143 -96 -189s-97.667 -80 -173 -102s-178.333 -33 -309 -33c-169.333 0 -307.5 23.833 -414.5 71.5s-186.167 123.5 -237.5 227.5s-77 239.333 -77 406v663h704v-536c0 -110.667 22.167 -187.5 66.5 -230.5
s126.166 -64.5 245.499 -64.5c118 0 200 21.333 246 64s69 119.667 69 231v536h705z" />
    <glyph glyph-name="afii10090" unicode="&#xf8;" horiz-adv-x="3592" 
d="M2695 516v1634h664v-2150h-3121v2150h663v-1634h565v1634h664v-1634h565z" />
    <glyph glyph-name="afii10090" unicode="&#x448;" horiz-adv-x="3592" 
d="M2695 516v1634h664v-2150h-3121v2150h663v-1634h565v1634h664v-1634h565z" />
    <glyph glyph-name="afii10091" unicode="&#xf9;" horiz-adv-x="3621" 
d="M2695 516v1634h664v-1634h196v-1073h-630v557h-2687v2150h663v-1634h565v1634h664v-1634h565z" />
    <glyph glyph-name="afii10091" unicode="&#x449;" horiz-adv-x="3621" 
d="M2695 516v1634h664v-1634h196v-1073h-630v557h-2687v2150h663v-1634h565v1634h664v-1634h565z" />
    <glyph glyph-name="afii10092" unicode="&#xfa;" horiz-adv-x="2687" 
d="M1221 930v-438h360c93.333 0 159.666 17 198.999 51s59 89.333 59 166c0 81.333 -19.167 138.5 -57.5 171.5s-105.166 49.5 -200.499 49.5h-360zM-33 2150h1254v-729h524c266 0 462.167 -56 588.5 -168s189.5 -293.333 189.5 -544c0 -256.667 -61.333 -439 -184 -547
s-320.667 -162 -594 -162h-1229v1634h-549v516z" />
    <glyph glyph-name="afii10092" unicode="&#x44a;" horiz-adv-x="2687" 
d="M1221 930v-438h360c93.333 0 159.666 17 198.999 51s59 89.333 59 166c0 81.333 -19.167 138.5 -57.5 171.5s-105.166 49.5 -200.499 49.5h-360zM-33 2150h1254v-729h524c266 0 462.167 -56 588.5 -168s189.5 -293.333 189.5 -544c0 -256.667 -61.333 -439 -184 -547
s-320.667 -162 -594 -162h-1229v1634h-549v516z" />
    <glyph glyph-name="afii10093" unicode="&#xfb;" horiz-adv-x="3494" 
d="M946 930v-438h361c93.333 0 159.666 17 198.999 51s59 89.333 59 166c0 81.333 -19.167 138.5 -57.5 171.5s-105.166 49.5 -200.499 49.5h-361zM242 2150h704v-729h524c266 0 462.333 -56 589 -168s190 -293.333 190 -544c0 -256.667 -61.667 -439 -185 -547
s-321.333 -162 -594 -162h-1228v2150zM3265 2150v-2150h-705v2150h705z" />
    <glyph glyph-name="afii10093" unicode="&#x44b;" horiz-adv-x="3494" 
d="M946 930v-438h361c93.333 0 159.666 17 198.999 51s59 89.333 59 166c0 81.333 -19.167 138.5 -57.5 171.5s-105.166 49.5 -200.499 49.5h-361zM242 2150h704v-729h524c266 0 462.333 -56 589 -168s190 -293.333 190 -544c0 -256.667 -61.667 -439 -185 -547
s-321.333 -162 -594 -162h-1228v2150zM3265 2150v-2150h-705v2150h705z" />
    <glyph glyph-name="afii10094" unicode="&#xfc;" horiz-adv-x="2413" 
d="M946 930v-438h361c93.333 0 159.666 17 198.999 51s59 89.333 59 166c0 81.333 -19.167 138.5 -57.5 171.5s-105.166 49.5 -200.499 49.5h-361zM242 2150h704v-729h524c266 0 462.333 -56 589 -168s190 -293.333 190 -544c0 -256.667 -61.667 -439 -185 -547
s-321.333 -162 -594 -162h-1228v2150z" />
    <glyph glyph-name="afii10094" unicode="&#x44c;" horiz-adv-x="2413" 
d="M946 930v-438h361c93.333 0 159.666 17 198.999 51s59 89.333 59 166c0 81.333 -19.167 138.5 -57.5 171.5s-105.166 49.5 -200.499 49.5h-361zM242 2150h704v-729h524c266 0 462.333 -56 589 -168s190 -293.333 190 -544c0 -256.667 -61.667 -439 -185 -547
s-321.333 -162 -594 -162h-1228v2150z" />
    <glyph glyph-name="afii10095" unicode="&#xfd;" horiz-adv-x="2310" 
d="M123 807l699.999 0.000976562c0 -91.333 7.33301 -160.333 22 -207s45.667 -80.5 93 -101.5s122.333 -31.5 225 -31.5c83.333 0 148 10.833 194 32.5s79.833 62.667 101.5 123s32.5 150.5 32.5 270.5h-459v430h459c0 146 -24.167 242.5 -72.5 289.5
s-133.5 70.5 -255.5 70.5c-131.333 0 -220.833 -20 -268.5 -60s-71.5 -121 -71.5 -243h-700c0 167.333 24.333 304.166 73 410.499s118 187.166 208 242.499s195.5 92.833 316.5 112.5s268.5 29.5 442.5 29.5c218 0 394.833 -22.833 530.5 -68.5
s239.334 -113.667 311.001 -204s120.667 -201.333 147 -333s39.5 -297.167 39.5 -496.5c0 -221.333 -15.167 -400.666 -45.5 -537.999s-82.666 -247.166 -156.999 -329.499s-177.833 -141.333 -310.5 -177s-304.334 -53.5 -515.001 -53.5
c-186.667 0 -342.5 10.667 -467.5 32s-229.667 60.666 -314 117.999s-148.5 141 -192.5 251s-66 253.667 -66 431z" />
    <glyph glyph-name="afii10095" unicode="&#x44d;" horiz-adv-x="2310" 
d="M123 807l699.999 0.000976562c0 -91.333 7.33301 -160.333 22 -207s45.667 -80.5 93 -101.5s122.333 -31.5 225 -31.5c83.333 0 148 10.833 194 32.5s79.833 62.667 101.5 123s32.5 150.5 32.5 270.5h-459v430h459c0 146 -24.167 242.5 -72.5 289.5
s-133.5 70.5 -255.5 70.5c-131.333 0 -220.833 -20 -268.5 -60s-71.5 -121 -71.5 -243h-700c0 167.333 24.333 304.166 73 410.499s118 187.166 208 242.499s195.5 92.833 316.5 112.5s268.5 29.5 442.5 29.5c218 0 394.833 -22.833 530.5 -68.5
s239.334 -113.667 311.001 -204s120.667 -201.333 147 -333s39.5 -297.167 39.5 -496.5c0 -221.333 -15.167 -400.666 -45.5 -537.999s-82.666 -247.166 -156.999 -329.499s-177.833 -141.333 -310.5 -177s-304.334 -53.5 -515.001 -53.5
c-186.667 0 -342.5 10.667 -467.5 32s-229.667 60.666 -314 117.999s-148.5 141 -192.5 251s-66 253.667 -66 431z" />
    <glyph glyph-name="afii10096" unicode="&#xfe;" horiz-adv-x="3568" 
d="M938 1368l347.996 -0.00195312c12 164 37.833 297.333 77.5 400s98.834 183.667 177.501 243s182.334 101.5 311.001 126.5s295 37.5 499 37.5c234.667 0 420.334 -15.333 557.001 -46s243 -85.167 319 -163.5s128.5 -187 157.5 -326s43.5 -327.833 43.5 -566.5
c0 -233.333 -15 -418.666 -45 -555.999s-82.833 -245.666 -158.5 -324.999s-182 -135.333 -319 -168s-321.833 -49 -554.5 -49c-205.333 0 -373.166 14 -503.499 42s-235.666 75.333 -315.999 142s-139.333 154.5 -177 263.5s-61.834 252.167 -72.501 429.5h-344v-852h-705
v2150h705v-782zM2363 1634c-116.667 0 -201.001 -14.333 -253.001 -43s-86.333 -81.167 -103 -157.5s-25 -196.5 -25 -360.5s8.33301 -283.833 25 -359.5s51.167 -127.5 103.501 -155.5c52.333 -28 136.5 -42 252.5 -42c111.333 0 191.833 14 241.5 42s82 79.167 97 153.5
s22.5 194.833 22.5 361.5c0 166 -7.5 286.667 -22.5 362s-47.167 127.333 -96.5 156s-130 43 -242 43z" />
    <glyph glyph-name="afii10096" unicode="&#x44e;" horiz-adv-x="3568" 
d="M938 1368l347.996 -0.00195312c12 164 37.833 297.333 77.5 400s98.834 183.667 177.501 243s182.334 101.5 311.001 126.5s295 37.5 499 37.5c234.667 0 420.334 -15.333 557.001 -46s243 -85.167 319 -163.5s128.5 -187 157.5 -326s43.5 -327.833 43.5 -566.5
c0 -233.333 -15 -418.666 -45 -555.999s-82.833 -245.666 -158.5 -324.999s-182 -135.333 -319 -168s-321.833 -49 -554.5 -49c-205.333 0 -373.166 14 -503.499 42s-235.666 75.333 -315.999 142s-139.333 154.5 -177 263.5s-61.834 252.167 -72.501 429.5h-344v-852h-705
v2150h705v-782zM2363 1634c-116.667 0 -201.001 -14.333 -253.001 -43s-86.333 -81.167 -103 -157.5s-25 -196.5 -25 -360.5s8.33301 -283.833 25 -359.5s51.167 -127.5 103.501 -155.5c52.333 -28 136.5 -42 252.5 -42c111.333 0 191.833 14 241.5 42s82 79.167 97 153.5
s22.5 194.833 22.5 361.5c0 166 -7.5 286.667 -22.5 362s-47.167 127.333 -96.5 156s-130 43 -242 43z" />
    <glyph glyph-name="afii10097" unicode="&#xff;" horiz-adv-x="2413" 
d="M1475 1221l-0.00195312 438h-361c-93.333 0 -159.666 -17 -198.999 -51s-59 -89.333 -59 -166c0 -81.333 19.333 -138.5 58 -171.5s105.334 -49.5 200.001 -49.5h361zM2179 0h-704v729h-279l-336 -729h-766l422 795c-112 50 -197.333 125.167 -256 225.5
s-88 239.5 -88 417.5c0 166.667 27.5 302.5 82.5 407.5s139.667 182 254 231s261.5 73.5 441.5 73.5h1229v-2150z" />
    <glyph glyph-name="afii10097" unicode="&#x44f;" horiz-adv-x="2413" 
d="M1475 1221l-0.00195312 438h-361c-93.333 0 -159.666 -17 -198.999 -51s-59 -89.333 -59 -166c0 -81.333 19.333 -138.5 58 -171.5s105.334 -49.5 200.001 -49.5h361zM2179 0h-704v729h-279l-336 -729h-766l422 795c-112 50 -197.333 125.167 -256 225.5
s-88 239.5 -88 417.5c0 166.667 27.5 302.5 82.5 407.5s139.667 182 254 231s261.5 73.5 441.5 73.5h1229v-2150z" />
    <glyph glyph-name="afii10100" unicode="&#x192;" 
d="M2441 2003l-90 -515.999h-418l-282 -1598c-40 -228.667 -79.667 -394.834 -119 -498.501s-99.833 -180.5 -181.5 -230.5s-194 -81.5 -337 -94.5s-375.833 -19.5 -698.5 -19.5l91 536c115.333 -13.333 184.666 -20 207.999 -20c74.667 0 132 14.833 172 44.5
s68.333 68.167 85 115.5s32.334 111.333 47.001 192l278 1573h-311l90 516h307l45 242c40.667 220 86.5 386.333 137.5 499s121 194.167 210 244.5s199 81 330 92s340.833 16.5 629.5 16.5l-90 -537c-60 13.333 -114.667 20 -164 20c-104.667 0 -178.167 -21.667 -220.5 -65
s-75.5 -141.666 -99.5 -295l-37 -217h418z" />
    <glyph glyph-name="circumflex" unicode="&#x2c6;" horiz-adv-x="2097" 
d="M1040 3097l750 -447l-102 -233l-648 254l-622 -254l-111 233z" />
    <glyph glyph-name="tilde" unicode="&#x2dc;" horiz-adv-x="2396" 
d="M1753 3002l336.001 -168c-134.667 -270 -302.667 -405 -504 -405c-122 0 -257 46.333 -405 139c-91.333 58 -152.833 95.667 -184.5 113s-67.167 26 -106.5 26c-97.333 0 -179.333 -61.333 -246 -184l-336 180c150 262.667 327.667 394 533 394
c106 0 233 -46.667 381 -140c84.667 -53.333 148.167 -90.5 190.5 -111.5s85.166 -31.5 128.499 -31.5c82 0 153 62.667 213 188z" />
    <glyph glyph-name="emdash" unicode="&#x2013;" horiz-adv-x="2048" 
d="M0 1466h2048v-671h-2048v671z" />
    <glyph glyph-name="endash" unicode="&#x2014;" horiz-adv-x="4096" 
d="M0 1466h4096v-671h-4096v671z" />
    <glyph glyph-name="quoteleft" unicode="&#x2018;" horiz-adv-x="1081" 
d="M864 1827h-663v688c0 146.667 21.333 261.667 64 345s115 143.666 217 181c102 37.333 243 56 423 56v-308c-78.667 -1.33301 -139 -10.666 -181 -28c-42 -17.333 -71.5 -45.166 -88.5 -83.5c-17 -38.333 -25.5 -92.5 -25.5 -162.5h254v-688z" />
    <glyph glyph-name="quoteright" unicode="&#x2019;" horiz-adv-x="1081" 
d="M229 3072l664 -0.000976562v-688c0 -146.667 -21.333 -261.667 -64 -345s-115 -143.666 -217 -180.999s-243.333 -56 -424 -56v307c79.333 2 140 11.5 182 28.5s71.333 44.833 88 83.5s25 93 25 163h-254v688z" />
    <glyph glyph-name="quotesinglbase" unicode="&#x201a;" horiz-adv-x="1475" 
d="M389 688h664v-688c0 -145.333 -20.167 -259.666 -60.5 -342.999s-111.333 -144 -213 -182s-245.5 -57 -431.5 -57v303c116 0 194.167 20.167 234.5 60.5s60.5 113.166 60.5 218.499h-254v688z" />
    <glyph glyph-name="quotedblleft" unicode="&#x201c;" horiz-adv-x="2003" 
d="M1786 1827h-664v688c0 146.667 21.333 261.667 64 345s115 143.666 217 181c102 37.333 243.333 56 424 56v-308c-78.667 -1.33301 -139 -10.5 -181 -27.5s-71.5 -44.833 -88.5 -83.5s-25.5 -93 -25.5 -163h254v-688zM864 1827h-663v688c0 146.667 21.333 261.667 64 345
s115 143.666 217 181c102 37.333 243 56 423 56v-308c-78.667 -1.33301 -139 -10.666 -181 -28c-42 -17.333 -71.5 -45.166 -88.5 -83.5c-17 -38.333 -25.5 -92.5 -25.5 -162.5h254v-688z" />
    <glyph glyph-name="quotedblright" unicode="&#x201d;" horiz-adv-x="2003" 
d="M229 3072l664 -0.000976562v-688c0 -146.667 -21.333 -261.667 -64 -345s-115 -143.666 -217 -180.999s-243.333 -56 -424 -56v307c79.333 2 140 11.5 182 28.5s71.333 44.833 88 83.5s25 93 25 163h-254v688zM1151 3072l664 -0.000976562v-688
c0 -146.667 -21.333 -261.667 -64 -345s-115 -143.666 -217 -180.999s-243.333 -56 -424 -56v307c116 2.66699 194.167 23.167 234.5 61.5s60.5 109.5 60.5 213.5h-254v688z" />
    <glyph glyph-name="quotedblbase" unicode="&#x201e;" horiz-adv-x="2003" 
d="M221 688l664 -0.000976562v-688c0 -108.667 -10.667 -199 -32 -271s-58.5 -131.167 -111.5 -177.5s-124.333 -80.166 -214 -101.499s-205.5 -32 -347.5 -32v308c114 0 191.667 19.667 233 59s62 111 62 215h-254v688zM1143 687.999l663 0.000976562v-688
c0 -146.667 -19.667 -261.334 -59 -344.001s-110 -143 -212 -181s-246.333 -57 -433 -57v308c112 0 189.167 19.833 231.5 59.5s63.5 111.167 63.5 214.5h-254v688z" />
    <glyph glyph-name="dagger" unicode="&#x2020;" 
d="M1827 3072v-897h745v-541h-745v-2564h-705v2564h-745v541h745v897h705z" />
    <glyph glyph-name="daggerdbl" unicode="&#x2021;" 
d="M2875 2052l-802.002 0.00195312c0 150.667 -23.333 247.667 -70 291c-43.333 46.667 -130.666 70 -261.999 70c-146 0 -243.333 -24.5 -292 -73.5s-73 -146.167 -73 -291.5v-324h778v-594h-778c0 -142.667 -11.167 -243.834 -33.5 -303.501
s-75.166 -109.834 -158.499 -150.501v-21h1691v-655h-2588v655c118 0 192.5 36.667 223.5 110s46.5 195 46.5 365h-364v594h364v443c2 173.333 21.167 317 57.5 431s98.5 208.333 186.5 283s207.833 129.334 359.5 164c151.667 34.667 346.5 52 584.5 52
c311.333 0 547.166 -27.167 707.5 -81.5c160.333 -54.333 270.833 -144.833 331.5 -271.5s91 -309.667 91 -549v-143z" />
    <glyph glyph-name="bullet" unicode="&#x2022;" horiz-adv-x="2458" 
d="M2007 1536c0 -138 -34.333 -265.828 -103 -383.495s-162.334 -210.834 -281.001 -279.501s-247.334 -103 -386.001 -103s-266.5 33.667 -383.5 101s-210 160 -279 278s-103.5 247 -103.5 387c0 139.333 33.667 268.166 101 386.499s160 211.833 278 280.499
c118 68.667 247 103 387 103c138.667 0 267.334 -34.333 386.001 -103s212.334 -162.334 281.001 -281.001s103 -247.334 103 -386.001z" />
    <glyph glyph-name="ellipsis" unicode="&#x2026;" horiz-adv-x="4096" 
d="M1012 713v-713h-664v713h664zM2380 713v-713h-664v713h664zM3748 713v-713h-664v713h664z" />
    <glyph glyph-name="perthousand" unicode="&#x2030;" horiz-adv-x="5284" 
d="M5190 983v-450.999c-2.66602 -160.667 -26.666 -280.667 -72 -360s-114.167 -132 -206.5 -158c-92.334 -26 -224.834 -39 -397.5 -39c-172 0 -302.334 12.5 -391 37.5c-88.667 25 -154 76.5 -196 154.5s-65 198.333 -69 361v451c4 162 26.667 282.333 68 361
s106.166 131 194.5 157s218.167 39 389.5 39c173.334 0 306.667 -12.667 400 -38c93.334 -25.333 162.667 -77.333 208 -156c45.334 -78.667 69.334 -198.334 72 -359.001zM4780 594.001v339.999c0 81.333 -7.16602 138.666 -21.5 171.999s-38 54 -71 62
s-92.166 12 -177.5 12c-77.334 0 -130.834 -4 -160.5 -12s-50.666 -29 -63 -63s-18.5 -91 -18.5 -171v-340c0 -85.333 6.16602 -146.166 18.5 -182.499s33.334 -58.666 63 -66.999s83.166 -12.5 160.5 -12.5c80 0 137 4.33301 171 13s59 31.167 75 67.5s24 96.833 24 181.5z
M3039 3072l-1814 -3072h-492l1815 3072h491zM3621 983v-451c-2.66699 -160.667 -26.5 -280.667 -71.5 -360s-113.833 -132 -206.5 -158s-225.334 -39 -398 -39c-130 0 -234 6.33301 -312 19s-141.833 37.5 -191.5 74.5s-86.667 92.5 -111 166.5s-37.833 171.667 -40.5 293
v451c2.66699 122 16.167 220 40.5 294s61.166 130 110.5 168c49.333 38 112.5 63.333 189.5 76s180.5 19 310.5 19c174 0 307.5 -12.5 400.5 -37.5s162.167 -77 207.5 -156s69.333 -198.833 72 -359.5zM3211 594v339.999c0 81.333 -7.16699 138.666 -21.5 171.999
s-38 54 -71 62s-92.167 12 -177.5 12c-77.333 0 -130.833 -4 -160.5 -12s-50.667 -29 -63 -63s-18.5 -91 -18.5 -171v-340c0 -85.333 6.16699 -146.166 18.5 -182.499s33.333 -58.666 63 -66.999s83.167 -12.5 160.5 -12.5c80.667 0 137.834 4.33301 171.5 13
c33.667 8.66699 58.5 31.167 74.5 67.5s24 96.833 24 181.5zM1425 2544l0.000976562 -451c-2.66699 -160 -26.5 -279.833 -71.5 -359.5s-113.667 -132.5 -206 -158.5s-224.833 -39 -397.5 -39c-129.333 0 -233.5 6.5 -312.5 19.5s-143.333 38.167 -193 75.5
s-86.5 92.5 -110.5 165.5s-37.333 170.5 -40 292.5v451c2.66699 122 16.167 220 40.5 294s61.166 130 110.499 168s112.5 63.333 189.5 76s180.5 19 310.5 19c174 0 307.5 -12.5 400.5 -37.5s162.167 -77 207.5 -156s69.333 -198.833 72 -359.5zM1016 2154
l-0.00292969 339.999c0 81.333 -7.16699 138.666 -21.5 171.999s-38.166 54 -71.499 62s-92.666 12 -177.999 12c-76.667 0 -129.834 -4 -159.501 -12s-50.667 -29 -63 -63s-18.5 -91 -18.5 -171v-340c0 -85.333 6.16699 -146.166 18.5 -182.499s33.333 -58.666 63 -66.999
s82.834 -12.5 159.501 -12.5c80.667 0 137.834 4.33301 171.501 13s58.667 31 75 67s24.5 96.667 24.5 182z" />
    <glyph glyph-name="guilsinglleft" unicode="&#x2039;" horiz-adv-x="1356" 
d="M705 2109l462 -249l-393 -746l393 -692l-438 -270l-549 962z" />
    <glyph glyph-name="guilsinglright" unicode="&#x203a;" horiz-adv-x="1352" 
d="M623 152l-463 249l393 746l-393 692l438 270l549 -962z" />
    <glyph glyph-name="trademark" unicode="&#x2122;" horiz-adv-x="3523" 
d="M3539 3072v-1655h-381v1323h-8l-479 -1323h-213l-480 1323h-8v-1323h-381v1655h602l373 -979l373 979h602zM1409 3072v-340h-504v-1315h-418v1315h-503v340h1425z" />
    <glyph glyph-name=".null" horiz-adv-x="0" 
 />
    <glyph glyph-name="nonmarkingreturn" horiz-adv-x="0" 
 />
  </font>
</defs>
</svg>
