<?xml version="1.0" standalone="no"?>
<!DOCTYPE svg PUBLIC "-//W3C//DTD SVG 1.1//EN" "http://www.w3.org/Graphics/SVG/1.1/DTD/svg11.dtd" >
<svg>
<metadata>
Created by FontForge 20090914 at Tue Nov 21 12:07:06 2017
 By www-data
Copyright (C) 1993; Type Market Ltd. Moscow, 119136, Box 20; phone:(095)1427712; Created by A.Kustov
</metadata>
<defs>
<font id="Europe" horiz-adv-x="562" >
  <font-face 
    font-family="Europe"
    font-weight="400"
    font-stretch="normal"
    units-per-em="1000"
    panose-1="0 0 0 0 0 0 0 0 0 0"
    ascent="800"
    descent="-200"
    x-height="524"
    cap-height="748"
    bbox="-11 -236.999 1137 885"
    underline-thickness="50"
    underline-position="-75"
    unicode-range="U+0020-U+2122"
  />
<missing-glyph horiz-adv-x="763" 
d="M47 0v763h669v-763h-669zM669 47v669h-575v-669h575z" />
    <glyph glyph-name=".notdef" horiz-adv-x="763" 
d="M47 0v763h669v-763h-669zM669 47v669h-575v-669h575z" />
    <glyph glyph-name="space" unicode=" " horiz-adv-x="238" 
 />
    <glyph glyph-name="exclam" unicode="!" horiz-adv-x="268" 
d="M174 102v-102h-83v102h83zM179 749l-11 -543h-72l-9 543h92z" />
    <glyph glyph-name="quotedbl" unicode="&#x22;" horiz-adv-x="370" 
d="M134 450h-65l-14 299h93zM301 450h-67l-13 299h93z" />
    <glyph glyph-name="numbersign" unicode="#" horiz-adv-x="679" 
d="M435 260l-32 -223h-46l31 223h-132l-31 -223h-48l32 223h-140l7 45h139l18 125h-140l7 47h139l30 205h47l-29 -205h132l28 205h47l-29 -205h144l-7 -47h-143l-18 -125h143l-6 -45h-143zM412 430h-133l-17 -125h132z" />
    <glyph glyph-name="dollar" unicode="$" horiz-adv-x="687" 
d="M314 416v264h-37c-56.667 0 -94.667 -5.66699 -114 -17c-28.667 -16.667 -43 -52 -43 -106c0 -60 12.667 -99.333 38 -118c20.667 -15.333 60.667 -23 120 -23h36zM377 344v-286.001h29c58 0 99.333 9 124 27c29.333 21.333 44 60 44 116
c0 62.667 -14.333 103.334 -43 122.001c-22 14 -67.333 21 -136 21h-18zM377 -8.00098l-0.000976562 -76h-63v74c-105.333 0 -174 8.33301 -206 25c-52.667 27.333 -79 88 -79 182v27h84c0 -74 11 -120.667 33 -140c20 -17.333 66.667 -26 140 -26h28v285
c-116.667 0 -193 16.667 -229 50c-32.667 30 -49 77.667 -49 143c0 85.333 22.333 143.666 67 174.999c36.667 25.333 99.334 38 188.001 38h23v69h63v-69c97.333 0 162.333 -10 195 -30c46 -28 69 -88 69 -180h-83c0 55.333 -7.33301 92 -22 110
c-16.667 20.667 -51 31 -103 31h-56v-264c100.667 0 168.334 -9.33301 203.001 -28c52 -28 78 -87 78 -177c0 -87.333 -21 -146.666 -63 -177.999c-36.667 -27.333 -101.334 -41 -194.001 -41h-24z" />
    <glyph glyph-name="percent" unicode="%" horiz-adv-x="883" 
d="M194 373c-67.333 0 -111.5 9.5 -132.5 28.5s-31.5 56.5 -31.5 112.5v97c0 55.333 10.667 92.5 32 111.5s65.333 28.5 132 28.5c66 0 109.167 -9.16699 129.5 -27.5s30.5 -55.833 30.5 -112.5v-97c0 -56 -10.167 -93.5 -30.5 -112.5s-63.5 -28.5 -129.5 -28.5zM306 500
l0.00195312 123c0 38 -9.66699 62.667 -29 74c-14.667 8.66699 -42.334 13 -83.001 13c-42 0 -70 -4 -84 -12c-20.667 -12 -31 -37 -31 -75v-129c0 -36.667 10 -60 30 -70c13.333 -6.66699 41.666 -10 84.999 -10c40.667 0 68 4 82 12c20 11.333 30 36 30 74zM729.002 749
l-507 -749h-51l505 749h53zM709.002 -1c-66.667 0 -110.5 9.5 -131.5 28.5s-31.5 56.167 -31.5 111.5v97c0 56.667 10.333 94.334 31 113.001s64.667 28 132 28c66 0 109.667 -9.83301 131 -29.5s32 -56.834 32 -111.501v-97c0 -55.333 -10.5 -92.5 -31.5 -111.5
s-64.833 -28.5 -131.5 -28.5zM822.002 125l-0.000976562 124c0 38 -9.66699 62.667 -29 74c-14.667 8.66699 -42.667 13 -84 13s-69.333 -4.33301 -84 -13c-20 -12 -30 -36.667 -30 -74v-129c0 -36.667 10 -60 30 -70c13.333 -6.66699 41.333 -10 84 -10
s70.334 3.66699 83.001 11c20 11.333 30 36 30 74z" />
    <glyph glyph-name="ampersand" unicode="&#x26;" horiz-adv-x="786" 
d="M579 330l82.999 0.000976562v-65c0 -33.333 -3 -66.666 -9 -99.999l131 -107l-46 -58l-110 91c-20 -42.667 -55 -71 -105 -85c-30.667 -8.66699 -77.667 -13 -141 -13c-84 0 -141.333 3 -172 9c-49.333 10 -85.333 31.333 -108 64c-25.333 37.333 -38 94.666 -38 171.999
c0 72 15 122.333 45 151c20.667 20 56.334 33.667 107.001 41c-27.333 23.333 -45.333 43.666 -54 60.999s-13 43.666 -13 78.999c0 70.667 20.667 118.334 62 143.001c31.333 18.667 85 28 161 28c78.667 0 132.667 -10.333 162 -31c36.667 -26 55 -76.333 55 -151l-1 -41
h-82l-1 27c0 58 -9.33301 93.667 -28 107c-14.667 10.667 -53.667 16 -117 16c-43.333 0 -73 -3.66699 -89 -11c-25.333 -12 -38 -37 -38 -75c0 -28 4.5 -50 13.5 -66s25.5 -33.333 49.5 -52l281 -236l2 54v48zM268.999 384.001c-42 -10.667 -68 -18.667 -78 -24
c-28.667 -15.333 -43 -55.666 -43 -120.999c0 -72.667 9.5 -119.834 28.5 -141.501s64.167 -32.5 135.5 -32.5h73c48.667 0 83.667 3 105 9c39.333 11.333 63.333 34 72 68z" />
    <glyph glyph-name="quotesingle" unicode="'" horiz-adv-x="205" 
d="M136 450h-68l-13 299h95z" />
    <glyph glyph-name="parenleft" unicode="(" horiz-adv-x="311" 
d="M258 756v-71.002c-48 0 -79.667 -12 -95 -36c-11.333 -17.333 -17 -48.666 -17 -93.999v-46v-415c0 -47.333 4 -80 12 -98c13.333 -30 41.333 -45 84 -45l16 1v-71l-23 -1c-72 0 -120.667 24.333 -146 73c-18 34.667 -27 92.334 -27 173.001v351
c0 100 8.66699 167 26 201c26 52 82.667 78 170 78z" />
    <glyph glyph-name="parenright" unicode=")" horiz-adv-x="311" 
d="M62 756v-71.002c48 0 79.667 -12 95 -36c11.333 -17.333 17 -48.666 17 -93.999v-46v-415c0 -47.333 -4 -80 -12 -98c-13.333 -30 -41.333 -45 -84 -45l-16 1v-71l23 -1c72 0 120.667 24.333 146 73c18 34.667 27 92.334 27 173.001v351c0 100 -8.66699 167 -26 201
c-26 52 -82.667 78 -170 78z" />
    <glyph glyph-name="asterisk" unicode="*" horiz-adv-x="687" 
d="M543 588l-153 -55l93 -132l-45 -32l-93 136l-100 -136l-44 32l96 132l-152 58l18 53l154 -56v162h55v-162l153 57z" />
    <glyph glyph-name="plus" unicode="+" 
d="M26 405h230v217h48v-217h232v-45h-232v-217h-48v217h-230v45z" />
    <glyph glyph-name="comma" unicode="," horiz-adv-x="227" 
d="M159 103v-110c0 -35.333 -4.33301 -60 -13 -74c-12 -19.333 -33.333 -29 -64 -29l-22 1v42c32.667 0 49 17.667 49 53l-1 14h-37v103h88z" />
    <glyph glyph-name="hyphen" unicode="-" horiz-adv-x="579" 
d="M40 308h493v-47h-493v47z" />
    <glyph glyph-name="period" unicode="." horiz-adv-x="223" 
d="M156 101v-101h-89v101h89z" />
    <glyph glyph-name="slash" unicode="/" horiz-adv-x="726" 
d="M648 749l-579 -859h-61l577 859h63z" />
    <glyph glyph-name="zero" unicode="0" horiz-adv-x="687" 
d="M661 377c0 -150.667 -24.668 -253.666 -74.001 -308.999c-45.333 -51.333 -126.666 -77 -243.999 -77s-198.333 25.333 -243 76c-49.333 55.333 -74 158.666 -74 309.999c0 150 24.333 252 73 306c44.667 49.333 126 74 244 74c117.333 0 198.333 -24.333 243 -73
c50 -54.667 75 -157 75 -307zM576.999 377.001c0 127.333 -15.001 210.333 -45.001 249s-93 58 -189 58c-96.667 0 -159.667 -19.333 -189 -58s-44 -121.667 -44 -249s15 -211.333 45 -252s92.667 -61 188 -61c94.667 0 157.334 20.667 188.001 62s46 125 46 251z" />
    <glyph glyph-name="one" unicode="1" horiz-adv-x="687" 
d="M441 749v-749h-79v685l-192 -211l-53 49l207 226h117z" />
    <glyph glyph-name="two" unicode="2" horiz-adv-x="689" 
d="M601 73v-72.999h-540v140c0 80 24 135.333 72 166c34.667 22 96.167 37.167 184.5 45.5s140.833 18.166 157.5 29.499c29.333 19.333 44 65.333 44 138c0 60 -13.5 102.5 -40.5 127.5s-74.5 37.5 -142.5 37.5c-76 0 -128.333 -13.333 -157 -40
c-24.667 -23.333 -37 -63 -37 -119v-31h-81c0 100.667 19.333 169.667 58 207s111.667 56 219 56c92 0 158.833 -18.167 200.5 -54.5s62.5 -97.833 62.5 -184.5c0 -90 -18.333 -150.667 -55 -182c-32 -26.667 -97.667 -45.667 -197 -57
c-84 -9.33301 -135 -18.666 -153 -27.999c-36 -18.667 -54 -58.334 -54 -119.001v-59h459z" />
    <glyph glyph-name="three" unicode="3" horiz-adv-x="689" 
d="M274 347l-0.000976562 73.0029h96c63.333 0 103.5 7.83301 120.5 23.5s25.5 53.5 25.5 113.5c0 42.667 -12.333 73.667 -37 93c-28 22 -76.667 33 -146 33c-70.667 0 -118.5 -12.167 -143.5 -36.5s-37.5 -66.833 -37.5 -127.5h-80c0 87.333 19.333 148.666 58 183.999
s106 53 202 53c94 0 162.167 -16.667 204.5 -50s63.5 -83 63.5 -149c0 -60 -9.16699 -102.167 -27.5 -126.5s-50.166 -39.833 -95.499 -46.5c52.667 -6.66699 89.334 -24 110.001 -52c18 -24.667 27 -63.334 27 -116.001c0 -88 -19.5 -147.167 -58.5 -177.5
s-112.833 -45.5 -221.5 -45.5c-92.667 0 -158.667 11.667 -198 35c-52 30.667 -78 87.667 -78 171l1 45h82v-44c0 -52.667 12.667 -88.167 38 -106.5s76.666 -27.5 153.999 -27.5c85.333 0 139.5 9.33301 162.5 28s34.5 59 34.5 121c0 49.333 -11.5 83.666 -34.5 102.999
s-62.167 29 -117.5 29h-104z" />
    <glyph glyph-name="four" unicode="4" horiz-adv-x="689" 
d="M532 749v-505h113v-72h-113v-172h-80v172h-422v100l376 477h126zM452 244v450l-352 -450h352z" />
    <glyph glyph-name="five" unicode="5" horiz-adv-x="687" 
d="M85 370l0.00488281 375h504v-73h-424v-221c20 26 49.667 43.667 89 53c26 6 61.667 9 107 9c90.667 0 156 -18 196 -54s60 -97.333 60 -184c0 -110 -17.833 -184.5 -53.5 -223.5s-107.834 -58.5 -216.501 -58.5c-102.667 0 -171.334 10.667 -206.001 32
c-48 30 -72 93.333 -72 190h83c0 -64 11 -104.833 33 -122.5s76 -26.5 162 -26.5c69.333 0 116.666 10 141.999 30c29.333 22.667 44 66.667 44 132c0 84 -10.333 139.667 -31 167c-22.667 30 -69.334 45 -140.001 45c-76.667 0 -126.834 -4.66699 -150.501 -14
s-39.167 -28 -46.5 -56h-80z" />
    <glyph glyph-name="six" unicode="6" horiz-adv-x="689" 
d="M348 458c93.333 0 159.334 -16.001 198.001 -48.001c42.667 -35.333 64 -96.666 64 -183.999c0 -88.667 -21.667 -150.334 -65 -185.001c-40.667 -32.667 -111 -49 -211 -49c-109.333 0 -181.333 16 -216 48c-40.667 37.333 -61 116.666 -61 237.999v108
c0 154 18 254.333 54 301s115 70 237 70c91.333 0 155 -9 191 -27c50 -25.333 75 -75.666 75 -150.999l-1 -23h-80l1 17c0 46 -12.833 76 -38.5 90s-74.834 21 -147.501 21c-82.667 0 -138 -13.667 -166 -41s-42 -85.666 -42 -174.999v-82c12 26.667 29.333 44.667 52 54
c29.333 12 81.333 18 156 18zM140.001 225.999c0 -64 14.333 -107.333 43 -130c26.667 -20.667 77 -31 151 -31c72.667 0 123 11.167 151 33.5s42 64.5 42 126.5c0 63.333 -13.667 106 -41 128s-78 33 -152 33c-74.667 0 -125.667 -11 -153 -33s-41 -64.333 -41 -127z" />
    <glyph glyph-name="seven" unicode="7" horiz-adv-x="689" 
d="M600 749v-106l-363 -643h-100l394 675h-477v74h546z" />
    <glyph glyph-name="eight" unicode="8" horiz-adv-x="689" 
d="M337 350c-78.667 0 -130.834 -10.001 -156.501 -30.001s-38.5 -58 -38.5 -114s12.5 -93.333 37.5 -112s77.833 -28 158.5 -28s133.334 9.33301 158.001 28s37 57 37 115c0 54.667 -12 91.334 -36 110.001c-26.667 20.667 -80 31 -160 31zM337 682.999
c-74.667 0 -123.833 -9.16895 -147.5 -27.502s-35.5 -51.833 -35.5 -100.5c0 -55.333 10 -90.666 30 -105.999c23.333 -18 74.333 -27 153 -27c80.667 0 132.667 9.66699 156 29c20 16.667 30 51.334 30 104.001c0 48 -11 80.667 -33 98c-25.333 20 -76.333 30 -153 30z
M187.001 389.997c-48 9.33301 -80.668 28.666 -98.001 57.999c-13.333 22.667 -20 58.334 -20 107.001c0 75.333 19.667 127.666 59 156.999s110 44 212 44c101.333 0 171.166 -14.5 209.499 -43.5s57.5 -81.167 57.5 -156.5c0 -48 -6.66699 -83.333 -20 -106
c-17.333 -30 -50.666 -50 -99.999 -60c48 -8.66699 82.333 -28.334 103 -59.001c18.667 -27.333 28 -66 28 -116c0 -85.333 -17.333 -142.666 -52 -171.999c-39.333 -33.333 -115.666 -50 -228.999 -50c-112 0 -187.333 16.667 -226 50
c-35.333 30.667 -53 89.334 -53 176.001c0 49.333 8 86.333 24 111c19.333 30 54.333 50 105 60z" />
    <glyph glyph-name="nine" unicode="9" horiz-adv-x="689" 
d="M324 290c-92.667 0 -158.668 16.001 -198.001 48.001c-42.667 34.667 -64 95.667 -64 183c0 88.667 21.167 150 63.5 184s113.166 51 212.499 51c104 0 174.333 -14.667 211 -44c44 -35.333 66 -105.333 66 -210v-140c0 -154.667 -17.667 -254.834 -53 -300.501
s-114.666 -68.5 -237.999 -68.5c-91.333 0 -154.666 8.66699 -189.999 26c-50.667 24.667 -76 74.667 -76 150l1 23h80l-1 -19c0 -45.333 13.333 -75 40 -89c23.333 -12 72 -18 146 -18c83.333 0 138.833 13.5 166.5 40.5s41.5 84.5 41.5 172.5v83
c-12 -26.667 -29.333 -44.667 -52 -54c-29.333 -12 -81.333 -18 -156 -18zM531.999 522.001c0 64 -13.833 106.833 -41.5 128.5s-78.5 32.5 -152.5 32.5c-72.667 0 -123 -11.167 -151 -33.5s-42 -64.5 -42 -126.5c0 -63.333 13.667 -106 41 -128s78 -33 152 -33
c74.667 0 125.667 11 153 33s41 64.333 41 127z" />
    <glyph glyph-name="colon" unicode=":" horiz-adv-x="223" 
d="M156 103v-102h-89v102h89zM156 524v-102h-89v102h89z" />
    <glyph glyph-name="semicolon" unicode=";" horiz-adv-x="224" 
d="M156 102v-109c0 -35.333 -4.33301 -60 -13 -74c-12 -19.333 -33.333 -29 -64 -29l-22 1v42c32.667 0 49 17.667 49 53l-1 14h-37v102h88zM68 422v102h88v-102h-88z" />
    <glyph glyph-name="less" unicode="&#x3c;" horiz-adv-x="561" 
d="M523 644v-88l-393 -180l393 -181v-87l-487 230v76z" />
    <glyph glyph-name="equal" unicode="=" 
d="M26 485h512v-46h-511zM26 326h512v-46h-511z" />
    <glyph glyph-name="greater" unicode="&#x3e;" 
d="M38 108v87l393 181l-393 181v87l487 -231v-75z" />
    <glyph glyph-name="question" unicode="?" horiz-adv-x="584" 
d="M300 216l-81.998 0.00390625c0 56 7 95 21 117s45.5 42.167 94.5 60.5s80.667 36.166 95 53.499s21.5 49.666 21.5 96.999c0 54 -11.667 90.667 -35 110s-65.333 29 -126 29c-64.667 0 -106.334 -8.33301 -125.001 -25c-16 -14 -24 -44.667 -24 -92v-50h-79
c0 95.333 14.167 158.833 42.5 190.5s89.166 47.5 182.499 47.5c88 0 148.333 -11.333 181 -34c41.333 -28.667 62 -84.334 62 -167.001c0 -78 -18.667 -135 -56 -171c-20 -19.333 -61 -40.333 -123 -63c-18.667 -6.66699 -31.667 -17.334 -39 -32.001s-11 -32 -11 -52v-19z
M301.002 102.004v-102h-88v102h88z" />
    <glyph glyph-name="at" unicode="@" horiz-adv-x="707" 
d="M462 529h54.002v-256c0 -24.667 1.66699 -42 5 -52c6 -18.667 19 -28 39 -28c19.333 0 32.666 9.66699 39.999 29c10.667 27.333 16 81.333 16 162c0 109.333 -13.333 175 -40 197s-105 33 -235 33c-114.667 0 -184.334 -13.833 -209.001 -41.5
s-37 -102.834 -37 -225.501c0 -127.333 13.833 -207.166 41.5 -239.499s98.167 -48.5 211.5 -48.5c95.333 0 154.666 3.66699 177.999 11c12.667 4.66699 22 13.334 28 26.001l39 -28c-13.333 -23.333 -33.833 -38.666 -61.5 -45.999s-83.5 -11 -167.5 -11
c-128 0 -209.667 15.333 -245 46c-48 41.333 -72 138.666 -72 291.999c0 135.333 19 222 57 260c35.333 35.333 114.333 53 237 53c136 0 223.667 -17 263 -51s59 -108.667 59 -224c0 -98 -9 -164 -27 -198c-14 -26 -38.333 -39 -73 -39c-22.667 0 -42.5 5 -59.5 15
s-27.5 25.333 -31.5 46c-10 -24 -28.667 -41.333 -56 -52c-20.667 -8 -47 -12 -79 -12c-59.333 0 -99.666 18.667 -120.999 56c-15.333 27.333 -23 73.666 -23 138.999c0 66.667 8.66699 113 26 139c22 33.333 64 50 126 50c27.333 0 50.833 -3.5 70.5 -10.5
s35.167 -20.5 46.5 -40.5v49zM461.002 372c0 40.667 -7.00098 69.333 -21.001 86c-16 18.667 -44 28 -84 28c-44.667 0 -73.167 -8.5 -85.5 -25.5s-18.5 -56.5 -18.5 -118.5c0 -62.667 5.83301 -103 17.5 -121s35.834 -27 72.501 -27c50 0 83 10 99 30
c13.333 16.667 20 49.667 20 99v49z" />
    <glyph glyph-name="A" unicode="A" horiz-adv-x="720" 
d="M26 0l273 749h121l279 -749h-89l-56 154h-378l-60 -154h-90zM527 227l-166 460l-165 -460h331z" />
    <glyph glyph-name="B" unicode="B" horiz-adv-x="692" 
d="M154 349v-273.999h231c68.667 0 113.667 7 135 21c26.667 18 40 56.333 40 115c0 59.333 -9 97.166 -27 113.499s-55.667 24.5 -113 24.5h-266zM154 675.001v-253.001h238c56 0 94.333 9.33301 115 28s31 54.334 31 107.001c0 45.333 -8 76.333 -24 93s-46.667 25 -92 25
h-268zM453 0l-382.002 0.000976562v749h361c66 0 114.167 -14.167 144.5 -42.5s45.5 -75.833 45.5 -142.5c0 -48.667 -5 -84 -15 -106c-13.333 -29.333 -39.666 -51 -78.999 -65c46.667 -12.667 78.334 -33.334 95.001 -62.001c14 -24 21 -62.667 21 -116
c0 -71.333 -13.667 -124 -41 -158c-30.667 -38 -80.667 -57 -150 -57z" />
    <glyph glyph-name="C" unicode="C" horiz-adv-x="663" 
d="M557 250h81.001c0 -98.667 -20.333 -166.334 -61 -203.001s-119.334 -55 -236.001 -55s-194.667 23.333 -234 70c-43.333 51.333 -65 154.666 -65 309.999c0 154.667 21.333 258.334 64 311.001c40 49.333 118.333 74 235 74c114.667 0 192.334 -19.667 233.001 -59
c36 -34.667 54 -97 54 -187l-81 1c-7.33301 70.667 -21 115.667 -41 135c-25.333 24.667 -80.333 37 -165 37c-86 0 -143.333 -20.167 -172 -60.5s-43 -124.166 -43 -251.499s14 -210.333 42 -249s85.667 -58 173 -58s145.166 12.333 173.499 37s42.5 74 42.5 148z" />
    <glyph glyph-name="D" unicode="D" horiz-adv-x="733" 
d="M71 0v749h346c111.333 0 187.333 -36 228 -108c30.667 -54 46 -143 46 -267c0 -122 -14 -210 -42 -264c-38 -73.333 -108 -110 -210 -110h-368zM154 75h245c75.333 0 128.833 21 160.5 63s47.5 120.667 47.5 236s-15.833 194.333 -47.5 237s-85.5 64 -161.5 64h-244v-600
z" />
    <glyph glyph-name="E" unicode="E" horiz-adv-x="595" 
d="M152 420h381v-73h-381v-272h397v-75h-480v749h482v-74h-399v-255z" />
    <glyph glyph-name="F" unicode="F" horiz-adv-x="545" 
d="M153 413h365v-73h-365v-340h-83v749h457v-74h-374v-262z" />
    <glyph glyph-name="G" unicode="G" horiz-adv-x="695" 
d="M358 683c-90 0 -149.334 -19.333 -178.001 -58c-30.667 -41.333 -46 -125.666 -46 -252.999s14.667 -210.333 44 -249s89.333 -58 180 -58c89.333 0 149 16 179 48s45 92.667 45 182v27h-240v72h324v-87c0 -126 -21 -210 -63 -252s-123.333 -63 -244 -63
c-123.333 0 -205.666 26.167 -246.999 78.5s-62 152.833 -62 301.5c0 148 21.167 249 63.5 303s123.833 81 244.5 81c125.333 0 209 -18 251 -54c36 -30.667 54 -88.334 54 -173.001h-81c0 62.667 -14 104 -42 124s-88.667 30 -182 30z" />
    <glyph glyph-name="H" unicode="H" horiz-adv-x="749" 
d="M155 418h438v330h83v-748h-83v345h-438v-345h-83v748h83v-330z" />
    <glyph glyph-name="I" unicode="I" horiz-adv-x="223" 
d="M155 748v-747h-85v747h85z" />
    <glyph glyph-name="J" unicode="J" horiz-adv-x="563" 
d="M491 749l-0.000976562 -543c0 -70 -15.333 -121.667 -46 -155c-36 -39.333 -97.333 -59 -184 -59c-92 0 -154.667 17.333 -188 52c-29.333 30.667 -44 84.667 -44 162v67h82v-55c0 -60 9.83301 -100.167 29.5 -120.5s59.834 -30.5 120.501 -30.5
c52 0 89.5 11.833 112.5 35.5s34.5 62.5 34.5 116.5v530h83z" />
    <glyph glyph-name="K" unicode="K" horiz-adv-x="699" 
d="M156 749v-327h75l305 327h112l-344 -362l384 -387h-115l-342 347h-75v-347h-83v749h83z" />
    <glyph glyph-name="L" unicode="L" horiz-adv-x="560" 
d="M161 749v-673h378v-76h-462v749h84z" />
    <glyph glyph-name="M" unicode="M" horiz-adv-x="964" 
d="M217 750l264 -643l266 643h137v-750h-83v689l-283 -689h-72l-285 682v-682h-83v750h139z" />
    <glyph glyph-name="N" unicode="N" horiz-adv-x="782" 
d="M713 749v-749h-132l-422 677v-677h-83v749h132l422 -684v684h83z" />
    <glyph glyph-name="O" unicode="O" horiz-adv-x="711" 
d="M43 374c0 -157.333 20.5 -260.333 61.5 -309s125.167 -73 252.5 -73c128 0 212.5 24.167 253.5 72.5s61.5 151.5 61.5 309.5s-20.333 261.333 -61 310s-124.667 73 -252 73c-128.667 0 -213.5 -24.167 -254.5 -72.5s-61.5 -151.833 -61.5 -310.5zM127 374
c0 135.333 12.667 220.832 38 256.499s89.666 53.5 192.999 53.5c101.333 0 165 -18 191 -54s39 -121.333 39 -256c0 -133.333 -13 -218.166 -39 -254.499s-89.667 -54.5 -191 -54.5s-165.166 18 -191.499 54s-39.5 121 -39.5 255z" />
    <glyph glyph-name="P" unicode="P" horiz-adv-x="667" 
d="M154 293v-293h-83v749h357c72 0 123.167 -16.833 153.5 -50.5s45.5 -88.5 45.5 -164.5c0 -92 -17.833 -155.167 -53.5 -189.5s-101.5 -51.5 -197.5 -51.5h-222zM154 366h199c72.667 0 121 8.33301 145 25c30 20.667 45 63 45 127c0 58 -7.33301 97.667 -22 119
c-18 26 -52.667 39 -104 39h-263v-310z" />
    <glyph glyph-name="Q" unicode="Q" horiz-adv-x="743" 
d="M726 91l-34 -57.001l-56 38c-28.667 -34 -66 -56.667 -112 -68c-33.333 -8 -88.333 -12 -165 -12c-128 0 -212 23.667 -252 71c-42 49.333 -63 153 -63 311c0 157.333 20.667 260.333 62 309s125.333 73 252 73c129.333 0 214.833 -24 256.5 -72s62.5 -151.333 62.5 -310
v-33c0 -52 -0.833008 -95.167 -2.5 -129.5s-5.5 -60.166 -11.5 -77.499zM372 325.999l217 -142.999c1.33301 7.33301 2.16602 33.333 2.49902 78s0.833008 82.334 1.5 113.001c0 133.333 -13.833 218.166 -41.5 254.499s-92.5 54.5 -194.5 54.5
c-101.333 0 -164.833 -17.833 -190.5 -53.5s-38.5 -120.834 -38.5 -255.501c0 -134 13 -218.833 39 -254.5s89.667 -53.5 191 -53.5c53.333 0 89.333 1 108 3c46.667 5.33301 80.334 21 101.001 47l-233 151z" />
    <glyph glyph-name="R" unicode="R" horiz-adv-x="699" 
d="M407 300l-254.001 -0.000976562v-300h-83v749h356c74.667 0 129.834 -17.167 165.501 -51.5s53.5 -90.166 53.5 -167.499c0 -60 -6 -102.333 -18 -127c-18 -36 -55 -59.333 -111 -70c40.667 0 71 -13.333 91 -40c18 -24 27 -58.333 27 -103v-190h-84v170
c0 48 -11.5 81.667 -34.5 101s-59.167 29 -108.5 29zM152.999 370.999l245 0.000976562c59.333 0 100.333 9 123 27c26 20.667 39 58.667 39 114c0 57.333 -10.333 98.666 -31 123.999s-55 38 -103 38h-273v-303z" />
    <glyph glyph-name="S" unicode="S" horiz-adv-x="629" 
d="M35 231l82.999 0.00292969c0 -74 11 -120 33 -138s78 -27 168 -27c83.333 0 138 11 164 33c21.333 18 32 54.333 32 109c0 52 -11.333 86.333 -34 103c-25.333 18.667 -78.666 28 -159.999 28c-97.333 0 -166.333 13.333 -207 40c-48.667 32 -73 88.333 -73 169
c0 75.333 21.667 129 65 161s114.333 48 213 48c92 0 157 -12.333 195 -37c46.667 -30.667 70 -86.334 70 -167.001l1 -11h-82c0 56 -11.833 93.667 -35.5 113s-73.167 29 -148.5 29c-79.333 0 -131.833 -9.33301 -157.5 -28s-38.5 -53 -38.5 -103
c0 -52.667 15.5 -88.334 46.5 -107.001s94.833 -28 191.5 -28c82.667 0 141.667 -13.667 177 -41c40.667 -31.333 61 -85.333 61 -162c0 -86.667 -20.167 -145.334 -60.5 -176.001s-113.5 -46 -219.5 -46c-102 0 -171.333 10 -208 30c-50.667 28 -76 85.667 -76 173v35z" />
    <glyph glyph-name="T" unicode="T" horiz-adv-x="601" 
d="M257 0v673h-245v76h572v-76h-243v-673h-84z" />
    <glyph glyph-name="U" unicode="U" horiz-adv-x="736" 
d="M158 749v-525c0 -68 12.5 -111.167 37.5 -129.5s82.833 -27.5 173.5 -27.5c91.333 0 149.5 9.16699 174.5 27.5s37.5 61.5 37.5 129.5v525h83v-527c0 -101.333 -25 -167.333 -75 -198c-36 -22 -109.667 -33 -221 -33c-107.333 0 -179.333 11 -216 33
c-51.333 30.667 -77 96.667 -77 198v527h83z" />
    <glyph glyph-name="V" unicode="V" horiz-adv-x="643" 
d="M552 749h91l-265 -749h-122l-267 749h90l239 -682z" />
    <glyph glyph-name="W" unicode="W" horiz-adv-x="1151" 
d="M1136 749l-237 -749h-128l-196 674l-202 -674h-125l-231 749h88l204 -684l203 684h125l200 -684l210 684h89z" />
    <glyph glyph-name="X" unicode="X" horiz-adv-x="686" 
d="M136 749h-100l246 -361l-268 -388h102l232 344l232 -344h102l-268 388l246 361h-100l-212 -320z" />
    <glyph glyph-name="Y" unicode="Y" horiz-adv-x="673" 
d="M662 749l-283 -436v-313h-84v313l-275 436h93l227 -358l227 358h95z" />
    <glyph glyph-name="Z" unicode="Z" horiz-adv-x="637" 
d="M601 749v-80l-472 -594h482v-75h-584v74l469 601h-454v74h559z" />
    <glyph glyph-name="bracketleft" unicode="[" horiz-adv-x="311" 
d="M61 749h192v-64h-109v-733h109v-65h-192v862z" />
    <glyph glyph-name="backslash" unicode="\" horiz-adv-x="726" 
d="M79 749h63l577 -859h-61z" />
    <glyph glyph-name="bracketright" unicode="]" horiz-adv-x="311" 
d="M250 -113h-192v65h109v732h-109v65h192v-862z" />
    <glyph glyph-name="asciicircum" unicode="^" 
d="M118 420h-82l196 330h99l196 -330h-83l-163 271z" />
    <glyph glyph-name="underscore" unicode="_" 
d="M0 -81h562v-57h-562v57z" />
    <glyph glyph-name="grave" unicode="`" 
d="M227 742l148 -113l-26 -41l-161 99z" />
    <glyph glyph-name="a" unicode="a" horiz-adv-x="569" 
d="M424 153c0 45.333 -10.834 73.834 -32.501 85.501s-69.167 17.5 -142.5 17.5c-43.333 0 -73.333 -5.33301 -90 -16c-20.667 -13.333 -31 -38 -31 -74c0 -44 9 -74 27 -90s49.667 -24 95 -24c62.667 0 104.334 4.33301 125.001 13c32.667 13.333 49 42.666 49 87.999z
M422.999 256.001l0.000976562 75.0029c0 63.333 -9 103.166 -27 119.499s-60 24.5 -126 24.5c-48 0 -80.667 -5.16699 -98 -15.5s-26 -31.833 -26 -64.5l1 -15h-81c0 65.333 19.667 108.666 59 129.999c28 15.333 77.667 23 149 23c81.333 0 137.666 -10.333 168.999 -31
c40 -26 60 -77.333 60 -154v-348h-75l3 66c-18 -32.667 -38 -53.5 -60 -62.5s-60.667 -13.5 -116 -13.5c-71.333 0 -122 10 -152 30c-36.667 24.667 -55 70.667 -55 138c0 63.333 18 106.666 54 129.999c29.333 19.333 78 29 146 29c60 0 101.167 -4.33301 123.5 -13
s39.5 -24.667 51.5 -48z" />
    <glyph glyph-name="b" unicode="b" horiz-adv-x="568" 
d="M146 259c0 -87.333 6.66699 -141.667 20 -163c17.333 -27.333 60 -41 128 -41c77.333 0 122.333 26.667 135 80c5.33301 22 8 63.333 8 124c0 82 -6.33301 134.667 -19 158c-18.667 34.667 -61.334 52 -128.001 52c-61.333 0 -101.666 -17 -120.999 -51
c-15.333 -26.667 -23 -79.667 -23 -159zM141 66.999l3 -67h-78v748h80v-284c18 24.667 37.667 42 59 52c26 12 63.333 18 112 18c84 0 140.333 -25.667 169 -77c21.333 -38 32 -103.667 32 -197c0 -96 -11 -162 -33 -198c-29.333 -48 -88 -72 -176 -72
c-46 0 -80.5 5.33301 -103.5 16s-44.5 31 -64.5 61z" />
    <glyph glyph-name="c" unicode="c" horiz-adv-x="550" 
d="M426 190h76.998c0 -78.667 -17.667 -132.334 -53 -161.001c-32 -26 -89.667 -39 -173 -39c-87.333 0 -146.666 19 -177.999 57s-47 109.333 -47 214c0 104 15.5 175.333 46.5 214s89.833 58 176.5 58c72.667 0 125.667 -10.667 159 -32c40 -25.333 60 -69 60 -131v-17
h-76c0 44 -8.33301 73.667 -25 89c-19.333 17.333 -58.666 26 -117.999 26c-58.667 0 -97 -12.667 -115 -38s-27 -81 -27 -167c0 -84.667 9.5 -140.5 28.5 -167.5s57.5 -40.5 115.5 -40.5c61.333 0 101.5 8.83301 120.5 26.5s28.5 53.834 28.5 108.501z" />
    <glyph glyph-name="d" unicode="d" horiz-adv-x="576" 
d="M422 259c0 79.333 -7.66699 132.333 -23 159c-20 34 -60.667 51 -122 51c-66 0 -108 -17 -126 -51c-13.333 -24.667 -20 -77.667 -20 -159c0 -62.667 2.33301 -103.667 7 -123c12.667 -54 58 -81 136 -81c68 0 110.333 13.333 127 40c14 22 21 76.667 21 164zM422 464
l-0.000976562 284.001h80v-748h-78l3 67c-20 -30.667 -41.167 -51.167 -63.5 -61.5s-57.166 -15.5 -104.499 -15.5c-87.333 0 -145.666 24 -174.999 72c-22.667 36.667 -34 102.667 -34 198c0 93.333 10.333 158.666 31 195.999c28.667 52 85 78 169 78
c49.333 0 86.666 -5.66699 111.999 -17c21.333 -9.33301 41.333 -27 60 -53z" />
    <glyph glyph-name="e" unicode="e" horiz-adv-x="559" 
d="M508 247l-377 0.000976562c0 -79.333 9.5 -131.5 28.5 -156.5s59.5 -37.5 121.5 -37.5s102.167 5.83301 120.5 17.5s27.5 35.834 27.5 72.501v17h79c0 -70 -19.333 -117 -58 -141c-30.667 -19.333 -87 -29 -169 -29c-88 0 -148.167 19 -180.5 57s-48.5 110 -48.5 216
c0 101.333 17.333 171.666 52 210.999s93.334 59 176.001 59c81.333 0 139.666 -18.333 174.999 -55s53 -100.334 53 -191.001v-40zM429 308.001c0 60.667 -10.667 102.834 -32 126.501s-60.333 35.5 -117 35.5s-95.5 -11.833 -116.5 -35.5s-31.5 -65.834 -31.5 -126.501
h297z" />
    <glyph glyph-name="f" unicode="f" horiz-adv-x="302" 
d="M305 525l0.000976562 -64h-137v-461h-80v461h-80v64h80v78c0 58 13.167 98.5 39.5 121.5s69.166 34.5 128.499 34.5l49 -3v-65c-14 2 -28.333 3 -43 3h-14c-30 0 -50.833 -6.5 -62.5 -19.5s-17.5 -34.833 -17.5 -65.5v-84h137z" />
    <glyph glyph-name="g" unicode="g" horiz-adv-x="567" 
d="M423 263c0 78 -7.99902 129.999 -23.999 155.999c-20 32 -61.333 48 -124 48c-78 0 -123 -25 -135 -75c-5.33301 -22 -8 -65 -8 -129c0 -81.333 6.33301 -133.666 19 -156.999c18 -34 60.333 -51 127 -51c61.333 0 101.666 16.667 120.999 50c16 27.333 24 80 24 158z
M431.001 455.999l-4 67h76v-557c0 -80 -16 -133.5 -48 -160.5s-92.333 -40.5 -181 -40.5c-75.333 0 -126.666 9.66699 -153.999 29c-34.667 24 -52 72 -52 144h74c0 -45.333 9.33301 -75.333 28 -90c15.333 -12 46.666 -18 93.999 -18c62.667 0 104 6.66699 124 20
c26 17.333 39 53.666 39 108.999v105c-14.667 -29.333 -39 -49.666 -73 -60.999c-26 -8.66699 -59 -13 -99 -13c-80 0 -135.333 22.667 -166 68c-25.333 37.333 -38 98.333 -38 183c0 102 9.66699 171.333 29 208c29.333 55.333 89.333 83 180 83
c39.333 0 71.333 -4.66699 96 -14c30.667 -12 55.667 -32.667 75 -62z" />
    <glyph glyph-name="h" unicode="h" horiz-adv-x="576" 
d="M145 748l-0.000976562 -283c16 28.667 39.667 48 71 58c21.333 6.66699 53.333 10 96 10c74.667 0 126.334 -13.333 155.001 -40s43 -77.667 43 -153v-340h-80v355c0 46.667 -8.83301 77.5 -26.5 92.5s-50.5 22.5 -98.5 22.5c-63.333 0 -105.833 -12.5 -127.5 -37.5
s-32.5 -69.5 -32.5 -133.5v-299h-80v748h80z" />
    <glyph glyph-name="i" unicode="i" horiz-adv-x="215" 
d="M148 749v-86h-80v86h80zM148 524v-524h-80v524h80z" />
    <glyph glyph-name="j" unicode="j" horiz-adv-x="232" 
d="M155 750v-87h-80v87h80zM75 525l80 -0.000976562v-573c0 -48 -7 -84 -21 -108c-18.667 -32 -50.667 -48 -96 -48c-12 0 -24.667 2 -38 6v55l10 -1c22 0 38.333 5.83301 49 17.5s16 37.834 16 78.501v573z" />
    <glyph glyph-name="k" unicode="k" horiz-adv-x="524" 
d="M162 749v-436h32l189 211h96l-223 -241l264 -283h-104l-222 252h-32v-252h-79v749h79z" />
    <glyph glyph-name="l" unicode="l" horiz-adv-x="215" 
d="M148 749v-749h-80v749h80z" />
    <glyph glyph-name="m" unicode="m" horiz-adv-x="918" 
d="M147 301l0.000976562 -301h-80v524h75v-79c16.667 31.333 40.167 54 70.5 68s64.5 21 102.5 21c38.667 0 71.334 -5.66699 98.001 -17c34.667 -14.667 57.667 -38.667 69 -72c17.333 31.333 41.666 54 72.999 68s66.666 21 105.999 21
c68.667 0 117.167 -14.167 145.5 -42.5s42.5 -76.5 42.5 -144.5v-347h-80v352c0 45.333 -8.16699 76.166 -24.5 92.499s-47.5 24.5 -93.5 24.5c-58 0 -99.333 -12.333 -124 -37c-19.333 -19.333 -29 -47.666 -29 -84.999v-347h-80v346c0 48.667 -8 81.334 -24 98.001
s-49 25 -99 25c-57.333 0 -96.333 -12.833 -117 -38.5s-31 -68.834 -31 -129.501z" />
    <glyph glyph-name="n" unicode="n" horiz-adv-x="579" 
d="M146 321v-321.001h-80v524h75v-67c18.667 29.333 44.334 50 77.001 62c26 9.33301 60 14 102 14c71.333 0 121.166 -13.167 149.499 -39.5s42.5 -75.166 42.5 -146.499v-347h-80v339c0 52.667 -8 87.334 -24 104.001s-50.667 25 -104 25
c-52.667 0 -92.167 -11.333 -118.5 -34s-39.5 -60.334 -39.5 -113.001z" />
    <glyph glyph-name="o" unicode="o" horiz-adv-x="563" 
d="M513 262c0 -108 -16.333 -180.333 -49 -217s-93.667 -55 -183 -55c-88 0 -148.333 18.5 -181 55.5s-49 108.833 -49 215.5c0 107.333 16.167 179.5 48.5 216.5s92.833 55.5 181.5 55.5s149.5 -18.333 182.5 -55s49.5 -108.667 49.5 -216zM432 262
c0 86 -9.83301 141.832 -29.5 167.499s-60.167 38.5 -121.5 38.5c-60.667 0 -100.667 -13 -120 -39s-29 -82 -29 -168c0 -85.333 9.83301 -141 29.5 -167s59.5 -39 119.5 -39c60.667 0 101 12.833 121 38.5s30 81.834 30 168.501z" />
    <glyph glyph-name="p" unicode="p" horiz-adv-x="573" 
d="M148 265c0 -80 7.33398 -133.002 22.001 -159.002c19.333 -34 59.666 -51 120.999 -51c66 0 108.333 17 127 51c14 25.333 21 78.333 21 159c0 78.667 -6 129.334 -18 152.001c-18.667 34.667 -60.667 52 -126 52c-66.667 0 -109 -15.667 -127 -47
c-13.333 -23.333 -20 -75.666 -20 -156.999zM148.001 59.998v-286h-80v750h78l-3 -67c18.667 28.667 41.667 48.667 69 60s60 17 98 17c88 0 146.667 -24 176 -72c22.667 -36.667 34 -102.667 34 -198c0 -92.667 -10.667 -158 -32 -196c-29.333 -52 -86 -78 -170 -78
c-40.667 0 -72.667 4 -96 12c-31.333 10.667 -56 30 -74 58z" />
    <glyph glyph-name="q" unicode="q" horiz-adv-x="573" 
d="M425 265c0 80.667 -6.66699 132.667 -20 156c-18.667 32 -61 48 -127 48c-65.333 0 -107 -17 -125 -51c-12.667 -23.333 -19 -74.333 -19 -153c0 -81.333 6.33301 -134 19 -158c18.667 -34.667 61 -52 127 -52c60.667 0 101 17 121 51c16 27.333 24 80.333 24 159z
M430 457l-3 67h78v-750h-80v286c-17.333 -26.667 -42.333 -45.667 -75 -57c-26 -8.66699 -58.333 -13 -97 -13c-84 0 -140.333 25.667 -169 77c-20.667 37.333 -31 103 -31 197c0 95.333 11.333 161.333 34 198c29.333 48 88 72 176 72c38 0 70.5 -5.66699 97.5 -17
s50.167 -31.333 69.5 -60z" />
    <glyph glyph-name="r" unicode="r" horiz-adv-x="442" 
d="M146 349v-349h-80v524h78l-3 -61c14.667 24.667 34.667 43.167 60 55.5s53.333 18.5 84 18.5c102 0 153 -52 153 -156v-31h-78v39c0 30.667 -7.16699 52.167 -21.5 64.5s-37.5 18.5 -69.5 18.5c-82 0 -123 -41 -123 -123z" />
    <glyph glyph-name="s" unicode="s" horiz-adv-x="537" 
d="M50 165l74.998 -0.000976562c0 -46 10.167 -76.333 30.5 -91s58.166 -22 113.499 -22c58 0 96.5 6.16699 115.5 18.5s28.5 38.833 28.5 79.5c0 28 -10.833 49 -32.5 63s-57.5 21 -107.5 21c-70 0 -121.667 8.66699 -155 26c-45.333 23.333 -68 64.333 -68 123
c0 54.667 15.333 93.334 46 116.001s84.334 34 161.001 34c71.333 0 123.333 -7 156 -21c44 -19.333 66 -54.333 66 -105v-19h-79c0 30 -8 50.667 -24 62c-19.333 14 -56.333 21 -111 21s-91.167 -5.5 -109.5 -16.5s-27.5 -32.167 -27.5 -63.5c0 -34.667 9.33301 -58 28 -70
s60.334 -18 125.001 -18c68.667 0 119.667 -11 153 -33c38.667 -25.333 58 -67 58 -125c0 -61.333 -17.333 -103 -52 -125c-31.333 -20 -87 -30 -167 -30c-83.333 0 -139.666 10 -168.999 30c-36 24.667 -54 73 -54 145z" />
    <glyph glyph-name="t" unicode="t" horiz-adv-x="388" 
d="M357 524l0.000976562 -64h-202v-321c0 -32 4.66699 -53.667 14 -65s29.333 -17 60 -17s50.667 5.66699 60 17s14 33 14 65v46h75c0 -78 -8 -128.667 -24 -152c-18.667 -27.333 -60.667 -41 -126 -41c-58.667 0 -98.834 10.5 -120.501 31.5s-32.5 59.5 -32.5 115.5v321
h-69v64h69v127h80v-127h202z" />
    <glyph glyph-name="u" unicode="u" horiz-adv-x="571" 
d="M424 215l0.00195312 308.999h79v-524h-73v69c-20.667 -31.333 -46.334 -52.666 -77.001 -63.999c-24.667 -9.33301 -59 -14 -103 -14c-64.667 0 -110.667 11.667 -138 35c-29.333 25.333 -44 69 -44 131v367h79v-349c0 -46.667 8.16699 -78.167 24.5 -94.5
s48.166 -24.5 95.499 -24.5c61.333 0 102.833 11.5 124.5 34.5s32.5 64.5 32.5 124.5z" />
    <glyph glyph-name="v" unicode="v" horiz-adv-x="476" 
d="M383 524l-146 -465l-144 465h-85l175 -524h110l175 524h-85z" />
    <glyph glyph-name="w" unicode="w" horiz-adv-x="763" 
d="M757 524l-147 -524h-114l-113 469l-113 -469h-116l-143 524h81l120 -471l115 471h114l114 -471l120 471h82z" />
    <glyph glyph-name="x" unicode="x" horiz-adv-x="476" 
d="M442 524h-92l-119 -192l-119 192h-92l167 -250l-187 -274h96l135 212l135 -212h96l-187 274z" />
    <glyph glyph-name="y" unicode="y" horiz-adv-x="469" 
d="M373 524l81 0.000976562l-161 -594c-17.333 -64 -37.833 -107.833 -61.5 -131.5s-56.167 -35.5 -97.5 -35.5c-16.667 0 -31.667 2 -45 6v64c10 -2.66699 20 -4 30 -4c30 0 51.5 9.66699 64.5 29s29.833 66.666 50.5 141.999h-34l-191 524h80l164 -466z" />
    <glyph glyph-name="z" unicode="z" horiz-adv-x="453" 
d="M50 525h379v-72l-313 -389h313v-63h-406v73l313 387h-286v64z" />
    <glyph glyph-name="braceleft" unicode="{" horiz-adv-x="561" 
d="M243 276c24 -13.333 40.667 -31.6689 50 -55.002c7.33301 -18.667 11 -43.667 11 -75v-175c0 -41.333 7.5 -69.833 22.5 -85.5s43.167 -23.5 84.5 -23.5v-72c-72 0 -120.333 9 -145 27c-31.333 22.667 -47 69.334 -47 140.001v179c0 30.667 -3.66699 53.334 -11 68.001
c-10 19.333 -28 32.666 -54 39.999v67c23.333 6.66699 40 18.834 50 36.501s15 40.167 15 67.5v196c0 59.333 15.333 100.333 46 123c26 19.333 69.333 29 130 29l16 -1v-77c-39.333 0 -67 -7.33301 -83 -22s-24 -41.667 -24 -81v-180
c0 -32.667 -3.33301 -57.334 -10 -74.001c-8.66699 -21.333 -25.667 -38.666 -51 -51.999z" />
    <glyph glyph-name="bar" unicode="|" horiz-adv-x="561" 
d="M325 -186h-86v935h86v-935z" />
    <glyph glyph-name="braceright" unicode="}" horiz-adv-x="561" 
d="M318 277c-23.333 13.333 -39.167 30.502 -47.5 51.502s-12.5 47.167 -12.5 78.5v175c0 41.333 -7.83301 69.833 -23.5 85.5s-43.5 23.5 -83.5 23.5v72c72.667 0 120.667 -8 144 -24c32 -22 48 -69.667 48 -143v-179c0 -30 4.5 -53.667 13.5 -71s26.167 -30 51.5 -38v-66
c-24.667 -6.66699 -41.667 -18.667 -51 -36s-14 -40 -14 -68v-196c0 -58.667 -15 -99.334 -45 -122.001c-26.667 -20 -70.334 -30 -131.001 -30l-16 1v75c39.333 0 67 7.66699 83 23s24 42.666 24 81.999v180c0 32.667 3.83301 58.5 11.5 77.5s23.834 35.167 48.501 48.5z
" />
    <glyph glyph-name="asciitilde" unicode="~" horiz-adv-x="561" 
d="M57 293l-47.001 37.001c18 38 37.667 67 59 87c27.333 26 59 39 95 39c28.667 0 68 -13.667 118 -41s89.667 -41 119 -41c22 0 42.333 9 61 27c12.667 12 26 31 40 57l47 -37c-17.333 -36 -37.666 -64.667 -60.999 -86c-29.333 -26.667 -61 -40 -95 -40
c-28.667 0 -67 13 -115 39s-84.667 40.333 -110 43c-24.667 0 -46.667 -8.33301 -66 -25c-14.667 -12.667 -29.667 -32.334 -45 -59.001z" />
    <glyph glyph-name="nonbreakingspace" unicode="&#xa0;" horiz-adv-x="561" 
d="M68 -1l286.001 -0.000976562c51.333 0 89.166 11.833 113.499 35.5s36.5 63.834 36.5 120.501c0 102 -53.667 153 -161 153h-197v215h-78v-524zM146.001 59.999l0.000976562 187h138c57.333 0 95.166 -6 113.499 -18s27.5 -38 27.5 -78c0 -38.667 -8 -63.5 -24 -74.5
s-54.333 -16.5 -115 -16.5h-140z" />
    <glyph glyph-name="exclamdown" unicode="&#xa1;" horiz-adv-x="268" 
d="M174 647v102h-83v-102h83zM179 0l-11 542h-72l-9 -542h92z" />
    <glyph glyph-name="exclamdown" unicode="&#x40e;" horiz-adv-x="268" 
d="M174 647v102h-83v-102h83zM179 0l-11 542h-72l-9 -542h92z" />
    <glyph glyph-name="sterling" unicode="&#xa3;" horiz-adv-x="358" 
d="M154 103v-110c0 -35.333 -4.33301 -60 -13 -74c-12 -19.333 -33.667 -29 -65 -29l-22 1v42c18.667 0 31.5 3.83301 38.5 11.5s10.5 21.5 10.5 41.5l-1 14h-37v103h89zM311 103v-110c0 -35.333 -4.33301 -60 -13 -74c-12 -19.333 -33.667 -29 -65 -29l-22 1v42
c18.667 0 31.667 4 39 12s11 21.667 11 41l-1 14h-37v103h88z" />
    <glyph glyph-name="sterling" unicode="&#x408;" horiz-adv-x="358" 
d="M154 103v-110c0 -35.333 -4.33301 -60 -13 -74c-12 -19.333 -33.667 -29 -65 -29l-22 1v42c18.667 0 31.5 3.83301 38.5 11.5s10.5 21.5 10.5 41.5l-1 14h-37v103h89zM311 103v-110c0 -35.333 -4.33301 -60 -13 -74c-12 -19.333 -33.667 -29 -65 -29l-22 1v42
c18.667 0 31.667 4 39 12s11 21.667 11 41l-1 14h-37v103h88z" />
    <glyph glyph-name="currency" unicode="&#xa4;" horiz-adv-x="565" 
d="M565 749l-509 -749h-56l506 749h59z" />
    <glyph glyph-name="yen" unicode="&#xa5;" horiz-adv-x="687" 
d="M504 510h102v-69h-145l-69 -111h214v-69h-224v-261h-84v261h-216v69h206l-67 111h-139v69h98l-143 239h98l208 -351l207 351h100z" />
    <glyph glyph-name="yen" unicode="&#x490;" horiz-adv-x="687" 
d="M504 510h102v-69h-145l-69 -111h214v-69h-224v-261h-84v261h-216v69h206l-67 111h-139v69h98l-143 239h98l208 -351l207 351h100z" />
    <glyph glyph-name="brokenbar" unicode="&#xa6;" horiz-adv-x="687" 
d="M411 497l-87.001 -493c-11.333 -61.333 -28 -102 -50 -122c-24.667 -22.667 -69 -34 -133 -34c-10 0 -20.167 0.333008 -30.5 1s-20.833 2 -31.5 4l11 64c17.333 -2.66699 29.5 -4.16699 36.5 -4.5s14.167 -0.5 21.5 -0.5c32.667 0 55.334 6 68.001 18
s21.667 34.667 27 68l88 499h-101l11 65h102l20 115c11.333 60 29.5 100.833 54.5 122.5s66.5 32.5 124.5 32.5l67 -2l-12 -64l-58 2c-33.333 0 -56 -5.83301 -68 -17.5s-21 -34.167 -27 -67.5l-21 -121h138l-11 -65h-139z" />
    <glyph glyph-name="section" unicode="&#xa7;" horiz-adv-x="687" 
d="M440 352l-162.001 47.001c-14 4.66699 -24.5 8 -31.5 10s-14.833 3 -23.5 3c-23.333 0 -40.166 -9.5 -50.499 -28.5s-15.5 -42.167 -15.5 -69.5c0 -34.667 5.33301 -58 16 -70s33 -22.667 67 -32l169 -47l28.5 -6.5c10.333 -2.33301 18.5 -3.5 24.5 -3.5
c28 0 47.333 12 58 36c8 17.333 12 43.666 12 78.999c0 24.667 -9.66699 43.667 -29 57c-10 6.66699 -31 15 -63 25zM425.999 84.001l-230.002 61.002c-46.667 13.333 -77 30.833 -91 52.5s-21 58.167 -21 109.5c0 38.667 5 67 15 85c12.667 23.333 36 38.666 70 45.999
c-22.667 14.667 -37.834 33.667 -45.501 57s-11.5 51.333 -11.5 84c0 76 16.667 125.333 50 148c29.333 20 91 30 185 30c94.667 0 156 -9.33301 184 -28c37.333 -24.667 56 -81.334 56 -170.001h-74c0 56.667 -9.66699 92.334 -29 107.001s-65 22 -137 22
c-71.333 0 -115.666 -5.83301 -132.999 -17.5s-26 -39.167 -26 -82.5c0 -48.667 11 -78.667 33 -90c9.33301 -5.33301 32 -13 68 -23l167 -52c46.667 -12.667 77.334 -23 92.001 -31c36 -20 54 -63.333 54 -130c0 -32.667 -4.66699 -59 -14 -79
c-11.333 -23.333 -30.666 -41.333 -57.999 -54c31.333 -14 52 -34 62 -60c7.33301 -18.667 11 -48.667 11 -90c0 -76.667 -17.333 -128 -52 -154s-102.667 -39 -204 -39c-99.333 0 -165 10.333 -197 31c-42 27.333 -63 86.333 -63 177h76v-32c0 -45.333 11.833 -74 35.5 -86
s73.167 -18 148.5 -18c68 0 115 7.5 141 22.5s39 43.167 39 84.5c0 42.667 -6.33301 71 -19 85c-10 11.333 -37.333 22.666 -82 33.999z" />
    <glyph glyph-name="dieresis" unicode="&#xa8;" horiz-adv-x="595" 
d="M151 420h382v-74h-382v-272h398v-74h-480v749h482v-75h-400v-254zM264 799h-80v86h80v-86zM335 799v86h80v-86h-80z" />
    <glyph glyph-name="dieresis" unicode="&#x401;" horiz-adv-x="595" 
d="M151 420h382v-74h-382v-272h398v-74h-480v749h482v-75h-400v-254zM264 799h-80v86h80v-86zM335 799v86h80v-86h-80z" />
    <glyph glyph-name="copyright" unicode="&#xa9;" horiz-adv-x="879" 
d="M647 332c-5.33301 -56 -26.833 -101 -64.5 -135s-84.5 -51 -140.5 -51c-64 0 -115.667 21.667 -155 65s-59 97.333 -59 162c0 66 19.5 121.167 58.5 165.5s91.167 66.5 156.5 66.5c49.333 0 93.333 -13.833 132 -41.5s60.667 -65.167 66 -112.5h-47
c-7.33301 34 -25.5 60 -54.5 78s-61.5 27 -97.5 27c-48.667 0 -87.667 -18.667 -117 -56c-26.667 -34 -40 -76.333 -40 -127c0 -50 13.833 -92 41.5 -126s66.167 -51 115.5 -51c43.333 0 79.333 12 108 36s45.667 57.333 51 100h46zM440 761
c105.333 0 196 -38.002 272 -114.002s114 -167 114 -273s-37.667 -197 -113 -273s-166.333 -114 -273 -114s-197.834 37.833 -273.501 113.5s-113.5 166.834 -113.5 273.501s37.833 197.834 113.5 273.501s166.834 113.5 273.501 113.5zM440 716.998
c-94 0 -174.165 -33.5 -240.498 -100.5s-99.5 -147.833 -99.5 -242.5c0 -94 33.167 -174.833 99.5 -242.5s146.5 -101.5 240.5 -101.5c93.333 0 173.166 33.833 239.499 101.5s99.5 148.5 99.5 242.5c0 94.667 -32.833 175.5 -98.5 242.5s-145.834 100.5 -240.501 100.5z
" />
    <glyph glyph-name="ordfeminine" unicode="&#xaa;" horiz-adv-x="681" 
d="M547 528l81 0.000976562c0 90 -20.333 150.667 -61 182s-116 47 -226 47c-119.333 0 -198.333 -24 -237 -72c-40.667 -50.667 -61 -155 -61 -313c0 -157.333 19 -260 57 -308s118.333 -72 241 -72c122 0 203 17.333 243 52c36.667 31.333 55 93.333 55 186h-83
c0 -68.667 -12.833 -113.334 -38.5 -134.001s-84.5 -31 -176.5 -31s-150.5 16.5 -175.5 49.5s-37.5 110.5 -37.5 232.5h382v73h-382c0 108.667 14.5 179.834 43.5 213.501s86.5 50.5 172.5 50.5c81.333 0 134.333 -10.333 159 -31c22 -18.667 36.667 -60.334 44 -125.001z
" />
    <glyph glyph-name="ordfeminine" unicode="&#x404;" horiz-adv-x="681" 
d="M547 528l81 0.000976562c0 90 -20.333 150.667 -61 182s-116 47 -226 47c-119.333 0 -198.333 -24 -237 -72c-40.667 -50.667 -61 -155 -61 -313c0 -157.333 19 -260 57 -308s118.333 -72 241 -72c122 0 203 17.333 243 52c36.667 31.333 55 93.333 55 186h-83
c0 -68.667 -12.833 -113.334 -38.5 -134.001s-84.5 -31 -176.5 -31s-150.5 16.5 -175.5 49.5s-37.5 110.5 -37.5 232.5h382v73h-382c0 108.667 14.5 179.834 43.5 213.501s86.5 50.5 172.5 50.5c81.333 0 134.333 -10.333 159 -31c22 -18.667 36.667 -60.334 44 -125.001z
" />
    <glyph glyph-name="guillemotleft" unicode="&#xab;" horiz-adv-x="503" 
d="M191 575l58 -35l-118 -251l132 -253l-56 -36l-150 289zM376 575l57 -35l-118 -251l131 -253l-54 -36l-152 289z" />
    <glyph glyph-name="logicalnot" unicode="&#xac;" horiz-adv-x="561" 
d="M439 0v235h-403v76h487v-311h-84z" />
    <glyph glyph-name="minus" unicode="&#xad;" 
d="M138 646h278v-64h-278v64z" />
    <glyph glyph-name="registered" unicode="&#xae;" horiz-adv-x="879" 
d="M327 332v-181.997h-51v455h217c48 0 82.167 -9.83301 102.5 -29.5s30.5 -53.834 30.5 -102.501c0 -38.667 -3 -64.334 -9 -77.001c-10 -22 -33 -36.333 -69 -43c26 -2.66699 44.5 -11.334 55.5 -26.001s16.5 -35.334 16.5 -62.001v-116h-51v105
c0 28.667 -6.83301 48.834 -20.5 60.501s-35.5 17.5 -65.5 17.5h-156zM327 374.003l149.001 1c36.667 0 62.167 5.66699 76.5 17s21.5 34 21.5 68c0 38.667 -3.66699 63.667 -11 75c-10.667 16.667 -33.334 25 -68.001 25h-168v-186zM440.001 761.003
c105.333 0 196 -38.002 272 -114.002s114 -167 114 -273s-37.667 -197 -113 -273s-166.333 -114 -273 -114s-197.834 37.833 -273.501 113.5s-113.5 166.834 -113.5 273.501s37.833 197.834 113.5 273.501s166.834 113.5 273.501 113.5zM440.001 717.001
c-94 0 -174.165 -33.5 -240.498 -100.5s-99.5 -147.833 -99.5 -242.5c0 -94 33.167 -174.833 99.5 -242.5s146.5 -101.5 240.5 -101.5c93.333 0 173.166 33.833 239.499 101.5s99.5 148.5 99.5 242.5c0 94.667 -32.833 175.5 -98.5 242.5s-145.834 100.5 -240.501 100.5z
" />
    <glyph glyph-name="macron" unicode="&#xaf;" horiz-adv-x="243" 
d="M89 799h-80v86h80v-86zM161 799v86h80v-86h-80zM167 749v-748h-84v748h84z" />
    <glyph glyph-name="macron" unicode="&#x407;" horiz-adv-x="243" 
d="M89 799h-80v86h80v-86zM161 799v86h80v-86h-80zM167 749v-748h-84v748h84z" />
    <glyph glyph-name="degree" unicode="&#xb0;" 
d="M440 586c0 -44 -15.8301 -81.501 -47.4971 -112.501s-68.834 -46.5 -111.501 -46.5c-42 0 -79 15.333 -111 46s-48 67.334 -48 110.001c0 45.333 15.167 83.833 45.5 115.5s68.166 47.5 113.499 47.5c43.333 0 80.666 -15.667 111.999 -47s47 -69 47 -113z
M398.003 585.999c0 32 -11.5 59.833 -34.5 83.5s-50.5 35.5 -82.5 35.5s-59.5 -11.833 -82.5 -35.5s-34.5 -51.834 -34.5 -84.501c0 -31.333 11.333 -58.666 34 -81.999s50 -35 82 -35s59.667 11.667 83 35s35 51 35 83z" />
    <glyph glyph-name="plusminus" unicode="&#xb1;" 
d="M26 420h230v217h48v-217h232v-47h-232v-213h-48v213h-230v47zM26 111h510v-48h-510v48z" />
    <glyph glyph-name="twosuperior" unicode="&#xb2;" horiz-adv-x="206" 
d="M147 748v-748h-84v748h84z" />
    <glyph glyph-name="twosuperior" unicode="&#x406;" horiz-adv-x="206" 
d="M147 748v-748h-84v748h84z" />
    <glyph glyph-name="threesuperior" unicode="&#xb3;" horiz-adv-x="215" 
d="M148 749v-86h-80v86h80zM148 524v-524h-80v524h80z" />
    <glyph glyph-name="threesuperior" unicode="&#x456;" horiz-adv-x="215" 
d="M148 749v-86h-80v86h80zM148 524v-524h-80v524h80z" />
    <glyph glyph-name="acute" unicode="&#xb4;" 
d="M336 742l39 -55l-160 -99l-27 41z" />
    <glyph glyph-name="acute" unicode="&#x491;" 
d="M336 742l39 -55l-160 -99l-27 41z" />
    <glyph glyph-name="mu" unicode="&#xb5;" horiz-adv-x="601" 
d="M70 -187l0.000976562 724.001h81v-303c0 -32.667 2.16699 -59.5 6.5 -80.5s14.5 -39.833 30.5 -56.5c29.333 -31.333 65.666 -47 108.999 -47c47.333 0 85.333 21 114 63c25.333 37.333 38 80.666 38 129.999v294h81v-537h-81v105c-13.333 -36 -33.333 -64.833 -60 -86.5
s-58 -32.5 -94 -32.5c-61.333 0 -109.333 27.333 -144 82v-255h-81z" />
    <glyph glyph-name="paragraph" unicode="&#xb6;" horiz-adv-x="689" 
d="M626 -210h-75.001v889h-89v-889h-76v503h-118c-112 0 -185.333 18 -220 54c-27.333 28.667 -41 85 -41 169c0 95.333 14.333 157 43 185c32.667 32 105.334 48 218.001 48h358v-959zM385.999 364l0.000976562 314.999h-169c-55.333 0 -90.833 -9.5 -106.5 -28.5
s-23.5 -61.5 -23.5 -127.5c0 -63.333 11.667 -105.666 35 -126.999s69.666 -32 138.999 -32h125z" />
    <glyph glyph-name="periodcentered" unicode="&#xb7;" horiz-adv-x="687" 
d="M388 324v-101h-89v101h89z" />
    <glyph glyph-name="periodcentered" unicode="&#x2219;" horiz-adv-x="687" 
d="M388 324v-101h-89v101h89z" />
    <glyph glyph-name="cedilla" unicode="&#xb8;" horiz-adv-x="564" 
d="M513 248l-377 0.00195312c0 -79.333 9.5 -131.333 28.5 -156s59.5 -37 121.5 -37s102.167 5.66699 120.5 17s27.5 35.333 27.5 72v17h79c0 -70 -19.333 -117 -58 -141c-30 -18.667 -86.333 -28 -169 -28c-88.667 0 -149 18.667 -181 56s-48 109.333 -48 216
c0 101.333 17.333 171.666 52 210.999s93.334 59 176.001 59c81.333 0 139.666 -18.333 174.999 -55s53 -100.334 53 -191.001v-40zM434 309.002c0 60.667 -10.667 102.834 -32 126.501s-60.333 35.5 -117 35.5s-95.5 -11.833 -116.5 -35.5s-31.5 -65.834 -31.5 -126.501
h297zM250 663.002h-80v86h80v-86zM322 663.002v86h80v-86h-80z" />
    <glyph glyph-name="cedilla" unicode="&#x451;" horiz-adv-x="564" 
d="M513 248l-377 0.00195312c0 -79.333 9.5 -131.333 28.5 -156s59.5 -37 121.5 -37s102.167 5.66699 120.5 17s27.5 35.333 27.5 72v17h79c0 -70 -19.333 -117 -58 -141c-30 -18.667 -86.333 -28 -169 -28c-88.667 0 -149 18.667 -181 56s-48 109.333 -48 216
c0 101.333 17.333 171.666 52 210.999s93.334 59 176.001 59c81.333 0 139.666 -18.333 174.999 -55s53 -100.334 53 -191.001v-40zM434 309.002c0 60.667 -10.667 102.834 -32 126.501s-60.333 35.5 -117 35.5s-95.5 -11.833 -116.5 -35.5s-31.5 -65.834 -31.5 -126.501
h297zM250 663.002h-80v86h80v-86zM322 663.002v86h80v-86h-80z" />
    <glyph glyph-name="onesuperior" unicode="&#xb9;" horiz-adv-x="1203" 
d="M710 749v-749h-137l-421 677v-677h-82v749h137l421 -684v684h82zM768 117h358v-44h-358v44zM800 357c0 62.667 9.50098 104.5 28.501 125.5s58.833 31.5 119.5 31.5c59.333 0 98.666 -11 117.999 -33s29 -64.667 29 -128v-18c0 -58 -7 -96.333 -21 -115
c-18.667 -24.667 -58.667 -37 -120 -37c-56 0 -95.667 10.333 -119 31s-35 59 -35 115v28zM855.001 357l-0.00195312 -31c0 -20 1.16699 -37.667 3.5 -53s7.5 -26.333 15.5 -33c5.33301 -4.66699 12.333 -8 21 -10s17.334 -3 26.001 -3c50.667 0 82.834 5.83301 96.501 17.5
s20.5 39.834 20.5 84.501v41c0 37.333 -3.33301 61.666 -10 72.999c-10 17.333 -31.667 26 -65 26h-25c-18 0 -31.5 -1 -40.5 -3s-16.5 -5 -22.5 -9c-9.33301 -8 -15 -22 -17 -42s-3 -34.333 -3 -43v-15z" />
    <glyph glyph-name="onesuperior" unicode="&#x2116;" horiz-adv-x="1203" 
d="M710 749v-749h-137l-421 677v-677h-82v749h137l421 -684v684h82zM768 117h358v-44h-358v44zM800 357c0 62.667 9.50098 104.5 28.501 125.5s58.833 31.5 119.5 31.5c59.333 0 98.666 -11 117.999 -33s29 -64.667 29 -128v-18c0 -58 -7 -96.333 -21 -115
c-18.667 -24.667 -58.667 -37 -120 -37c-56 0 -95.667 10.333 -119 31s-35 59 -35 115v28zM855.001 357l-0.00195312 -31c0 -20 1.16699 -37.667 3.5 -53s7.5 -26.333 15.5 -33c5.33301 -4.66699 12.333 -8 21 -10s17.334 -3 26.001 -3c50.667 0 82.834 5.83301 96.501 17.5
s20.5 39.834 20.5 84.501v41c0 37.333 -3.33301 61.666 -10 72.999c-10 17.333 -31.667 26 -65 26h-25c-18 0 -31.5 -1 -40.5 -3s-16.5 -5 -22.5 -9c-9.33301 -8 -15 -22 -17 -42s-3 -34.333 -3 -43v-15z" />
    <glyph glyph-name="ordmasculine" unicode="&#xba;" horiz-adv-x="543" 
d="M424 160l77.999 -0.00195312c0 -62 -15.833 -105.667 -47.5 -131s-91.167 -38 -178.5 -38c-88.667 0 -148.5 18.833 -179.5 56.5s-46.5 109.834 -46.5 216.501c0 104.667 16 175.667 48 213s90.667 56 176 56c76 0 129 -8.66699 159 -26c40 -23.333 60 -68 60 -134h-75
c-5.33301 40 -17.166 66.167 -35.499 78.5s-54.5 18.5 -108.5 18.5c-56.667 0 -94.667 -11.667 -114 -35s-29 -65.666 -29 -126.999h258v-64h-258c0 -79.333 8.66699 -130.833 26 -154.5s56.666 -35.5 117.999 -35.5c56.667 0 94.834 7.16699 114.501 21.5
s31.167 42.5 34.5 84.5z" />
    <glyph glyph-name="ordmasculine" unicode="&#x454;" horiz-adv-x="543" 
d="M424 160l77.999 -0.00195312c0 -62 -15.833 -105.667 -47.5 -131s-91.167 -38 -178.5 -38c-88.667 0 -148.5 18.833 -179.5 56.5s-46.5 109.834 -46.5 216.501c0 104.667 16 175.667 48 213s90.667 56 176 56c76 0 129 -8.66699 159 -26c40 -23.333 60 -68 60 -134h-75
c-5.33301 40 -17.166 66.167 -35.499 78.5s-54.5 18.5 -108.5 18.5c-56.667 0 -94.667 -11.667 -114 -35s-29 -65.666 -29 -126.999h258v-64h-258c0 -79.333 8.66699 -130.833 26 -154.5s56.666 -35.5 117.999 -35.5c56.667 0 94.834 7.16699 114.501 21.5
s31.167 42.5 34.5 84.5z" />
    <glyph glyph-name="guillemotright" unicode="&#xbb;" horiz-adv-x="503" 
d="M312 575l134 -286l-151 -289l-55 36l131 253l-118 251zM127 575l136 -286l-153 -289l-53 36l130 253l-118 251z" />
    <glyph glyph-name="onequarter" unicode="&#xbc;" 
d="M26 405h510v-46h-510v46zM281 632c12 0 22.333 -4.33301 31 -13s13 -19 13 -31s-4.5 -22.167 -13.5 -30.5s-19.167 -12.5 -30.5 -12.5c-12 0 -22.333 4 -31 12s-13 18.333 -13 31c0 12 4.33301 22.333 13 31s19 13 31 13zM281 219c12 0 22.333 -4.33301 31 -13
s13 -19 13 -31s-4.33301 -22.333 -13 -31s-19 -13 -31 -13s-22.333 4.33301 -31 13s-13 19 -13 31c0 12.667 4.16699 23.167 12.5 31.5s18.833 12.5 31.5 12.5z" />
    <glyph glyph-name="onequarter" unicode="&#x458;" 
d="M26 405h510v-46h-510v46zM281 632c12 0 22.333 -4.33301 31 -13s13 -19 13 -31s-4.5 -22.167 -13.5 -30.5s-19.167 -12.5 -30.5 -12.5c-12 0 -22.333 4 -31 12s-13 18.333 -13 31c0 12 4.33301 22.333 13 31s19 13 31 13zM281 219c12 0 22.333 -4.33301 31 -13
s13 -19 13 -31s-4.33301 -22.333 -13 -31s-19 -13 -31 -13s-22.333 4.33301 -31 13s-13 19 -13 31c0 12.667 4.16699 23.167 12.5 31.5s18.833 12.5 31.5 12.5z" />
    <glyph glyph-name="onehalf" unicode="&#xbd;" horiz-adv-x="561" 
d="M102 594l177 -178l178 178l34 -34l-178 -178l178 -177l-32 -33l-179 177l-178 -178l-34 34l178 178l-177 177z" />
    <glyph glyph-name="onehalf" unicode="&#x405;" horiz-adv-x="561" 
d="M102 594l177 -178l178 178l34 -34l-178 -178l178 -177l-32 -33l-179 177l-178 -178l-34 34l178 178l-177 177z" />
    <glyph glyph-name="threequarters" unicode="&#xbe;" horiz-adv-x="671" 
d="M156 101v-101h-89v101h89zM380 101v-101h-89v101h89zM604 101v-101h-89v101h89z" />
    <glyph glyph-name="threequarters" unicode="&#x455;" horiz-adv-x="671" 
d="M156 101v-101h-89v101h89zM380 101v-101h-89v101h89zM604 101v-101h-89v101h89z" />
    <glyph glyph-name="questiondown" unicode="&#xbf;" horiz-adv-x="211" 
d="M214 749v-86h-80v86h80zM73 749v-86h-80v86h80zM142 524v-524h-80v524h80z" />
    <glyph glyph-name="questiondown" unicode="&#x457;" horiz-adv-x="211" 
d="M214 749v-86h-80v86h80zM73 749v-86h-80v86h80zM142 524v-524h-80v524h80z" />
    <glyph glyph-name="Agrave" unicode="&#xc0;" horiz-adv-x="720" 
d="M26 0l273 749h121l279 -749h-89l-56 154h-378l-60 -154h-90zM527 227l-166 460l-165 -460h331z" />
    <glyph glyph-name="Agrave" unicode="&#x410;" horiz-adv-x="720" 
d="M26 0l273 749h121l279 -749h-89l-56 154h-378l-60 -154h-90zM527 227l-166 460l-165 -460h331z" />
    <glyph glyph-name="Aacute" unicode="&#xc1;" horiz-adv-x="683" 
d="M156 675v-243h250c81.333 0 138.833 -16.833 172.5 -50.5s50.5 -89.5 50.5 -167.5c0 -76 -17 -130.667 -51 -164s-90.667 -50 -170 -50h-335v749h495v-74h-412zM156 357v-282h246c57.333 0 95.5 10.167 114.5 30.5s28.5 56.5 28.5 108.5c0 56.667 -10.667 94.667 -32 114
s-62.333 29 -123 29h-234z" />
    <glyph glyph-name="Aacute" unicode="&#x411;" horiz-adv-x="683" 
d="M156 675v-243h250c81.333 0 138.833 -16.833 172.5 -50.5s50.5 -89.5 50.5 -167.5c0 -76 -17 -130.667 -51 -164s-90.667 -50 -170 -50h-335v749h495v-74h-412zM156 357v-282h246c57.333 0 95.5 10.167 114.5 30.5s28.5 56.5 28.5 108.5c0 56.667 -10.667 94.667 -32 114
s-62.333 29 -123 29h-234z" />
    <glyph glyph-name="Acircumflex" unicode="&#xc2;" horiz-adv-x="692" 
d="M154 349v-273.999h231c68.667 0 113.667 7 135 21c26.667 18 40 56.333 40 115c0 59.333 -9 97.166 -27 113.499s-55.667 24.5 -113 24.5h-266zM154 675.001v-253.001h238c56 0 94.333 9.33301 115 28s31 54.334 31 107.001c0 45.333 -8 76.333 -24 93s-46.667 25 -92 25
h-268zM453 0l-382.002 0.000976562v749h361c66 0 114.167 -14.167 144.5 -42.5s45.5 -75.833 45.5 -142.5c0 -48.667 -5 -84 -15 -106c-13.333 -29.333 -39.666 -51 -78.999 -65c46.667 -12.667 78.334 -33.334 95.001 -62.001c14 -24 21 -62.667 21 -116
c0 -71.333 -13.667 -124 -41 -158c-30.667 -38 -80.667 -57 -150 -57z" />
    <glyph glyph-name="Acircumflex" unicode="&#x412;" horiz-adv-x="692" 
d="M154 349v-273.999h231c68.667 0 113.667 7 135 21c26.667 18 40 56.333 40 115c0 59.333 -9 97.166 -27 113.499s-55.667 24.5 -113 24.5h-266zM154 675.001v-253.001h238c56 0 94.333 9.33301 115 28s31 54.334 31 107.001c0 45.333 -8 76.333 -24 93s-46.667 25 -92 25
h-268zM453 0l-382.002 0.000976562v749h361c66 0 114.167 -14.167 144.5 -42.5s45.5 -75.833 45.5 -142.5c0 -48.667 -5 -84 -15 -106c-13.333 -29.333 -39.666 -51 -78.999 -65c46.667 -12.667 78.334 -33.334 95.001 -62.001c14 -24 21 -62.667 21 -116
c0 -71.333 -13.667 -124 -41 -158c-30.667 -38 -80.667 -57 -150 -57z" />
    <glyph glyph-name="Atilde" unicode="&#xc3;" horiz-adv-x="545" 
d="M155 0v673h379v76h-463v-749h84z" />
    <glyph glyph-name="Atilde" unicode="&#x413;" horiz-adv-x="545" 
d="M155 0v673h379v76h-463v-749h84z" />
    <glyph glyph-name="Adieresis" unicode="&#xc4;" horiz-adv-x="743" 
d="M78 74c27.333 41.333 46.833 85.167 58.5 131.5s17.5 98.833 17.5 157.5v386h509v-675h54v-246h-76v172h-533v-172h-76v246h46zM580 674.001l-344 -0.000976562v-300c0 -75.333 -4.5 -133.666 -13.5 -174.999s-25.833 -83 -50.5 -125h408v600z" />
    <glyph glyph-name="Adieresis" unicode="&#x414;" horiz-adv-x="743" 
d="M78 74c27.333 41.333 46.833 85.167 58.5 131.5s17.5 98.833 17.5 157.5v386h509v-675h54v-246h-76v172h-533v-172h-76v246h46zM580 674.001l-344 -0.000976562v-300c0 -75.333 -4.5 -133.666 -13.5 -174.999s-25.833 -83 -50.5 -125h408v600z" />
    <glyph glyph-name="Aring" unicode="&#xc5;" horiz-adv-x="595" 
d="M152 420h381v-73h-381v-272h397v-75h-480v749h482v-74h-399v-255z" />
    <glyph glyph-name="Aring" unicode="&#x415;" horiz-adv-x="595" 
d="M152 420h381v-73h-381v-272h397v-75h-480v749h482v-74h-399v-255z" />
    <glyph glyph-name="AE" unicode="&#xc6;" horiz-adv-x="1122" 
d="M609 749v-327h72l254 327h103l-282 -364l336 -385h-120l-291 348h-72v-348h-84v348h-73l-291 -348h-120l336 385l-282 364h104l253 -327h73v327h84z" />
    <glyph glyph-name="AE" unicode="&#x416;" horiz-adv-x="1122" 
d="M609 749v-327h72l254 327h103l-282 -364l336 -385h-120l-291 348h-72v-348h-84v348h-73l-291 -348h-120l336 385l-282 364h104l253 -327h73v327h84z" />
    <glyph glyph-name="Ccedilla" unicode="&#xc7;" horiz-adv-x="683" 
d="M402 346h-174.002v73h169c58.667 0 97.834 8.83301 117.501 26.5s29.5 54.834 29.5 111.501c0 47.333 -14.167 80.166 -42.5 98.499s-78.5 27.5 -150.5 27.5c-78 0 -130.5 -10.167 -157.5 -30.5s-40.5 -60.5 -40.5 -120.5h-81c0 90.667 23 152 69 184
c38.667 26.667 108.667 40 210 40c100 0 171.167 -14.167 213.5 -42.5s63.5 -77.166 63.5 -146.499c0 -58.667 -9.66699 -101.834 -29 -129.501s-51.333 -44.834 -96 -51.501c52.667 -7.33301 89.334 -26 110.001 -56c18.667 -27.333 28 -71 28 -131
c0 -76 -22.167 -129.5 -66.5 -160.5s-118.833 -46.5 -223.5 -46.5c-114 0 -191.167 14.333 -231.5 43s-60.5 83.334 -60.5 164.001v25h80v-24c0 -58 13 -95 39 -111s83.667 -24 173 -24c81.333 0 137 12 167 36c26 20.667 39 57.334 39 110.001
c0 45.333 -11.667 78.666 -35 99.999c-25.333 23.333 -65.333 35 -120 35z" />
    <glyph glyph-name="Ccedilla" unicode="&#x417;" horiz-adv-x="683" 
d="M402 346h-174.002v73h169c58.667 0 97.834 8.83301 117.501 26.5s29.5 54.834 29.5 111.501c0 47.333 -14.167 80.166 -42.5 98.499s-78.5 27.5 -150.5 27.5c-78 0 -130.5 -10.167 -157.5 -30.5s-40.5 -60.5 -40.5 -120.5h-81c0 90.667 23 152 69 184
c38.667 26.667 108.667 40 210 40c100 0 171.167 -14.167 213.5 -42.5s63.5 -77.166 63.5 -146.499c0 -58.667 -9.66699 -101.834 -29 -129.501s-51.333 -44.834 -96 -51.501c52.667 -7.33301 89.334 -26 110.001 -56c18.667 -27.333 28 -71 28 -131
c0 -76 -22.167 -129.5 -66.5 -160.5s-118.833 -46.5 -223.5 -46.5c-114 0 -191.167 14.333 -231.5 43s-60.5 83.334 -60.5 164.001v25h80v-24c0 -58 13 -95 39 -111s83.667 -24 173 -24c81.333 0 137 12 167 36c26 20.667 39 57.334 39 110.001
c0 45.333 -11.667 78.666 -35 99.999c-25.333 23.333 -65.333 35 -120 35z" />
    <glyph glyph-name="Egrave" unicode="&#xc8;" horiz-adv-x="785" 
d="M69 749h83v-692l426 692h133v-749h-83v685l-427 -685h-132v749z" />
    <glyph glyph-name="Egrave" unicode="&#x418;" horiz-adv-x="785" 
d="M69 749h83v-692l426 692h133v-749h-83v685l-427 -685h-132v749z" />
    <glyph glyph-name="Eacute" unicode="&#xc9;" horiz-adv-x="782" 
d="M66 749h83v-691l426 691h133v-749h-83v686l-427 -686h-132v749zM471 882c0 -26 -9.00098 -42.999 -27.001 -50.999c-10.667 -4.66699 -34 -7 -70 -7c-34.667 0 -57.667 2.33301 -69 7c-18 7.33301 -27 24.333 -27 51h-57c0 -44.667 11.333 -74.834 34 -90.501
s62.334 -23.5 119.001 -23.5c60.667 0 101.667 7.5 123 22.5s32 45.5 32 91.5h-58z" />
    <glyph glyph-name="Eacute" unicode="&#x419;" horiz-adv-x="782" 
d="M66 749h83v-691l426 691h133v-749h-83v686l-427 -686h-132v749zM471 882c0 -26 -9.00098 -42.999 -27.001 -50.999c-10.667 -4.66699 -34 -7 -70 -7c-34.667 0 -57.667 2.33301 -69 7c-18 7.33301 -27 24.333 -27 51h-57c0 -44.667 11.333 -74.834 34 -90.501
s62.334 -23.5 119.001 -23.5c60.667 0 101.667 7.5 123 22.5s32 45.5 32 91.5h-58z" />
    <glyph glyph-name="Ecircumflex" unicode="&#xca;" horiz-adv-x="699" 
d="M156 749v-327h75l305 327h112l-344 -362l384 -387h-115l-343 348h-74v-348h-83v749h83z" />
    <glyph glyph-name="Ecircumflex" unicode="&#x41a;" horiz-adv-x="699" 
d="M156 749v-327h75l305 327h112l-344 -362l384 -387h-115l-343 348h-74v-348h-83v749h83z" />
    <glyph glyph-name="Edieresis" unicode="&#xcb;" horiz-adv-x="730" 
d="M656 0l-83 -0.00195312v673h-362v-454c0 -75.333 -10 -129.666 -30 -162.999c-22 -37.333 -59 -56 -111 -56h-53v74h20c34 0 57 7.66699 69 23c14.667 18.667 22 56.334 22 113.001v538h528v-748z" />
    <glyph glyph-name="Edieresis" unicode="&#x41b;" horiz-adv-x="730" 
d="M656 0l-83 -0.00195312v673h-362v-454c0 -75.333 -10 -129.666 -30 -162.999c-22 -37.333 -59 -56 -111 -56h-53v74h20c34 0 57 7.66699 69 23c14.667 18.667 22 56.334 22 113.001v538h528v-748z" />
    <glyph glyph-name="Igrave" unicode="&#xcc;" horiz-adv-x="964" 
d="M217 750l264 -643l266 643h137v-750h-83v689l-283 -689h-72l-285 682v-682h-83v750h139z" />
    <glyph glyph-name="Igrave" unicode="&#x41c;" horiz-adv-x="964" 
d="M217 750l264 -643l266 643h137v-750h-83v689l-283 -689h-72l-285 682v-682h-83v750h139z" />
    <glyph glyph-name="Iacute" unicode="&#xcd;" horiz-adv-x="749" 
d="M155 418h438v330h83v-748h-83v345h-438v-345h-83v748h83v-330z" />
    <glyph glyph-name="Iacute" unicode="&#x41d;" horiz-adv-x="749" 
d="M155 418h438v330h83v-748h-83v345h-438v-345h-83v748h83v-330z" />
    <glyph glyph-name="Icircumflex" unicode="&#xce;" horiz-adv-x="711" 
d="M43 374c0 -157.333 20.5 -260.333 61.5 -309s125.167 -73 252.5 -73c128 0 212.5 24.167 253.5 72.5s61.5 151.5 61.5 309.5s-20.333 261.333 -61 310s-124.667 73 -252 73c-128.667 0 -213.5 -24.167 -254.5 -72.5s-61.5 -151.833 -61.5 -310.5zM127 374
c0 135.333 12.667 220.832 38 256.499s89.666 53.5 192.999 53.5c101.333 0 165 -18 191 -54s39 -121.333 39 -256c0 -133.333 -13 -218.166 -39 -254.499s-89.667 -54.5 -191 -54.5s-165.166 18 -191.499 54s-39.5 121 -39.5 255z" />
    <glyph glyph-name="Icircumflex" unicode="&#x41e;" horiz-adv-x="711" 
d="M43 374c0 -157.333 20.5 -260.333 61.5 -309s125.167 -73 252.5 -73c128 0 212.5 24.167 253.5 72.5s61.5 151.5 61.5 309.5s-20.333 261.333 -61 310s-124.667 73 -252 73c-128.667 0 -213.5 -24.167 -254.5 -72.5s-61.5 -151.833 -61.5 -310.5zM127 374
c0 135.333 12.667 220.832 38 256.499s89.666 53.5 192.999 53.5c101.333 0 165 -18 191 -54s39 -121.333 39 -256c0 -133.333 -13 -218.166 -39 -254.499s-89.667 -54.5 -191 -54.5s-165.166 18 -191.499 54s-39.5 121 -39.5 255z" />
    <glyph glyph-name="Idieresis" unicode="&#xcf;" horiz-adv-x="749" 
d="M72 748h604v-748h-83v673h-438v-673h-83v748z" />
    <glyph glyph-name="Idieresis" unicode="&#x41f;" horiz-adv-x="749" 
d="M72 748h604v-748h-83v673h-438v-673h-83v748z" />
    <glyph glyph-name="Eth" unicode="&#xd0;" horiz-adv-x="667" 
d="M154 293v-293h-83v749h357c67.333 0 117.333 -17.333 150 -52s49 -89 49 -163c0 -90.667 -18.667 -153.5 -56 -188.5s-102.333 -52.5 -195 -52.5h-222zM154 366h199c72.667 0 121 8.33301 145 25c30 20.667 45 63 45 127c0 58.667 -9 99.5 -27 122.5s-51 34.5 -99 34.5
h-263v-309z" />
    <glyph glyph-name="Eth" unicode="&#x420;" horiz-adv-x="667" 
d="M154 293v-293h-83v749h357c67.333 0 117.333 -17.333 150 -52s49 -89 49 -163c0 -90.667 -18.667 -153.5 -56 -188.5s-102.333 -52.5 -195 -52.5h-222zM154 366h199c72.667 0 121 8.33301 145 25c30 20.667 45 63 45 127c0 58.667 -9 99.5 -27 122.5s-51 34.5 -99 34.5
h-263v-309z" />
    <glyph glyph-name="Ntilde" unicode="&#xd1;" horiz-adv-x="663" 
d="M557 250h81.001c0 -98.667 -20.333 -166.334 -61 -203.001s-119.334 -55 -236.001 -55s-194.667 23.333 -234 70c-43.333 51.333 -65 154.666 -65 309.999c0 154.667 21.333 258.334 64 311.001c40 49.333 118.333 74 235 74c114.667 0 192.334 -19.667 233.001 -59
c36 -34.667 54 -97 54 -187l-81 1c-7.33301 70.667 -21 115.667 -41 135c-25.333 24.667 -80.333 37 -165 37c-86 0 -143.333 -20.167 -172 -60.5s-43 -124.166 -43 -251.499s14 -210.333 42 -249s85.667 -58 173 -58s145.166 12.333 173.499 37s42.5 74 42.5 148z" />
    <glyph glyph-name="Ntilde" unicode="&#x421;" horiz-adv-x="663" 
d="M557 250h81.001c0 -98.667 -20.333 -166.334 -61 -203.001s-119.334 -55 -236.001 -55s-194.667 23.333 -234 70c-43.333 51.333 -65 154.666 -65 309.999c0 154.667 21.333 258.334 64 311.001c40 49.333 118.333 74 235 74c114.667 0 192.334 -19.667 233.001 -59
c36 -34.667 54 -97 54 -187l-81 1c-7.33301 70.667 -21 115.667 -41 135c-25.333 24.667 -80.333 37 -165 37c-86 0 -143.333 -20.167 -172 -60.5s-43 -124.166 -43 -251.499s14 -210.333 42 -249s85.667 -58 173 -58s145.166 12.333 173.499 37s42.5 74 42.5 148z" />
    <glyph glyph-name="Ograve" unicode="&#xd2;" horiz-adv-x="601" 
d="M257 0v673h-245v76h572l-1 -76h-242v-673h-84z" />
    <glyph glyph-name="Ograve" unicode="&#x422;" horiz-adv-x="601" 
d="M257 0v673h-245v76h572l-1 -76h-242v-673h-84z" />
    <glyph glyph-name="Oacute" unicode="&#xd3;" horiz-adv-x="660" 
d="M158 73h49c26 0 45 4.66699 57 14s22.667 28 32 56l-276 606h90l231 -519l211 519h86l-262 -632c-31.333 -78 -78 -117 -140 -117h-78v73z" />
    <glyph glyph-name="Oacute" unicode="&#x423;" horiz-adv-x="660" 
d="M158 73h49c26 0 45 4.66699 57 14s22.667 28 32 56l-276 606h90l231 -519l211 519h86l-262 -632c-31.333 -78 -78 -117 -140 -117h-78v73z" />
    <glyph glyph-name="Ocircumflex" unicode="&#xd4;" horiz-adv-x="872" 
d="M477 749h-83.999v-89h-93c-88 0 -151.667 -20.333 -191 -61c-42 -43.333 -63 -114.666 -63 -213.999s20.333 -170 61 -212s105 -63 193 -63h93v-110h84v110h95c87.333 0 150.666 20.333 189.999 61c42 43.333 63 114.666 63 213.999c0 98.667 -20.5 169.167 -61.5 211.5
s-104.833 63.5 -191.5 63.5h-95v89zM477.001 588h87.001c64 0 109.5 -15.833 136.5 -47.5s40.5 -83.5 40.5 -155.5s-13.333 -123.833 -40 -155.5s-72.334 -47.5 -137.001 -47.5h-87v406zM393.002 588l-0.000976562 -406h-87c-66 0 -112 15.667 -138 47s-39 83.333 -39 156
s12.833 124.667 38.5 156s71.834 47 138.501 47h87z" />
    <glyph glyph-name="Ocircumflex" unicode="&#x424;" horiz-adv-x="872" 
d="M477 749h-83.999v-89h-93c-88 0 -151.667 -20.333 -191 -61c-42 -43.333 -63 -114.666 -63 -213.999s20.333 -170 61 -212s105 -63 193 -63h93v-110h84v110h95c87.333 0 150.666 20.333 189.999 61c42 43.333 63 114.666 63 213.999c0 98.667 -20.5 169.167 -61.5 211.5
s-104.833 63.5 -191.5 63.5h-95v89zM477.001 588h87.001c64 0 109.5 -15.833 136.5 -47.5s40.5 -83.5 40.5 -155.5s-13.333 -123.833 -40 -155.5s-72.334 -47.5 -137.001 -47.5h-87v406zM393.002 588l-0.000976562 -406h-87c-66 0 -112 15.667 -138 47s-39 83.333 -39 156
s12.833 124.667 38.5 156s71.834 47 138.501 47h87z" />
    <glyph glyph-name="Otilde" unicode="&#xd5;" horiz-adv-x="686" 
d="M136 749l212 -320l212 320h100l-246 -361l268 -388h-102l-232 344l-232 -344h-102l268 388l-246 361h100z" />
    <glyph glyph-name="Otilde" unicode="&#x425;" horiz-adv-x="686" 
d="M136 749l212 -320l212 320h100l-246 -361l268 -388h-102l-232 344l-232 -344h-102l268 388l-246 361h100z" />
    <glyph glyph-name="Odieresis" unicode="&#xd6;" horiz-adv-x="754" 
d="M155 749v-674h438v674h83v-674h55v-247h-77v172h-582v749h83z" />
    <glyph glyph-name="Odieresis" unicode="&#x426;" horiz-adv-x="754" 
d="M155 749v-674h438v674h83v-674h55v-247h-77v172h-582v749h83z" />
    <glyph glyph-name="multiply" unicode="&#xd7;" horiz-adv-x="715" 
d="M541 0v352c-33.333 -8.66699 -71 -13.667 -113 -15s-79.667 -2 -113 -2c-102 0 -170 16 -204 48s-51 95.667 -51 191v175h83v-190c0 -66 15.333 -108.667 46 -128c23.333 -14.667 72 -22 146 -22h23c41.333 0 76.333 0.833008 105 2.5s54.667 5.5 78 11.5v326h83v-749
h-83z" />
    <glyph glyph-name="multiply" unicode="&#x427;" horiz-adv-x="715" 
d="M541 0v352c-33.333 -8.66699 -71 -13.667 -113 -15s-79.667 -2 -113 -2c-102 0 -170 16 -204 48s-51 95.667 -51 191v175h83v-190c0 -66 15.333 -108.667 46 -128c23.333 -14.667 72 -22 146 -22h23c41.333 0 76.333 0.833008 105 2.5s54.667 5.5 78 11.5v326h83v-749
h-83z" />
    <glyph glyph-name="Oslash" unicode="&#xd8;" horiz-adv-x="1158" 
d="M536 750h83v-676h382v676h83v-750h-1013v750h83v-676h382v676z" />
    <glyph glyph-name="Oslash" unicode="&#x428;" horiz-adv-x="1158" 
d="M536 750h83v-676h382v676h83v-750h-1013v750h83v-676h382v676z" />
    <glyph glyph-name="Ugrave" unicode="&#xd9;" horiz-adv-x="1175" 
d="M537 749h83v-674h381v674h83v-674h53v-247h-74v172h-991v749h83v-674h382v674z" />
    <glyph glyph-name="Ugrave" unicode="&#x429;" horiz-adv-x="1175" 
d="M537 749h83v-674h381v674h83v-674h53v-247h-74v172h-991v749h83v-674h382v674z" />
    <glyph glyph-name="Uacute" unicode="&#xda;" horiz-adv-x="740" 
d="M136 749h83v-317h249c82 0 140 -16.667 174 -50s51 -89.333 51 -168c0 -75.333 -17.5 -129.833 -52.5 -163.5s-91.833 -50.5 -170.5 -50.5h-334v676h-136v73h136zM219 357v-282h247c57.333 0 95.5 10.167 114.5 30.5s28.5 56.5 28.5 108.5c0 56.667 -11 94.667 -33 114
s-63 29 -123 29h-234z" />
    <glyph glyph-name="Uacute" unicode="&#x42a;" horiz-adv-x="740" 
d="M136 749h83v-317h249c82 0 140 -16.667 174 -50s51 -89.333 51 -168c0 -75.333 -17.5 -129.833 -52.5 -163.5s-91.833 -50.5 -170.5 -50.5h-334v676h-136v73h136zM219 357v-282h247c57.333 0 95.5 10.167 114.5 30.5s28.5 56.5 28.5 108.5c0 56.667 -11 94.667 -33 114
s-63 29 -123 29h-234z" />
    <glyph glyph-name="Ucircumflex" unicode="&#xdb;" horiz-adv-x="911" 
d="M75 749h83v-317h250c82 0 139.667 -16.667 173 -50s50 -89.333 50 -168c0 -76 -17 -130.667 -51 -164s-90.667 -50 -170 -50h-335v749zM158 357v-282h247c56.667 0 94.5 10.167 113.5 30.5s28.5 56.5 28.5 108.5c0 56.667 -10.667 94.667 -32 114s-62.333 29 -123 29
h-234zM834 749v-749h-83v749h83z" />
    <glyph glyph-name="Ucircumflex" unicode="&#x42b;" horiz-adv-x="911" 
d="M75 749h83v-317h250c82 0 139.667 -16.667 173 -50s50 -89.333 50 -168c0 -76 -17 -130.667 -51 -164s-90.667 -50 -170 -50h-335v749zM158 357v-282h247c56.667 0 94.5 10.167 113.5 30.5s28.5 56.5 28.5 108.5c0 56.667 -10.667 94.667 -32 114s-62.333 29 -123 29
h-234zM834 749v-749h-83v749h83z" />
    <glyph glyph-name="Udieresis" unicode="&#xdc;" horiz-adv-x="688" 
d="M78 749h83v-317h244c82 0 140.667 -16.667 176 -50s53 -89.333 53 -168c0 -76 -17 -130.667 -51 -164s-90.667 -50 -170 -50h-335v749zM161 357v-282h246c57.333 0 95.5 10.167 114.5 30.5s28.5 56.5 28.5 108.5c0 54.667 -9.66699 91.667 -29 111
c-21.333 21.333 -62 32 -122 32h-238z" />
    <glyph glyph-name="Udieresis" unicode="&#x42c;" horiz-adv-x="688" 
d="M78 749h83v-317h244c82 0 140.667 -16.667 176 -50s53 -89.333 53 -168c0 -76 -17 -130.667 -51 -164s-90.667 -50 -170 -50h-335v749zM161 357v-282h246c57.333 0 95.5 10.167 114.5 30.5s28.5 56.5 28.5 108.5c0 54.667 -9.66699 91.667 -29 111
c-21.333 21.333 -62 32 -122 32h-238z" />
    <glyph glyph-name="Yacute" unicode="&#xdd;" horiz-adv-x="681" 
d="M135 528h-81.002c0 87.333 23.333 148 70 182c42 30.667 114.333 46 217 46c116.667 0 194.667 -24 234 -72c42.667 -52 64 -156 64 -312c0 -154 -21.333 -256.667 -64 -308c-40 -48 -118 -72 -234 -72c-112 0 -189.667 17.333 -233 52s-65 96.667 -65 186h81
c0 -66 15.167 -110 45.5 -132s87.5 -33 171.5 -33c89.333 0 148 21 176 63c24.667 36.667 37 109.667 37 219h-341v73h341c0 104.667 -16.667 175.667 -50 213c-30 33.333 -84.333 50 -163 50c-77.333 0 -129.166 -10 -155.499 -30s-43.166 -61.667 -50.499 -125z" />
    <glyph glyph-name="Yacute" unicode="&#x42d;" horiz-adv-x="681" 
d="M135 528h-81.002c0 87.333 23.333 148 70 182c42 30.667 114.333 46 217 46c116.667 0 194.667 -24 234 -72c42.667 -52 64 -156 64 -312c0 -154 -21.333 -256.667 -64 -308c-40 -48 -118 -72 -234 -72c-112 0 -189.667 17.333 -233 52s-65 96.667 -65 186h81
c0 -66 15.167 -110 45.5 -132s87.5 -33 171.5 -33c89.333 0 148 21 176 63c24.667 36.667 37 109.667 37 219h-341v73h341c0 104.667 -16.667 175.667 -50 213c-30 33.333 -84.333 50 -163 50c-77.333 0 -129.166 -10 -155.499 -30s-43.166 -61.667 -50.499 -125z" />
    <glyph glyph-name="Thorn" unicode="&#xde;" horiz-adv-x="949" 
d="M149 420l159.001 -0.00195312c0 138.667 22.667 231 68 277c39.333 40 114.666 60 225.999 60c112 0 186.667 -21 224 -63c45.333 -51.333 68 -157.666 68 -318.999c0 -160 -22.667 -266 -68 -318c-38 -43.333 -112.667 -65 -224 -65s-186.333 20.667 -225 62
c-46 48.667 -69 146.334 -69 293.001h-159v-347h-83v749h83v-329zM602.001 61.998c78.667 0 131.333 17 158 51c33.333 42.667 50 130 50 262c0 131.333 -16.667 218 -50 260c-26.667 34 -79.334 51 -158.001 51c-85.333 0 -140.666 -16.667 -165.999 -50
c-29.333 -39.333 -44 -126.333 -44 -261c0 -135.333 14.333 -222.333 43 -261c25.333 -34.667 81 -52 167 -52z" />
    <glyph glyph-name="Thorn" unicode="&#x42e;" horiz-adv-x="949" 
d="M149 420l159.001 -0.00195312c0 138.667 22.667 231 68 277c39.333 40 114.666 60 225.999 60c112 0 186.667 -21 224 -63c45.333 -51.333 68 -157.666 68 -318.999c0 -160 -22.667 -266 -68 -318c-38 -43.333 -112.667 -65 -224 -65s-186.333 20.667 -225 62
c-46 48.667 -69 146.334 -69 293.001h-159v-347h-83v749h83v-329zM602.001 61.998c78.667 0 131.333 17 158 51c33.333 42.667 50 130 50 262c0 131.333 -16.667 218 -50 260c-26.667 34 -79.334 51 -158.001 51c-85.333 0 -140.666 -16.667 -165.999 -50
c-29.333 -39.333 -44 -126.333 -44 -261c0 -135.333 14.333 -222.333 43 -261c25.333 -34.667 81 -52 167 -52z" />
    <glyph glyph-name="germandbls" unicode="&#xdf;" horiz-adv-x="699" 
d="M541 299h-232l-167 -299h-101l177 310c-50.667 9.33301 -90.334 31.666 -119.001 66.999c-31.333 38.667 -47 89.667 -47 153c0 76.667 19.833 132.334 59.5 167.001s99.834 52 180.501 52h332v-749h-83v299zM541 371v302.999h-266c-51.333 0 -87.333 -13.167 -108 -39.5
s-31 -67.166 -31 -122.499c0 -94 59.667 -141 179 -141h226z" />
    <glyph glyph-name="germandbls" unicode="&#x42f;" horiz-adv-x="699" 
d="M541 299h-232l-167 -299h-101l177 310c-50.667 9.33301 -90.334 31.666 -119.001 66.999c-31.333 38.667 -47 89.667 -47 153c0 76.667 19.833 132.334 59.5 167.001s99.834 52 180.501 52h332v-749h-83v299zM541 371v302.999h-266c-51.333 0 -87.333 -13.167 -108 -39.5
s-31 -67.166 -31 -122.499c0 -94 59.667 -141 179 -141h226z" />
    <glyph glyph-name="agrave" unicode="&#xe0;" horiz-adv-x="569" 
d="M424 153c0 45.333 -10.834 73.834 -32.501 85.501s-69.167 17.5 -142.5 17.5c-43.333 0 -73.333 -5.33301 -90 -16c-20.667 -13.333 -31 -38 -31 -74c0 -44 9 -74 27 -90s49.667 -24 95 -24c62.667 0 104.334 4.33301 125.001 13c32.667 13.333 49 42.666 49 87.999z
M422.999 256.001l0.000976562 75.0029c0 63.333 -9 103.166 -27 119.499s-60 24.5 -126 24.5c-48 0 -80.667 -5.16699 -98 -15.5s-26 -31.833 -26 -64.5l1 -15h-81c0 65.333 19.667 108.666 59 129.999c28 15.333 77.667 23 149 23c81.333 0 137.666 -10.333 168.999 -31
c40 -26 60 -77.333 60 -154v-348h-75l3 66c-18 -32.667 -38 -53.5 -60 -62.5s-60.667 -13.5 -116 -13.5c-71.333 0 -122 10 -152 30c-36.667 24.667 -55 70.667 -55 138c0 63.333 18 106.666 54 129.999c29.333 19.333 78 29 146 29c60 0 101.167 -4.33301 123.5 -13
s39.5 -24.667 51.5 -48z" />
    <glyph glyph-name="agrave" unicode="&#x430;" horiz-adv-x="569" 
d="M424 153c0 45.333 -10.834 73.834 -32.501 85.501s-69.167 17.5 -142.5 17.5c-43.333 0 -73.333 -5.33301 -90 -16c-20.667 -13.333 -31 -38 -31 -74c0 -44 9 -74 27 -90s49.667 -24 95 -24c62.667 0 104.334 4.33301 125.001 13c32.667 13.333 49 42.666 49 87.999z
M422.999 256.001l0.000976562 75.0029c0 63.333 -9 103.166 -27 119.499s-60 24.5 -126 24.5c-48 0 -80.667 -5.16699 -98 -15.5s-26 -31.833 -26 -64.5l1 -15h-81c0 65.333 19.667 108.666 59 129.999c28 15.333 77.667 23 149 23c81.333 0 137.666 -10.333 168.999 -31
c40 -26 60 -77.333 60 -154v-348h-75l3 66c-18 -32.667 -38 -53.5 -60 -62.5s-60.667 -13.5 -116 -13.5c-71.333 0 -122 10 -152 30c-36.667 24.667 -55 70.667 -55 138c0 63.333 18 106.666 54 129.999c29.333 19.333 78 29 146 29c60 0 101.167 -4.33301 123.5 -13
s39.5 -24.667 51.5 -48z" />
    <glyph glyph-name="aacute" unicode="&#xe1;" horiz-adv-x="569" 
d="M121 432c14 27.333 33.667 47.833 59 61.5s58.666 20.5 99.999 20.5c91.333 0 153.666 -19.667 186.999 -59c30.667 -36 46 -101 46 -195c0 -96.667 -14 -164 -42 -202c-33.333 -45.333 -96.666 -68 -189.999 -68c-92 0 -154.667 22.667 -188 68
c-28 38 -42 105.333 -42 202v162c0 88 17.833 153.5 53.5 196.5s88.167 64.5 157.5 64.5c64.667 0 103.834 2.16699 117.501 6.5s20.5 16.5 20.5 36.5h67c0 -42 -13 -70 -39 -84s-71.667 -21 -137 -21c-56.667 0 -97.667 -11.667 -123 -35c-31.333 -28.667 -47 -80 -47 -154
zM283 55c61.333 0 102 15.0029 122 45.0029c18 27.333 27 80.666 27 159.999c0 77.333 -9.83301 128.166 -29.5 152.499s-60.5 36.5 -122.5 36.5c-58.667 0 -98 -12.667 -118 -38s-30 -76 -30 -152c0 -78.667 9 -131.334 27 -158.001c20.667 -30.667 62 -46 124 -46z" />
    <glyph glyph-name="aacute" unicode="&#x431;" horiz-adv-x="569" 
d="M121 432c14 27.333 33.667 47.833 59 61.5s58.666 20.5 99.999 20.5c91.333 0 153.666 -19.667 186.999 -59c30.667 -36 46 -101 46 -195c0 -96.667 -14 -164 -42 -202c-33.333 -45.333 -96.666 -68 -189.999 -68c-92 0 -154.667 22.667 -188 68
c-28 38 -42 105.333 -42 202v162c0 88 17.833 153.5 53.5 196.5s88.167 64.5 157.5 64.5c64.667 0 103.834 2.16699 117.501 6.5s20.5 16.5 20.5 36.5h67c0 -42 -13 -70 -39 -84s-71.667 -21 -137 -21c-56.667 0 -97.667 -11.667 -123 -35c-31.333 -28.667 -47 -80 -47 -154
zM283 55c61.333 0 102 15.0029 122 45.0029c18 27.333 27 80.666 27 159.999c0 77.333 -9.83301 128.166 -29.5 152.499s-60.5 36.5 -122.5 36.5c-58.667 0 -98 -12.667 -118 -38s-30 -76 -30 -152c0 -78.667 9 -131.334 27 -158.001c20.667 -30.667 62 -46 124 -46z" />
    <glyph glyph-name="acircumflex" unicode="&#xe2;" horiz-adv-x="561" 
d="M147 243l-0.000976562 -180h185c29.333 0 51.333 6 66 18c18 14.667 27 38.667 27 72c0 34 -8.16699 57.5 -24.5 70.5s-39.166 19.5 -68.499 19.5h-185zM146.999 463v-159h183c32.667 0 55.167 5.83301 67.5 17.5s18.5 32.5 18.5 62.5s-6.66699 50.667 -20 62
s-35.333 17 -66 17h-183zM345.999 1h-279v524h265c52.667 0 91.667 -8.66699 117 -26c31.333 -21.333 47 -57.666 47 -108.999c0 -26.667 -7.33301 -49.334 -22 -68.001c-16.667 -22 -41.334 -35.667 -74.001 -41c38.667 -9.33301 66.334 -26 83.001 -50
c14.667 -20.667 22 -46.667 22 -78c0 -57.333 -15 -98 -45 -122c-24.667 -20 -62.667 -30 -114 -30z" />
    <glyph glyph-name="acircumflex" unicode="&#x432;" horiz-adv-x="561" 
d="M147 243l-0.000976562 -180h185c29.333 0 51.333 6 66 18c18 14.667 27 38.667 27 72c0 34 -8.16699 57.5 -24.5 70.5s-39.166 19.5 -68.499 19.5h-185zM146.999 463v-159h183c32.667 0 55.167 5.83301 67.5 17.5s18.5 32.5 18.5 62.5s-6.66699 50.667 -20 62
s-35.333 17 -66 17h-183zM345.999 1h-279v524h265c52.667 0 91.667 -8.66699 117 -26c31.333 -21.333 47 -57.666 47 -108.999c0 -26.667 -7.33301 -49.334 -22 -68.001c-16.667 -22 -41.334 -35.667 -74.001 -41c38.667 -9.33301 66.334 -26 83.001 -50
c14.667 -20.667 22 -46.667 22 -78c0 -57.333 -15 -98 -45 -122c-24.667 -20 -62.667 -30 -114 -30z" />
    <glyph glyph-name="atilde" unicode="&#xe3;" horiz-adv-x="436" 
d="M67 0v524h353v-64h-273v-460h-80z" />
    <glyph glyph-name="atilde" unicode="&#x433;" horiz-adv-x="436" 
d="M67 0v524h353v-64h-273v-460h-80z" />
    <glyph glyph-name="adieresis" unicode="&#xe4;" horiz-adv-x="559" 
d="M67 64c18.667 31.333 31.667 63.5 39 96.5s11 75.167 11 126.5v237h371v-460h55v-213h-73v149h-378v-149h-73v213h48zM408 64v395.999h-212v-188c0 -45.333 -3.5 -84.666 -10.5 -117.999s-18.5 -63.333 -34.5 -90h257z" />
    <glyph glyph-name="adieresis" unicode="&#x434;" horiz-adv-x="559" 
d="M67 64c18.667 31.333 31.667 63.5 39 96.5s11 75.167 11 126.5v237h371v-460h55v-213h-73v149h-378v-149h-73v213h48zM408 64v395.999h-212v-188c0 -45.333 -3.5 -84.666 -10.5 -117.999s-18.5 -63.333 -34.5 -90h257z" />
    <glyph glyph-name="aring" unicode="&#xe5;" horiz-adv-x="559" 
d="M508 247l-377 0.000976562c0 -79.333 9.5 -131.5 28.5 -156.5s59.5 -37.5 121.5 -37.5s102.167 5.83301 120.5 17.5s27.5 35.834 27.5 72.501v17h79c0 -70 -19.333 -117 -58 -141c-30.667 -19.333 -87 -29 -169 -29c-88 0 -148.167 19 -180.5 57s-48.5 110 -48.5 216
c0 101.333 17.333 171.666 52 210.999s93.334 59 176.001 59c81.333 0 139.666 -18.333 174.999 -55s53 -100.334 53 -191.001v-40zM429 308.001c0 60.667 -10.667 102.834 -32 126.501s-60.333 35.5 -117 35.5s-95.5 -11.833 -116.5 -35.5s-31.5 -65.834 -31.5 -126.501
h297z" />
    <glyph glyph-name="aring" unicode="&#x435;" horiz-adv-x="559" 
d="M508 247l-377 0.000976562c0 -79.333 9.5 -131.5 28.5 -156.5s59.5 -37.5 121.5 -37.5s102.167 5.83301 120.5 17.5s27.5 35.834 27.5 72.501v17h79c0 -70 -19.333 -117 -58 -141c-30.667 -19.333 -87 -29 -169 -29c-88 0 -148.167 19 -180.5 57s-48.5 110 -48.5 216
c0 101.333 17.333 171.666 52 210.999s93.334 59 176.001 59c81.333 0 139.666 -18.333 174.999 -55s53 -100.334 53 -191.001v-40zM429 308.001c0 60.667 -10.667 102.834 -32 126.501s-60.333 35.5 -117 35.5s-95.5 -11.833 -116.5 -35.5s-31.5 -65.834 -31.5 -126.501
h297z" />
    <glyph glyph-name="ae" unicode="&#xe6;" horiz-adv-x="747" 
d="M414 524v-211h30l165 211h87l-193 -242l234 -282h-94l-199 252h-30v-252h-79v252h-31l-199 -252h-94l234 282l-193 242h87l165 -211h31v211h79z" />
    <glyph glyph-name="ae" unicode="&#x436;" horiz-adv-x="747" 
d="M414 524v-211h30l165 211h87l-193 -242l234 -282h-94l-199 252h-30v-252h-79v252h-31l-199 -252h-94l234 282l-193 242h87l165 -211h31v211h79z" />
    <glyph glyph-name="ccedilla" unicode="&#xe7;" horiz-adv-x="543" 
d="M321 239l-117.999 -0.000976562v64h118c26 0 46.167 6.5 60.5 19.5s21.5 35.167 21.5 66.5c0 27.333 -7.33301 47 -22 59c-18.667 15.333 -53 23 -103 23c-52 0 -86 -4 -102 -12c-21.333 -10.667 -32 -33.667 -32 -69v-9h-76v9c0 56 18.333 95 55 117
c30.667 18 80.667 27 150 27c75.333 0 129.666 -11.667 162.999 -35c30.667 -21.333 46 -56 46 -104c0 -28.667 -6.66699 -53.667 -20 -75c-16 -26 -39.667 -41.667 -71 -47c36 -5.33301 62.333 -19.666 79 -42.999c14 -19.333 21 -44.666 21 -75.999
c0 -60 -15.5 -102.333 -46.5 -127s-86.5 -37 -166.5 -37c-89.333 0 -149.333 12 -180 36s-46 68.333 -46 133h76c0 -44.667 8.33301 -73.5 25 -86.5s55.667 -19.5 117 -19.5c60 0 98.667 6.5 116 19.5s26 39.5 26 79.5c0 29.333 -7.16699 51.166 -21.5 65.499
s-37.5 21.5 -69.5 21.5z" />
    <glyph glyph-name="ccedilla" unicode="&#x437;" horiz-adv-x="543" 
d="M321 239l-117.999 -0.000976562v64h118c26 0 46.167 6.5 60.5 19.5s21.5 35.167 21.5 66.5c0 27.333 -7.33301 47 -22 59c-18.667 15.333 -53 23 -103 23c-52 0 -86 -4 -102 -12c-21.333 -10.667 -32 -33.667 -32 -69v-9h-76v9c0 56 18.333 95 55 117
c30.667 18 80.667 27 150 27c75.333 0 129.666 -11.667 162.999 -35c30.667 -21.333 46 -56 46 -104c0 -28.667 -6.66699 -53.667 -20 -75c-16 -26 -39.667 -41.667 -71 -47c36 -5.33301 62.333 -19.666 79 -42.999c14 -19.333 21 -44.666 21 -75.999
c0 -60 -15.5 -102.333 -46.5 -127s-86.5 -37 -166.5 -37c-89.333 0 -149.333 12 -180 36s-46 68.333 -46 133h76c0 -44.667 8.33301 -73.5 25 -86.5s55.667 -19.5 117 -19.5c60 0 98.667 6.5 116 19.5s26 39.5 26 79.5c0 29.333 -7.16699 51.166 -21.5 65.499
s-37.5 21.5 -69.5 21.5z" />
    <glyph glyph-name="egrave" unicode="&#xe8;" horiz-adv-x="578" 
d="M65 0v524h79v-429l269 429h97v-524h-79v426l-267 -426h-20h-79z" />
    <glyph glyph-name="egrave" unicode="&#x438;" horiz-adv-x="578" 
d="M65 0v524h79v-429l269 429h97v-524h-79v426l-267 -426h-20h-79z" />
    <glyph glyph-name="eacute" unicode="&#xe9;" horiz-adv-x="577" 
d="M65 0v524h79v-428l268 428h98v-524h-79v427l-267 -427h-20h-79zM356 665h49c0 -38 -8.5 -63.833 -25.5 -77.5s-47.833 -20.5 -92.5 -20.5s-75.5 6.66699 -92.5 20s-25.5 39.333 -25.5 78h49c0 -20.667 5 -34.167 15 -40.5s28 -9.5 54 -9.5s43.333 2.66699 52 8
c11.333 7.33301 17 21.333 17 42z" />
    <glyph glyph-name="eacute" unicode="&#x439;" horiz-adv-x="577" 
d="M65 0v524h79v-428l268 428h98v-524h-79v427l-267 -427h-20h-79zM356 665h49c0 -38 -8.5 -63.833 -25.5 -77.5s-47.833 -20.5 -92.5 -20.5s-75.5 6.66699 -92.5 20s-25.5 39.333 -25.5 78h49c0 -20.667 5 -34.167 15 -40.5s28 -9.5 54 -9.5s43.333 2.66699 52 8
c11.333 7.33301 17 21.333 17 42z" />
    <glyph glyph-name="ecircumflex" unicode="&#xea;" horiz-adv-x="524" 
d="M163 524v-211h31l189 211h96l-223 -241l264 -283h-104l-222 252h-31v-252h-80v524h80z" />
    <glyph glyph-name="ecircumflex" unicode="&#x43a;" horiz-adv-x="524" 
d="M163 524v-211h31l189 211h96l-223 -241l264 -283h-104l-222 252h-31v-252h-80v524h80z" />
    <glyph glyph-name="edieresis" unicode="&#xeb;" horiz-adv-x="533" 
d="M470 524l-384 -0.000976562v-371c0 -37.333 -4.66699 -61.333 -14 -72s-29 -16 -59 -16h-12v-65h39c46 0 79.333 14.667 100 44c17.333 24.667 26 60.334 26 107.001v310h224v-461h80v524z" />
    <glyph glyph-name="edieresis" unicode="&#x43b;" horiz-adv-x="533" 
d="M470 524l-384 -0.000976562v-371c0 -37.333 -4.66699 -61.333 -14 -72s-29 -16 -59 -16h-12v-65h39c46 0 79.333 14.667 100 44c17.333 24.667 26 60.334 26 107.001v310h224v-461h80v524z" />
    <glyph glyph-name="igrave" unicode="&#xec;" horiz-adv-x="726" 
d="M362 91l174 433h127v-524h-79v455l-187 -455h-70l-186 455v-455h-79v524h126z" />
    <glyph glyph-name="igrave" unicode="&#x43c;" horiz-adv-x="726" 
d="M362 91l174 433h127v-524h-79v455l-187 -455h-70l-186 455v-455h-79v524h126z" />
    <glyph glyph-name="iacute" unicode="&#xed;" horiz-adv-x="569" 
d="M66 524h80v-214h275v214h80v-524h-80v246h-275v-246h-80v524z" />
    <glyph glyph-name="iacute" unicode="&#x43d;" horiz-adv-x="569" 
d="M66 524h80v-214h275v214h80v-524h-80v246h-275v-246h-80v524z" />
    <glyph glyph-name="icircumflex" unicode="&#xee;" horiz-adv-x="563" 
d="M513 262c0 -108 -16.333 -180.333 -49 -217s-93.667 -55 -183 -55c-88 0 -148.333 18.5 -181 55.5s-49 108.833 -49 215.5c0 107.333 16.167 179.5 48.5 216.5s92.833 55.5 181.5 55.5s149.5 -18.333 182.5 -55s49.5 -108.667 49.5 -216zM432 262
c0 86 -9.83301 141.832 -29.5 167.499s-60.167 38.5 -121.5 38.5c-60.667 0 -100.667 -13 -120 -39s-29 -82 -29 -168c0 -85.333 9.83301 -141 29.5 -167s59.5 -39 119.5 -39c60.667 0 101 12.833 121 38.5s30 81.834 30 168.501z" />
    <glyph glyph-name="icircumflex" unicode="&#x43e;" horiz-adv-x="563" 
d="M513 262c0 -108 -16.333 -180.333 -49 -217s-93.667 -55 -183 -55c-88 0 -148.333 18.5 -181 55.5s-49 108.833 -49 215.5c0 107.333 16.167 179.5 48.5 216.5s92.833 55.5 181.5 55.5s149.5 -18.333 182.5 -55s49.5 -108.667 49.5 -216zM432 262
c0 86 -9.83301 141.832 -29.5 167.499s-60.167 38.5 -121.5 38.5c-60.667 0 -100.667 -13 -120 -39s-29 -82 -29 -168c0 -85.333 9.83301 -141 29.5 -167s59.5 -39 119.5 -39c60.667 0 101 12.833 121 38.5s30 81.834 30 168.501z" />
    <glyph glyph-name="idieresis" unicode="&#xef;" horiz-adv-x="567" 
d="M65 524h435v-524h-80v460h-275v-460h-80v524z" />
    <glyph glyph-name="idieresis" unicode="&#x43f;" horiz-adv-x="567" 
d="M65 524h435v-524h-80v460h-275v-460h-80v524z" />
    <glyph glyph-name="eth" unicode="&#xf0;" horiz-adv-x="573" 
d="M148 265c0 -80 7.33398 -133.002 22.001 -159.002c19.333 -34 59.666 -51 120.999 -51c66 0 108.333 17 127 51c14 25.333 21 78.333 21 159c0 78.667 -6 129.334 -18 152.001c-18.667 34.667 -60.667 52 -126 52c-66.667 0 -109 -15.667 -127 -47
c-13.333 -23.333 -20 -75.666 -20 -156.999zM148.001 59.998v-286h-80v750h78l-3 -67c18.667 28.667 41.667 48.667 69 60s60 17 98 17c88 0 146.667 -24 176 -72c22.667 -36.667 34 -102.667 34 -198c0 -92.667 -10.667 -158 -32 -196c-29.333 -52 -86 -78 -170 -78
c-40.667 0 -72.667 4 -96 12c-31.333 10.667 -56 30 -74 58z" />
    <glyph glyph-name="eth" unicode="&#x440;" horiz-adv-x="573" 
d="M148 265c0 -80 7.33398 -133.002 22.001 -159.002c19.333 -34 59.666 -51 120.999 -51c66 0 108.333 17 127 51c14 25.333 21 78.333 21 159c0 78.667 -6 129.334 -18 152.001c-18.667 34.667 -60.667 52 -126 52c-66.667 0 -109 -15.667 -127 -47
c-13.333 -23.333 -20 -75.666 -20 -156.999zM148.001 59.998v-286h-80v750h78l-3 -67c18.667 28.667 41.667 48.667 69 60s60 17 98 17c88 0 146.667 -24 176 -72c22.667 -36.667 34 -102.667 34 -198c0 -92.667 -10.667 -158 -32 -196c-29.333 -52 -86 -78 -170 -78
c-40.667 0 -72.667 4 -96 12c-31.333 10.667 -56 30 -74 58z" />
    <glyph glyph-name="ntilde" unicode="&#xf1;" horiz-adv-x="550" 
d="M426 190h76.998c0 -78.667 -17.667 -132.334 -53 -161.001c-32 -26 -89.667 -39 -173 -39c-87.333 0 -146.666 19 -177.999 57s-47 109.333 -47 214c0 104 15.5 175.333 46.5 214s89.833 58 176.5 58c72.667 0 125.667 -10.667 159 -32c40 -25.333 60 -69 60 -131v-17
h-76c0 44 -8.33301 73.667 -25 89c-19.333 17.333 -58.666 26 -117.999 26c-58.667 0 -97 -12.667 -115 -38s-27 -81 -27 -167c0 -84.667 9.5 -140.5 28.5 -167.5s57.5 -40.5 115.5 -40.5c61.333 0 101.5 8.83301 120.5 26.5s28.5 53.834 28.5 108.501z" />
    <glyph glyph-name="ntilde" unicode="&#x441;" horiz-adv-x="550" 
d="M426 190h76.998c0 -78.667 -17.667 -132.334 -53 -161.001c-32 -26 -89.667 -39 -173 -39c-87.333 0 -146.666 19 -177.999 57s-47 109.333 -47 214c0 104 15.5 175.333 46.5 214s89.833 58 176.5 58c72.667 0 125.667 -10.667 159 -32c40 -25.333 60 -69 60 -131v-17
h-76c0 44 -8.33301 73.667 -25 89c-19.333 17.333 -58.666 26 -117.999 26c-58.667 0 -97 -12.667 -115 -38s-27 -81 -27 -167c0 -84.667 9.5 -140.5 28.5 -167.5s57.5 -40.5 115.5 -40.5c61.333 0 101.5 8.83301 120.5 26.5s28.5 53.834 28.5 108.501z" />
    <glyph glyph-name="ograve" unicode="&#xf2;" horiz-adv-x="458" 
d="M188 0h80v460h181v64h-442v-64h181v-460z" />
    <glyph glyph-name="ograve" unicode="&#x442;" horiz-adv-x="458" 
d="M188 0h80v460h181v64h-442v-64h181v-460z" />
    <glyph glyph-name="oacute" unicode="&#xf3;" horiz-adv-x="469" 
d="M373 524l81 0.000976562l-161 -594c-17.333 -64 -37.833 -107.833 -61.5 -131.5s-56.167 -35.5 -97.5 -35.5c-16.667 0 -31.667 2 -45 6v64c10 -2.66699 20 -4 30 -4c30 0 51.5 9.66699 64.5 29s29.833 66.666 50.5 141.999h-34l-191 524h80l164 -466z" />
    <glyph glyph-name="oacute" unicode="&#x443;" horiz-adv-x="469" 
d="M373 524l81 0.000976562l-161 -594c-17.333 -64 -37.833 -107.833 -61.5 -131.5s-56.167 -35.5 -97.5 -35.5c-16.667 0 -31.667 2 -45 6v64c10 -2.66699 20 -4 30 -4c30 0 51.5 9.66699 64.5 29s29.833 66.666 50.5 141.999h-34l-191 524h80l164 -466z" />
    <glyph glyph-name="ocircumflex" unicode="&#xf4;" horiz-adv-x="825" 
d="M371 -226l-0.000976562 308.002c-12 -28.667 -31.667 -51.334 -59 -68.001s-58 -25 -92 -25c-73.333 0 -121.666 26 -144.999 78c-16 35.333 -24 101.333 -24 198c0 97.333 8.66699 163 26 197c24 47.333 74 71 150 71c32.667 0 60.834 -6.33301 84.501 -19
s43.5 -33.334 59.5 -62.001v298h80v-298c16.667 28 37.167 48.5 61.5 61.5s53.166 19.5 86.499 19.5c72.667 0 121 -23.667 145 -71c18 -35.333 27 -101 27 -197s-8.33301 -162 -25 -198c-24 -52 -73 -78 -147 -78c-32.667 0 -62.5 8.5 -89.5 25.5s-46.5 40.167 -58.5 69.5
v-310h-80zM131.999 282.002c0 -84 7.33301 -141.668 22 -173.001c17.333 -36.667 50 -55 98 -55c46.667 0 78.667 18 96 54c15.333 32.667 23 90 23 172c0 66.667 -8.66699 114.667 -26 144s-48.333 44 -93 44c-46.667 0 -79 -15.667 -97 -47
c-15.333 -27.333 -23 -73.666 -23 -138.999zM689.999 282.001c0 66 -7.66699 112.332 -23 138.999c-18 31.333 -50.667 47 -98 47c-44.667 0 -75.5 -14.667 -92.5 -44s-25.5 -77.333 -25.5 -144c0 -82.667 7.33301 -139.667 22 -171c17.333 -36.667 49.333 -55 96 -55
c47.333 0 79.333 17.333 96 52s25 93.334 25 176.001z" />
    <glyph glyph-name="ocircumflex" unicode="&#x444;" horiz-adv-x="825" 
d="M371 -226l-0.000976562 308.002c-12 -28.667 -31.667 -51.334 -59 -68.001s-58 -25 -92 -25c-73.333 0 -121.666 26 -144.999 78c-16 35.333 -24 101.333 -24 198c0 97.333 8.66699 163 26 197c24 47.333 74 71 150 71c32.667 0 60.834 -6.33301 84.501 -19
s43.5 -33.334 59.5 -62.001v298h80v-298c16.667 28 37.167 48.5 61.5 61.5s53.166 19.5 86.499 19.5c72.667 0 121 -23.667 145 -71c18 -35.333 27 -101 27 -197s-8.33301 -162 -25 -198c-24 -52 -73 -78 -147 -78c-32.667 0 -62.5 8.5 -89.5 25.5s-46.5 40.167 -58.5 69.5
v-310h-80zM131.999 282.002c0 -84 7.33301 -141.668 22 -173.001c17.333 -36.667 50 -55 98 -55c46.667 0 78.667 18 96 54c15.333 32.667 23 90 23 172c0 66.667 -8.66699 114.667 -26 144s-48.333 44 -93 44c-46.667 0 -79 -15.667 -97 -47
c-15.333 -27.333 -23 -73.666 -23 -138.999zM689.999 282.001c0 66 -7.66699 112.332 -23 138.999c-18 31.333 -50.667 47 -98 47c-44.667 0 -75.5 -14.667 -92.5 -44s-25.5 -77.333 -25.5 -144c0 -82.667 7.33301 -139.667 22 -171c17.333 -36.667 49.333 -55 96 -55
c47.333 0 79.333 17.333 96 52s25 93.334 25 176.001z" />
    <glyph glyph-name="otilde" unicode="&#xf5;" horiz-adv-x="476" 
d="M442 524h-92l-119 -192l-119 192h-92l167 -250l-187 -274h96l135 212l135 -212h96l-187 274z" />
    <glyph glyph-name="otilde" unicode="&#x445;" horiz-adv-x="476" 
d="M442 524h-92l-119 -192l-119 192h-92l167 -250l-187 -274h96l135 212l135 -212h96l-187 274z" />
    <glyph glyph-name="odieresis" unicode="&#xf6;" horiz-adv-x="583" 
d="M147 525v-461h274v461h80v-461h55v-213h-73v149h-416v525h80z" />
    <glyph glyph-name="odieresis" unicode="&#x446;" horiz-adv-x="583" 
d="M147 525v-461h274v461h80v-461h55v-213h-73v149h-416v525h80z" />
    <glyph glyph-name="divide" unicode="&#xf7;" horiz-adv-x="548" 
d="M476 525v-525h-80v271h-4c-12 -17.333 -27.833 -29 -47.5 -35s-55.167 -9 -106.5 -9c-58 0 -100.333 10.667 -127 32c-28.667 23.333 -43 61.666 -43 114.999v151h80v-133c0 -41.333 7.33301 -68.333 22 -81s45 -19 91 -19c34 0 61 1.83301 81 5.5s38 9.83398 54 18.501
v209h80z" />
    <glyph glyph-name="divide" unicode="&#x447;" horiz-adv-x="548" 
d="M476 525v-525h-80v271h-4c-12 -17.333 -27.833 -29 -47.5 -35s-55.167 -9 -106.5 -9c-58 0 -100.333 10.667 -127 32c-28.667 23.333 -43 61.666 -43 114.999v151h80v-133c0 -41.333 7.33301 -68.333 22 -81s45 -19 91 -19c34 0 61 1.83301 81 5.5s38 9.83398 54 18.501
v209h80z" />
    <glyph glyph-name="oslash" unicode="&#xf8;" horiz-adv-x="871" 
d="M802 0h-734v524h80v-460h247v460h80v-460h247v460h80v-524z" />
    <glyph glyph-name="oslash" unicode="&#x448;" horiz-adv-x="871" 
d="M802 0h-734v524h80v-460h247v460h80v-460h247v460h80v-524z" />
    <glyph glyph-name="ugrave" unicode="&#xf9;" horiz-adv-x="871" 
d="M784 0h-716v524h80v-460h247v460h80v-460h247v460h80v-460h56v-213h-74v149z" />
    <glyph glyph-name="ugrave" unicode="&#x449;" horiz-adv-x="871" 
d="M784 0h-716v524h80v-460h247v460h80v-460h247v460h80v-460h56v-213h-74v149z" />
    <glyph glyph-name="uacute" unicode="&#xfa;" horiz-adv-x="585" 
d="M109 0h271c46 0 82 11.667 108 35c30.667 27.333 46 68 46 122c0 56 -14.667 97 -44 123c-26 22.667 -62.667 34 -110 34h-192v210h-183v-64h104v-460zM188 64v185h163c38 0 64.5 -6.5 79.5 -19.5s22.5 -37.5 22.5 -73.5c0 -34.667 -7.33301 -58.667 -22 -72
s-40.667 -20 -78 -20h-165z" />
    <glyph glyph-name="uacute" unicode="&#x44a;" horiz-adv-x="585" 
d="M109 0h271c46 0 82 11.667 108 35c30.667 27.333 46 68 46 122c0 56 -14.667 97 -44 123c-26 22.667 -62.667 34 -110 34h-192v210h-183v-64h104v-460zM188 64v185h163c38 0 64.5 -6.5 79.5 -19.5s22.5 -37.5 22.5 -73.5c0 -34.667 -7.33301 -58.667 -22 -72
s-40.667 -20 -78 -20h-165z" />
    <glyph glyph-name="ucircumflex" unicode="&#xfb;" horiz-adv-x="721" 
d="M65 -1l271.999 -0.000976562c46 0 82 11.667 108 35c30 26.667 45 67.334 45 122.001c0 56 -14.667 97 -44 123c-25.333 22.667 -61.666 34 -108.999 34h-193v211h-79v-525zM143.999 63.999v185h163c38 0 64.5 -6.5 79.5 -19.5s22.5 -37.5 22.5 -73.5
c0 -34.667 -7.33301 -58.667 -22 -72s-40.667 -20 -78 -20h-165zM588.999 -1.00098h80v525h-80v-525z" />
    <glyph glyph-name="ucircumflex" unicode="&#x44b;" horiz-adv-x="721" 
d="M65 -1l271.999 -0.000976562c46 0 82 11.667 108 35c30 26.667 45 67.334 45 122.001c0 56 -14.667 97 -44 123c-25.333 22.667 -61.666 34 -108.999 34h-193v211h-79v-525zM143.999 63.999v185h163c38 0 64.5 -6.5 79.5 -19.5s22.5 -37.5 22.5 -73.5
c0 -34.667 -7.33301 -58.667 -22 -72s-40.667 -20 -78 -20h-165zM588.999 -1.00098h80v525h-80v-525z" />
    <glyph glyph-name="udieresis" unicode="&#xfc;" horiz-adv-x="543" 
d="M68 0h271.999c46 0 82 11.667 108 35c30 26.667 45 67 45 121c0 56 -14.667 97 -44 123c-25.333 22.667 -61.666 34 -108.999 34h-192v211h-80v-524zM147.999 64l0.000976562 185h162c38 0 64.5 -6.5 79.5 -19.5s22.5 -37.5 22.5 -73.5
c0 -34.667 -7.33301 -58.667 -22 -72s-40.334 -20 -77.001 -20h-165z" />
    <glyph glyph-name="udieresis" unicode="&#x44c;" horiz-adv-x="543" 
d="M68 0h271.999c46 0 82 11.667 108 35c30 26.667 45 67 45 121c0 56 -14.667 97 -44 123c-25.333 22.667 -61.666 34 -108.999 34h-192v211h-80v-524zM147.999 64l0.000976562 185h162c38 0 64.5 -6.5 79.5 -19.5s22.5 -37.5 22.5 -73.5
c0 -34.667 -7.33301 -58.667 -22 -72s-40.334 -20 -77.001 -20h-165z" />
    <glyph glyph-name="yacute" unicode="&#xfd;" horiz-adv-x="560" 
d="M140 380l-75.001 -0.000976562c7.33301 60 29 101.333 65 124c31.333 19.333 82.666 29 153.999 29c85.333 0 144 -18.667 176 -56s48 -108.333 48 -213c0 -107.333 -15 -180 -45 -218s-89.667 -57 -179 -57c-85.333 0 -145.666 15 -180.999 45
c-31.333 26.667 -47 68.667 -47 126h78c3.33301 -42 14.833 -70.5 34.5 -85.5s58.167 -22.5 115.5 -22.5c60 0 98.833 12.833 116.5 38.5s26.5 77.834 26.5 156.501h-225v64h225c0 61.333 -9 102.666 -27 123.999c-20 23.333 -58.667 35 -116 35
c-54 0 -90.167 -5.66699 -108.5 -17s-30.166 -35.666 -35.499 -72.999z" />
    <glyph glyph-name="yacute" unicode="&#x44d;" horiz-adv-x="560" 
d="M140 380l-75.001 -0.000976562c7.33301 60 29 101.333 65 124c31.333 19.333 82.666 29 153.999 29c85.333 0 144 -18.667 176 -56s48 -108.333 48 -213c0 -107.333 -15 -180 -45 -218s-89.667 -57 -179 -57c-85.333 0 -145.666 15 -180.999 45
c-31.333 26.667 -47 68.667 -47 126h78c3.33301 -42 14.833 -70.5 34.5 -85.5s58.167 -22.5 115.5 -22.5c60 0 98.833 12.833 116.5 38.5s26.5 77.834 26.5 156.501h-225v64h225c0 61.333 -9 102.666 -27 123.999c-20 23.333 -58.667 35 -116 35
c-54 0 -90.167 -5.66699 -108.5 -17s-30.166 -35.666 -35.499 -72.999z" />
    <glyph glyph-name="thorn" unicode="&#xfe;" horiz-adv-x="786" 
d="M148 311h123.999c0 86 16.5 144.5 49.5 175.5s93.167 46.5 180.5 46.5c88.667 0 148.667 -16.667 180 -50c35.333 -38 53 -111.667 53 -221c0 -110 -17.333 -183.667 -52 -221c-31.333 -34 -91.666 -51 -180.999 -51c-88 0 -147.667 16.333 -179 49
c-34 36 -51 105.333 -51 208h-124v-247h-80v524h80v-213zM653.999 262c0 84.667 -9.66699 140.168 -29 166.501s-60.333 39.5 -123 39.5c-62 0 -102.333 -12.833 -121 -38.5s-28 -81.834 -28 -168.501c0 -87.333 9.16699 -143.5 27.5 -168.5s58.833 -37.5 121.5 -37.5
c63.333 0 104.5 12.5 123.5 37.5s28.5 81.5 28.5 169.5z" />
    <glyph glyph-name="thorn" unicode="&#x44e;" horiz-adv-x="786" 
d="M148 311h123.999c0 86 16.5 144.5 49.5 175.5s93.167 46.5 180.5 46.5c88.667 0 148.667 -16.667 180 -50c35.333 -38 53 -111.667 53 -221c0 -110 -17.333 -183.667 -52 -221c-31.333 -34 -91.666 -51 -180.999 -51c-88 0 -147.667 16.333 -179 49
c-34 36 -51 105.333 -51 208h-124v-247h-80v524h80v-213zM653.999 262c0 84.667 -9.66699 140.168 -29 166.501s-60.333 39.5 -123 39.5c-62 0 -102.333 -12.833 -121 -38.5s-28 -81.834 -28 -168.501c0 -87.333 9.16699 -143.5 27.5 -168.5s58.833 -37.5 121.5 -37.5
c63.333 0 104.5 12.5 123.5 37.5s28.5 81.5 28.5 169.5z" />
    <glyph glyph-name="ydieresis" unicode="&#xff;" horiz-adv-x="536" 
d="M470 524l-272 0.000976562c-46 0 -82.333 -11.333 -109 -34c-30.667 -26.667 -46 -67.334 -46 -122.001c0 -40 11.333 -74 34 -102c20.667 -26 45.667 -41 75 -45l-114 -221h90l104 211h158v-211h80v524zM390 460.001l0.000976562 -185.001h-164
c-38.667 0 -65.334 6.33301 -80.001 19s-22 37.334 -22 74.001c0 33.333 7.66699 57 23 71s41 21 77 21h166z" />
    <glyph glyph-name="ydieresis" unicode="&#x44f;" horiz-adv-x="536" 
d="M470 524l-272 0.000976562c-46 0 -82.333 -11.333 -109 -34c-30.667 -26.667 -46 -67.334 -46 -122.001c0 -40 11.333 -74 34 -102c20.667 -26 45.667 -41 75 -45l-114 -221h90l104 211h158v-211h80v524zM390 460.001l0.000976562 -185.001h-164
c-38.667 0 -65.334 6.33301 -80.001 19s-22 37.334 -22 74.001c0 33.333 7.66699 57 23 71s41 21 77 21h166z" />
    <glyph glyph-name="endash" unicode="&#x2013;" horiz-adv-x="687" 
d="M44 310h599v-73h-599v73z" />
    <glyph glyph-name="emdash" unicode="&#x2014;" horiz-adv-x="783" 
d="M0 310h783v-73h-783v73z" />
    <glyph glyph-name="quoteleft" unicode="&#x2018;" horiz-adv-x="202" 
d="M48 537v110c0 35.333 4.33301 60 13 74c12 19.333 33.333 29 64 29l22 -1v-43c-32.667 0 -49 -17.667 -49 -53l1 -14h37v-102h-88z" />
    <glyph glyph-name="quoteright" unicode="&#x2019;" horiz-adv-x="196" 
d="M147 749v-110c0 -35.333 -4.33301 -60 -13 -74c-12 -19.333 -33.333 -29 -64 -29l-22 1v43c32.667 0 49 17.667 49 53l-1 14h-37v102h88z" />
    <glyph glyph-name="quotesinglbase" unicode="&#x201a;" horiz-adv-x="200" 
d="M153 103v-110c0 -35.333 -4.33301 -60 -13 -74c-12 -19.333 -33.333 -29 -64 -29l-22 1v42c32.667 0 49 17.667 49 53l-1 14h-37v103h88z" />
    <glyph glyph-name="quotedblleft" unicode="&#x201c;" horiz-adv-x="350" 
d="M205 537v110c0 34 4.66699 58.667 14 74c12 19.333 33.333 29 64 29l22 -1v-43c-18.667 0 -31.5 -3.83301 -38.5 -11.5s-10.5 -21.5 -10.5 -41.5l1 -14h37v-102h-89zM47 537v110c0 35.333 4.33301 60 13 74c12 19.333 33.667 29 65 29l22 -1v-43
c-18.667 0 -31.667 -4 -39 -12s-11 -21.667 -11 -41l1 -14h37v-102h-88z" />
    <glyph glyph-name="quotedblright" unicode="&#x201d;" horiz-adv-x="350" 
d="M148 749v-110c0 -34 -4.66699 -58.667 -14 -74c-12 -19.333 -33.333 -29 -64 -29l-22 1v43c18.667 0 31.5 3.83301 38.5 11.5s10.5 21.5 10.5 41.5l-1 14h-37v102h89zM306 749v-110c0 -35.333 -4.33301 -60 -13 -74c-12 -19.333 -33.667 -29 -65 -29l-22 1v43
c18.667 0 31.667 4 39 12s11 21.667 11 41l-1 14h-37v102h88z" />
    <glyph glyph-name="quotedblbase" unicode="&#x201e;" horiz-adv-x="358" 
d="M154 103v-110c0 -35.333 -4.33301 -60 -13 -74c-12 -19.333 -33.667 -29 -65 -29l-22 1v42c18.667 0 31.5 3.83301 38.5 11.5s10.5 21.5 10.5 41.5l-1 14h-37v103h89zM311 103v-110c0 -35.333 -4.33301 -60 -13 -74c-12 -19.333 -33.667 -29 -65 -29l-22 1v42
c18.667 0 31.667 4 39 12s11 21.667 11 41l-1 14h-37v103h88z" />
    <glyph glyph-name="bullet" unicode="&#x2022;" horiz-adv-x="674" 
d="M223 321c0 30 10.5 55.501 31.5 76.501s46.5 31.5 76.5 31.5c30.667 0 56.667 -10.333 78 -31s32 -46.334 32 -77.001c0 -30 -10.833 -55.5 -32.5 -76.5s-47.5 -31.5 -77.5 -31.5s-55.5 10.5 -76.5 31.5s-31.5 46.5 -31.5 76.5z" />
    <glyph glyph-name="ellipsis" unicode="&#x2026;" horiz-adv-x="671" 
d="M157 101v-101h-90v101h90zM380 101v-101h-89v101h89zM604 101v-101h-89v101h89z" />
    <glyph glyph-name="guilsinglleft" unicode="&#x2039;" horiz-adv-x="320" 
d="M192 575l57 -35l-118 -251l131 -253l-55 -36l-150 289z" />
    <glyph glyph-name="guilsinglright" unicode="&#x203a;" horiz-adv-x="308" 
d="M128 575l134 -286l-151 -289l-54 36l130 253l-118 251z" />
    <glyph glyph-name="trademark" unicode="&#x2122;" horiz-adv-x="826" 
d="M142 352v355h-129v41h301v-41h-128v-355h-44zM427 748l140 -339l141 339h72v-396h-44v364l-150 -364h-38l-150 361v-361h-44v396h73z" />
    <glyph glyph-name=".null" horiz-adv-x="0" 
 />
    <glyph glyph-name="nonmarkingreturn" horiz-adv-x="238" 
 />
  </font>
</defs>
</svg>
