<?xml version="1.0" encoding="iso-8859-1"?>
<!-- Generator: Adobe Illustrator 21.0.2, SVG Export Plug-In . SVG Version: 6.00 Build 0)  -->
<svg version="1.1" id="Objects" xmlns="http://www.w3.org/2000/svg" xmlns:xlink="http://www.w3.org/1999/xlink" x="0px" y="0px"
	 viewBox="0 0 6.769 7.896" style="enable-background:new 0 0 6.769 7.896;" xml:space="preserve">
<path id="XMLID_4_" style="fill:#FFFFFF;" d="M6.766,5.934L6.514,4.602C6.504,4.547,6.467,4.5,6.416,4.477
	c-0.051-0.023-0.111-0.019-0.159,0.01l-1.161,0.7C5.029,5.228,4.998,5.31,5.022,5.385C5.045,5.461,5.118,5.51,5.197,5.505
	L5.65,5.473c-0.433,0.582-1.084,0.82-1.832,0.882v-3.81h0.373c0.06,0.045,0.134,0.072,0.215,0.072c0.2,0,0.362-0.162,0.362-0.362
	c0-0.2-0.162-0.362-0.362-0.362c-0.081,0-0.155,0.028-0.215,0.072H3.819V1.443c0.212-0.141,0.353-0.382,0.353-0.656
	C4.172,0.353,3.819,0,3.385,0C2.951,0,2.597,0.353,2.597,0.787c0,0.273,0.141,0.514,0.353,0.656v0.523H2.577
	c-0.06-0.045-0.134-0.072-0.215-0.072C2.162,1.894,2,2.056,2,2.256c0,0.2,0.162,0.362,0.362,0.362c0.081,0,0.155-0.027,0.215-0.072
	H2.95v3.81c-0.747-0.061-1.399-0.3-1.832-0.882l0.453,0.032C1.651,5.51,1.724,5.461,1.748,5.385C1.771,5.31,1.741,5.228,1.673,5.187
	l-1.161-0.7c-0.048-0.029-0.107-0.033-0.159-0.01C0.302,4.5,0.265,4.547,0.255,4.602L0.003,5.934
	C-0.012,6.012,0.029,6.09,0.101,6.122c0.072,0.033,0.157,0.011,0.206-0.051l0.271-0.349C1.107,6.579,1.94,7.296,2.9,7.483
	l0.363,0.363c0.067,0.067,0.176,0.067,0.243,0l0.363-0.363c0.96-0.186,1.793-0.904,2.322-1.761l0.271,0.349
	C6.51,6.134,6.596,6.155,6.668,6.122C6.74,6.09,6.781,6.012,6.766,5.934z M3.385,0.579c0.115,0,0.208,0.093,0.208,0.208
	S3.499,0.995,3.385,0.995c-0.115,0-0.208-0.093-0.208-0.208C3.177,0.672,3.27,0.579,3.385,0.579z"/>
</svg>
