<?xml version="1.0" encoding="iso-8859-1"?>
<!-- Generator: Adobe Illustrator 21.0.2, SVG Export Plug-In . SVG Version: 6.00 Build 0)  -->
<svg version="1.1" id="Layer_1" xmlns="http://www.w3.org/2000/svg" xmlns:xlink="http://www.w3.org/1999/xlink" x="0px" y="0px"
	 viewBox="-49 141 512 512" style="enable-background:new -49 141 512 512;" xml:space="preserve">
<g>
	<path style="fill:#FFFFFF;" d="M-28.318,653c-5.293,0-10.587-2.019-14.625-6.058c-8.077-8.077-8.077-21.172,0-29.249
		l470.636-470.636c8.077-8.077,21.172-8.077,29.249,0c8.076,8.077,8.076,21.172,0,29.248L-13.693,646.941
		C-17.731,650.981-23.025,653-28.318,653z"/>
	<path style="fill:#FFFFFF;" d="M442.318,653c-5.293,0-10.587-2.019-14.625-6.058L-42.942,176.307
		c-8.077-8.077-8.077-21.172,0-29.248c8.076-8.077,21.172-8.077,29.248,0l470.636,470.636c8.076,8.077,8.076,21.172,0,29.249
		C452.904,650.981,447.611,653,442.318,653z"/>
</g>
</svg>
