<?xml version="1.0" encoding="utf-8"?>
<!-- Generator: Adobe Illustrator 21.0.0, SVG Export Plug-In . SVG Version: 6.00 Build 0)  -->
<svg version="1.1" id="Слой_1" xmlns="http://www.w3.org/2000/svg" xmlns:xlink="http://www.w3.org/1999/xlink" x="0px" y="0px"
	 viewBox="0 0 489.6 213.1" style="enable-background:new 0 0 489.6 213.1;" xml:space="preserve">
<style type="text/css">
	.st0{fill:#DC7A47;}
</style>
<path class="st0" d="M471.5,82.6c-9-3-71.5-16.7-71.5-16.7S284.1,0,270.2,0c-13.9,0-109.3,0-109.3,0c-23.3,0-42.8,17.8-65.3,38.3
	c-10.6,9.7-22.4,20.4-35.3,29.8L12,74.6C5,76.8,0,83.4,0,91.1v55.2c0,9.5,7.7,17.3,17.3,17.3h33.1c2.4,27.7,25.7,49.5,54.1,49.5
	c28.3,0,51.6-21.8,54.1-49.5h158.1c2.4,27.7,25.7,49.5,54.1,49.5c28.3,0,51.6-21.8,54.1-49.5H452c21.6,0,32.1-9.3,34.7-18.1
	C493.4,123.4,488.6,88.3,471.5,82.6L471.5,82.6z M104.4,186.9c-15.5,0-28.1-12.6-28.1-28.1c0-15.5,12.6-28.1,28.1-28.1
	c15.5,0,28.1,12.6,28.1,28.1C132.6,174.3,119.9,186.9,104.4,186.9L104.4,186.9z M208.8,65.9h-94.3c6.8-5.4,13.1-11.1,18.9-16.4
	c15.3-13.9,28.5-25.9,44.2-25.9c0,0,14.3,0,31.1,0L208.8,65.9L208.8,65.9z M231.8,23.5c11.7,0,22.1,0,27.3,0
	c13,0,65.7,30.6,85.5,42.4H231.8V23.5z M370.7,186.9c-15.5,0-28.1-12.6-28.1-28.1c0-15.5,12.6-28.1,28.1-28.1s28.1,12.6,28.1,28.1
	C398.8,174.3,386.2,186.9,370.7,186.9L370.7,186.9z M370.7,186.9"/>
</svg>
