<?xml version="1.0" encoding="utf-8"?>
<!-- Generator: Adobe Illustrator 21.0.0, SVG Export Plug-In . SVG Version: 6.00 Build 0)  -->
<svg version="1.1" id="Capa_1" xmlns="http://www.w3.org/2000/svg" xmlns:xlink="http://www.w3.org/1999/xlink" x="0px" y="0px"
	 viewBox="0 0 512 330" style="enable-background:new 0 0 512 330;" xml:space="preserve">
<style type="text/css">
	.st0{fill:#F77E3E;}
</style>
<g>
	<g>
		<path class="st0" d="M390,120v-15c0-8.3-6.7-15-15-15h-23.8l-25.6-25.6C322.8,61.6,319,60,315,60h-15V30h15c8.3,0,15-6.7,15-15
			s-6.7-15-15-15c-32.8,0-117.6,0-150,0c-8.3,0-15,6.7-15,15s6.7,15,15,15h15v30h-15c-4,0-7.8,1.6-10.6,4.4l-30,30
			c-2.8,2.8-4.4,6.6-4.4,10.6v150c0,4,1.6,7.8,4.4,10.6l60,60c2.8,2.8,6.6,4.4,10.6,4.4h150c5.7,0,10.9-3.2,13.4-8.3l30-60
			c1-2.1,1.6-4.4,1.6-6.7h32V120H390z M298.4,201.7l-30,60c-3.7,7.4-12.6,10.4-20.1,6.7c-7.4-3.7-10.4-12.7-6.7-20.1l19.1-38.3H225
			c-11.1,0-18.4-11.7-13.4-21.7l30-60c3.7-7.4,12.7-10.4,20.1-6.7c7.4,3.7,10.4,12.7,6.7,20.1L249.3,180H285
			C296.1,180,303.4,191.7,298.4,201.7z"/>
	</g>
</g>
<g>
	<g>
		<path class="st0" d="M75,90c-8.3,0-15,6.7-15,15v60H30v-60c0-8.3-6.7-15-15-15S0,96.7,0,105v150c0,8.3,6.7,15,15,15s15-6.7,15-15
			v-60h30v60c0,8.3,6.7,15,15,15h15V90H75z"/>
	</g>
</g>
<g>
	<g>
		<path class="st0" d="M482,90h-15c-8.3,0-15,6.7-15,15v180c0,8.3,6.7,15,15,15h15c16.6,0,30-13.4,30-30V120
			C512,103.4,498.6,90,482,90z"/>
	</g>
</g>
</svg>
