<?xml version="1.0" encoding="utf-8"?>
<!-- Generator: Adobe Illustrator 21.0.0, SVG Export Plug-In . SVG Version: 6.00 Build 0)  -->
<svg version="1.1" id="Capa_1" xmlns="http://www.w3.org/2000/svg" xmlns:xlink="http://www.w3.org/1999/xlink" x="0px" y="0px"
	 viewBox="0 0 426.7 512" style="enable-background:new 0 0 426.7 512;" xml:space="preserve">
<style type="text/css">
	.st0{fill:#F77E3E;}
</style>
<g>
	<g>
		<path class="st0" d="M416,64c-5.9,0-10.7,4.8-10.7,10.7v10.7H384V74.7c0-5.9-4.8-10.7-10.7-10.7s-10.7,4.8-10.7,10.7v42.7
			c0,13.9,8.9,25.6,21.3,30v226c0,5.9-4.8,10.7-10.7,10.7s-10.7-4.8-10.7-10.7V352c0-13.9-8.9-25.6-21.3-30V42.7
			c0-23.5-19.1-42.7-42.7-42.7H85.3C61.8,0,42.7,19.1,42.7,42.7v384C19.1,426.7,0,445.8,0,469.3v32c0,5.9,4.8,10.7,10.7,10.7h362.7
			c5.9,0,10.7-4.8,10.7-10.7v-32c0-23.5-19.1-42.7-42.7-42.7v-53.3c0,17.6,14.4,32,32,32s32-14.4,32-32v-226
			c12.4-4.4,21.3-16.1,21.3-30V74.7C426.7,68.8,421.9,64,416,64z M254.5,293.5l-64,106.7c-2,3.3-5.5,5.2-9.1,5.2
			c-0.9,0-1.9-0.1-2.9-0.4c-4.6-1.3-7.8-5.5-7.8-10.3v-53.3h-32c-3.8,0-7.4-2.1-9.3-5.4c-1.9-3.3-1.8-7.4,0.1-10.8l64-106.7
			c2.5-4.1,7.3-6.1,12-4.8c4.6,1.3,7.8,5.5,7.8,10.3v53.3h32c3.8,0,7.4,2.1,9.3,5.4C256.5,286.1,256.5,290.2,254.5,293.5z
			 M298.7,181.5c0,5.9-4.8,10.7-10.7,10.7H96c-5.9,0-10.7-4.8-10.7-10.7V53.3c0-5.9,4.8-10.7,10.7-10.7h192
			c5.9,0,10.7,4.8,10.7,10.7V181.5z"/>
	</g>
</g>
</svg>
