<?xml version="1.0" encoding="utf-8"?>
<!-- Generator: Adobe Illustrator 21.0.0, SVG Export Plug-In . SVG Version: 6.00 Build 0)  -->
<svg version="1.1" id="Layer_1" xmlns="http://www.w3.org/2000/svg" xmlns:xlink="http://www.w3.org/1999/xlink" x="0px" y="0px"
	 viewBox="0 0 512 512" style="enable-background:new 0 0 512 512;" xml:space="preserve">
<style type="text/css">
	.st0{fill:#F77E3E;}
</style>
<g>
	<g>
		<path class="st0" d="M437,75C388.7,26.6,324.4,0,256,0S123.3,26.6,75,75C26.6,123.3,0,187.6,0,256s26.6,132.7,75,181
			c48.4,48.4,112.6,75,181,75s132.7-26.6,181-75c48.4-48.4,75-112.6,75-181S485.4,123.3,437,75z M272.7,380.2h-33.4V272.7h-87.9
			v107.5h-33.4V131.8h33.4v107.5h87.9V131.8h33.4v107.5h87.9V131.8h33.4v140.9H272.7V380.2z M388.3,375.1L376,355.2h-6.7v19.9h-17.8
			v-64.8h29.8c12.7,0,21.8,11.4,21.8,22.5c0,7.5-3.5,14.4-9.3,18.5l14.6,23.8L388.3,375.1L388.3,375.1z"/>
	</g>
</g>
<g>
	<g>
		<path class="st0" d="M380.1,325.8h-10.8v13.9h11.2c2.2,0,4.5-2.6,4.5-6.9C385,328.2,382.3,325.8,380.1,325.8z"/>
	</g>
</g>
</svg>
