<?xml version="1.0" encoding="utf-8"?>
<!-- Generator: Adobe Illustrator 21.0.0, SVG Export Plug-In . SVG Version: 6.00 Build 0)  -->
<svg version="1.1" id="Слой_1" xmlns="http://www.w3.org/2000/svg" xmlns:xlink="http://www.w3.org/1999/xlink" x="0px" y="0px"
	 viewBox="0 0 241.6 145.8" style="enable-background:new 0 0 241.6 145.8;" xml:space="preserve">
<style type="text/css">
	.st0{fill:#DC7A47;}
</style>
<g>
	<path class="st0" d="M236,0H5.6C2.5,0,0,2.5,0,5.6v134.6c0,3.1,2.5,5.6,5.6,5.6h20.8c3.1,0,5.6-2.5,5.6-5.6V112h27.5v5.6
		c0,7.4,5.1,13.6,12,15.3c0.6,2.5,2.8,4.3,5.4,4.3h11.6c2.5,0,4.6-1.6,5.3-3.9h53.9c0.7,2.2,2.8,3.9,5.3,3.9h11.6
		c2.7,0,4.9-1.8,5.4-4.3c6.9-1.7,12-7.9,12-15.3V112h27.5v28.2c0,3.1,2.5,5.6,5.6,5.6H236c3.1,0,5.6-2.5,5.6-5.6V5.6
		C241.6,2.5,239.1,0,236,0L236,0z M170.9,117.6c0,2.5-2,4.5-4.5,4.5H75.2c-2.5,0-4.5-2-4.5-4.5V112h8.1c0.5,2.5,2.7,4.4,5.3,4.4
		c2.6,0,4.8-1.9,5.3-4.4h62.8c0.5,2.5,2.7,4.4,5.3,4.4c2.6,0,4.8-1.9,5.3-4.4h8.1V117.6z M176.5,100.8H32v-4.3h177.6v4.3H176.5z
		 M209.6,65.6v4.3H32v-4.3H209.6z M209.6,81.1v4.3H32v-4.3H209.6z M209.6,50.1v4.3H32v-4.3H209.6z M209.6,38.9H32v-4.5h177.6V38.9z
		 M230.4,134.6h-9.6V28.8c0-3.1-2.5-5.6-5.6-5.6H26.4c-3.1,0-5.6,2.5-5.6,5.6v105.8h-9.6V11.2h219.2V134.6z M230.4,134.6"/>
</g>
</svg>
