<?xml version="1.0" encoding="utf-8"?>
<!-- Generator: Adobe Illustrator 21.0.0, SVG Export Plug-In . SVG Version: 6.00 Build 0)  -->
<svg version="1.1" id="Слой_1" xmlns="http://www.w3.org/2000/svg" xmlns:xlink="http://www.w3.org/1999/xlink" x="0px" y="0px"
	 viewBox="0 0 41.6 41.6" style="enable-background:new 0 0 41.6 41.6;" xml:space="preserve">
<style type="text/css">
	.st0{fill:#f77e3e;}
</style>
<g>
	<path class="st0" d="M20.8,0C9.3,0,0,9.3,0,20.8s9.3,20.8,20.8,20.8c11.5,0,20.8-9.3,20.8-20.8S32.3,0,20.8,0L20.8,0z M32.4,13.9
		L19.6,28.3c-0.3,0.4-0.8,0.5-1.2,0.5c-0.4,0-0.7-0.1-1-0.4l-8-6.4c-0.7-0.6-0.8-1.6-0.2-2.3c0.6-0.7,1.6-0.8,2.2-0.3l6.8,5.4
		L30,11.7c0.6-0.7,1.6-0.7,2.3-0.1C32.9,12.2,33,13.2,32.4,13.9L32.4,13.9z M32.4,13.9"/>
</g>
</svg>
