<?xml version="1.0" encoding="iso-8859-1"?>
<!-- Generator: Adobe Illustrator 21.0.2, SVG Export Plug-In . SVG Version: 6.00 Build 0)  -->
<svg version="1.1" id="&#x421;&#x43B;&#x43E;&#x439;_1"
	 xmlns="http://www.w3.org/2000/svg" xmlns:xlink="http://www.w3.org/1999/xlink" x="0px" y="0px" viewBox="0 0 521.141 640"
	 style="enable-background:new 0 0 521.141 640;" xml:space="preserve">
<g>
	<path style="fill:#FFFFFF;" d="M265.418,45.715h-14.082c-7.524,0-13.621-6.102-13.621-13.621v-0.461
		C237.715,14.164,223.551,0,206.078,0h-0.73c-17.473,0-31.633,14.164-31.633,31.633v0.457c0,7.523-6.102,13.625-13.625,13.625
		h-14.078c-14.996,0-27.157,12.156-27.157,27.152v0.551c0,14.996,12.161,27.152,27.157,27.152h119.406
		c14.996,0,27.152-12.156,27.152-27.152v-0.551C292.57,57.871,280.414,45.715,265.418,45.715L265.418,45.715z M205.715,45.715
		C198.141,45.715,192,39.574,192,32s6.141-13.715,13.715-13.715S219.43,24.426,219.43,32S213.289,45.715,205.715,45.715
		L205.715,45.715z M266.77,576H36.57C16.371,576,0,559.625,0,539.43V100.57C0,80.375,16.371,64,27.43,64h74.093
		c-0.617,3.039-0.953,6.184-0.953,9.422c0,25.051,20.387,45.437,45.442,45.437h119.402c25.059,0,45.441-20.386,45.441-45.992
		c0-3.035-0.324-5.996-0.894-8.867h55.754c29.34,0,45.715,16.375,45.715,36.57v274.75c-3.039-0.187-6.059-0.465-9.145-0.465
		c-12.648,0-24.859,1.786-36.57,4.817V164.57h-320v365.715h210.746C257.465,546.355,260.977,561.738,266.77,576L266.77,576z
		 M402.285,402.285c-65.644,0-118.855,53.215-118.855,118.856C283.43,586.785,336.641,640,402.285,640
		c65.645,0,118.856-53.215,118.856-118.855C521.141,455.5,467.93,402.285,402.285,402.285L402.285,402.285z M479.949,496.723
		l-73.14,82.285c-3.606,4.054-8.621,6.133-13.676,6.133c-4.012,0-8.047-1.313-11.414-4.008l-45.715-36.571
		c-7.883-6.304-9.164-17.812-2.852-25.695c6.301-7.894,17.817-9.172,25.7-2.859l32.156,25.722l61.613-69.312
		c6.699-7.543,18.262-8.23,25.813-1.516C485.98,477.617,486.66,489.168,479.949,496.723L479.949,496.723z M320,320H173.715
		c-5.051,0-9.145-4.094-9.145-9.145v-9.14c0-5.051,4.094-9.145,9.145-9.145H320c5.051,0,9.145,4.094,9.145,9.145v9.14
		C329.141,315.906,325.051,320,320,320L320,320z M320,237.715H173.715c-5.051,0-9.145-4.094-9.145-9.145v-9.14
		c0-5.051,4.094-9.145,9.145-9.145H320c5.051,0,9.145,4.094,9.145,9.145v9.14C329.141,233.621,325.051,237.715,320,237.715
		L320,237.715z M274.285,393.145h-100.57c-5.051,0-9.145-4.094-9.145-9.145v-9.145c0-5.046,4.094-9.14,9.145-9.14h100.57
		c5.051,0,9.145,4.094,9.145,9.14V384C283.43,389.051,279.336,393.145,274.285,393.145L274.285,393.145z M256,475.43h-82.285
		c-5.051,0-9.145-4.094-9.145-9.145v-9.144c0-5.047,4.094-9.141,9.145-9.141H256c5.051,0,9.145,4.094,9.145,9.141v9.144
		C265.141,471.336,261.051,475.43,256,475.43L256,475.43z M147.066,203.902l-33.671,37.879c-1.661,1.867-3.969,2.824-6.297,2.824
		c-1.848,0-3.703-0.601-5.254-1.843l-21.043-16.836c-3.633-2.903-4.223-8.199-1.317-11.828c2.903-3.637,8.204-4.223,11.832-1.317
		l14.805,11.84l28.363-31.906c3.086-3.477,8.407-3.789,11.883-0.699C149.844,195.105,150.156,200.426,147.066,203.902
		L147.066,203.902z M147.066,285.246l-33.671,37.883c-1.661,1.863-3.969,2.824-6.297,2.824c-1.848,0-3.703-0.605-5.254-1.848
		L80.801,307.27c-3.633-2.903-4.223-8.2-1.317-11.829c2.903-3.636,8.204-4.222,11.832-1.316l14.805,11.84l28.363-31.906
		c3.086-3.473,8.407-3.789,11.883-0.7C149.844,276.449,150.156,281.77,147.066,285.246L147.066,285.246z M147.066,363.039
		l-33.671,37.883c-1.661,1.863-3.969,2.82-6.297,2.82c-1.848,0-3.703-0.601-5.254-1.844l-21.043-16.836
		c-3.633-2.902-4.223-8.199-1.317-11.828c2.903-3.636,8.204-4.222,11.832-1.316l14.805,11.84l28.363-31.906
		c3.086-3.477,8.407-3.79,11.883-0.7C149.844,354.242,150.156,359.562,147.066,363.039L147.066,363.039z M147.066,441.379
		l-33.671,37.883c-1.661,1.867-3.969,2.824-6.297,2.824c-1.848,0-3.703-0.606-5.254-1.848l-21.043-16.836
		c-3.633-2.898-4.223-8.199-1.317-11.828c2.903-3.633,8.204-4.222,11.832-1.316l14.805,11.844l28.363-31.911
		c3.086-3.472,8.407-3.789,11.883-0.699C149.844,432.586,150.156,437.902,147.066,441.379L147.066,441.379z M147.066,441.379"/>
</g>
</svg>
