<?xml version="1.0" encoding="iso-8859-1"?>
<!-- Generator: Adobe Illustrator 21.0.2, SVG Export Plug-In . SVG Version: 6.00 Build 0)  -->
<svg version="1.1" id="&#x421;&#x43B;&#x43E;&#x439;_1"
	 xmlns="http://www.w3.org/2000/svg" xmlns:xlink="http://www.w3.org/1999/xlink" x="0px" y="0px" viewBox="0 0 30.922 19.758"
	 style="enable-background:new 0 0 30.922 19.758;" xml:space="preserve">
<g>
	<path style="fill:#FFFFFF;" d="M28.57,8.711c-0.429-3.238-2.215-5.598-4.414-5.598H13.977c-2.204,0-3.989,2.36-4.418,5.598
		c-1.551,0.801-2.352,2.442-2.352,4.336c0,1.41,0.445,2.676,1.305,3.563v3.148h4v-1.844h13.105v1.844h4V16.61
		c0.86-0.887,1.305-2.153,1.305-3.559C30.922,11.153,30.121,9.512,28.57,8.711L28.57,8.711z M13.977,4.313h10.179
		c1.414,0,2.653,1.683,3.117,3.965c-0.214-0.04-0.441-0.063-0.679-0.075c0-0.007,0.004-0.011,0.004-0.015
		c0-1.352-1.098-2.446-2.446-2.446c-1.347,0-2.441,1.098-2.441,2.446h-9.844c-0.359,0-0.695,0.031-1.015,0.086
		C11.316,5.996,12.559,4.313,13.977,4.313L13.977,4.313z M25.797,8.188h-3.285c0-0.907,0.738-1.645,1.644-1.645
		S25.797,7.281,25.797,8.188L25.797,8.188z M11.305,14.629c-0.875,0-1.582-0.707-1.582-1.582c0-0.871,0.707-1.582,1.582-1.582
		c0.871,0,1.582,0.707,1.582,1.582C12.887,13.926,12.176,14.629,11.305,14.629L11.305,14.629z M23.656,14.371h-9.183
		c-0.219,0-0.399-0.179-0.399-0.398c0-0.223,0.18-0.402,0.399-0.402h9.183c0.219,0,0.399,0.179,0.399,0.402
		C24.055,14.192,23.875,14.371,23.656,14.371L23.656,14.371z M23.656,12.988h-9.183c-0.219,0-0.399-0.179-0.399-0.398
		c0-0.223,0.18-0.402,0.399-0.402h9.183c0.219,0,0.399,0.179,0.399,0.402C24.055,12.809,23.875,12.988,23.656,12.988L23.656,12.988z
		 M26.824,14.629c-0.875,0-1.582-0.707-1.582-1.582c0-0.871,0.707-1.582,1.582-1.582c0.871,0,1.578,0.707,1.578,1.582
		C28.402,13.926,27.695,14.629,26.824,14.629L26.824,14.629z M26.824,14.629"/>
	<path style="fill:#FFFFFF;" d="M4.426,0L0,4.5l4.395,4.297l4.332-0.324l0.089-4.176L4.426,0z M6.902,7.141L6.406,6.66
		C6.125,6.938,5.754,7.149,5.461,7.199L5.246,6.762c0.289-0.059,0.629-0.227,0.899-0.5C6.48,5.91,6.508,5.481,6.23,5.207
		c-0.273-0.261-0.625-0.23-1.125-0.011c-0.683,0.312-1.21,0.402-1.636-0.012c-0.41-0.395-0.438-0.985-0.071-1.512l-0.496-0.48
		l0.293-0.305l0.477,0.461c0.297-0.285,0.57-0.41,0.793-0.473l0.203,0.438C4.512,3.36,4.207,3.457,3.902,3.77
		C3.535,4.149,3.621,4.512,3.82,4.703c0.254,0.246,0.559,0.188,1.149-0.066c0.699-0.309,1.203-0.313,1.64,0.109
		c0.387,0.379,0.489,1,0.082,1.586l0.512,0.496L6.902,7.141z M6.902,7.141"/>
</g>
</svg>
