<?xml version="1.0" encoding="utf-8"?>
<!-- Generator: Adobe Illustrator 21.0.0, SVG Export Plug-In . SVG Version: 6.00 Build 0)  -->
<svg version="1.1" id="Capa_1" xmlns="http://www.w3.org/2000/svg" xmlns:xlink="http://www.w3.org/1999/xlink" x="0px" y="0px"
	 viewBox="0 0 15 10.5" style="enable-background:new 0 0 15 10.5;" xml:space="preserve">
<style type="text/css">
	.st0{fill:#F77E3E;}
</style>
<g>
	<g>
		<path class="st0" d="M14.8,9l-3.4-8.6c0-0.1-0.1-0.2-0.2-0.3C11,0,10.9,0,10.8,0H8c0.1,0,0.1,0,0.2,0.1c0.1,0.1,0.1,0.1,0.1,0.2
			l0.1,1.6c0,0.1,0,0.1-0.1,0.2c0,0-0.1,0.1-0.2,0.1H6.8c-0.1,0-0.1,0-0.2-0.1c0,0-0.1-0.1-0.1-0.2l0.1-1.6c0-0.1,0-0.1,0.1-0.2
			C6.8,0,6.9,0,7,0H4.2C4.1,0,4,0,3.9,0.1C3.8,0.2,3.7,0.3,3.7,0.4L0.2,9C0.1,9.3,0,9.7,0,9.9c0,0.4,0.1,0.6,0.4,0.6h5.8
			c-0.1,0-0.1,0-0.2-0.1c0-0.1-0.1-0.1-0.1-0.2l0.2-2.1c0-0.1,0-0.1,0.1-0.2c0.1-0.1,0.1-0.1,0.2-0.1h2.2c0.1,0,0.1,0,0.2,0.1
			C8.9,8,8.9,8.1,8.9,8.2l0.2,2.1c0,0.1,0,0.1-0.1,0.2c0,0.1-0.1,0.1-0.2,0.1h5.8c0.3,0,0.4-0.2,0.4-0.6C15,9.7,14.9,9.3,14.8,9z
			 M8.7,6.1c0,0.1,0,0.1-0.1,0.2c0,0-0.1,0.1-0.2,0.1h-2c-0.1,0-0.1,0-0.2-0.1c0,0-0.1-0.1-0.1-0.2v0l0.2-2.6c0-0.1,0-0.1,0.1-0.2
			c0.1-0.1,0.1-0.1,0.2-0.1h1.5c0.1,0,0.1,0,0.2,0.1c0.1,0.1,0.1,0.1,0.1,0.2L8.7,6.1L8.7,6.1L8.7,6.1z"/>
	</g>
</g>
</svg>
