<?xml version="1.0" encoding="iso-8859-1"?>
<!-- Generator: Adobe Illustrator 21.0.2, SVG Export Plug-In . SVG Version: 6.00 Build 0)  -->
<svg version="1.1" id="&#x421;&#x43B;&#x43E;&#x439;_1"
	 xmlns="http://www.w3.org/2000/svg" xmlns:xlink="http://www.w3.org/1999/xlink" x="0px" y="0px" viewBox="0 0 391.92 345.84"
	 style="enable-background:new 0 0 391.92 345.84;" xml:space="preserve">
<g>
	<g>
		<defs>
			<rect id="SVGID_1_" width="391.92" height="345.84"/>
		</defs>
		<clipPath id="SVGID_2_">
			<use xlink:href="#SVGID_1_"  style="overflow:visible;"/>
		</clipPath>
		<path style="clip-path:url(#SVGID_2_);fill:#FFFFFF;" d="M224.078,272.402c0-16.082,4-31.524,11.524-45.282
			c-10.641-6-18.481-9.921-21.762-11.519c-1.039-0.481-1.602-1.52-1.602-2.641v-63.199c7.922-5.281,13.203-14.32,13.203-24.562
			v-65.52c0-32.559-26.402-59.039-59.043-59.039H152.32c-32.558,0-59.039,26.398-59.039,59.039v65.52
			c0,10.242,5.278,19.281,13.199,24.562v63.199c0,1.121-0.64,2.16-1.601,2.641c-9.039,4.398-52.801,26.48-93.359,59.84
			C4.16,281.441,0,290.48,0,299.999v44.879h257.922c-2.16-1.758-4.16-3.679-6.16-5.679
			C233.922,321.359,224.078,297.601,224.078,272.402L224.078,272.402z M224.078,272.402"/>
		<path style="clip-path:url(#SVGID_2_);fill:#FFFFFF;" d="M369.84,221.12c-28.32-28.32-74.238-28.32-102.481,0
			c-28.32,28.321-28.32,74.239,0,102.481c28.321,28.32,74.243,28.32,102.481,0C398.16,295.359,398.16,249.441,369.84,221.12
			L369.84,221.12z M356,294.878l-14.879,14.961l-22.562-22.558L296,309.839l-14.879-14.961l22.559-22.558l-22.559-22.481
			l14.957-14.961l22.563,22.563l22.558-22.563l14.961,14.961l-22.558,22.563L356,294.878z M356,294.878"/>
	</g>
</g>
</svg>
