<?xml version="1.0" encoding="utf-8"?>
<!-- Generator: Adobe Illustrator 21.0.0, SVG Export Plug-In . SVG Version: 6.00 Build 0)  -->
<svg version="1.1" id="Слой_1" xmlns="http://www.w3.org/2000/svg" xmlns:xlink="http://www.w3.org/1999/xlink" x="0px" y="0px"
	 viewBox="0 0 63.9 53" style="enable-background:new 0 0 63.9 53;" xml:space="preserve">
<style type="text/css">
	.st0{fill:#fff;}
</style>
<g>
	<path class="st0" d="M63.9,29.4c0-1.3-0.3-2.5-0.8-3.6c-0.1-0.3-0.1-0.6-0.2-0.8l-5.6-13.8l0-0.1C55.4,5.4,52.6,0,45.6,0H18.8
		C11.6,0,9.1,5.5,7.1,11.1L1.3,24.9C0.5,26.2,0,27.8,0,29.4v4.3c0,0.7,0.1,1.3,0.2,1.9C0.1,36,0,36.4,0,36.8v12.7
		C0,51.4,1.5,53,3.4,53h7c1.9,0,3.4-1.5,3.4-3.4v-6.4h36.8v6.4c0,1.9,1.5,3.4,3.4,3.4h6.6c1.9,0,3.4-1.5,3.4-3.4V36.8
		c0-0.4-0.1-0.8-0.2-1.2c0.1-0.6,0.2-1.3,0.2-1.9V29.4z M11.2,12.5c2.2-6.2,4-8.1,7.6-8.1h26.8c3.6,0,5.6,2.1,7.6,8.1l4.1,8.2
		c-1.3-0.5-2.8-0.8-4.3-0.8H11c-1.4,0-2.7,0.2-3.9,0.6L11.2,12.5z M14.7,35.3H7.3c-1.3,0-2.4-1.1-2.4-2.4c0-1.3,1.1-2.4,2.4-2.4h7.4
		c1.3,0,2.4,1.1,2.4,2.4C17.1,34.2,16.1,35.3,14.7,35.3L14.7,35.3z M40.9,34.8H23.7c-0.8,0-1.5-0.7-1.5-1.5c0-0.8,0.7-1.5,1.5-1.5
		h17.2c0.8,0,1.5,0.7,1.5,1.5C42.4,34.2,41.7,34.8,40.9,34.8L40.9,34.8z M56.4,35.3H49c-1.3,0-2.4-1.1-2.4-2.4
		c0-1.3,1.1-2.4,2.4-2.4h7.4c1.3,0,2.4,1.1,2.4,2.4C58.8,34.2,57.7,35.3,56.4,35.3L56.4,35.3z M56.4,35.3"/>
</g>
</svg>
