<?xml version="1.0" encoding="iso-8859-1"?>
<!-- Generator: Adobe Illustrator 21.0.2, SVG Export Plug-In . SVG Version: 6.00 Build 0)  -->
<svg version="1.1" id="&#x421;&#x43B;&#x43E;&#x439;_1"
	 xmlns="http://www.w3.org/2000/svg" xmlns:xlink="http://www.w3.org/1999/xlink" x="0px" y="0px" viewBox="0 0 200.88 148"
	 style="enable-background:new 0 0 200.88 148;" xml:space="preserve">
<g>
	<g>
		<defs>
			<rect id="SVGID_1_" width="200.88" height="148"/>
		</defs>
		<clipPath id="SVGID_2_">
			<use xlink:href="#SVGID_1_"  style="overflow:visible;"/>
		</clipPath>
		<path style="clip-path:url(#SVGID_2_);fill:#FFFFFF;" d="M194.156,28.618c-0.703,0-1.422,0.101-2.14,0.3l-8.137,2.243
			l-8.449-20.586C173.035,4.743,165.961,0,159.656,0H80.574C74.27,0,67.195,4.743,64.801,10.575l-8.438,20.554l-8.035-2.211
			c-0.719-0.199-1.441-0.3-2.14-0.3c-3.848,0-6.637,2.937-6.637,6.988v4.797c0,0.207,0.015,0.414,0.031,0.621
			c-1.859,1.383-3.633,2.914-5.305,4.582c-8.996,9-13.953,20.965-13.953,33.691c0,10.317,3.258,20.133,9.285,28.274L2.09,135.094
			c-2.785,2.781-2.785,7.297,0,10.082c1.39,1.395,3.215,2.09,5.039,2.09s3.652-0.695,5.043-2.09l27.523-27.523
			c8.141,6.031,17.957,9.289,28.274,9.289c12.726,0,24.691-4.957,33.691-13.957c2.902-2.903,5.379-6.117,7.41-9.563h59.188v10.211
			c0,4.727,3.844,8.571,8.57,8.571h11.192c4.722,0,8.566-3.844,8.566-8.571V72.739c0-5.856-1.809-15.028-4.031-20.446l-1.367-3.324
			h1.035c4.726,0,8.57-3.844,8.57-8.566v-4.797C200.793,31.555,198.004,28.618,194.156,28.618L194.156,28.618z M75.289,13.18
			c1.434-3.484,5.688-6.34,9.461-6.34h70.734c3.77,0,8.028,2.856,9.457,6.34l12.782,31.137c1.433,3.488-0.481,6.344-4.25,6.344
			h-67.422c-1.336-1.77-2.797-3.461-4.391-5.055c-9-9-20.961-13.953-33.687-13.953c-0.09,0-0.176,0.004-0.266,0.004L75.289,13.18z
			 M67.969,112.68c-8.918,0-17.301-3.473-23.606-9.777c-6.304-6.305-9.777-14.692-9.777-23.606c0-8.918,3.473-17.301,9.777-23.609
			c6.305-6.305,14.688-9.777,23.606-9.777c8.918,0,17.301,3.472,23.605,9.777c6.309,6.308,9.778,14.691,9.778,23.605
			c0,8.918-3.469,17.301-9.778,23.61C85.27,109.207,76.887,112.68,67.969,112.68L67.969,112.68z M180.098,83.7
			c0,1.886-1.543,3.425-3.43,3.425h-24.281c-1.883,0-3.426-1.539-3.426-3.425V72.047c0-1.886,1.539-3.429,3.426-3.429h24.281
			c1.887,0,3.43,1.543,3.43,3.429V83.7z M180.098,83.7"/>
	</g>
</g>
</svg>
