<?xml version="1.0" encoding="utf-8"?>
<!-- Generator: Adobe Illustrator 21.0.2, SVG Export Plug-In . SVG Version: 6.00 Build 0)  -->
<svg version="1.1" id="Слой_1" xmlns="http://www.w3.org/2000/svg" xmlns:xlink="http://www.w3.org/1999/xlink" x="0px" y="0px"
	 viewBox="0 0 392.6 77.1" style="enable-background:new 0 0 392.6 77.1;" xml:space="preserve">
<style type="text/css">
	.st0{fill:#F77E3E;}
	.st1{fill-rule:evenodd;clip-rule:evenodd;fill:#F77E3E;}
	.st2{fill:#FFFFFF;}
</style>
<g>
	<path class="st0" d="M3,61.3l-0.5,5c-0.1,1.5-0.5,2.9-0.9,4.2H0.2v5.2h2.3v-3.3h6.9v3.3h2.3v-5.2h-1.5v-9.2H3L3,61.3z M7.8,63.3
		v7.4h-4c0.4-1.3,0.7-2.8,0.9-4.2L5,63.3H7.8L7.8,63.3z"/>
	<path class="st0" d="M25.7,65.2c0-2.3-1.5-4.1-4.5-4.1c-2.9,0-4.5,1.8-4.5,4.1v3.5c0,2.3,1.5,4,4.5,4c2.9,0,4.5-1.8,4.5-4V65.2
		L25.7,65.2z M19.3,65.3c0-1.5,0.6-2.3,2-2.3c1.4,0,2,0.8,2,2.3v3.3c0,1.5-0.6,2.3-2,2.3c-1.3,0-2-0.8-2-2.3V65.3L19.3,65.3z"/>
	<path class="st0" d="M39.6,63.8c-0.6-1.7-2.1-2.7-3.9-2.7c-2.8,0-4.2,1.8-4.2,4.1v3.5c0,2.2,1.4,4,4.2,4c2,0,3.3-1,4-2.7l-1.8-0.7
		c-0.4,1.1-1,1.5-2,1.5c-1.3,0-2-0.7-2-2.3v-3.3c0-1.5,0.7-2.2,2-2.2c0.9,0,1.6,0.4,2,1.4L39.6,63.8L39.6,63.8z"/>
	<polygon class="st0" points="50,72.5 50,63.3 53.2,63.3 53.2,61.3 44.3,61.3 44.3,63.3 47.5,63.3 47.5,72.5 50,72.5 	"/>
	<path class="st0" d="M68.3,61.3h-2.6l-2.4,8.2h0l-2.8-8.2h-2.8l4.4,10.8l-0.4,1.2c-0.4,1.3-1.2,1.7-2.5,1.9l0.2,1.9
		c2.3-0.1,3.6-1.1,4.4-3.5L68.3,61.3L68.3,61.3z"/>
	<polygon class="st0" points="76.3,72.5 76.3,63.3 80.1,63.3 80.1,72.5 82.5,72.5 82.5,61.3 73.8,61.3 73.8,72.5 76.3,72.5 	"/>
	<polygon class="st0" points="91.5,72.5 91.5,67.7 95.6,67.7 95.6,72.5 98,72.5 98,61.3 95.6,61.3 95.6,65.8 91.5,65.8 91.5,61.3 
		89,61.3 89,72.5 91.5,72.5 	"/>
	<path class="st0" d="M114.3,61.3v11.2h2.5V61.3H114.3L114.3,61.3z M107,61.3h-2.5v11.2h4.5c3,0,4-1.3,4-3.5c0-2.1-1.1-3.4-4-3.4
		H107V61.3L107,61.3z M107,67.5h2c1.3,0,1.8,0.4,1.8,1.6c0,1.2-0.6,1.7-1.8,1.7h-2V67.5L107,67.5z"/>
	<path class="st0" d="M131.3,67.2v-1.9c0-2.3-1.5-4.2-4.2-4.2c-2.8,0-4.3,1.8-4.3,4v3.4c0,2.4,1.5,4.1,4.3,4.1
		c2.2,0,3.5-0.9,4.2-2.9l-1.8-0.7c-0.5,1.2-1.1,1.6-2.2,1.6c-1.4,0-2.1-0.8-2.1-2.3v-1.3H131.3L131.3,67.2z M125.3,65
		c0-1.3,0.6-2.1,1.9-2.1c1.2,0,1.9,0.7,1.9,2v0.8h-3.8V65L125.3,65z"/>
	<path class="st0" d="M146.7,64.5c0.5-1,1.3-1.5,2.2-1.5c1.1,0,1.6,0.6,1.6,1.9V66h-0.8c-3.7,0-4.9,1.6-4.9,3.6
		c0,1.8,1.2,3.1,3.1,3.1c1.1,0,2.1-0.3,2.9-1.1c0.4,0.6,1,1,2,1c0.4,0,0.8-0.1,1.1-0.2V71h-0.3c-0.5,0-0.8-0.3-0.8-0.8v-5.3
		c0-2.2-1.1-3.8-3.7-3.8c-2,0-3.2,1.1-4,2.6L146.7,64.5L146.7,64.5z M148.6,71c-0.9,0-1.4-0.4-1.4-1.6c0-1.1,0.6-1.8,2.5-1.8h0.8
		v2.5C150,70.7,149.4,71,148.6,71L148.6,71z"/>
	<path class="st0" d="M167.5,64.1c0-1.6-1.1-2.8-3.8-2.8h-4.2v11.2h4.6c2.9,0,4-1.2,4-3.3c0-1.4-0.7-2.3-2.3-2.6v0
		C166.9,66.2,167.5,65.4,167.5,64.1L167.5,64.1z M161.8,67.5h2.2c1.3,0,1.8,0.4,1.8,1.6c0,1.2-0.5,1.7-1.8,1.7h-2.2V67.5L161.8,67.5
		z M161.8,63.1h2c1.1,0,1.6,0.4,1.6,1.3c0,1-0.5,1.5-1.7,1.5h-1.8V63.1L161.8,63.1z"/>
	<polygon class="st0" points="178.6,72.5 178.6,63.3 181.8,63.3 181.8,61.3 172.9,61.3 172.9,63.3 176.1,63.3 176.1,72.5 
		178.6,72.5 	"/>
	<path class="st0" d="M195.9,65.2c0-2.3-1.5-4.1-4.5-4.1c-2.9,0-4.5,1.8-4.5,4.1v3.5c0,2.3,1.5,4,4.5,4c2.9,0,4.5-1.8,4.5-4V65.2
		L195.9,65.2z M189.4,65.3c0-1.5,0.6-2.3,2-2.3c1.4,0,2,0.8,2,2.3v3.3c0,1.5-0.6,2.3-2,2.3c-1.3,0-2-0.8-2-2.3V65.3L189.4,65.3z"/>
	<polygon class="st0" points="310.8,61.3 306.3,69.5 306.3,69.5 306.3,61.3 303.9,61.3 303.9,72.5 306.3,72.5 310.7,64.4 
		310.8,64.4 310.8,72.5 313.1,72.5 313.1,61.3 310.8,61.3 	"/>
	<path class="st0" d="M321.5,67.7h1.3c1.5,0,2.3,0.3,2.3,1.5c0,1.2-0.6,1.8-2.1,1.8c-1,0-2-0.5-2.4-1.3l-1.7,0.5
		c0.6,1.7,2.2,2.5,4.2,2.5c2.8,0,4.4-1.2,4.4-3.5c0-1.4-0.6-2.2-1.9-2.5v0c1-0.4,1.5-1.2,1.5-2.4c0-1.7-1.3-3.1-3.9-3.1
		c-2.2,0-3.7,1.2-4.2,2.8l1.7,0.5c0.4-0.9,1.2-1.4,2.2-1.4c1.2,0,1.8,0.5,1.8,1.5c0,1.2-0.7,1.5-2,1.5h-1.2V67.7L321.5,67.7z"/>
	<path class="st0" d="M346.3,56.3c-3.2,0-5.2,2.1-5.2,5.5v5.7c0,3.1,2,5.2,5.2,5.2c2.6,0,4.2-1.1,4.8-3.6l-2-0.7
		c-0.4,1.5-1.2,2.1-2.5,2.1c-1.7,0-2.6-1.2-2.6-3.1v-5.7c0-2,0.9-3.2,2.6-3.2c1.3,0,2.2,0.7,2.5,2l2-0.7
		C350.5,57.9,348.7,56.3,346.3,56.3L346.3,56.3z"/>
	<polygon class="st0" points="373.3,72.5 373.3,56.5 370.5,56.5 370.5,70.2 366.6,70.2 366.6,56.5 363.8,56.5 363.8,70.2 
		359.9,70.2 359.9,56.5 357.2,56.5 357.2,72.5 373.3,72.5 	"/>
	<path class="st0" d="M382.7,68.8h5.4l1,3.7h2.8l-5-15.9h-3.1l-5,15.9h2.8L382.7,68.8L382.7,68.8z M385.4,59L385.4,59l2.2,7.7h-4.3
		L385.4,59L385.4,59z"/>
	<polygon class="st0" points="211,61.3 207.7,67.5 207.6,67.5 204.3,61.3 202,61.3 202,72.5 204.2,72.5 204.2,65.5 204.3,65.5 
		207.1,70.6 208.2,70.6 211,65.5 211,65.5 211,72.5 213.3,72.5 213.3,61.3 211,61.3 	"/>
	<path class="st0" d="M228.3,65.2c0-2.3-1.5-4.1-4.5-4.1c-2.9,0-4.5,1.8-4.5,4.1v3.5c0,2.3,1.5,4,4.5,4c2.9,0,4.5-1.8,4.5-4V65.2
		L228.3,65.2z M221.8,65.3c0-1.5,0.6-2.3,2-2.3c1.4,0,2,0.8,2,2.3v3.3c0,1.5-0.6,2.3-2,2.3c-1.3,0-2-0.8-2-2.3V65.3L221.8,65.3z"/>
	<path class="st0" d="M242.2,56.3l-4.2,0.8c-2.6,0.5-4,2.4-4,5.2v6.3c0,2.2,1.5,4,4.5,4c2.9,0,4.5-1.8,4.5-4v-3.5c0-2.3-1.3-4-4-4
		c-1.4,0-2.4,0.5-3.1,1.3h0v-0.2c0-1.6,0.6-2.8,2.6-3.1l2.2-0.3c0.7-0.1,1.4-0.3,1.8-0.6L242.2,56.3L242.2,56.3z M236.5,65.3
		c0-1.5,0.6-2.4,2-2.4c1.4,0,2,0.8,2,2.4v3.2c0,1.5-0.6,2.3-2,2.3c-1.3,0-2-0.8-2-2.3V65.3L236.5,65.3z"/>
	<polygon class="st0" points="255.9,61.3 251.4,69.5 251.4,69.5 251.4,61.3 249.1,61.3 249.1,72.5 251.4,72.5 255.8,64.4 
		255.9,64.4 255.9,72.5 258.2,72.5 258.2,61.3 255.9,61.3 	"/>
	<path class="st0" d="M273.7,72.5V61.3h-7.5l-0.4,7.2c-0.1,1.8-0.6,2.4-1.7,2.4h-0.5v1.5c0.3,0.1,0.8,0.2,1.2,0.2
		c1.8,0,3.1-0.9,3.2-3.5l0.4-5.9h2.8v9.3H273.7L273.7,72.5z"/>
	<polygon class="st0" points="287,61.3 282.6,69.5 282.5,69.5 282.5,61.3 280.2,61.3 280.2,72.5 282.5,72.5 287,64.4 287,64.4 
		287,72.5 289.3,72.5 289.3,61.3 287,61.3 	"/>
	<path class="st1" d="M392.5,20.8l0-20.8L34.2,14.9L392.5,20.8L392.5,20.8z M352,18.3c-0.9-0.3-1.7-0.9-2.1-1.9l0,0.1l-3.4,0
		l-0.2-0.2c-1.2-1.6-0.9-3.1-0.6-5.1l0.1-0.5l0.3-0.1c0.4-0.2,0.7-0.3,0.8-0.4v0c0.1-0.2,0.1-0.6,0.1-1.3l0-0.3l2.8-1.4v0
		c1.2-0.6,2.6-1.2,4-1.8c1.4-0.6,2.9-1,4.2-1.3c3.3-0.8,6.9-1.2,10.5-0.8c3,0.4,5.9,1.3,8.4,3c0.4,0.3,0.7,0.5,0.9,0.7
		c0.1,0.1,0.2,0.2,0.3,0.2c0.1,0,0.2,0,0.6,0c0.2,0,0.4,0,0.7,0c1.6,0,3.3,0.2,4.9,0.5c1.6,0.3,3.1,0.9,4.4,1.8
		c1.4,0.9,1.4,1.3,1.2,2.4c-0.1,0.5-0.2,1.2-0.1,2.2c0,0.1,0,0.3,0.1,0.5c0.1,0.4,0.1,0.9,0.1,1.2l0,0.4l-4.7,0.5L385,16l0,0
		c-0.3,0.8-0.9,1.5-1.8,2c-0.7,0.4-1.6,0.6-2.6,0.4c-0.1,0-0.1,0-0.2-0.1c-0.8-0.2-1.5-0.7-1.9-1.4c-0.1-0.2-0.2-0.3-0.3-0.5v0
		l-22,0l0-0.3c-0.2,0.8-0.8,1.5-1.5,1.8c-0.4,0.2-0.9,0.4-1.4,0.4C352.9,18.5,352.5,18.4,352,18.3L352,18.3z"/>
	<polygon class="st1" points="19.7,14.9 0.1,13 0.1,16.3 19.7,14.9 	"/>
	<path class="st2" d="M0,21.3v26.9h17.3v-5.5h-11V21.3H0L0,21.3z M392.5,33.1c-1.2-2.8-3.9-4.6-7.8-4.6c-5.1,0-8,2.7-8,6.1
		c0,6.9,10.3,5.5,10.3,8.4c0,1.1-0.8,1.8-2.5,1.8c-1.6,0-3.3-0.8-4.4-2.4l-3.7,1.8c1.7,3,4.4,4.5,8.2,4.5c4.6,0,7.9-2.8,7.9-6.3
		c0-6.8-10.3-5.5-10.3-8.3c0-1,0.8-1.6,2.6-1.6c1.6,0,2.9,0.6,3.8,2.1L392.5,33.1L392.5,33.1z M371.8,33.4c-1.4-3.1-4.3-4.8-8-4.8
		c-5.8,0-8.8,3.5-8.8,7.7v4.9c0,4,2.9,7.6,8.8,7.6c4.1,0,6.7-1.8,8.2-4.9l-4.1-1.6c-0.7,1.5-1.8,2.2-3.4,2.2c-2.2,0-3.5-1.1-3.5-3.7
		v-4.2c0-2.6,1.3-3.5,3.5-3.5c1.5,0,2.7,0.6,3.4,2.1L371.8,33.4L371.8,33.4z M44.9,41.7c5.7,0,8.4-2.2,8.4-6.3
		c0-1.2-0.2-2.3-0.7-3.2c1-0.9,1.7-2.3,1.9-3.9L52,27.3c-0.4,0.9-1.2,1.8-2.3,2.4c-1.3-0.5-2.9-0.8-4.9-0.8c-5.5,0-8.2,2.2-8.2,6.5
		c0,2.1,0.7,3.7,2,4.7C36.9,41,36,42.3,36,43.7c0,1.3,0.7,2.5,1.9,3.3c-0.9,0.8-1.3,1.9-1.3,3c0,2.6,2,4.8,8.4,4.8
		c6.2,0,9.6-2.3,9.6-6.3c0-3-2-5.1-7.3-5.1h-4.8c-1.4,0-1.9-0.3-1.9-0.9c0-0.4,0.3-0.7,0.9-1C42.4,41.6,43.6,41.7,44.9,41.7
		L44.9,41.7z M42.2,35.4c0-2.1,0.7-2.7,2.8-2.7c2.2,0,2.9,0.5,2.9,2.7c0,2.2-0.7,2.6-2.9,2.6C42.8,38.1,42.2,37.6,42.2,35.4
		L42.2,35.4z M46.9,47.8c2.1,0,2.7,0.4,2.7,1.4c0,1-0.6,1.9-4.3,1.9c-2.9,0-4-0.5-4-1.7c0-0.7,0.2-1.2,0.7-1.6H46.9L46.9,47.8z
		 M66.4,35.1c0.7-0.9,1.9-1.6,3.5-1.6c2,0,3,1.1,3,3.5v11.2h5.9V36.8c0-4.8-2.4-7.9-6.9-7.9c-2.2,0-4,0.6-5.4,1.9h-0.1V20.5h-5.8
		v27.7h5.8V35.1L66.4,35.1z M96.6,29.2h-4.5v-5.4h-4l-1.5,5.2l-2.8,0.2v3.5l2.4,0.8v8.1c0,4.4,1.6,6.8,6.2,6.8c1.6,0,3-0.3,4.2-0.9
		l-0.4-3.5c-0.5,0.1-1.1,0.2-1.6,0.2c-1.6,0-2.5-0.8-2.5-2.4v-8.7h4.5V29.2L96.6,29.2z M108.7,35.1c0.7-0.9,1.9-1.6,3.5-1.6
		c2,0,3,1.1,3,3.5v11.2h5.9V36.8c0-4.8-2.4-7.9-6.9-7.9c-2.2,0-4,0.6-5.4,1.9h-0.1V20.5h-5.8v27.7h5.8V35.1L108.7,35.1z M145.4,36.4
		c0-4.1-3-7.5-9.2-7.5c-6.1,0-9.1,3.5-9.1,7.5v4.8c0,4,3.1,7.4,9.1,7.4c6.1,0,9.2-3.5,9.2-7.4V36.4L145.4,36.4z M132.9,36.7
		c0-2.4,1-3.6,3.3-3.6c2.3,0,3.4,1.3,3.4,3.6v4.2c0,2.4-1,3.6-3.4,3.6c-2.2,0-3.3-1.2-3.3-3.6V36.7L132.9,36.7z M163.8,42.6
		c-0.7,0.9-1.9,1.6-3.5,1.6c-2,0-3-1.1-3-3.5V29.2h-5.9v11.4c0,4.8,2.5,7.9,6.9,7.9c2.4,0,4.3-0.7,5.8-2.1h0.1l0.2,1.7h5.2v-19h-5.8
		V42.6L163.8,42.6z M191.3,33.4c-1.2-2.7-3.8-4.5-7.6-4.5c-5,0-7.8,2.6-7.8,5.9c0,6.7,10,5.4,10,8.2c0,1.1-0.8,1.7-2.5,1.7
		c-1.5,0-3.2-0.7-4.3-2.3l-3.6,1.8c1.6,3,4.3,4.3,8,4.3c4.5,0,7.7-2.7,7.7-6.2c0-6.6-10-5.4-10-8.1c0-0.9,0.7-1.6,2.5-1.6
		c1.5,0,2.8,0.6,3.7,2L191.3,33.4L191.3,33.4z M213.9,39.7v-3.1c0-4.2-3-7.7-8.5-7.7c-5.8,0-8.7,3.5-8.7,7.4V41
		c0,4.3,3.2,7.5,8.8,7.5c4.5,0,7.1-1.6,8.4-4.8l-4-1.6c-0.9,1.6-1.9,2.3-3.7,2.3c-2.4,0-3.7-1.2-3.7-3.6v-1.1H213.9L213.9,39.7z
		 M202.6,35.9c0-1.9,0.9-3,3.1-3c2,0,3.1,1,3.1,2.9v0.8h-6.2V35.9L202.6,35.9z M220.8,21.3v26.9h17.3v-5.5h-11V21.3H220.8
		L220.8,21.3z M260.8,36.4c0-4.1-3-7.5-9.2-7.5c-6.1,0-9.1,3.5-9.1,7.5v4.8c0,4,3.1,7.4,9.1,7.4c6.1,0,9.2-3.5,9.2-7.4V36.4
		L260.8,36.4z M248.3,36.7c0-2.4,1-3.6,3.3-3.6c2.3,0,3.4,1.3,3.4,3.6v4.2c0,2.4-1,3.6-3.4,3.6c-2.2,0-3.3-1.2-3.3-3.6V36.7
		L248.3,36.7z M275.2,41.7c5.7,0,8.4-2.2,8.4-6.3c0-1.2-0.2-2.3-0.7-3.2c1-0.9,1.7-2.3,1.9-3.9l-2.6-1.1c-0.4,0.9-1.2,1.8-2.3,2.4
		c-1.3-0.5-2.9-0.8-4.9-0.8c-5.5,0-8.2,2.2-8.2,6.5c0,2.1,0.7,3.7,2,4.7c-1.8,0.9-2.7,2.2-2.7,3.6c0,1.3,0.7,2.5,1.9,3.3
		c-0.9,0.8-1.3,1.9-1.3,3c0,2.6,2,4.8,8.4,4.8c6.2,0,9.6-2.3,9.6-6.3c0-3-2-5.1-7.3-5.1h-4.8c-1.4,0-1.9-0.3-1.9-0.9
		c0-0.4,0.3-0.7,0.9-1C272.7,41.6,273.9,41.7,275.2,41.7L275.2,41.7z M272.5,35.4c0-2.1,0.7-2.7,2.8-2.7c2.2,0,2.9,0.5,2.9,2.7
		c0,2.2-0.7,2.6-2.9,2.6C273.1,38.1,272.5,37.6,272.5,35.4L272.5,35.4z M277.2,47.8c2.1,0,2.7,0.4,2.7,1.4c0,1-0.6,1.9-4.3,1.9
		c-2.9,0-4-0.5-4-1.7c0-0.7,0.2-1.2,0.7-1.6H277.2L277.2,47.8z M291.1,29.2v19h5.8v-19H291.1L291.1,29.2z M291.3,21.3v4.8h5.3v-4.8
		H291.3L291.3,21.3z M318.9,33.4c-1.2-2.7-3.8-4.5-7.6-4.5c-5,0-7.8,2.6-7.8,5.9c0,6.7,10,5.4,10,8.2c0,1.1-0.8,1.7-2.5,1.7
		c-1.5,0-3.2-0.7-4.3-2.3l-3.6,1.8c1.6,3,4.3,4.3,8,4.3c4.5,0,7.7-2.7,7.7-6.2c0-6.6-10-5.4-10-8.1c0-0.9,0.7-1.6,2.5-1.6
		c1.5,0,2.8,0.6,3.7,2L318.9,33.4L318.9,33.4z M336.2,29.2h-4.5v-5.4h-4l-1.5,5.2l-2.7,0.2v3.5l2.4,0.8v8.1c0,4.4,1.6,6.8,6.2,6.8
		c1.6,0,3-0.3,4.2-0.9l-0.4-3.5c-0.5,0.1-1.1,0.2-1.6,0.2c-1.6,0-2.5-0.8-2.5-2.4v-8.7h4.5V29.2L336.2,29.2z M342.7,29.2v19h5.8v-19
		H342.7L342.7,29.2z M342.9,21.3v4.8h5.3v-4.8H342.9L342.9,21.3z M27.2,5.9l-0.5-4.1l-0.4,4.1c0.1-0.1,0.3-0.1,0.4-0.1
		S27,5.8,27.2,5.9L27.2,5.9z M24.6,27.8c0-1.9-0.3-4.8,2.2-4.9c1.8,0,2.1,1.7,2.2,3.5c0,1.4-0.1,2.9-0.1,3.9l-4.3,0L24.6,27.8
		L24.6,27.8z M26.7,6.2c0.7,0,1.2,0.6,1.4,1.3c-0.4-0.2-0.8-0.4-1.4-0.3c-0.6,0-1,0.2-1.4,0.4C25.4,6.8,26,6.2,26.7,6.2L26.7,6.2z
		 M28.8,13.3c-0.1,0-0.2,0.1-0.4,0.1l0,2.6l0.8,0.2L28.8,13.3L28.8,13.3z M27.8,13.5c-0.2,0-0.5,0-0.7,0l0,2.3l0.8,0V13.5L27.8,13.5
		z M26.6,13.5c-0.3,0-0.5,0-0.8,0v2.4l0.8-0.1L26.6,13.5L26.6,13.5z M25.2,13.4c-0.2,0-0.3,0-0.5-0.1l-0.3,2.9l0.8-0.3L25.2,13.4
		L25.2,13.4z M31,11.4c0,0.7-0.3,1.1-0.7,1.4c0.2,0.3,0.6,0.5,1,0.5l0,0l0.1,3.9v0c0,0.8-0.4,1.3-1.1,1.6l0,0l1.3,29.4
		c-7.5,0-2.2,0-9.9,0l1.9-29.3c-0.8-0.3-1.3-0.8-1.3-1.7c0-0.9,0.1-2.7,0.1-3.9l0,0c0,0,0,0,0,0c0.4,0,0.8-0.2,1-0.4
		c-0.5-0.3-0.8-0.8-0.8-1.5v0v0v0l0,0c1.3-1,1.7-3.9,4-3.9C28.9,7.5,29.4,9.6,31,11.4L31,11.4z M22.9,13.9l1.3,0l-0.3,2.9l-0.9,0.4
		L22.9,13.9L22.9,13.9z M30.8,13.9l0,3.2L30,16.7l-0.4-2.9L30.8,13.9L30.8,13.9z"/>
</g>
</svg>
