<?xml version="1.0" encoding="utf-8"?>
<!-- Generator: Adobe Illustrator 21.0.0, SVG Export Plug-In . SVG Version: 6.00 Build 0)  -->
<svg version="1.1" id="Слой_1" xmlns="http://www.w3.org/2000/svg" xmlns:xlink="http://www.w3.org/1999/xlink" x="0px" y="0px"
	 viewBox="0 0 409.6 307.2" style="enable-background:new 0 0 409.6 307.2;" xml:space="preserve">
<style type="text/css">
	.st0{fill:#f77e3e;}
</style>
<path class="st0" d="M409.6,256c0,9-2.5,17.3-6.6,24.6L273.7,135.9L401.6,24c5,7.9,8,17.2,8,27.2V256z"/>
<path class="st0" d="M204.8,162.2l178-155.8c-7.3-4-15.5-6.4-24.4-6.4H51.2c-8.9,0-17.1,2.4-24.4,6.4L204.8,162.2z"/>
<path class="st0" d="M254.4,152.8l-41.2,36.1c-2.4,2.1-5.4,3.1-8.4,3.1c-3,0-6-1.1-8.4-3.2l-41.2-36.1l-131,146.6
	c7.9,4.9,17.1,7.9,27,7.9h307.2c10,0,19.2-2.9,27-7.9L254.4,152.8z"/>
<path class="st0" d="M8,24c-5,7.9-8,17.2-8,27.2V256c0,9,2.5,17.3,6.6,24.6l129.3-144.7L8,24z"/>
<path class="st0" d="M8,24"/>
</svg>
