<?xml version="1.0" encoding="utf-8"?>
<!-- Generator: Adobe Illustrator 21.0.0, SVG Export Plug-In . SVG Version: 6.00 Build 0)  -->
<svg version="1.1" id="Capa_1" xmlns="http://www.w3.org/2000/svg" xmlns:xlink="http://www.w3.org/1999/xlink" x="0px" y="0px"
	 viewBox="0 0 14 20" style="enable-background:new 0 0 14 20;" xml:space="preserve">
<style type="text/css">
	.st0{fill:#F77E3E;}
</style>
<g>
	<g>
		<path id="Facebook_Places_8_" class="st0" d="M13.7,5c-0.1-0.3-0.2-0.6-0.3-0.8C12,1.1,9.2,0,6.9,0C3.8,0,0.5,2,0,6.2v0.9
			c0,0,0,0.4,0,0.5c0.3,2,1.8,4.1,3,6.1C4.4,15.8,5.7,17.9,7,20c0.8-1.4,1.6-2.8,2.4-4.1c0.2-0.4,0.5-0.8,0.7-1.2
			c0.1-0.2,0.4-0.5,0.5-0.7c1.3-2.3,3.3-4.6,3.3-6.9V6.2C14,5.9,13.7,5,13.7,5z M7,9.3c-0.9,0-1.9-0.4-2.4-1.7C4.5,7.4,4.5,7,4.5,7
			V6.4c0-1.6,1.3-2.3,2.5-2.3c1.4,0,2.6,1.1,2.6,2.6C9.6,8.1,8.4,9.3,7,9.3z"/>
	</g>
</g>
</svg>
